<svg width="227" height="227" viewBox="0 0 227 227" fill="none" xmlns="http://www.w3.org/2000/svg">
<rect width="226.456" height="226.456" rx="13.5874" fill="#333333"/>
<path d="M66.8013 130C66.5453 130 66.3053 129.904 66.0813 129.712C65.8893 129.488 65.7933 129.248 65.7933 128.992C65.7933 128.832 65.8093 128.688 65.8413 128.56L77.1213 97.744C77.2173 97.392 77.4093 97.088 77.6973 96.832C78.0173 96.544 78.4493 96.4 78.9933 96.4H86.0973C86.6413 96.4 87.0573 96.544 87.3453 96.832C87.6653 97.088 87.8733 97.392 87.9693 97.744L99.2013 128.56C99.2653 128.688 99.2973 128.832 99.2973 128.992C99.2973 129.248 99.1853 129.488 98.9613 129.712C98.7693 129.904 98.5293 130 98.2413 130H92.3373C91.8573 130 91.4893 129.888 91.2333 129.664C91.0093 129.408 90.8653 129.184 90.8013 128.992L88.9293 124.096H76.1133L74.2893 128.992C74.2253 129.184 74.0813 129.408 73.8573 129.664C73.6333 129.888 73.2493 130 72.7053 130H66.8013ZM78.0813 117.184H87.0093L82.4973 104.512L78.0813 117.184ZM111.583 130.48C110.047 130.48 108.655 130.24 107.407 129.76C106.191 129.248 105.135 128.512 104.239 127.552C103.375 126.56 102.703 125.376 102.223 124C101.743 122.592 101.471 120.992 101.407 119.2C101.375 118.56 101.359 118 101.359 117.52C101.359 117.008 101.375 116.448 101.407 115.84C101.471 114.112 101.743 112.56 102.223 111.184C102.703 109.808 103.375 108.624 104.239 107.632C105.103 106.64 106.159 105.888 107.407 105.376C108.655 104.832 110.047 104.56 111.583 104.56C113.183 104.56 114.559 104.832 115.711 105.376C116.863 105.888 117.839 106.56 118.639 107.392V97.12C118.639 96.768 118.751 96.48 118.975 96.256C119.199 96.032 119.487 95.92 119.839 95.92H125.695C126.015 95.92 126.287 96.032 126.511 96.256C126.767 96.48 126.895 96.768 126.895 97.12V128.8C126.895 129.152 126.767 129.44 126.511 129.664C126.287 129.888 126.015 130 125.695 130H120.271C119.919 130 119.631 129.888 119.407 129.664C119.183 129.44 119.071 129.152 119.071 128.8V127.264C118.303 128.192 117.311 128.96 116.095 129.568C114.879 130.176 113.375 130.48 111.583 130.48ZM114.175 124.048C115.263 124.048 116.111 123.824 116.719 123.376C117.359 122.896 117.823 122.288 118.111 121.552C118.431 120.816 118.607 120.016 118.639 119.152C118.671 118.512 118.687 117.904 118.687 117.328C118.687 116.752 118.671 116.16 118.639 115.552C118.607 114.752 118.431 114.016 118.111 113.344C117.791 112.64 117.311 112.08 116.671 111.664C116.031 111.216 115.199 110.992 114.175 110.992C113.119 110.992 112.271 111.216 111.631 111.664C111.023 112.112 110.591 112.72 110.335 113.488C110.079 114.256 109.919 115.104 109.855 116.032C109.759 117.024 109.759 118.016 109.855 119.008C109.919 119.936 110.079 120.784 110.335 121.552C110.591 122.32 111.023 122.928 111.631 123.376C112.271 123.824 113.119 124.048 114.175 124.048ZM141.865 130.48C140.329 130.48 138.937 130.24 137.689 129.76C136.473 129.248 135.417 128.512 134.521 127.552C133.657 126.56 132.985 125.376 132.505 124C132.025 122.592 131.753 120.992 131.689 119.2C131.657 118.56 131.641 118 131.641 117.52C131.641 117.008 131.657 116.448 131.689 115.84C131.753 114.112 132.025 112.56 132.505 111.184C132.985 109.808 133.657 108.624 134.521 107.632C135.385 106.64 136.441 105.888 137.689 105.376C138.937 104.832 140.329 104.56 141.865 104.56C143.465 104.56 144.841 104.832 145.993 105.376C147.145 105.888 148.121 106.56 148.921 107.392V97.12C148.921 96.768 149.033 96.48 149.257 96.256C149.481 96.032 149.769 95.92 150.121 95.92H155.977C156.297 95.92 156.569 96.032 156.793 96.256C157.049 96.48 157.177 96.768 157.177 97.12V128.8C157.177 129.152 157.049 129.44 156.793 129.664C156.569 129.888 156.297 130 155.977 130H150.553C150.201 130 149.913 129.888 149.689 129.664C149.465 129.44 149.353 129.152 149.353 128.8V127.264C148.585 128.192 147.593 128.96 146.377 129.568C145.161 130.176 143.657 130.48 141.865 130.48ZM144.457 124.048C145.545 124.048 146.393 123.824 147.001 123.376C147.641 122.896 148.105 122.288 148.393 121.552C148.713 120.816 148.889 120.016 148.921 119.152C148.953 118.512 148.969 117.904 148.969 117.328C148.969 116.752 148.953 116.16 148.921 115.552C148.889 114.752 148.713 114.016 148.393 113.344C148.073 112.64 147.593 112.08 146.953 111.664C146.313 111.216 145.481 110.992 144.457 110.992C143.401 110.992 142.553 111.216 141.913 111.664C141.305 112.112 140.873 112.72 140.617 113.488C140.361 114.256 140.201 115.104 140.137 116.032C140.041 117.024 140.041 118.016 140.137 119.008C140.201 119.936 140.361 120.784 140.617 121.552C140.873 122.32 141.305 122.928 141.913 123.376C142.553 123.824 143.401 124.048 144.457 124.048Z" fill="white"/>
</svg>
