<svg width="175" height="43" viewBox="0 0 175 43" fill="none" xmlns="http://www.w3.org/2000/svg">
<path d="M0.843596 1.02685C-0.281199 1.64719 -0.281199 2.65295 0.843597 3.27329L70.0888 41.4628C71.2135 42.0831 73.0372 42.0831 74.162 41.4628L75.1803 40.9012C76.3051 40.2809 76.3051 39.2751 75.1803 38.6548L5.93515 0.46524C4.81036 -0.155098 2.9867 -0.155098 1.86191 0.46524L0.843596 1.02685Z" fill="white"/>
<path d="M173.43 1.72293C174.555 2.34327 174.555 3.34903 173.43 3.96937L104.185 42.1589C103.06 42.7792 101.236 42.7792 100.111 42.1589L99.0932 41.5973C97.9684 40.9769 97.9684 39.9712 99.0932 39.3508L168.338 1.16132C169.463 0.540985 171.287 0.540985 172.412 1.16132L173.43 1.72293Z" fill="white"/>
</svg>
