<svg width="228" height="294" viewBox="0 0 228 294" fill="none" xmlns="http://www.w3.org/2000/svg">
<path d="M41.44 282C41.184 282 40.944 281.904 40.72 281.712C40.528 281.488 40.432 281.248 40.432 280.992C40.432 280.832 40.448 280.688 40.48 280.56L51.76 249.744C51.856 249.392 52.048 249.088 52.336 248.832C52.656 248.544 53.088 248.4 53.632 248.4H60.736C61.28 248.4 61.696 248.544 61.984 248.832C62.304 249.088 62.512 249.392 62.608 249.744L73.84 280.56C73.904 280.688 73.936 280.832 73.936 280.992C73.936 281.248 73.824 281.488 73.6 281.712C73.408 281.904 73.168 282 72.88 282H66.976C66.496 282 66.128 281.888 65.872 281.664C65.648 281.408 65.504 281.184 65.44 280.992L63.568 276.096H50.752L48.928 280.992C48.864 281.184 48.72 281.408 48.496 281.664C48.272 281.888 47.888 282 47.344 282H41.44ZM52.72 269.184H61.648L57.136 256.512L52.72 269.184ZM78.3914 282C78.0394 282 77.7514 281.888 77.5274 281.664C77.3034 281.44 77.1914 281.152 77.1914 280.8V258.24C77.1914 257.888 77.3034 257.6 77.5274 257.376C77.7514 257.152 78.0394 257.04 78.3914 257.04H83.9114C84.2634 257.04 84.5514 257.152 84.7754 257.376C84.9994 257.6 85.1114 257.888 85.1114 258.24V260.064C85.9434 259.072 87.0314 258.24 88.3754 257.568C89.7194 256.896 91.3034 256.56 93.1274 256.56C94.9834 256.56 96.6154 256.976 98.0234 257.808C99.4634 258.64 100.583 259.872 101.383 261.504C102.215 263.104 102.631 265.072 102.631 267.408V280.8C102.631 281.152 102.503 281.44 102.247 281.664C102.023 281.888 101.751 282 101.431 282H95.3834C95.0634 282 94.7754 281.888 94.5194 281.664C94.2954 281.44 94.1834 281.152 94.1834 280.8V267.696C94.1834 266.192 93.8154 265.04 93.0794 264.24C92.3754 263.408 91.3194 262.992 89.9114 262.992C88.5994 262.992 87.5434 263.408 86.7434 264.24C85.9754 265.04 85.5914 266.192 85.5914 267.696V280.8C85.5914 281.152 85.4634 281.44 85.2074 281.664C84.9834 281.888 84.7114 282 84.3914 282H78.3914ZM120.228 292.56C117.764 292.56 115.716 292.24 114.084 291.6C112.484 290.96 111.204 290.192 110.244 289.296C109.316 288.4 108.644 287.504 108.228 286.608C107.812 285.744 107.588 285.056 107.556 284.544C107.524 284.192 107.636 283.904 107.892 283.68C108.148 283.456 108.452 283.344 108.804 283.344H114.9C115.188 283.344 115.428 283.408 115.62 283.536C115.844 283.696 116.02 283.952 116.148 284.304C116.308 284.656 116.516 285.024 116.772 285.408C117.06 285.792 117.444 286.096 117.924 286.32C118.436 286.576 119.124 286.704 119.988 286.704C120.948 286.704 121.748 286.544 122.388 286.224C123.028 285.936 123.508 285.44 123.828 284.736C124.148 284.064 124.308 283.152 124.308 282V278.784C123.572 279.584 122.628 280.24 121.476 280.752C120.324 281.232 118.932 281.472 117.3 281.472C115.668 281.472 114.228 281.232 112.98 280.752C111.732 280.272 110.692 279.552 109.86 278.592C109.028 277.632 108.372 276.464 107.892 275.088C107.444 273.712 107.172 272.128 107.076 270.336C107.044 269.504 107.044 268.672 107.076 267.84C107.172 266.112 107.444 264.56 107.892 263.184C108.34 261.808 108.98 260.624 109.812 259.632C110.676 258.64 111.732 257.888 112.98 257.376C114.228 256.832 115.668 256.56 117.3 256.56C119.028 256.56 120.5 256.896 121.716 257.568C122.964 258.208 123.988 259.024 124.788 260.016V258.24C124.788 257.92 124.9 257.648 125.124 257.424C125.348 257.168 125.636 257.04 125.988 257.04H131.508C131.86 257.04 132.148 257.168 132.372 257.424C132.628 257.648 132.756 257.92 132.756 258.24V281.328C132.756 283.76 132.26 285.808 131.268 287.472C130.276 289.136 128.852 290.4 126.996 291.264C125.14 292.128 122.884 292.56 120.228 292.56ZM119.892 275.232C120.916 275.232 121.748 275.008 122.388 274.56C123.028 274.112 123.492 273.536 123.78 272.832C124.1 272.128 124.276 271.376 124.308 270.576C124.34 270.224 124.356 269.728 124.356 269.088C124.356 268.448 124.34 267.968 124.308 267.648C124.276 266.816 124.1 266.048 123.78 265.344C123.492 264.64 123.028 264.08 122.388 263.664C121.748 263.216 120.916 262.992 119.892 262.992C118.836 262.992 117.988 263.216 117.348 263.664C116.74 264.112 116.292 264.72 116.004 265.488C115.748 266.256 115.588 267.104 115.524 268.032C115.492 268.736 115.492 269.456 115.524 270.192C115.588 271.12 115.748 271.968 116.004 272.736C116.292 273.504 116.74 274.112 117.348 274.56C117.988 275.008 118.836 275.232 119.892 275.232ZM139.61 282C139.258 282 138.97 281.888 138.746 281.664C138.522 281.44 138.41 281.152 138.41 280.8V258.24C138.41 257.92 138.522 257.648 138.746 257.424C138.97 257.168 139.258 257.04 139.61 257.04H145.13C145.482 257.04 145.77 257.168 145.994 257.424C146.218 257.648 146.33 257.92 146.33 258.24V260.16C147.194 259.168 148.218 258.4 149.402 257.856C150.618 257.312 151.978 257.04 153.482 257.04H155.594C155.914 257.04 156.186 257.152 156.41 257.376C156.666 257.6 156.794 257.888 156.794 258.24V263.184C156.794 263.504 156.666 263.792 156.41 264.048C156.186 264.272 155.914 264.384 155.594 264.384H150.938C149.626 264.384 148.602 264.752 147.866 265.488C147.162 266.192 146.81 267.2 146.81 268.512V280.8C146.81 281.152 146.682 281.44 146.426 281.664C146.202 281.888 145.914 282 145.562 282H139.61ZM164.863 291.12C164.575 291.12 164.335 291.024 164.143 290.832C163.951 290.64 163.855 290.4 163.855 290.112C163.855 290.048 163.855 289.952 163.855 289.824C163.887 289.728 163.935 289.616 163.999 289.488L167.743 280.464L158.527 258.672C158.431 258.448 158.383 258.256 158.383 258.096C158.447 257.808 158.575 257.568 158.767 257.376C158.959 257.152 159.199 257.04 159.487 257.04H164.959C165.375 257.04 165.679 257.152 165.871 257.376C166.095 257.568 166.239 257.792 166.303 258.048L171.823 272.016L177.439 258.048C177.567 257.792 177.727 257.568 177.919 257.376C178.143 257.152 178.463 257.04 178.879 257.04H184.255C184.543 257.04 184.783 257.152 184.975 257.376C185.199 257.568 185.311 257.792 185.311 258.048C185.311 258.208 185.263 258.416 185.167 258.672L171.583 290.112C171.487 290.368 171.327 290.592 171.103 290.784C170.879 291.008 170.559 291.12 170.143 291.12H164.863Z" fill="black"/>
<rect x="0.908203" width="226.456" height="226.456" rx="13.5874" fill="#4F4F4F"/>
<path d="M27.8436 102.027C26.7188 102.647 26.7188 103.653 27.8436 104.273L97.0888 142.463C98.2135 143.083 100.037 143.083 101.162 142.463L102.18 141.901C103.305 141.281 103.305 140.275 102.18 139.655L32.9352 101.465C31.8104 100.845 29.9867 100.845 28.8619 101.465L27.8436 102.027Z" fill="white"/>
<path d="M200.43 102.723C201.555 103.343 201.555 104.349 200.43 104.969L131.185 143.159C130.06 143.779 128.236 143.779 127.111 143.159L126.093 142.597C124.968 141.977 124.968 140.971 126.093 140.351L195.338 102.161C196.463 101.541 198.287 101.541 199.412 102.161L200.43 102.723Z" fill="white"/>
</svg>
