<svg width="227" height="227" viewBox="0 0 227 227" fill="none" xmlns="http://www.w3.org/2000/svg">
<rect width="226.456" height="226.456" rx="13.5874" fill="black"/>
<path d="M50.56 130C50.208 130 49.92 129.888 49.696 129.664C49.472 129.44 49.36 129.152 49.36 128.8V97.6C49.36 97.248 49.472 96.96 49.696 96.736C49.92 96.512 50.208 96.4 50.56 96.4H65.2C67.952 96.4 70.208 96.784 71.968 97.552C73.728 98.32 75.024 99.424 75.856 100.864C76.72 102.272 77.152 103.952 77.152 105.904C77.152 107.056 76.928 108.08 76.48 108.976C76.064 109.84 75.536 110.56 74.896 111.136C74.288 111.712 73.712 112.128 73.168 112.384C74.384 112.96 75.456 113.904 76.384 115.216C77.344 116.528 77.824 118.064 77.824 119.824C77.824 121.936 77.344 123.76 76.384 125.296C75.456 126.8 74.08 127.968 72.256 128.8C70.464 129.6 68.256 130 65.632 130H50.56ZM57.952 123.76H64.672C66.048 123.76 67.088 123.36 67.792 122.56C68.496 121.76 68.848 120.848 68.848 119.824C68.848 118.704 68.48 117.76 67.744 116.992C67.04 116.224 66.016 115.84 64.672 115.84H57.952V123.76ZM57.952 109.744H64.24C65.552 109.744 66.528 109.408 67.168 108.736C67.84 108.064 68.176 107.2 68.176 106.144C68.176 105.12 67.84 104.288 67.168 103.648C66.528 102.976 65.552 102.64 64.24 102.64H57.952V109.744ZM83.8289 130C83.4769 130 83.1889 129.888 82.9649 129.664C82.7409 129.44 82.6289 129.152 82.6289 128.8V97.12C82.6289 96.768 82.7409 96.48 82.9649 96.256C83.1889 96.032 83.4769 95.92 83.8289 95.92H89.4929C89.8449 95.92 90.1329 96.032 90.3569 96.256C90.5809 96.48 90.6929 96.768 90.6929 97.12V128.8C90.6929 129.152 90.5809 129.44 90.3569 129.664C90.1329 129.888 89.8449 130 89.4929 130H83.8289ZM103.851 130.48C102.123 130.48 100.571 130.16 99.1953 129.52C97.8513 128.848 96.7793 127.952 95.9793 126.832C95.1793 125.712 94.7793 124.448 94.7793 123.04C94.7793 120.768 95.7073 118.976 97.5633 117.664C99.4193 116.32 101.883 115.408 104.955 114.928L110.955 114.016V113.344C110.955 112.192 110.715 111.312 110.235 110.704C109.755 110.096 108.875 109.792 107.595 109.792C106.699 109.792 105.963 109.968 105.387 110.32C104.843 110.672 104.411 111.152 104.091 111.76C103.803 112.176 103.403 112.384 102.891 112.384H97.5153C97.1633 112.384 96.8913 112.288 96.6992 112.096C96.5073 111.872 96.4273 111.616 96.4593 111.328C96.4593 110.752 96.6673 110.096 97.0833 109.36C97.5313 108.592 98.2033 107.84 99.0993 107.104C99.9953 106.368 101.147 105.76 102.555 105.28C103.963 104.8 105.659 104.56 107.643 104.56C109.723 104.56 111.499 104.8 112.971 105.28C114.443 105.76 115.627 106.432 116.523 107.296C117.451 108.16 118.139 109.184 118.587 110.368C119.035 111.52 119.259 112.8 119.259 114.208V128.8C119.259 129.152 119.131 129.44 118.875 129.664C118.651 129.888 118.379 130 118.059 130H112.491C112.139 130 111.851 129.888 111.627 129.664C111.403 129.44 111.291 129.152 111.291 128.8V127.12C110.875 127.728 110.315 128.288 109.611 128.8C108.907 129.312 108.075 129.712 107.115 130C106.187 130.32 105.099 130.48 103.851 130.48ZM106.107 125.008C107.035 125.008 107.867 124.816 108.603 124.432C109.371 124.016 109.963 123.392 110.379 122.56C110.827 121.696 111.051 120.624 111.051 119.344V118.672L106.971 119.392C105.467 119.648 104.363 120.048 103.659 120.592C102.987 121.104 102.651 121.712 102.651 122.416C102.651 122.96 102.811 123.424 103.131 123.808C103.451 124.192 103.867 124.496 104.379 124.72C104.891 124.912 105.467 125.008 106.107 125.008ZM136.148 130.48C133.78 130.48 131.684 130.048 129.86 129.184C128.036 128.32 126.58 127.072 125.492 125.44C124.436 123.776 123.86 121.792 123.764 119.488C123.732 118.976 123.716 118.336 123.716 117.568C123.716 116.768 123.732 116.112 123.764 115.6C123.86 113.264 124.436 111.28 125.492 109.648C126.548 107.984 127.988 106.72 129.812 105.856C131.668 104.992 133.78 104.56 136.148 104.56C138.356 104.56 140.244 104.88 141.812 105.52C143.38 106.128 144.66 106.896 145.652 107.824C146.644 108.752 147.38 109.712 147.86 110.704C148.372 111.664 148.644 112.512 148.676 113.248C148.708 113.568 148.596 113.856 148.34 114.112C148.084 114.336 147.796 114.448 147.476 114.448H141.38C141.028 114.448 140.756 114.368 140.564 114.208C140.372 114.048 140.196 113.808 140.036 113.488C139.652 112.496 139.156 111.792 138.548 111.376C137.972 110.96 137.22 110.752 136.292 110.752C135.012 110.752 134.02 111.168 133.316 112C132.644 112.832 132.276 114.112 132.212 115.84C132.18 117.12 132.18 118.256 132.212 119.248C132.276 121.008 132.644 122.288 133.316 123.088C134.02 123.888 135.012 124.288 136.292 124.288C137.284 124.288 138.068 124.08 138.644 123.664C139.22 123.248 139.684 122.544 140.036 121.552C140.196 121.232 140.372 120.992 140.564 120.832C140.756 120.672 141.028 120.592 141.38 120.592H147.476C147.796 120.592 148.084 120.72 148.34 120.976C148.596 121.2 148.708 121.472 148.676 121.792C148.644 122.336 148.484 122.976 148.196 123.712C147.908 124.416 147.46 125.168 146.852 125.968C146.244 126.768 145.444 127.52 144.452 128.224C143.492 128.896 142.324 129.44 140.948 129.856C139.572 130.272 137.972 130.48 136.148 130.48ZM154.188 130C153.836 130 153.548 129.888 153.324 129.664C153.1 129.44 152.988 129.152 152.988 128.8V97.12C152.988 96.768 153.1 96.48 153.324 96.256C153.548 96.032 153.836 95.92 154.188 95.92H159.756C160.076 95.92 160.348 96.032 160.572 96.256C160.828 96.48 160.956 96.768 160.956 97.12V113.2L167.628 105.856C167.82 105.632 168.028 105.44 168.252 105.28C168.476 105.12 168.796 105.04 169.212 105.04H175.644C175.932 105.04 176.172 105.152 176.364 105.376C176.588 105.568 176.7 105.808 176.7 106.096C176.7 106.224 176.668 106.368 176.604 106.528C176.54 106.688 176.444 106.816 176.316 106.912L167.676 116.224L177.516 128.176C177.772 128.432 177.9 128.688 177.9 128.944C177.9 129.232 177.788 129.488 177.564 129.712C177.372 129.904 177.116 130 176.796 130H170.22C169.74 130 169.388 129.92 169.164 129.76C168.94 129.568 168.732 129.376 168.54 129.184L160.956 120.064V128.8C160.956 129.152 160.828 129.44 160.572 129.664C160.348 129.888 160.076 130 159.756 130H154.188Z" fill="white"/>
</svg>
