<svg width="228" height="227" viewBox="0 0 228 227" fill="none" xmlns="http://www.w3.org/2000/svg">
<rect x="0.726562" width="226.456" height="226.456" rx="13.5874" fill="#FFD95D"/>
<path d="M34.56 130C34.208 130 33.92 129.888 33.696 129.664C33.472 129.44 33.36 129.152 33.36 128.8V97.6C33.36 97.248 33.472 96.96 33.696 96.736C33.92 96.512 34.208 96.4 34.56 96.4H49.2C51.952 96.4 54.208 96.784 55.968 97.552C57.728 98.32 59.024 99.424 59.856 100.864C60.72 102.272 61.152 103.952 61.152 105.904C61.152 107.056 60.928 108.08 60.48 108.976C60.064 109.84 59.536 110.56 58.896 111.136C58.288 111.712 57.712 112.128 57.168 112.384C58.384 112.96 59.456 113.904 60.384 115.216C61.344 116.528 61.824 118.064 61.824 119.824C61.824 121.936 61.344 123.76 60.384 125.296C59.456 126.8 58.08 127.968 56.256 128.8C54.464 129.6 52.256 130 49.632 130H34.56ZM41.952 123.76H48.672C50.048 123.76 51.088 123.36 51.792 122.56C52.496 121.76 52.848 120.848 52.848 119.824C52.848 118.704 52.48 117.76 51.744 116.992C51.04 116.224 50.016 115.84 48.672 115.84H41.952V123.76ZM41.952 109.744H48.24C49.552 109.744 50.528 109.408 51.168 108.736C51.84 108.064 52.176 107.2 52.176 106.144C52.176 105.12 51.84 104.288 51.168 103.648C50.528 102.976 49.552 102.64 48.24 102.64H41.952V109.744ZM67.8289 130C67.4769 130 67.1889 129.888 66.9649 129.664C66.7409 129.44 66.6289 129.152 66.6289 128.8V97.12C66.6289 96.768 66.7409 96.48 66.9649 96.256C67.1889 96.032 67.4769 95.92 67.8289 95.92H73.4929C73.8449 95.92 74.1329 96.032 74.3569 96.256C74.5809 96.48 74.6929 96.768 74.6929 97.12V128.8C74.6929 129.152 74.5809 129.44 74.3569 129.664C74.1329 129.888 73.8449 130 73.4929 130H67.8289ZM92.1713 130.48C89.4833 130.48 87.2113 130.048 85.3553 129.184C83.5313 128.32 82.1233 127.088 81.1313 125.488C80.1713 123.856 79.6273 121.92 79.4993 119.68C79.4673 119.04 79.4513 118.32 79.4513 117.52C79.4513 116.688 79.4673 115.968 79.4993 115.36C79.6273 113.088 80.2033 111.152 81.2273 109.552C82.2513 107.952 83.6753 106.72 85.4993 105.856C87.3553 104.992 89.5793 104.56 92.1713 104.56C94.7953 104.56 97.0193 104.992 98.8433 105.856C100.699 106.72 102.139 107.952 103.163 109.552C104.187 111.152 104.763 113.088 104.891 115.36C104.923 115.968 104.939 116.688 104.939 117.52C104.939 118.32 104.923 119.04 104.891 119.68C104.763 121.92 104.203 123.856 103.211 125.488C102.251 127.088 100.843 128.32 98.9873 129.184C97.1633 130.048 94.8913 130.48 92.1713 130.48ZM92.1713 124.624C93.6113 124.624 94.6513 124.192 95.2913 123.328C95.9633 122.464 96.3473 121.168 96.4433 119.44C96.4753 118.96 96.4913 118.32 96.4913 117.52C96.4913 116.72 96.4753 116.08 96.4433 115.6C96.3473 113.904 95.9633 112.624 95.2913 111.76C94.6513 110.864 93.6113 110.416 92.1713 110.416C90.7633 110.416 89.7233 110.864 89.0513 111.76C88.3793 112.624 88.0113 113.904 87.9473 115.6C87.9153 116.08 87.8993 116.72 87.8993 117.52C87.8993 118.32 87.9153 118.96 87.9473 119.44C88.0113 121.168 88.3793 122.464 89.0513 123.328C89.7233 124.192 90.7633 124.624 92.1713 124.624ZM110.86 130C110.508 130 110.22 129.888 109.996 129.664C109.772 129.44 109.66 129.152 109.66 128.8V106.24C109.66 105.888 109.772 105.6 109.996 105.376C110.22 105.152 110.508 105.04 110.86 105.04H116.38C116.732 105.04 117.02 105.152 117.244 105.376C117.468 105.6 117.58 105.888 117.58 106.24V108.064C118.412 107.072 119.5 106.24 120.844 105.568C122.188 104.896 123.772 104.56 125.596 104.56C127.452 104.56 129.084 104.976 130.492 105.808C131.932 106.64 133.052 107.872 133.852 109.504C134.684 111.104 135.1 113.072 135.1 115.408V128.8C135.1 129.152 134.972 129.44 134.716 129.664C134.492 129.888 134.22 130 133.9 130H127.852C127.532 130 127.244 129.888 126.988 129.664C126.764 129.44 126.652 129.152 126.652 128.8V115.696C126.652 114.192 126.284 113.04 125.548 112.24C124.844 111.408 123.788 110.992 122.38 110.992C121.068 110.992 120.012 111.408 119.212 112.24C118.444 113.04 118.06 114.192 118.06 115.696V128.8C118.06 129.152 117.932 129.44 117.676 129.664C117.452 129.888 117.18 130 116.86 130H110.86ZM149.769 130.48C148.233 130.48 146.841 130.24 145.593 129.76C144.377 129.248 143.321 128.512 142.425 127.552C141.561 126.56 140.889 125.376 140.409 124C139.929 122.592 139.657 120.992 139.593 119.2C139.561 118.56 139.545 118 139.545 117.52C139.545 117.008 139.561 116.448 139.593 115.84C139.657 114.112 139.929 112.56 140.409 111.184C140.889 109.808 141.561 108.624 142.425 107.632C143.289 106.64 144.345 105.888 145.593 105.376C146.841 104.832 148.233 104.56 149.769 104.56C151.369 104.56 152.745 104.832 153.897 105.376C155.049 105.888 156.025 106.56 156.825 107.392V97.12C156.825 96.768 156.937 96.48 157.161 96.256C157.385 96.032 157.673 95.92 158.025 95.92H163.881C164.201 95.92 164.473 96.032 164.697 96.256C164.953 96.48 165.081 96.768 165.081 97.12V128.8C165.081 129.152 164.953 129.44 164.697 129.664C164.473 129.888 164.201 130 163.881 130H158.457C158.105 130 157.817 129.888 157.593 129.664C157.369 129.44 157.257 129.152 157.257 128.8V127.264C156.489 128.192 155.497 128.96 154.281 129.568C153.065 130.176 151.561 130.48 149.769 130.48ZM152.361 124.048C153.449 124.048 154.297 123.824 154.905 123.376C155.545 122.896 156.009 122.288 156.297 121.552C156.617 120.816 156.793 120.016 156.825 119.152C156.857 118.512 156.873 117.904 156.873 117.328C156.873 116.752 156.857 116.16 156.825 115.552C156.793 114.752 156.617 114.016 156.297 113.344C155.977 112.64 155.497 112.08 154.857 111.664C154.217 111.216 153.385 110.992 152.361 110.992C151.305 110.992 150.457 111.216 149.817 111.664C149.209 112.112 148.777 112.72 148.521 113.488C148.265 114.256 148.105 115.104 148.041 116.032C147.945 117.024 147.945 118.016 148.041 119.008C148.105 119.936 148.265 120.784 148.521 121.552C148.777 122.32 149.209 122.928 149.817 123.376C150.457 123.824 151.305 124.048 152.361 124.048ZM182.258 130.48C178.482 130.48 175.474 129.456 173.234 127.408C170.994 125.36 169.826 122.32 169.73 118.288C169.73 118.064 169.73 117.776 169.73 117.424C169.73 117.072 169.73 116.8 169.73 116.608C169.826 114.08 170.386 111.92 171.41 110.128C172.466 108.304 173.906 106.928 175.73 106C177.586 105.04 179.746 104.56 182.21 104.56C185.026 104.56 187.346 105.12 189.17 106.24C191.026 107.36 192.418 108.88 193.346 110.8C194.274 112.72 194.738 114.912 194.738 117.376V118.528C194.738 118.88 194.61 119.168 194.354 119.392C194.13 119.616 193.858 119.728 193.538 119.728H178.178C178.178 119.76 178.178 119.808 178.178 119.872C178.178 119.936 178.178 120 178.178 120.064C178.21 120.992 178.37 121.84 178.658 122.608C178.946 123.376 179.394 123.984 180.002 124.432C180.61 124.88 181.346 125.104 182.21 125.104C182.85 125.104 183.378 125.008 183.794 124.816C184.242 124.592 184.61 124.352 184.898 124.096C185.186 123.808 185.41 123.568 185.57 123.376C185.858 123.056 186.082 122.864 186.242 122.8C186.434 122.704 186.722 122.656 187.106 122.656H193.058C193.378 122.656 193.634 122.752 193.826 122.944C194.05 123.104 194.146 123.344 194.114 123.664C194.082 124.208 193.81 124.864 193.298 125.632C192.786 126.4 192.034 127.168 191.042 127.936C190.082 128.672 188.866 129.28 187.394 129.76C185.922 130.24 184.21 130.48 182.258 130.48ZM178.178 114.976H186.29V114.88C186.29 113.856 186.13 112.96 185.81 112.192C185.522 111.424 185.058 110.832 184.418 110.416C183.81 110 183.074 109.792 182.21 109.792C181.346 109.792 180.61 110 180.002 110.416C179.426 110.832 178.978 111.424 178.658 112.192C178.338 112.96 178.178 113.856 178.178 114.88V114.976Z" fill="black"/>
</svg>
