<svg width="227" height="227" viewBox="0 0 227 227" fill="none" xmlns="http://www.w3.org/2000/svg">
<rect width="226.456" height="226.456" rx="13.5874" fill="#0E93FF"/>
<path d="M63.56 130C63.208 130 62.92 129.888 62.696 129.664C62.472 129.44 62.36 129.152 62.36 128.8V97.6C62.36 97.248 62.472 96.96 62.696 96.736C62.92 96.512 63.208 96.4 63.56 96.4H78.2C80.952 96.4 83.208 96.784 84.968 97.552C86.728 98.32 88.024 99.424 88.856 100.864C89.72 102.272 90.152 103.952 90.152 105.904C90.152 107.056 89.928 108.08 89.48 108.976C89.064 109.84 88.536 110.56 87.896 111.136C87.288 111.712 86.712 112.128 86.168 112.384C87.384 112.96 88.456 113.904 89.384 115.216C90.344 116.528 90.824 118.064 90.824 119.824C90.824 121.936 90.344 123.76 89.384 125.296C88.456 126.8 87.08 127.968 85.256 128.8C83.464 129.6 81.256 130 78.632 130H63.56ZM70.952 123.76H77.672C79.048 123.76 80.088 123.36 80.792 122.56C81.496 121.76 81.848 120.848 81.848 119.824C81.848 118.704 81.48 117.76 80.744 116.992C80.04 116.224 79.016 115.84 77.672 115.84H70.952V123.76ZM70.952 109.744H77.24C78.552 109.744 79.528 109.408 80.168 108.736C80.84 108.064 81.176 107.2 81.176 106.144C81.176 105.12 80.84 104.288 80.168 103.648C79.528 102.976 78.552 102.64 77.24 102.64H70.952V109.744ZM96.8289 130C96.4769 130 96.1889 129.888 95.9649 129.664C95.7409 129.44 95.6289 129.152 95.6289 128.8V97.12C95.6289 96.768 95.7409 96.48 95.9649 96.256C96.1889 96.032 96.4769 95.92 96.8289 95.92H102.493C102.845 95.92 103.133 96.032 103.357 96.256C103.581 96.48 103.693 96.768 103.693 97.12V128.8C103.693 129.152 103.581 129.44 103.357 129.664C103.133 129.888 102.845 130 102.493 130H96.8289ZM118.531 130.48C116.707 130.48 115.075 130.064 113.635 129.232C112.227 128.4 111.123 127.184 110.323 125.584C109.523 123.952 109.123 121.968 109.123 119.632V106.24C109.123 105.888 109.235 105.6 109.459 105.376C109.683 105.152 109.971 105.04 110.323 105.04H116.323C116.675 105.04 116.963 105.152 117.187 105.376C117.411 105.6 117.523 105.888 117.523 106.24V119.344C117.523 122.48 118.931 124.048 121.747 124.048C123.059 124.048 124.099 123.648 124.867 122.848C125.667 122.016 126.067 120.848 126.067 119.344V106.24C126.067 105.888 126.179 105.6 126.403 105.376C126.627 105.152 126.915 105.04 127.267 105.04H133.267C133.619 105.04 133.907 105.152 134.131 105.376C134.355 105.6 134.467 105.888 134.467 106.24V128.8C134.467 129.152 134.355 129.44 134.131 129.664C133.907 129.888 133.619 130 133.267 130H127.699C127.379 130 127.091 129.888 126.835 129.664C126.611 129.44 126.499 129.152 126.499 128.8V126.976C125.667 128.128 124.579 129.008 123.235 129.616C121.923 130.192 120.355 130.48 118.531 130.48ZM151.633 130.48C147.857 130.48 144.849 129.456 142.609 127.408C140.369 125.36 139.201 122.32 139.105 118.288C139.105 118.064 139.105 117.776 139.105 117.424C139.105 117.072 139.105 116.8 139.105 116.608C139.201 114.08 139.761 111.92 140.785 110.128C141.841 108.304 143.281 106.928 145.105 106C146.961 105.04 149.121 104.56 151.585 104.56C154.401 104.56 156.721 105.12 158.545 106.24C160.401 107.36 161.793 108.88 162.721 110.8C163.649 112.72 164.113 114.912 164.113 117.376V118.528C164.113 118.88 163.985 119.168 163.729 119.392C163.505 119.616 163.233 119.728 162.913 119.728H147.553C147.553 119.76 147.553 119.808 147.553 119.872C147.553 119.936 147.553 120 147.553 120.064C147.585 120.992 147.745 121.84 148.033 122.608C148.321 123.376 148.769 123.984 149.377 124.432C149.985 124.88 150.721 125.104 151.585 125.104C152.225 125.104 152.753 125.008 153.169 124.816C153.617 124.592 153.985 124.352 154.273 124.096C154.561 123.808 154.785 123.568 154.945 123.376C155.233 123.056 155.457 122.864 155.617 122.8C155.809 122.704 156.097 122.656 156.481 122.656H162.433C162.753 122.656 163.009 122.752 163.201 122.944C163.425 123.104 163.521 123.344 163.489 123.664C163.457 124.208 163.185 124.864 162.673 125.632C162.161 126.4 161.409 127.168 160.417 127.936C159.457 128.672 158.241 129.28 156.769 129.76C155.297 130.24 153.585 130.48 151.633 130.48ZM147.553 114.976H155.665V114.88C155.665 113.856 155.505 112.96 155.185 112.192C154.897 111.424 154.433 110.832 153.793 110.416C153.185 110 152.449 109.792 151.585 109.792C150.721 109.792 149.985 110 149.377 110.416C148.801 110.832 148.353 111.424 148.033 112.192C147.713 112.96 147.553 113.856 147.553 114.88V114.976Z" fill="black"/>
</svg>
