<svg width="228" height="227" viewBox="0 0 228 227" fill="none" xmlns="http://www.w3.org/2000/svg">
<path d="M0.908203 13.5874C0.908203 6.08325 6.99148 0 14.4956 0H213.777C221.281 0 227.365 6.08328 227.365 13.5874V212.869C227.365 220.373 221.281 226.456 213.777 226.456H14.4956C6.99145 226.456 0.908203 220.373 0.908203 212.869V13.5874Z" fill="#E89E63" fill-opacity="0.78"/>
<path d="M40.56 130C40.208 130 39.92 129.888 39.696 129.664C39.472 129.44 39.36 129.152 39.36 128.8V97.6C39.36 97.248 39.472 96.96 39.696 96.736C39.92 96.512 40.208 96.4 40.56 96.4H55.2C57.952 96.4 60.208 96.784 61.968 97.552C63.728 98.32 65.024 99.424 65.856 100.864C66.72 102.272 67.152 103.952 67.152 105.904C67.152 107.056 66.928 108.08 66.48 108.976C66.064 109.84 65.536 110.56 64.896 111.136C64.288 111.712 63.712 112.128 63.168 112.384C64.384 112.96 65.456 113.904 66.384 115.216C67.344 116.528 67.824 118.064 67.824 119.824C67.824 121.936 67.344 123.76 66.384 125.296C65.456 126.8 64.08 127.968 62.256 128.8C60.464 129.6 58.256 130 55.632 130H40.56ZM47.952 123.76H54.672C56.048 123.76 57.088 123.36 57.792 122.56C58.496 121.76 58.848 120.848 58.848 119.824C58.848 118.704 58.48 117.76 57.744 116.992C57.04 116.224 56.016 115.84 54.672 115.84H47.952V123.76ZM47.952 109.744H54.24C55.552 109.744 56.528 109.408 57.168 108.736C57.84 108.064 58.176 107.2 58.176 106.144C58.176 105.12 57.84 104.288 57.168 103.648C56.528 102.976 55.552 102.64 54.24 102.64H47.952V109.744ZM73.8289 130C73.4769 130 73.1889 129.888 72.9649 129.664C72.7409 129.44 72.6289 129.152 72.6289 128.8V106.24C72.6289 105.92 72.7409 105.648 72.9649 105.424C73.1889 105.168 73.4769 105.04 73.8289 105.04H79.3489C79.7009 105.04 79.9889 105.168 80.2129 105.424C80.4369 105.648 80.5489 105.92 80.5489 106.24V108.16C81.4129 107.168 82.4369 106.4 83.6209 105.856C84.8369 105.312 86.1969 105.04 87.7009 105.04H89.8129C90.1329 105.04 90.4049 105.152 90.6289 105.376C90.8849 105.6 91.0129 105.888 91.0129 106.24V111.184C91.0129 111.504 90.8849 111.792 90.6289 112.048C90.4049 112.272 90.1329 112.384 89.8129 112.384H85.1569C83.8449 112.384 82.8209 112.752 82.0849 113.488C81.3809 114.192 81.0289 115.2 81.0289 116.512V128.8C81.0289 129.152 80.9009 129.44 80.6449 129.664C80.4209 129.888 80.1329 130 79.7809 130H73.8289ZM106.046 130.48C103.358 130.48 101.086 130.048 99.2303 129.184C97.4063 128.32 95.9983 127.088 95.0063 125.488C94.0463 123.856 93.5023 121.92 93.3743 119.68C93.3423 119.04 93.3263 118.32 93.3263 117.52C93.3263 116.688 93.3423 115.968 93.3743 115.36C93.5023 113.088 94.0783 111.152 95.1023 109.552C96.1263 107.952 97.5503 106.72 99.3743 105.856C101.23 104.992 103.454 104.56 106.046 104.56C108.67 104.56 110.894 104.992 112.718 105.856C114.574 106.72 116.014 107.952 117.038 109.552C118.062 111.152 118.638 113.088 118.766 115.36C118.798 115.968 118.814 116.688 118.814 117.52C118.814 118.32 118.798 119.04 118.766 119.68C118.638 121.92 118.078 123.856 117.086 125.488C116.126 127.088 114.718 128.32 112.862 129.184C111.038 130.048 108.766 130.48 106.046 130.48ZM106.046 124.624C107.486 124.624 108.526 124.192 109.166 123.328C109.838 122.464 110.222 121.168 110.318 119.44C110.35 118.96 110.366 118.32 110.366 117.52C110.366 116.72 110.35 116.08 110.318 115.6C110.222 113.904 109.838 112.624 109.166 111.76C108.526 110.864 107.486 110.416 106.046 110.416C104.638 110.416 103.598 110.864 102.926 111.76C102.254 112.624 101.886 113.904 101.822 115.6C101.79 116.08 101.774 116.72 101.774 117.52C101.774 118.32 101.79 118.96 101.822 119.44C101.886 121.168 102.254 122.464 102.926 123.328C103.598 124.192 104.638 124.624 106.046 124.624ZM129.745 130C129.265 130 128.913 129.888 128.689 129.664C128.465 129.44 128.289 129.152 128.161 128.8L121.249 106.576C121.185 106.416 121.153 106.256 121.153 106.096C121.153 105.808 121.265 105.568 121.489 105.376C121.713 105.152 121.969 105.04 122.257 105.04H127.201C127.617 105.04 127.937 105.152 128.161 105.376C128.417 105.6 128.577 105.824 128.641 106.048L132.673 119.776L136.993 106.096C137.057 105.872 137.201 105.648 137.425 105.424C137.681 105.168 138.033 105.04 138.481 105.04H141.649C142.097 105.04 142.433 105.168 142.657 105.424C142.913 105.648 143.073 105.872 143.137 106.096L147.457 119.776L151.489 106.048C151.553 105.824 151.697 105.6 151.921 105.376C152.177 105.152 152.513 105.04 152.929 105.04H157.873C158.161 105.04 158.401 105.152 158.593 105.376C158.817 105.568 158.929 105.808 158.929 106.096C158.929 106.256 158.913 106.416 158.881 106.576L151.969 128.8C151.873 129.152 151.697 129.44 151.441 129.664C151.217 129.888 150.865 130 150.385 130H146.065C145.617 130 145.265 129.888 145.009 129.664C144.753 129.44 144.577 129.152 144.481 128.8L140.065 115.648L135.649 128.8C135.553 129.152 135.377 129.44 135.121 129.664C134.865 129.888 134.513 130 134.065 130H129.745ZM164.204 130C163.852 130 163.564 129.888 163.34 129.664C163.116 129.44 163.004 129.152 163.004 128.8V106.24C163.004 105.888 163.116 105.6 163.34 105.376C163.564 105.152 163.852 105.04 164.204 105.04H169.724C170.076 105.04 170.364 105.152 170.588 105.376C170.812 105.6 170.924 105.888 170.924 106.24V108.064C171.756 107.072 172.844 106.24 174.188 105.568C175.532 104.896 177.116 104.56 178.94 104.56C180.796 104.56 182.428 104.976 183.836 105.808C185.276 106.64 186.396 107.872 187.196 109.504C188.028 111.104 188.444 113.072 188.444 115.408V128.8C188.444 129.152 188.316 129.44 188.06 129.664C187.836 129.888 187.564 130 187.244 130H181.196C180.876 130 180.588 129.888 180.332 129.664C180.108 129.44 179.996 129.152 179.996 128.8V115.696C179.996 114.192 179.628 113.04 178.892 112.24C178.188 111.408 177.132 110.992 175.724 110.992C174.412 110.992 173.356 111.408 172.556 112.24C171.788 113.04 171.404 114.192 171.404 115.696V128.8C171.404 129.152 171.276 129.44 171.02 129.664C170.796 129.888 170.524 130 170.204 130H164.204Z" fill="black"/>
</svg>
