<svg width="90" height="90" viewBox="0 0 90 90" fill="none" xmlns="http://www.w3.org/2000/svg">
<path d="M67.5 27C68.6935 27 69.8381 27.4741 70.682 28.318C71.5259 29.1619 72 30.3065 72 31.5V41.4315C70.529 41.0151 69.0226 40.7364 67.5 40.599V31.5H54V43.2C52.397 44.019 50.8881 45.0104 49.5 46.1565V31.5H22.5V67.5C22.4945 68.6826 22.7249 69.8545 23.1777 70.9471C23.6305 72.0396 24.2966 73.0309 25.137 73.863C26.8294 75.5435 29.115 76.4907 31.5 76.5H43.2C44.0235 78.111 45.018 79.6185 46.1565 81H31.5C27.9287 80.9992 24.5032 79.5834 21.9735 77.0625C20.7388 75.8305 19.7493 74.3752 19.0575 72.774C18.3466 71.1073 17.9866 69.312 18 67.5V31.5C18 30.3065 18.4741 29.1619 19.318 28.318C20.1619 27.4741 21.3065 27 22.5 27H27V20.25C27 18.702 27.2925 17.2485 27.8775 15.8895C28.4625 14.508 29.2725 13.311 30.303 12.303C31.311 11.2725 32.508 10.4625 33.8895 9.8775C35.2485 9.2925 36.702 9 38.25 9C39.5145 9 40.7205 9.198 41.8725 9.5985C43.0245 9.999 44.0775 10.5615 45.036 11.286C46.9598 9.80287 49.3208 8.99898 51.75 9C53.9673 8.99011 56.1374 9.63989 57.9844 10.8667C59.8314 12.0935 61.2718 13.8419 62.1225 15.8895C62.7075 17.2485 63 18.702 63 20.25V27H67.5ZM58.5 20.25C58.5 19.314 58.3245 18.432 57.9735 17.613C57.4641 16.3853 56.5995 15.3378 55.4906 14.6049C54.3817 13.8721 53.0791 13.4873 51.75 13.5C50.3685 13.5 49.1265 13.887 48.024 14.661C48.9938 16.3639 49.5026 18.2903 49.5 20.25V27H58.5V20.25ZM31.5 27H45V20.25C45 19.314 44.8245 18.432 44.4735 17.613C43.9641 16.3853 43.0995 15.3378 41.9906 14.6049C40.8817 13.8721 39.5791 13.4873 38.25 13.5C37.314 13.5 36.432 13.6755 35.613 14.0265C34.3853 14.5359 33.3378 15.4005 32.6049 16.5094C31.8721 17.6183 31.4873 18.9209 31.5 20.25V27ZM65.25 85.5C70.6206 85.5 75.7713 83.3665 79.5689 79.5689C83.3665 75.7713 85.5 70.6206 85.5 65.25C85.5 59.8794 83.3665 54.7287 79.5689 50.9311C75.7713 47.1335 70.6206 45 65.25 45C59.8794 45 54.7287 47.1335 50.9311 50.9311C47.1335 54.7287 45 59.8794 45 65.25C45 70.6206 47.1335 75.7713 50.9311 79.5689C54.7287 83.3665 59.8794 85.5 65.25 85.5ZM54.648 63.6705L63.6615 54.657C64.084 54.2351 64.6568 53.9983 65.2538 53.9987C65.8509 53.9992 66.4234 54.2368 66.8452 54.6592C67.2671 55.0817 67.5039 55.6545 67.5035 56.2516C67.5031 56.8487 67.2655 57.4211 66.843 57.843L61.6815 63H74.25C74.8467 63 75.419 63.2371 75.841 63.659C76.2629 64.081 76.5 64.6533 76.5 65.25C76.5 65.8467 76.2629 66.419 75.841 66.841C75.419 67.2629 74.8467 67.5 74.25 67.5H61.6815L66.843 72.657C67.2655 73.0795 67.5028 73.6525 67.5028 74.25C67.5028 74.8475 67.2655 75.4205 66.843 75.843C66.4205 76.2655 65.8475 76.5028 65.25 76.5028C64.6525 76.5028 64.0795 76.2655 63.657 75.843L54.657 66.843C54.2386 66.4235 54.0025 65.856 54 65.2635V65.2365C54.0036 64.65 54.2361 64.0881 54.648 63.6705Z" fill="black"/>
</svg>
