<?xml version="1.0" encoding="UTF-8" standalone="no"?>
<svg
   width="90"
   height="90"
   viewBox="0 0 90 90"
   fill="none"
   version="1.1"
   id="svg6377"
   sodipodi:docname="Cart.svg"
   inkscape:version="1.1.2 (b8e25be833, 2022-02-05)"
   xmlns:inkscape="http://www.inkscape.org/namespaces/inkscape"
   xmlns:sodipodi="http://sodipodi.sourceforge.net/DTD/sodipodi-0.dtd"
   xmlns="http://www.w3.org/2000/svg"
   xmlns:svg="http://www.w3.org/2000/svg">
  <defs
     id="defs6381" />
  <sodipodi:namedview
     id="namedview6379"
     pagecolor="#505050"
     bordercolor="#eeeeee"
     borderopacity="1"
     inkscape:pageshadow="0"
     inkscape:pageopacity="0"
     inkscape:pagecheckerboard="0"
     showgrid="false"
     inkscape:zoom="9.3444444"
     inkscape:cx="45"
     inkscape:cy="45"
     inkscape:window-width="1920"
     inkscape:window-height="1028"
     inkscape:window-x="-6"
     inkscape:window-y="-6"
     inkscape:window-maximized="1"
     inkscape:current-layer="svg6377" />
  <path
     d="M26.25 26.25V18.75C26.25 16.5783 26.8787 14.453 28.06 12.6307C29.2413 10.8084 30.9248 9.36698 32.9073 8.4804C34.8898 7.59383 37.0866 7.30002 39.2324 7.63444C41.3782 7.96885 43.3813 8.9172 45 10.365C46.6187 8.9172 48.6218 7.96885 50.7676 7.63444C52.9134 7.30002 55.1102 7.59383 57.0927 8.4804C59.0752 9.36698 60.7587 10.8084 61.94 12.6307C63.1213 14.453 63.75 16.5783 63.75 18.75V26.25H69.375C70.8668 26.25 72.2976 26.8426 73.3525 27.8975C74.4074 28.9524 75 30.3832 75 31.875V69.3937C75 72.8697 73.6192 76.2034 71.1613 78.6613C68.7034 81.1192 65.3697 82.5 61.8937 82.5H30C26.0218 82.5 22.2064 80.9196 19.3934 78.1066C16.5804 75.2936 15 71.4782 15 67.5V31.875C15 30.3832 15.5926 28.9524 16.6475 27.8975C17.7024 26.8426 19.1332 26.25 20.625 26.25H26.25ZM51.1313 76.875C49.6015 74.6805 48.7833 72.0688 48.7875 69.3937V31.875H20.625V67.5C20.625 68.7311 20.8675 69.9502 21.3386 71.0877C21.8098 72.2251 22.5003 73.2586 23.3709 74.1291C24.2414 74.9997 25.2749 75.6902 26.4123 76.1614C27.5498 76.6325 28.7689 76.875 30 76.875H51.1313ZM43.125 26.25V18.75C43.125 17.2582 42.5324 15.8274 41.4775 14.7725C40.4226 13.7176 38.9918 13.125 37.5 13.125C36.0082 13.125 34.5774 13.7176 33.5225 14.7725C32.4676 15.8274 31.875 17.2582 31.875 18.75V26.25H43.125ZM48.75 26.25H58.125V18.75C58.1251 17.5921 57.7679 16.4624 57.1021 15.5151C56.4364 14.5678 55.4945 13.849 54.405 13.4569C53.3156 13.0647 52.1316 13.0184 51.0149 13.3241C49.8981 13.6298 48.9028 14.2727 48.165 15.165C48.5438 16.29 48.75 17.4975 48.75 18.75V26.25ZM54.4125 69.3937C54.4125 71.3779 55.2007 73.2808 56.6037 74.6838C58.0067 76.0868 59.9096 76.875 61.8937 76.875C63.8779 76.875 65.7808 76.0868 67.1838 74.6838C68.5868 73.2808 69.375 71.3779 69.375 69.3937V31.875H54.4125V69.3937Z"
     fill="black"
     id="path6375" />
  <path
     style="fill:#black;stroke-width:0.107015"
     d="M 27.55648,82.236535 C 22.947119,81.451919 18.900493,78.504879 16.762702,74.375743 16.150583,73.193436 15.659499,71.86281 15.340869,70.523187 15.162011,69.771209 15.147922,68.505234 15.11756,50.457788 c -0.02277,-13.533484 0.0021,-19.428915 0.08353,-19.821347 0.402517,-1.939249 2.26873,-3.778326 4.254236,-4.192378 0.339454,-0.07079 1.829415,-0.11826 3.711727,-0.11826 h 3.144628 l 0.03913,-4.681927 c 0.0389,-4.653264 0.04084,-4.68815 0.317704,-5.698573 1.089383,-3.975757 4.113908,-6.9821523 8.092729,-8.0442202 1.03535,-0.2763666 3.415878,-0.3847076 4.473409,-0.2035909 1.794837,0.3073904 3.577725,1.0620368 4.943028,2.0922452 0.430605,0.3249189 0.800646,0.5907619 0.822313,0.5907619 0.02167,0 0.391708,-0.265843 0.822313,-0.5907619 1.365303,-1.0302084 3.148191,-1.7848548 4.943028,-2.0922452 1.057531,-0.1811167 3.438059,-0.072776 4.473409,0.2035909 2.67431,0.7138543 5.052413,2.3988272 6.539114,4.6332032 0.749477,1.126394 1.196597,2.108061 1.553615,3.411017 0.276862,1.010423 0.278808,1.045309 0.317704,5.698573 l 0.03914,4.681927 h 3.144628 c 3.420136,0 3.887988,0.05297 4.974426,0.563202 0.827084,0.388429 2.044951,1.557961 2.486418,2.387734 0.653957,1.229169 0.61703,-0.06136 0.61703,21.564069 0,21.471657 0.02352,20.569277 -0.585678,22.468383 -0.778862,2.428 -2.281817,4.649499 -4.168996,6.162143 -1.549712,1.242151 -3.074361,2.017528 -5.090748,2.588953 l -1.016647,0.288108 -17.818073,0.01694 c -14.603432,0.01388 -17.972532,-0.0094 -18.674198,-0.128796 z m 23.596204,-5.372682 c -4.28e-4,-0.04414 -0.09931,-0.224733 -0.219823,-0.401308 -0.727995,-1.066644 -1.464619,-2.859136 -1.847074,-4.49465 -0.223947,-0.957677 -0.225416,-1.07435 -0.258994,-20.573721 L 48.793022,31.783591 H 34.66738 20.54174 l 0.03008,18.593936 0.03008,18.593936 0.234286,0.823855 c 0.79252,2.786859 2.512005,4.900593 5.011822,6.16095 0.774078,0.390274 1.899895,0.742428 2.778631,0.86915 0.787361,0.113545 22.527034,0.150638 22.526049,0.03844 z m 12.634601,-0.186119 c 2.567245,-0.655066 4.617557,-2.681654 5.414585,-5.351931 0.180605,-0.60508 0.193497,-1.763308 0.223643,-20.092153 l 0.03199,-19.450059 H 61.910679 54.363853 V 50.94387 c 0,21.542825 -0.05795,19.997685 0.818173,21.813715 0.790935,1.639437 2.394831,3.088136 4.109668,3.712003 1.329221,0.483578 3.095638,0.565363 4.495591,0.208146 z M 43.127229,22.064608 c 0,-3.586719 -0.02702,-4.353198 -0.17073,-4.84245 -0.601577,-2.048079 -2.230716,-3.575961 -4.270411,-4.004989 -0.942329,-0.198209 -1.412898,-0.198127 -2.35434,4.07e-4 -1.984649,0.418532 -3.500123,1.761369 -4.213429,3.733452 l -0.274903,0.76003 -0.03925,4.307372 -0.03925,4.307373 h 5.681153 5.681153 z M 58.19608,22.01843 58.158825,17.711058 57.882801,16.95103 c -0.505184,-1.391017 -1.462294,-2.535804 -2.669337,-3.192759 -0.62953,-0.342634 -1.997614,-0.70303 -2.659239,-0.700527 -1.344227,0.0051 -2.876608,0.594289 -3.877808,1.491025 l -0.562254,0.50359 0.260896,1.008303 c 0.253646,0.980282 0.261874,1.136929 0.296062,5.636722 l 0.03517,4.628419 h 4.763524 4.763525 z"
     id="path6514" />
  <path
     style="fill:#black;stroke-width:0.107015"
     d="M 27.711696,82.185336 C 26.506109,82.043187 24.794868,81.488035 23.410133,80.789846 19.413364,78.774657 16.74392,75.406265 15.443449,70.737218 15.259668,70.077397 15.249703,69.022998 15.249703,50.238272 V 30.434927 l 0.416472,-0.842739 c 0.572038,-1.157529 1.556124,-2.137328 2.698589,-2.686831 l 0.843946,-0.405922 1.980068,-0.07907 c 1.089038,-0.04349 2.682918,-0.08255 3.541956,-0.08682 l 1.561887,-0.0077 0.0701,-1.461629 c 0.03855,-0.803896 0.07046,-2.790371 0.07091,-4.414388 8.56e-4,-3.179086 0.06251,-3.8151 0.495191,-5.109799 1.105023,-3.306506 3.628321,-5.8774318 6.963019,-7.0944456 1.191774,-0.4349436 2.312511,-0.5728406 4.175119,-0.5137124 1.312037,0.04165 1.737628,0.098292 2.491904,0.331647 1.165268,0.3605061 2.632481,1.0880578 3.582075,1.7762554 0.410392,0.2974226 0.798052,0.5407676 0.861466,0.5407676 0.06341,0 0.421537,-0.222833 0.795828,-0.4951841 1.298662,-0.9449665 2.59441,-1.5476767 4.221863,-1.963776 1.020537,-0.2609257 3.396162,-0.2933359 4.664808,-0.063641 3.292975,0.5962105 6.410378,3.0750241 7.919615,6.2973091 0.860764,1.837768 0.874631,1.938649 0.966888,7.033854 0.04529,2.501486 0.08695,4.673717 0.09257,4.827179 l 0.01022,0.279021 3.278034,0.0783 c 4.332482,0.103483 4.807272,0.233341 6.29589,1.721958 0.990032,0.990032 1.320366,1.613045 1.456548,2.747057 0.151808,1.264137 0.148957,38.701302 -0.0031,40.289617 -0.08393,0.876854 -0.217178,1.49306 -0.497536,2.300833 -1.425589,4.107434 -4.271701,6.902639 -8.550082,8.397149 l -1.177165,0.411206 -18.032104,0.0133 c -9.917658,0.0073 -18.347514,-0.02389 -18.733013,-0.06934 z m 23.441693,-5.350695 c 0,-0.06021 -0.21498,-0.481585 -0.477734,-0.936386 -0.529251,-0.916081 -1.092316,-2.309405 -1.459539,-3.611676 l -0.24075,-0.853761 -0.07451,-19.79786 c -0.04098,-10.888822 -0.08065,-19.809899 -0.08816,-19.824613 -0.0075,-0.01472 -6.382401,-0.02676 -14.166438,-0.02677 l -14.152794,-1.4e-5 0.02612,18.540442 c 0.02875,20.409817 -0.01951,18.935723 0.67626,20.656743 1.044078,2.582576 3.261682,4.675402 5.814078,5.486938 0.46455,0.147703 1.09059,0.309694 1.391201,0.359979 0.813826,0.136135 22.752274,0.142859 22.752274,0.007 z m 13.109393,-0.258809 c 1.177931,-0.398397 1.885286,-0.826751 2.79988,-1.695526 0.845615,-0.80325 1.460994,-1.690974 1.916269,-2.764335 0.244201,-0.57573 0.303953,-0.918742 0.379992,-2.181369 0.04962,-0.824019 0.103139,-9.745102 0.118922,-19.824628 l 0.02869,-18.32641 -7.574626,1.3e-5 -7.574626,1.4e-5 0.03446,19.557075 c 0.03819,21.675992 -0.02033,20.010902 0.755207,21.485994 1.045366,1.988303 3.024564,3.53924 5.049241,3.956681 1.186637,0.244656 3.003848,0.151928 4.066587,-0.207509 z m -21.156984,-54.82494 -0.03208,-4.574911 -0.417353,-0.856124 c -0.31034,-0.636607 -0.612174,-1.048798 -1.17717,-1.607564 -1.233696,-1.220095 -2.571209,-1.726959 -4.291327,-1.626241 -2.435367,0.142599 -4.22963,1.502491 -5.113918,3.875898 l -0.279105,0.749108 -0.04577,4.307372 -0.04577,4.307373 h 5.717279 5.717278 z m 15.139029,0.267538 c -0.02652,-2.547072 -0.09058,-4.460441 -0.156756,-4.681926 -0.404947,-1.355331 -1.641768,-2.965483 -2.734925,-3.560454 -1.21395,-0.660714 -2.966348,-0.890344 -4.247668,-0.556602 -0.830991,0.216445 -1.929363,0.802884 -2.553279,1.363237 l -0.50437,0.452987 0.227083,0.802616 c 0.207037,0.731767 0.234597,1.194648 0.312218,5.243757 0.04682,2.442628 0.08958,4.62173 0.09502,4.84245 l 0.0099,0.401308 h 4.798821 4.79882 z"
     id="path6553" />
</svg>
