<svg width="130" height="130" viewBox="0 0 130 130" fill="none" xmlns="http://www.w3.org/2000/svg">
<rect width="130" height="130" rx="65" fill="#3C3C3C"/>
<path d="M84.175 30.0084L74.5875 39.5417L65 30.0084L55.4125 39.5417L45.825 30.0084L65 10.8334L84.175 30.0084ZM99.9916 84.175L90.4583 74.5875L99.9916 65L90.4583 55.4125L99.9916 45.825L119.167 65L99.9916 84.175ZM45.825 99.9917L55.4125 90.4584L65 99.9917L74.5875 90.4584L84.175 99.9917L65 119.167L45.825 99.9917ZM30.0083 45.825L39.5416 55.4125L30.0083 65L39.5416 74.5875L30.0083 84.175L10.8333 65L30.0083 45.825Z" fill="white"/>
<path d="M65 81.25C73.9746 81.25 81.25 73.9746 81.25 65C81.25 56.0254 73.9746 48.75 65 48.75C56.0254 48.75 48.75 56.0254 48.75 65C48.75 73.9746 56.0254 81.25 65 81.25Z" fill="white"/>
</svg>
