<svg width="90" height="90" viewBox="0 0 90 90" fill="none" xmlns="http://www.w3.org/2000/svg">
<rect x="0.0" width="90" height="90" rx="13.5874" fill="#FFFFFF"/>
<path d="M58.275 20.775L51.6375 27.375L45 20.775L38.3625 27.375L31.725 20.775L45 7.5L58.275 20.775ZM69.225 58.275L62.625 51.6375L69.225 45L62.625 38.3625L69.225 31.725L82.5 45L69.225 58.275ZM31.725 69.225L38.3625 62.625L45 69.225L51.6375 62.625L58.275 69.225L45 82.5L31.725 69.225ZM20.775 31.725L27.375 38.3625L20.775 45L27.375 51.6375L20.775 58.275L7.5 45L20.775 31.725Z" fill="black"/>
<path d="M45 56.25C51.2132 56.25 56.25 51.2132 56.25 45C56.25 38.7868 51.2132 33.75 45 33.75C38.7868 33.75 33.75 38.7868 33.75 45C33.75 51.2132 38.7868 56.25 45 56.25Z" fill="black"/>
</svg>
