<svg width="228" height="294" viewBox="0 0 228 294" fill="none" xmlns="http://www.w3.org/2000/svg">
<rect x="0.908203" width="226.456" height="226.456" rx="13.5874" fill="#4F4F4F"/>
<path d="M38.136 282.48C35.096 282.48 32.488 281.984 30.312 280.992C28.168 280 26.488 278.544 25.272 276.624C24.088 274.704 23.432 272.32 23.304 269.472C23.272 268.16 23.256 266.752 23.256 265.248C23.256 263.744 23.272 262.304 23.304 260.928C23.432 258.144 24.104 255.792 25.32 253.872C26.536 251.92 28.232 250.448 30.408 249.456C32.584 248.432 35.16 247.92 38.136 247.92C40.248 247.92 42.2 248.192 43.992 248.736C45.784 249.248 47.352 250.016 48.696 251.04C50.04 252.032 51.08 253.248 51.816 254.688C52.584 256.096 52.984 257.696 53.016 259.488C53.048 259.776 52.952 260.016 52.728 260.208C52.536 260.4 52.296 260.496 52.008 260.496H45.528C45.112 260.496 44.792 260.416 44.568 260.256C44.344 260.064 44.152 259.728 43.992 259.248C43.544 257.552 42.808 256.4 41.784 255.792C40.792 255.152 39.56 254.832 38.088 254.832C36.328 254.832 34.936 255.328 33.912 256.32C32.888 257.28 32.328 258.896 32.232 261.168C32.136 263.792 32.136 266.48 32.232 269.232C32.328 271.504 32.888 273.136 33.912 274.128C34.936 275.088 36.328 275.568 38.088 275.568C39.56 275.568 40.808 275.248 41.832 274.608C42.856 273.968 43.576 272.816 43.992 271.152C44.12 270.672 44.296 270.352 44.52 270.192C44.776 270 45.112 269.904 45.528 269.904H52.008C52.296 269.904 52.536 270 52.728 270.192C52.952 270.384 53.048 270.624 53.016 270.912C52.984 272.704 52.584 274.32 51.816 275.76C51.08 277.168 50.04 278.384 48.696 279.408C47.352 280.4 45.784 281.168 43.992 281.712C42.2 282.224 40.248 282.48 38.136 282.48ZM58.7351 282C58.3831 282 58.0951 281.888 57.8711 281.664C57.6471 281.44 57.5351 281.152 57.5351 280.8V249.12C57.5351 248.768 57.6471 248.48 57.8711 248.256C58.0951 248.032 58.3831 247.92 58.7351 247.92H64.8791C65.2311 247.92 65.5191 248.032 65.7431 248.256C65.9671 248.48 66.0791 248.768 66.0791 249.12V259.824C66.9431 258.832 67.9991 258.048 69.2471 257.472C70.5271 256.864 71.9991 256.56 73.6631 256.56C75.5191 256.56 77.1671 256.976 78.6071 257.808C80.0791 258.64 81.2311 259.872 82.0631 261.504C82.8951 263.104 83.3111 265.072 83.3111 267.408V280.8C83.3111 281.152 83.1991 281.44 82.9751 281.664C82.7511 281.888 82.4631 282 82.1111 282H75.9191C75.5991 282 75.3111 281.888 75.0551 281.664C74.8311 281.44 74.7191 281.152 74.7191 280.8V267.696C74.7191 266.192 74.3511 265.04 73.6151 264.24C72.9111 263.408 71.8551 262.992 70.4471 262.992C69.1351 262.992 68.0791 263.408 67.2791 264.24C66.4791 265.04 66.0791 266.192 66.0791 267.696V280.8C66.0791 281.152 65.9671 281.44 65.7431 281.664C65.5191 281.888 65.2311 282 64.8791 282H58.7351ZM100.274 282.48C96.4979 282.48 93.4899 281.456 91.2499 279.408C89.0099 277.36 87.8419 274.32 87.7459 270.288C87.7459 270.064 87.7459 269.776 87.7459 269.424C87.7459 269.072 87.7459 268.8 87.7459 268.608C87.8419 266.08 88.4019 263.92 89.4259 262.128C90.4819 260.304 91.9219 258.928 93.7459 258C95.6019 257.04 97.7619 256.56 100.226 256.56C103.042 256.56 105.362 257.12 107.186 258.24C109.042 259.36 110.434 260.88 111.362 262.8C112.29 264.72 112.754 266.912 112.754 269.376V270.528C112.754 270.88 112.626 271.168 112.37 271.392C112.146 271.616 111.874 271.728 111.554 271.728H96.1939C96.1939 271.76 96.1939 271.808 96.1939 271.872C96.1939 271.936 96.1939 272 96.1939 272.064C96.2259 272.992 96.3859 273.84 96.6739 274.608C96.9619 275.376 97.4099 275.984 98.0179 276.432C98.6259 276.88 99.3619 277.104 100.226 277.104C100.866 277.104 101.394 277.008 101.81 276.816C102.258 276.592 102.626 276.352 102.914 276.096C103.202 275.808 103.426 275.568 103.586 275.376C103.874 275.056 104.098 274.864 104.258 274.8C104.45 274.704 104.738 274.656 105.122 274.656H111.074C111.394 274.656 111.65 274.752 111.842 274.944C112.066 275.104 112.162 275.344 112.13 275.664C112.098 276.208 111.826 276.864 111.314 277.632C110.802 278.4 110.05 279.168 109.058 279.936C108.098 280.672 106.882 281.28 105.41 281.76C103.938 282.24 102.226 282.48 100.274 282.48ZM96.1939 266.976H104.306V266.88C104.306 265.856 104.146 264.96 103.826 264.192C103.538 263.424 103.074 262.832 102.434 262.416C101.826 262 101.09 261.792 100.226 261.792C99.3619 261.792 98.6259 262 98.0179 262.416C97.4419 262.832 96.9939 263.424 96.6739 264.192C96.3539 264.96 96.1939 265.856 96.1939 266.88V266.976ZM128.726 282.48C126.358 282.48 124.262 282.048 122.438 281.184C120.614 280.32 119.158 279.072 118.07 277.44C117.014 275.776 116.438 273.792 116.342 271.488C116.31 270.976 116.294 270.336 116.294 269.568C116.294 268.768 116.31 268.112 116.342 267.6C116.438 265.264 117.014 263.28 118.07 261.648C119.126 259.984 120.566 258.72 122.39 257.856C124.246 256.992 126.358 256.56 128.726 256.56C130.934 256.56 132.822 256.88 134.39 257.52C135.958 258.128 137.238 258.896 138.23 259.824C139.222 260.752 139.958 261.712 140.438 262.704C140.95 263.664 141.222 264.512 141.254 265.248C141.286 265.568 141.174 265.856 140.918 266.112C140.662 266.336 140.374 266.448 140.054 266.448H133.958C133.606 266.448 133.334 266.368 133.142 266.208C132.95 266.048 132.774 265.808 132.614 265.488C132.23 264.496 131.734 263.792 131.126 263.376C130.55 262.96 129.798 262.752 128.87 262.752C127.59 262.752 126.598 263.168 125.894 264C125.222 264.832 124.854 266.112 124.79 267.84C124.758 269.12 124.758 270.256 124.79 271.248C124.854 273.008 125.222 274.288 125.894 275.088C126.598 275.888 127.59 276.288 128.87 276.288C129.862 276.288 130.646 276.08 131.222 275.664C131.798 275.248 132.262 274.544 132.614 273.552C132.774 273.232 132.95 272.992 133.142 272.832C133.334 272.672 133.606 272.592 133.958 272.592H140.054C140.374 272.592 140.662 272.72 140.918 272.976C141.174 273.2 141.286 273.472 141.254 273.792C141.222 274.336 141.062 274.976 140.774 275.712C140.486 276.416 140.038 277.168 139.43 277.968C138.822 278.768 138.022 279.52 137.03 280.224C136.07 280.896 134.902 281.44 133.526 281.856C132.15 282.272 130.55 282.48 128.726 282.48ZM146.766 282C146.414 282 146.126 281.888 145.902 281.664C145.678 281.44 145.566 281.152 145.566 280.8V249.12C145.566 248.768 145.678 248.48 145.902 248.256C146.126 248.032 146.414 247.92 146.766 247.92H152.334C152.654 247.92 152.926 248.032 153.15 248.256C153.406 248.48 153.534 248.768 153.534 249.12V265.2L160.206 257.856C160.398 257.632 160.606 257.44 160.83 257.28C161.054 257.12 161.374 257.04 161.79 257.04H168.222C168.51 257.04 168.75 257.152 168.942 257.376C169.166 257.568 169.278 257.808 169.278 258.096C169.278 258.224 169.246 258.368 169.182 258.528C169.118 258.688 169.022 258.816 168.894 258.912L160.254 268.224L170.094 280.176C170.35 280.432 170.478 280.688 170.478 280.944C170.478 281.232 170.366 281.488 170.142 281.712C169.95 281.904 169.694 282 169.374 282H162.798C162.318 282 161.966 281.92 161.742 281.76C161.518 281.568 161.31 281.376 161.118 281.184L153.534 272.064V280.8C153.534 281.152 153.406 281.44 153.15 281.664C152.926 281.888 152.654 282 152.334 282H146.766ZM183.993 282.48C180.217 282.48 177.209 281.456 174.969 279.408C172.729 277.36 171.561 274.32 171.465 270.288C171.465 270.064 171.465 269.776 171.465 269.424C171.465 269.072 171.465 268.8 171.465 268.608C171.561 266.08 172.121 263.92 173.145 262.128C174.201 260.304 175.641 258.928 177.465 258C179.321 257.04 181.481 256.56 183.945 256.56C186.761 256.56 189.081 257.12 190.905 258.24C192.761 259.36 194.153 260.88 195.081 262.8C196.009 264.72 196.473 266.912 196.473 269.376V270.528C196.473 270.88 196.345 271.168 196.089 271.392C195.865 271.616 195.593 271.728 195.273 271.728H179.913C179.913 271.76 179.913 271.808 179.913 271.872C179.913 271.936 179.913 272 179.913 272.064C179.945 272.992 180.105 273.84 180.393 274.608C180.681 275.376 181.129 275.984 181.737 276.432C182.345 276.88 183.081 277.104 183.945 277.104C184.585 277.104 185.113 277.008 185.529 276.816C185.977 276.592 186.345 276.352 186.633 276.096C186.921 275.808 187.145 275.568 187.305 275.376C187.593 275.056 187.817 274.864 187.977 274.8C188.169 274.704 188.457 274.656 188.841 274.656H194.793C195.113 274.656 195.369 274.752 195.561 274.944C195.785 275.104 195.881 275.344 195.849 275.664C195.817 276.208 195.545 276.864 195.033 277.632C194.521 278.4 193.769 279.168 192.777 279.936C191.817 280.672 190.601 281.28 189.129 281.76C187.657 282.24 185.945 282.48 183.993 282.48ZM179.913 266.976H188.025V266.88C188.025 265.856 187.865 264.96 187.545 264.192C187.257 263.424 186.793 262.832 186.153 262.416C185.545 262 184.809 261.792 183.945 261.792C183.081 261.792 182.345 262 181.737 262.416C181.161 262.832 180.713 263.424 180.393 264.192C180.073 264.96 179.913 265.856 179.913 266.88V266.976ZM202.173 282C201.821 282 201.533 281.888 201.309 281.664C201.085 281.44 200.973 281.152 200.973 280.8V258.24C200.973 257.92 201.085 257.648 201.309 257.424C201.533 257.168 201.821 257.04 202.173 257.04H207.693C208.045 257.04 208.333 257.168 208.557 257.424C208.781 257.648 208.893 257.92 208.893 258.24V260.16C209.757 259.168 210.781 258.4 211.965 257.856C213.181 257.312 214.541 257.04 216.045 257.04H218.157C218.477 257.04 218.749 257.152 218.973 257.376C219.229 257.6 219.357 257.888 219.357 258.24V263.184C219.357 263.504 219.229 263.792 218.973 264.048C218.749 264.272 218.477 264.384 218.157 264.384H213.501C212.189 264.384 211.165 264.752 210.429 265.488C209.725 266.192 209.373 267.2 209.373 268.512V280.8C209.373 281.152 209.245 281.44 208.989 281.664C208.765 281.888 208.477 282 208.125 282H202.173Z" fill="black"/>
<rect width="160" height="160" transform="translate(34 33)" fill="white"/>
<path d="M47.334 46.3333V179.667H180.667V46.3333H47.334ZM167.334 113H140.667V139.667H167.334V166.333H140.667V139.667H114.001V166.333H87.334V139.667H60.6673V113H87.334V86.3333H60.6673V59.6666H87.334V86.3333H114.001V59.6666H140.667V86.3333H167.334V113ZM140.667 86.3333V113H114.001V86.3333H140.667ZM114.001 113V139.667H87.334V113H114.001Z" fill="black"/>
</svg>
