<svg width="130" height="130" viewBox="0 0 130 130" fill="none" xmlns="http://www.w3.org/2000/svg">
<rect width="130" height="130" rx="65" fill="#3C3C3C"/>
<path d="M81.9336 49.6484C81.9336 49.2188 81.582 48.8672 81.1523 48.8672L74.707 48.8965L65 60.4688L55.3027 48.9063L48.8477 48.877C48.418 48.877 48.0664 49.2188 48.0664 49.6582C48.0664 49.8438 48.1348 50.0195 48.252 50.166L60.957 65.3027L48.252 80.4297C48.1339 80.5728 48.0685 80.752 48.0664 80.9375C48.0664 81.3672 48.418 81.7188 48.8477 81.7188L55.3027 81.6895L65 70.1172L74.6973 81.6797L81.1426 81.709C81.5723 81.709 81.9238 81.3672 81.9238 80.9277C81.9238 80.7422 81.8555 80.5664 81.7383 80.4199L69.0527 65.293L81.7578 50.1563C81.875 50.0195 81.9336 49.834 81.9336 49.6484Z" fill="white"/>
<path d="M65 21.3477C40.8398 21.3477 21.25 40.9375 21.25 65.0977C21.25 89.2578 40.8398 108.848 65 108.848C89.1602 108.848 108.75 89.2578 108.75 65.0977C108.75 40.9375 89.1602 21.3477 65 21.3477ZM65 101.426C44.9414 101.426 28.6719 85.1562 28.6719 65.0977C28.6719 45.0391 44.9414 28.7695 65 28.7695C85.0586 28.7695 101.328 45.0391 101.328 65.0977C101.328 85.1562 85.0586 101.426 65 101.426Z" fill="white"/>
</svg>
