<svg width="138" height="138" viewBox="0 0 138 138" fill="none" xmlns="http://www.w3.org/2000/svg">
<rect width="130" height="130" transform="translate(4 4)" fill="black"/>
<path d="M111.25 46.25V111.25M111.25 111.25V134H26.75V111.25M111.25 111.25H134V46.25C134 36.5 127.5 25.125 117.75 17C108 8.875 88.5 4 88.5 4M26.75 111.25H4V46.25C4 36.5 10.5 25.125 20.25 17C30 8.875 49.5 4 49.5 4M26.75 111.25V46.25M49.5 4H88.5M49.5 4C49.5 14.7696 58.2305 23.5 69 23.5C79.7695 23.5 88.5 14.7696 88.5 4" stroke="white" stroke-width="7.5" stroke-linecap="round" stroke-linejoin="round"/>
</svg>
