<svg width="228" height="299" viewBox="0 0 228 299" fill="none" xmlns="http://www.w3.org/2000/svg">
<path d="M34.708 288.44C31.9213 288.44 29.5307 287.985 27.536 287.076C25.5707 286.167 24.0307 284.832 22.916 283.072C21.8307 281.312 21.2293 279.127 21.112 276.516C21.0827 275.313 21.068 274.023 21.068 272.644C21.068 271.265 21.0827 269.945 21.112 268.684C21.2293 266.132 21.8453 263.976 22.96 262.216C24.0747 260.427 25.6293 259.077 27.624 258.168C29.6187 257.229 31.98 256.76 34.708 256.76C36.644 256.76 38.4333 257.009 40.076 257.508C41.7187 257.977 43.156 258.681 44.388 259.62C45.62 260.529 46.5733 261.644 47.248 262.964C47.952 264.255 48.3187 265.721 48.348 267.364C48.3773 267.628 48.2893 267.848 48.084 268.024C47.908 268.2 47.688 268.288 47.424 268.288H41.484C41.1027 268.288 40.8093 268.215 40.604 268.068C40.3987 267.892 40.2227 267.584 40.076 267.144C39.6653 265.589 38.9907 264.533 38.052 263.976C37.1427 263.389 36.0133 263.096 34.664 263.096C33.0507 263.096 31.7747 263.551 30.836 264.46C29.8973 265.34 29.384 266.821 29.296 268.904C29.208 271.309 29.208 273.773 29.296 276.296C29.384 278.379 29.8973 279.875 30.836 280.784C31.7747 281.664 33.0507 282.104 34.664 282.104C36.0133 282.104 37.1573 281.811 38.096 281.224C39.0347 280.637 39.6947 279.581 40.076 278.056C40.1933 277.616 40.3547 277.323 40.56 277.176C40.7947 277 41.1027 276.912 41.484 276.912H47.424C47.688 276.912 47.908 277 48.084 277.176C48.2893 277.352 48.3773 277.572 48.348 277.836C48.3187 279.479 47.952 280.96 47.248 282.28C46.5733 283.571 45.62 284.685 44.388 285.624C43.156 286.533 41.7187 287.237 40.076 287.736C38.4333 288.205 36.644 288.44 34.708 288.44ZM53.5905 288C53.2679 288 53.0039 287.897 52.7985 287.692C52.5932 287.487 52.4905 287.223 52.4905 286.9V257.86C52.4905 257.537 52.5932 257.273 52.7985 257.068C53.0039 256.863 53.2679 256.76 53.5905 256.76H58.7825C59.1052 256.76 59.3692 256.863 59.5745 257.068C59.7799 257.273 59.8825 257.537 59.8825 257.86V286.9C59.8825 287.223 59.7799 287.487 59.5745 287.692C59.3692 287.897 59.1052 288 58.7825 288H53.5905ZM75.9044 288.44C73.4404 288.44 71.3577 288.044 69.6564 287.252C67.9844 286.46 66.6937 285.331 65.7844 283.864C64.9044 282.368 64.4057 280.593 64.2884 278.54C64.259 277.953 64.2444 277.293 64.2444 276.56C64.2444 275.797 64.259 275.137 64.2884 274.58C64.4057 272.497 64.9337 270.723 65.8724 269.256C66.811 267.789 68.1164 266.66 69.7884 265.868C71.4897 265.076 73.5284 264.68 75.9044 264.68C78.3097 264.68 80.3484 265.076 82.0204 265.868C83.7217 266.66 85.0417 267.789 85.9804 269.256C86.919 270.723 87.447 272.497 87.5644 274.58C87.5937 275.137 87.6084 275.797 87.6084 276.56C87.6084 277.293 87.5937 277.953 87.5644 278.54C87.447 280.593 86.9337 282.368 86.0244 283.864C85.1444 285.331 83.8537 286.46 82.1524 287.252C80.4804 288.044 78.3977 288.44 75.9044 288.44ZM75.9044 283.072C77.2244 283.072 78.1777 282.676 78.7644 281.884C79.3804 281.092 79.7324 279.904 79.8204 278.32C79.8497 277.88 79.8644 277.293 79.8644 276.56C79.8644 275.827 79.8497 275.24 79.8204 274.8C79.7324 273.245 79.3804 272.072 78.7644 271.28C78.1777 270.459 77.2244 270.048 75.9044 270.048C74.6137 270.048 73.6604 270.459 73.0444 271.28C72.4284 272.072 72.091 273.245 72.0324 274.8C72.003 275.24 71.9884 275.827 71.9884 276.56C71.9884 277.293 72.003 277.88 72.0324 278.32C72.091 279.904 72.4284 281.092 73.0444 281.884C73.6604 282.676 74.6137 283.072 75.9044 283.072ZM103.554 288C101.677 288 100.049 287.707 98.6699 287.12C97.3206 286.504 96.2792 285.565 95.5459 284.304C94.8126 283.013 94.4459 281.356 94.4459 279.332V270.884H91.0139C90.6912 270.884 90.4126 270.781 90.1779 270.576C89.9726 270.371 89.8699 270.107 89.8699 269.784V266.22C89.8699 265.897 89.9726 265.633 90.1779 265.428C90.4126 265.223 90.6912 265.12 91.0139 265.12H94.4459V257.86C94.4459 257.537 94.5486 257.273 94.7539 257.068C94.9886 256.863 95.2526 256.76 95.5459 256.76H100.65C100.973 256.76 101.237 256.863 101.442 257.068C101.647 257.273 101.75 257.537 101.75 257.86V265.12H107.25C107.573 265.12 107.837 265.223 108.042 265.428C108.247 265.633 108.35 265.897 108.35 266.22V269.784C108.35 270.107 108.247 270.371 108.042 270.576C107.837 270.781 107.573 270.884 107.25 270.884H101.75V278.716C101.75 279.713 101.941 280.505 102.322 281.092C102.703 281.679 103.349 281.972 104.258 281.972H107.646C107.969 281.972 108.233 282.075 108.438 282.28C108.643 282.485 108.746 282.749 108.746 283.072V286.9C108.746 287.223 108.643 287.487 108.438 287.692C108.233 287.897 107.969 288 107.646 288H103.554ZM113.489 288C113.166 288 112.902 287.897 112.697 287.692C112.492 287.487 112.389 287.223 112.389 286.9V257.86C112.389 257.537 112.492 257.273 112.697 257.068C112.902 256.863 113.166 256.76 113.489 256.76H119.121C119.444 256.76 119.708 256.863 119.913 257.068C120.118 257.273 120.221 257.537 120.221 257.86V267.672C121.013 266.763 121.981 266.044 123.125 265.516C124.298 264.959 125.648 264.68 127.173 264.68C128.874 264.68 130.385 265.061 131.705 265.824C133.054 266.587 134.11 267.716 134.873 269.212C135.636 270.679 136.017 272.483 136.017 274.624V286.9C136.017 287.223 135.914 287.487 135.709 287.692C135.504 287.897 135.24 288 134.917 288H129.241C128.948 288 128.684 287.897 128.449 287.692C128.244 287.487 128.141 287.223 128.141 286.9V274.888C128.141 273.509 127.804 272.453 127.129 271.72C126.484 270.957 125.516 270.576 124.225 270.576C123.022 270.576 122.054 270.957 121.321 271.72C120.588 272.453 120.221 273.509 120.221 274.888V286.9C120.221 287.223 120.118 287.487 119.913 287.692C119.708 287.897 119.444 288 119.121 288H113.489ZM142.106 288C141.783 288 141.519 287.897 141.314 287.692C141.109 287.487 141.006 287.223 141.006 286.9V266.22C141.006 265.897 141.109 265.633 141.314 265.428C141.519 265.223 141.783 265.12 142.106 265.12H147.298C147.591 265.12 147.841 265.223 148.046 265.428C148.281 265.633 148.398 265.897 148.398 266.22V286.9C148.398 287.223 148.281 287.487 148.046 287.692C147.841 287.897 147.591 288 147.298 288H142.106ZM142.062 261.82C141.739 261.82 141.475 261.717 141.27 261.512C141.065 261.307 140.962 261.043 140.962 260.72V256.804C140.962 256.481 141.065 256.217 141.27 256.012C141.475 255.777 141.739 255.66 142.062 255.66H147.298C147.621 255.66 147.885 255.777 148.09 256.012C148.325 256.217 148.442 256.481 148.442 256.804V260.72C148.442 261.043 148.325 261.307 148.09 261.512C147.885 261.717 147.621 261.82 147.298 261.82H142.062ZM156.028 288C155.705 288 155.441 287.897 155.236 287.692C155.031 287.487 154.928 287.223 154.928 286.9V266.22C154.928 265.897 155.031 265.633 155.236 265.428C155.441 265.223 155.705 265.12 156.028 265.12H161.088C161.411 265.12 161.675 265.223 161.88 265.428C162.085 265.633 162.188 265.897 162.188 266.22V267.892C162.951 266.983 163.948 266.22 165.18 265.604C166.412 264.988 167.864 264.68 169.536 264.68C171.237 264.68 172.733 265.061 174.024 265.824C175.344 266.587 176.371 267.716 177.104 269.212C177.867 270.679 178.248 272.483 178.248 274.624V286.9C178.248 287.223 178.131 287.487 177.896 287.692C177.691 287.897 177.441 288 177.148 288H171.604C171.311 288 171.047 287.897 170.812 287.692C170.607 287.487 170.504 287.223 170.504 286.9V274.888C170.504 273.509 170.167 272.453 169.492 271.72C168.847 270.957 167.879 270.576 166.588 270.576C165.385 270.576 164.417 270.957 163.684 271.72C162.98 272.453 162.628 273.509 162.628 274.888V286.9C162.628 287.223 162.511 287.487 162.276 287.692C162.071 287.897 161.821 288 161.528 288H156.028ZM194.379 297.68C192.12 297.68 190.243 297.387 188.747 296.8C187.28 296.213 186.107 295.509 185.227 294.688C184.376 293.867 183.76 293.045 183.379 292.224C182.997 291.432 182.792 290.801 182.763 290.332C182.733 290.009 182.836 289.745 183.071 289.54C183.305 289.335 183.584 289.232 183.907 289.232H189.495C189.759 289.232 189.979 289.291 190.155 289.408C190.36 289.555 190.521 289.789 190.639 290.112C190.785 290.435 190.976 290.772 191.211 291.124C191.475 291.476 191.827 291.755 192.267 291.96C192.736 292.195 193.367 292.312 194.159 292.312C195.039 292.312 195.772 292.165 196.359 291.872C196.945 291.608 197.385 291.153 197.679 290.508C197.972 289.892 198.119 289.056 198.119 288V285.052C197.444 285.785 196.579 286.387 195.523 286.856C194.467 287.296 193.191 287.516 191.695 287.516C190.199 287.516 188.879 287.296 187.735 286.856C186.591 286.416 185.637 285.756 184.875 284.876C184.112 283.996 183.511 282.925 183.071 281.664C182.66 280.403 182.411 278.951 182.323 277.308C182.293 276.545 182.293 275.783 182.323 275.02C182.411 273.436 182.66 272.013 183.071 270.752C183.481 269.491 184.068 268.405 184.831 267.496C185.623 266.587 186.591 265.897 187.735 265.428C188.879 264.929 190.199 264.68 191.695 264.68C193.279 264.68 194.628 264.988 195.743 265.604C196.887 266.191 197.825 266.939 198.559 267.848V266.22C198.559 265.927 198.661 265.677 198.867 265.472C199.072 265.237 199.336 265.12 199.659 265.12H204.719C205.041 265.12 205.305 265.237 205.511 265.472C205.745 265.677 205.863 265.927 205.863 266.22V287.384C205.863 289.613 205.408 291.491 204.499 293.016C203.589 294.541 202.284 295.7 200.583 296.492C198.881 297.284 196.813 297.68 194.379 297.68ZM194.071 281.796C195.009 281.796 195.772 281.591 196.359 281.18C196.945 280.769 197.371 280.241 197.635 279.596C197.928 278.951 198.089 278.261 198.119 277.528C198.148 277.205 198.163 276.751 198.163 276.164C198.163 275.577 198.148 275.137 198.119 274.844C198.089 274.081 197.928 273.377 197.635 272.732C197.371 272.087 196.945 271.573 196.359 271.192C195.772 270.781 195.009 270.576 194.071 270.576C193.103 270.576 192.325 270.781 191.739 271.192C191.181 271.603 190.771 272.16 190.507 272.864C190.272 273.568 190.125 274.345 190.067 275.196C190.037 275.841 190.037 276.501 190.067 277.176C190.125 278.027 190.272 278.804 190.507 279.508C190.771 280.212 191.181 280.769 191.739 281.18C192.325 281.591 193.103 281.796 194.071 281.796Z" fill="black"/>
<rect x="0.90625" width="226.456" height="226.456" rx="13.5874" fill="#333333"/>
<path d="M157.605 89.6666V123V156.333M157.605 156.333V179.667H70.9388V156.333M157.605 156.333H180.939V89.6666C180.939 79.6666 174.272 67.9999 164.272 59.6666C154.272 51.3333 134.272 46.3333 134.272 46.3333H94.2721C94.2721 46.3333 74.2721 51.3333 64.2721 59.6666C54.2721 67.9999 47.6055 79.6666 47.6055 89.6666V156.333H70.9388M70.9388 156.333V89.6666" stroke="white" stroke-width="7.5" stroke-linecap="round" stroke-linejoin="round"/>
<path d="M134.271 46.3333C134.271 57.379 125.317 66.3333 114.271 66.3333C103.226 66.3333 94.2715 57.379 94.2715 46.3333" stroke="white" stroke-width="7.5" stroke-linecap="round" stroke-linejoin="round"/>
</svg>
