<svg width="130" height="130" viewBox="0 0 130 130" fill="none" xmlns="http://www.w3.org/2000/svg">
<rect width="130" height="130" rx="65" fill="#1166ff"/>
<path d="M65 81.6667L81.6667 65L65 48.3334L59.1667 54.1667L65.8334 60.8334H48.3334V69.1667H65.8334L59.1667 75.8334L65 81.6667ZM65 106.667C59.2362 106.667 53.8195 105.572 48.75 103.383C43.6806 101.197 39.2709 98.2292 35.5209 94.4792C31.7709 90.7292 28.8028 86.3195 26.6167 81.25C24.4278 76.1806 23.3334 70.7639 23.3334 65C23.3334 59.2362 24.4278 53.8195 26.6167 48.75C28.8028 43.6806 31.7709 39.2709 35.5209 35.5209C39.2709 31.7709 43.6806 28.8014 48.75 26.6125C53.8195 24.4264 59.2362 23.3334 65 23.3334C70.7639 23.3334 76.1806 24.4264 81.25 26.6125C86.3195 28.8014 90.7292 31.7709 94.4792 35.5209C98.2292 39.2709 101.197 43.6806 103.383 48.75C105.572 53.8195 106.667 59.2362 106.667 65C106.667 70.7639 105.572 76.1806 103.383 81.25C101.197 86.3195 98.2292 90.7292 94.4792 94.4792C90.7292 98.2292 86.3195 101.197 81.25 103.383C76.1806 105.572 70.7639 106.667 65 106.667ZM65 98.3334C74.3056 98.3334 82.1875 95.1042 88.6459 88.6459C95.1042 82.1875 98.3334 74.3056 98.3334 65C98.3334 55.6945 95.1042 47.8125 88.6459 41.3542C82.1875 34.8959 74.3056 31.6667 65 31.6667C55.6945 31.6667 47.8125 34.8959 41.3542 41.3542C34.8959 47.8125 31.6667 55.6945 31.6667 65C31.6667 74.3056 34.8959 82.1875 41.3542 88.6459C47.8125 95.1042 55.6945 98.3334 65 98.3334Z" fill="white"/>
</svg>
