<svg width="130" height="130" viewBox="0 0 130 130" fill="none" xmlns="http://www.w3.org/2000/svg">
<rect width="130" height="130" rx="65" fill="#FF0000"/>
<path d="M65 48.3333L48.3333 65L65 81.6666L70.8333 75.8333L64.1666 69.1666H81.6666V60.8333L64.1666 60.8333L70.8333 54.1666L65 48.3333ZM65 23.3333C70.7638 23.3333 76.1805 24.4277 81.25 26.6166C86.3194 28.8027 90.7291 31.7708 94.4791 35.5208C98.2291 39.2708 101.197 43.6805 103.383 48.75C105.572 53.8194 106.667 59.2361 106.667 65C106.667 70.7638 105.572 76.1805 103.383 81.25C101.197 86.3194 98.2291 90.7291 94.4791 94.4791C90.7291 98.2291 86.3194 101.199 81.25 103.387C76.1805 105.574 70.7638 106.667 65 106.667C59.2361 106.667 53.8194 105.574 48.75 103.387C43.6805 101.199 39.2708 98.2291 35.5208 94.4791C31.7708 90.7291 28.8027 86.3194 26.6166 81.25C24.4277 76.1805 23.3333 70.7638 23.3333 65C23.3333 59.2361 24.4277 53.8194 26.6166 48.75C28.8027 43.6805 31.7708 39.2708 35.5208 35.5208C39.2708 31.7708 43.6805 28.8027 48.75 26.6166C53.8194 24.4277 59.2361 23.3333 65 23.3333ZM65 31.6666C55.6944 31.6666 47.8125 34.8958 41.3541 41.3541C34.8958 47.8125 31.6666 55.6944 31.6666 65C31.6666 74.3055 34.8958 82.1875 41.3541 88.6458C47.8125 95.1041 55.6944 98.3333 65 98.3333C74.3055 98.3333 82.1875 95.1041 88.6458 88.6458C95.1041 82.1875 98.3333 74.3055 98.3333 65C98.3333 55.6944 95.1041 47.8125 88.6458 41.3541C82.1875 34.8958 74.3055 31.6666 65 31.6666Z" fill="white"/>
</svg>
