<svg width="90" height="90" viewBox="0 0 90 90" fill="none" xmlns="http://www.w3.org/2000/svg">
<rect x="0.0" width="90" height="90" rx="13.5874" fill="#FFFFFF"/>
<path d="M61.7775 20.28L69.72 28.2187M66.885 13.2862L45.4088 34.7625C44.2991 35.8706 43.5423 37.2824 43.2338 38.82L41.25 48.75L51.18 46.7625C52.7175 46.455 54.1275 45.7012 55.2375 44.5912L76.7138 23.115C77.3591 22.4696 77.871 21.7035 78.2203 20.8603C78.5696 20.0171 78.7493 19.1133 78.7493 18.2006C78.7493 17.2879 78.5696 16.3842 78.2203 15.541C77.871 14.6978 77.3591 13.9316 76.7138 13.2862C76.0684 12.6409 75.3022 12.129 74.459 11.7797C73.6158 11.4304 72.7121 11.2506 71.7994 11.2506C70.8867 11.2506 69.9829 11.4304 69.1397 11.7797C68.2965 12.129 67.5304 12.6409 66.885 13.2862V13.2862Z" stroke="black" stroke-width="7.5" stroke-linecap="round" stroke-linejoin="round"/>
<path d="M71.25 56.25V67.5C71.25 69.4891 70.4598 71.3968 69.0533 72.8033C67.6468 74.2098 65.7391 75 63.75 75H22.5C20.5109 75 18.6032 74.2098 17.1967 72.8033C15.7902 71.3968 15 69.4891 15 67.5V26.25C15 24.2609 15.7902 22.3532 17.1967 20.9467C18.6032 19.5402 20.5109 18.75 22.5 18.75H33.75" stroke="black" stroke-width="7.5" stroke-linecap="round" stroke-linejoin="round"/>
</svg>
