<svg width="90" height="90" viewBox="0 0 90 90" fill="none" xmlns="http://www.w3.org/2000/svg">
<rect width="90" height="90" rx="45" fill="#3C3C3C"/>
<path d="M58.0913 24.9317L65.0683 31.9055M62.5779 18.7882L43.7123 37.6538C42.7375 38.6272 42.0727 39.8674 41.8017 41.218L40.0591 49.9409L48.782 48.195C50.1326 47.9249 51.3712 47.2628 52.3463 46.2877L71.2119 27.4221C71.7788 26.8552 72.2285 26.1822 72.5353 25.4415C72.8421 24.7008 73 23.9069 73 23.1051C73 22.3034 72.8421 21.5095 72.5353 20.7688C72.2285 20.0281 71.7788 19.3551 71.2119 18.7882C70.645 18.2212 69.9719 17.7715 69.2312 17.4647C68.4905 17.1579 67.6966 17 66.8949 17C66.0931 17 65.2993 17.1579 64.5585 17.4647C63.8178 17.7715 63.1448 18.2212 62.5779 18.7882V18.7882Z" stroke="white" stroke-width="7.5" stroke-linecap="round" stroke-linejoin="round"/>
<path d="M66.4123 56.5293V66.4117C66.4123 68.1591 65.7181 69.8348 64.4826 71.0704C63.2471 72.3059 61.5713 73 59.824 73H23.5883C21.841 73 20.1652 72.3059 18.9297 71.0704C17.6941 69.8348 17 68.1591 17 66.4117V30.1761C17 28.4287 17.6941 26.753 18.9297 25.5174C20.1652 24.2819 21.841 23.5878 23.5883 23.5878H33.4708" stroke="white" stroke-width="7.5" stroke-linecap="round" stroke-linejoin="round"/>
</svg>
