<svg width="150" height="84" viewBox="0 0 150 84" fill="none" xmlns="http://www.w3.org/2000/svg">
<path d="M75 0C25.7925 0 0 36.24 0 42C0 47.745 25.7925 84 75 84C124.2 84 150 47.745 150 42C150 36.24 124.2 0 75 0ZM75 74.3025C56.5875 74.3025 41.6625 59.8425 41.6625 42C41.6625 24.1575 56.5875 9.6825 75 9.6825C93.4125 9.6825 108.33 24.1575 108.33 42C108.33 59.8425 93.4125 74.3025 75 74.3025ZM75 42C71.9475 38.6475 79.9725 25.845 75 25.845C65.79 25.845 58.3275 33.0825 58.3275 42C58.3275 50.9175 65.79 58.155 75 58.155C84.2025 58.155 91.6725 50.9175 91.6725 42C91.6725 37.8975 77.595 44.8425 75 42Z" fill="white"/>
</svg>
