<svg width="227" height="227" viewBox="0 0 227 227" fill="none" xmlns="http://www.w3.org/2000/svg">
<g clip-path="url(#clip0_1230_19201)">
<path d="M113.273 79.2C60.7854 79.2 33.2734 117.856 33.2734 124C33.2734 130.128 60.7854 168.8 113.273 168.8C165.753 168.8 193.273 130.128 193.273 124C193.273 117.856 165.753 79.2 113.273 79.2ZM113.273 158.456C93.6334 158.456 77.7134 143.032 77.7134 124C77.7134 104.968 93.6334 89.528 113.273 89.528C132.913 89.528 148.825 104.968 148.825 124C148.825 143.032 132.913 158.456 113.273 158.456ZM113.273 124C110.017 120.424 118.577 106.768 113.273 106.768C103.449 106.768 95.4894 114.488 95.4894 124C95.4894 133.512 103.449 141.232 113.273 141.232C123.089 141.232 131.057 133.512 131.057 124C131.057 119.624 116.041 127.032 113.273 124Z" fill="white"/>
</g>
<defs>
<clipPath id="clip0_1230_19201">
<rect width="160" height="160" fill="white" transform="translate(33.2734 44)"/>
</clipPath>
</defs>
</svg>
