<svg width="228" height="299" viewBox="0 0 228 299" fill="none" xmlns="http://www.w3.org/2000/svg">
<path d="M66.18 288C65.8573 288 65.5933 287.897 65.388 287.692C65.1827 287.487 65.08 287.223 65.08 286.9V258.3C65.08 257.977 65.1827 257.713 65.388 257.508C65.5933 257.303 65.8573 257.2 66.18 257.2H86.728C87.0507 257.2 87.3147 257.303 87.52 257.508C87.7253 257.713 87.828 257.977 87.828 258.3V262.436C87.828 262.759 87.7253 263.023 87.52 263.228C87.3147 263.433 87.0507 263.536 86.728 263.536H72.692V269.476H85.76C86.0827 269.476 86.3467 269.593 86.552 269.828C86.7573 270.033 86.86 270.297 86.86 270.62V274.448C86.86 274.741 86.7573 275.005 86.552 275.24C86.3467 275.445 86.0827 275.548 85.76 275.548H72.692V281.664H87.08C87.4027 281.664 87.6667 281.767 87.872 281.972C88.0773 282.177 88.18 282.441 88.18 282.764V286.9C88.18 287.223 88.0773 287.487 87.872 287.692C87.6667 287.897 87.4027 288 87.08 288H66.18ZM96.5359 296.36C96.2719 296.36 96.0519 296.272 95.8759 296.096C95.6999 295.92 95.6119 295.7 95.6119 295.436C95.6119 295.377 95.6119 295.289 95.6119 295.172C95.6412 295.084 95.6852 294.981 95.7439 294.864L99.1759 286.592L90.7279 266.616C90.6399 266.411 90.5959 266.235 90.5959 266.088C90.6545 265.824 90.7719 265.604 90.9479 265.428C91.1239 265.223 91.3439 265.12 91.6079 265.12H96.6239C97.0052 265.12 97.2839 265.223 97.4599 265.428C97.6652 265.604 97.7972 265.809 97.8559 266.044L102.916 278.848L108.064 266.044C108.181 265.809 108.328 265.604 108.504 265.428C108.709 265.223 109.003 265.12 109.384 265.12H114.312C114.576 265.12 114.796 265.223 114.972 265.428C115.177 265.604 115.28 265.809 115.28 266.044C115.28 266.191 115.236 266.381 115.148 266.616L102.696 295.436C102.608 295.671 102.461 295.876 102.256 296.052C102.051 296.257 101.757 296.36 101.376 296.36H96.5359ZM128.222 288.44C124.761 288.44 122.004 287.501 119.95 285.624C117.897 283.747 116.826 280.96 116.738 277.264C116.738 277.059 116.738 276.795 116.738 276.472C116.738 276.149 116.738 275.9 116.738 275.724C116.826 273.407 117.34 271.427 118.278 269.784C119.246 268.112 120.566 266.851 122.238 266C123.94 265.12 125.92 264.68 128.178 264.68C130.76 264.68 132.886 265.193 134.558 266.22C136.26 267.247 137.536 268.64 138.386 270.4C139.237 272.16 139.662 274.169 139.662 276.428V277.484C139.662 277.807 139.545 278.071 139.31 278.276C139.105 278.481 138.856 278.584 138.562 278.584H124.482C124.482 278.613 124.482 278.657 124.482 278.716C124.482 278.775 124.482 278.833 124.482 278.892C124.512 279.743 124.658 280.52 124.922 281.224C125.186 281.928 125.597 282.485 126.154 282.896C126.712 283.307 127.386 283.512 128.178 283.512C128.765 283.512 129.249 283.424 129.63 283.248C130.041 283.043 130.378 282.823 130.642 282.588C130.906 282.324 131.112 282.104 131.258 281.928C131.522 281.635 131.728 281.459 131.874 281.4C132.05 281.312 132.314 281.268 132.666 281.268H138.122C138.416 281.268 138.65 281.356 138.826 281.532C139.032 281.679 139.12 281.899 139.09 282.192C139.061 282.691 138.812 283.292 138.342 283.996C137.873 284.7 137.184 285.404 136.274 286.108C135.394 286.783 134.28 287.34 132.93 287.78C131.581 288.22 130.012 288.44 128.222 288.44ZM124.482 274.228H131.918V274.14C131.918 273.201 131.772 272.38 131.478 271.676C131.214 270.972 130.789 270.429 130.202 270.048C129.645 269.667 128.97 269.476 128.178 269.476C127.386 269.476 126.712 269.667 126.154 270.048C125.626 270.429 125.216 270.972 124.922 271.676C124.629 272.38 124.482 273.201 124.482 274.14V274.228ZM153.203 288.44C151.297 288.44 149.669 288.235 148.319 287.824C146.999 287.384 145.914 286.856 145.063 286.24C144.242 285.624 143.626 284.993 143.215 284.348C142.805 283.673 142.585 283.101 142.555 282.632C142.526 282.309 142.629 282.045 142.863 281.84C143.098 281.605 143.347 281.488 143.611 281.488H148.627C148.715 281.488 148.789 281.503 148.847 281.532C148.906 281.561 148.994 281.62 149.111 281.708C149.493 281.913 149.874 282.177 150.255 282.5C150.637 282.793 151.077 283.057 151.575 283.292C152.074 283.527 152.675 283.644 153.379 283.644C154.201 283.644 154.89 283.483 155.447 283.16C156.005 282.837 156.283 282.353 156.283 281.708C156.283 281.239 156.151 280.857 155.887 280.564C155.623 280.241 155.081 279.933 154.259 279.64C153.467 279.347 152.265 279.053 150.651 278.76C149.126 278.408 147.791 277.953 146.647 277.396C145.503 276.809 144.623 276.061 144.007 275.152C143.391 274.213 143.083 273.084 143.083 271.764C143.083 270.591 143.465 269.461 144.227 268.376C144.99 267.291 146.105 266.411 147.571 265.736C149.038 265.032 150.842 264.68 152.983 264.68C154.685 264.68 156.151 264.885 157.383 265.296C158.645 265.677 159.701 266.176 160.551 266.792C161.431 267.408 162.091 268.039 162.531 268.684C162.971 269.329 163.206 269.916 163.235 270.444C163.265 270.737 163.177 271.001 162.971 271.236C162.766 271.441 162.531 271.544 162.267 271.544H157.691C157.574 271.544 157.457 271.529 157.339 271.5C157.222 271.441 157.119 271.383 157.031 271.324C156.679 271.148 156.327 270.913 155.975 270.62C155.623 270.327 155.213 270.063 154.743 269.828C154.274 269.593 153.687 269.476 152.983 269.476C152.191 269.476 151.575 269.652 151.135 270.004C150.695 270.356 150.475 270.811 150.475 271.368C150.475 271.749 150.593 272.101 150.827 272.424C151.091 272.747 151.605 273.04 152.367 273.304C153.159 273.568 154.377 273.861 156.019 274.184C158.043 274.507 159.657 275.035 160.859 275.768C162.062 276.472 162.913 277.308 163.411 278.276C163.91 279.215 164.159 280.212 164.159 281.268C164.159 282.676 163.734 283.923 162.883 285.008C162.062 286.093 160.83 286.944 159.187 287.56C157.545 288.147 155.55 288.44 153.203 288.44Z" fill="black"/>
<rect x="0.818359" width="226.456" height="226.456" rx="13.5874" fill="#333333"/>
<path d="M114 79.2C61.512 79.2 34 117.856 34 124C34 130.128 61.512 168.8 114 168.8C166.48 168.8 194 130.128 194 124C194 117.856 166.48 79.2 114 79.2ZM114 158.456C94.36 158.456 78.44 143.032 78.44 124C78.44 104.968 94.36 89.528 114 89.528C133.64 89.528 149.552 104.968 149.552 124C149.552 143.032 133.64 158.456 114 158.456ZM114 124C110.744 120.424 119.304 106.768 114 106.768C104.176 106.768 96.216 114.488 96.216 124C96.216 133.512 104.176 141.232 114 141.232C123.816 141.232 131.784 133.512 131.784 124C131.784 119.624 116.768 127.032 114 124Z" fill="white"/>
</svg>
