<svg width="83" height="83" viewBox="0 0 83 83" fill="none" xmlns="http://www.w3.org/2000/svg">
<path d="M0 78.75C0 80.775 1.6875 82.5 3.75 82.5H52.5C54.6 82.5 56.25 80.775 56.25 78.75V75H0V78.75ZM28.125 30C14.0625 30 0 37.5 0 52.5H56.25C56.25 37.5 42.1875 30 28.125 30ZM9.825 45C13.9875 39.1875 22.8375 37.5 28.125 37.5C33.4125 37.5 42.2625 39.1875 46.425 45H9.825ZM0 60H56.25V67.5H0V60ZM63.75 15V0H56.25V15H37.5L38.3625 22.5H74.2125L68.9625 75H63.75V82.5H70.2C73.35 82.5 75.9375 80.0625 76.3125 76.9875L82.5 15H63.75Z" fill="black"/>
</svg>
