<?xml version="1.0" encoding="UTF-8" standalone="no"?>
<svg
   width="84"
   height="84"
   viewBox="0 0 84 84"
   fill="none"
   version="1.1"
   id="svg6608"
   sodipodi:docname="Food_2Icon.svg"
   inkscape:version="1.1.2 (b8e25be833, 2022-02-05)"
   xmlns:inkscape="http://www.inkscape.org/namespaces/inkscape"
   xmlns:sodipodi="http://sodipodi.sourceforge.net/DTD/sodipodi-0.dtd"
   xmlns="http://www.w3.org/2000/svg"
   xmlns:svg="http://www.w3.org/2000/svg">
  <defs
     id="defs6612" />
  <sodipodi:namedview
     id="namedview6610"
     pagecolor="#505050"
     bordercolor="#eeeeee"
     borderopacity="1"
     inkscape:pageshadow="0"
     inkscape:pageopacity="0"
     inkscape:pagecheckerboard="0"
     showgrid="false"
     inkscape:zoom="10.011905"
     inkscape:cx="42"
     inkscape:cy="42"
     inkscape:window-width="1920"
     inkscape:window-height="1028"
     inkscape:window-x="-6"
     inkscape:window-y="-6"
     inkscape:window-maximized="1"
     inkscape:current-layer="svg6608" />
  <path
     d="M0.75 79.5C0.75 81.525 2.4375 83.25 4.5 83.25H53.25C55.35 83.25 57 81.525 57 79.5V75.75H0.75V79.5ZM28.875 30.75C14.8125 30.75 0.75 38.25 0.75 53.25H57C57 38.25 42.9375 30.75 28.875 30.75ZM10.575 45.75C14.7375 39.9375 23.5875 38.25 28.875 38.25C34.1625 38.25 43.0125 39.9375 47.175 45.75H10.575ZM0.75 60.75H57V68.25H0.75V60.75ZM64.5 15.75V0.75H57V15.75H38.25L39.1125 23.25H74.9625L69.7125 75.75H64.5V83.25H70.95C74.1 83.25 76.6875 80.8125 77.0625 77.7375L83.25 15.75H64.5Z"
     fill="black"
     id="path6606" />
  <path
     style="fill:#black;stroke-width:0.0998811"
     d="M 0.83552768,52.060797 C 1.3545908,42.876217 7.2257113,35.951575 17.32937,32.607278 c 11.232985,-3.718101 24.785213,-1.550508 32.611177,5.215953 2.110683,1.824932 3.638235,3.767186 4.841607,6.156013 1.353797,2.687437 2.14128,5.833638 2.148339,8.583182 l 0.0017,0.674197 H 28.85065 0.76907633 Z M 47.243747,45.770511 c -6e-6,-0.0412 -0.314725,-0.444471 -0.699375,-0.896155 -4.608798,-5.411977 -14.799456,-7.935622 -24.071126,-5.961045 -4.086382,0.870272 -7.414643,2.413157 -9.939011,4.607436 -0.80141,0.696617 -1.946839,1.997433 -1.946839,2.210943 0,0.08464 4.687844,0.113732 18.328181,0.113732 10.080499,0 18.328175,-0.03371 18.32817,-0.07491 z"
     id="path6726" />
  <path
     style="fill:#black;stroke-width:0.0998811"
     d="M 3.5457788,83.060903 C 2.4710239,82.720111 1.5975029,81.95858 1.1286071,80.953627 0.8519326,80.360648 0.84865539,80.330422 0.81726725,78.082045 L 0.7855452,75.80975 h 28.0733388 28.07334 v 2.13157 c 0,2.394305 -0.0629,2.748278 -0.643798,3.623177 -0.451104,0.679412 -1.127179,1.180274 -1.938662,1.436232 -0.628422,0.198218 -0.883925,0.200155 -25.51962,0.193541 C 9.0216361,83.188951 3.863803,83.161745 3.5457788,83.060903 Z"
     id="path6765" />
  <path
     style="fill:#black;stroke-width:0.0998811"
     d="m 64.523187,79.507009 v -3.693942 l 2.619607,-0.02663 2.619609,-0.02663 2.617906,-26.118906 c 1.439849,-14.365399 2.620717,-26.197563 2.62415,-26.293698 0.0059,-0.165843 -0.911421,-0.174792 -17.916294,-0.174792 H 39.165629 l -0.05862,-0.424495 C 38.979606,21.825377 38.35434,16.230259 38.35434,16.012771 v -0.231558 h 9.338882 9.338883 V 8.2901308 0.79904875 h 3.6956 3.695601 V 8.2901308 15.781213 h 9.398195 9.398196 l -0.06174,0.474435 c -0.03395,0.260939 -1.431748,14.215706 -3.106207,31.010591 -1.674457,16.794885 -3.093915,30.773244 -3.154352,31.06302 -0.06044,0.289776 -0.284543,0.903062 -0.498017,1.362857 -0.31679,0.682327 -0.539759,0.987403 -1.213021,1.659705 -0.930497,0.929169 -1.656386,1.351124 -2.849121,1.656174 -0.675699,0.172815 -1.122894,0.192956 -4.284251,0.192956 h -3.529802 z"
     id="path6804" />
  <path
     style="fill:#black;stroke-width:0.0998811"
     d="M 0.79904875,64.523187 V 60.827586 H 28.865636 56.932224 v 3.695601 3.6956 H 28.865636 0.79904875 Z"
     id="path6843" />
  <path
     style="fill:#black;stroke-width:0.0998811"
     d="M 64.523187,79.505351 V 75.80975 h 2.633273 2.633272 l 0.05507,-0.424494 c 0.03029,-0.233472 1.214565,-12.034604 2.631723,-26.224737 2.222859,-22.257663 2.556595,-25.81293 2.430564,-25.892645 -0.08807,-0.05571 -7.19801,-0.09301 -17.903088,-0.09393 -14.115902,-0.0012 -17.765467,-0.02713 -17.798292,-0.126381 -0.03247,-0.09818 -0.399247,-3.29161 -0.791546,-6.891795 l -0.04081,-0.374554 h 9.329378 9.329378 V 8.2901308 0.79904875 h 3.6956 3.695601 V 8.2901308 15.781213 h 9.364375 9.364374 l -1.220857,12.210464 c -1.36259,13.627993 -4.145589,41.34149 -4.676533,46.56956 -0.189685,1.867776 -0.41372,3.65774 -0.497857,3.977698 -0.494814,1.881693 -2.061086,3.59748 -3.871974,4.241585 -0.630047,0.224099 -0.953266,0.265666 -2.568544,0.330329 -1.01629,0.04068 -2.735493,0.0776 -3.820452,0.08204 l -1.972651,0.0081 z"
     id="path6919" />
  <path
     style="fill:#black;stroke-width:0.0998811"
     d="M 64.523187,79.499867 V 75.80975 h 2.644946 2.644946 l 0.04894,-0.224732 c 0.04549,-0.208878 3.717368,-36.93486 4.496263,-44.971463 0.42278,-4.362223 0.659981,-7.248214 0.603274,-7.339967 -0.02316,-0.03747 -8.051151,-0.09717 -17.839984,-0.132672 -9.788832,-0.0355 -17.817325,-0.08399 -17.841096,-0.107761 -0.04713,-0.04713 -0.824007,-6.661178 -0.825402,-7.02721 l -8.57e-4,-0.224732 h 9.288942 9.288942 V 8.2901308 0.79904875 h 3.6956 3.695601 V 8.2901308 15.781213 h 9.348255 9.348255 l -0.06012,0.474435 c -0.03307,0.260939 -1.318777,13.059453 -2.857131,28.441142 -2.927914,29.275601 -3.232406,32.250354 -3.40961,33.310344 -0.374576,2.240624 -2.198419,4.277884 -4.337352,4.844888 -0.421665,0.111778 -1.249788,0.170239 -2.888416,0.203909 -1.263496,0.02596 -2.91528,0.06674 -3.67063,0.09063 l -1.373365,0.04342 z"
     id="path6958" />
</svg>
