<?xml version="1.0" encoding="UTF-8" standalone="no"?>
<svg
   width="60"
   height="68"
   viewBox="0 0 60 68"
   fill="none"
   version="1.1"
   id="svg2862"
   sodipodi:docname="Food_Icon.svg"
   inkscape:version="1.1.2 (b8e25be833, 2022-02-05)"
   xmlns:inkscape="http://www.inkscape.org/namespaces/inkscape"
   xmlns:sodipodi="http://sodipodi.sourceforge.net/DTD/sodipodi-0.dtd"
   xmlns="http://www.w3.org/2000/svg"
   xmlns:svg="http://www.w3.org/2000/svg">
  <defs
     id="defs2866" />
  <sodipodi:namedview
     id="namedview2864"
     pagecolor="#505050"
     bordercolor="#eeeeee"
     borderopacity="1"
     inkscape:pageshadow="0"
     inkscape:pageopacity="0"
     inkscape:pagecheckerboard="0"
     showgrid="false"
     inkscape:zoom="12.367647"
     inkscape:cx="30.03805"
     inkscape:cy="34"
     inkscape:window-width="1920"
     inkscape:window-height="1028"
     inkscape:window-x="-6"
     inkscape:window-y="-6"
     inkscape:window-maximized="1"
     inkscape:current-layer="svg2862" />
  <path
     d="M0 67.75V22.75L30 0.25L60 22.75V67.75H0ZM7.5 60.25H52.5V26.5L30 9.625L7.5 26.5V60.25ZM22.5 56.5H26.25V41.5C27.8125 41.5 29.14 40.9525 30.2325 39.8575C31.3275 38.765 31.875 37.4375 31.875 35.875V24.625H28.125V35.875H26.25V24.625H22.5V35.875H20.625V24.625H16.875V35.875C16.875 37.4375 17.4225 38.765 18.5175 39.8575C19.61 40.9525 20.9375 41.5 22.5 41.5V56.5ZM37.5 56.5H41.25V24.625C39.1875 24.625 37.4225 25.3587 35.955 26.8263C34.485 28.2962 33.75 30.0625 33.75 32.125V43.375H37.5V56.5Z"
     fill="black"
     id="path2860"
     style="fill:#black" />
  <path
     style="fill:#black;fill-opacity:1;stroke-width:0.0808561"
     d="m 22.558859,48.966589 v -7.470985 l -0.586207,-0.05766 c -1.317209,-0.129559 -2.455994,-0.672349 -3.408061,-1.624416 -0.672597,-0.672597 -1.09914,-1.357599 -1.404699,-2.255861 l -0.220036,-0.646849 -0.0238,-6.124851 -0.0238,-6.124851 h 1.863028 1.863029 v 5.6195 5.619501 h 0.970273 0.970274 v -5.619501 -5.6195 h 1.819262 1.819263 v 5.6195 5.619501 h 0.970274 0.970273 v -5.619501 -5.6195 h 1.859691 1.859691 l -0.0028,5.801427 c -0.003,6.157328 -0.01999,6.478321 -0.395682,7.470767 -0.24831,0.655959 -0.706308,1.32531 -1.319736,1.928757 -0.924253,0.909215 -1.884978,1.37241 -3.213392,1.549276 l -0.728297,0.09697 v 7.464631 7.464631 h -1.819263 -1.819262 z"
     id="path6283" />
  <path
     style="fill:#black;fill-opacity:1;stroke-width:0.0808561"
     d="m 37.517241,49.888228 v -6.549346 h -1.85969 -1.859691 l 0.0011,-6.003567 c 9.87e-4,-5.58131 0.01187,-6.055943 0.154735,-6.748231 0.177558,-0.860409 0.560869,-1.796851 1.019216,-2.489985 0.809174,-1.22367 2.296548,-2.445045 3.580541,-2.940205 0.663175,-0.255748 1.810787,-0.495776 2.370376,-0.495776 h 0.312833 V 40.549346 56.437574 H 39.37697 37.517279 Z"
     id="path6322" />
</svg>
