<svg width="228" height="227" viewBox="0 0 228 227" fill="none" xmlns="http://www.w3.org/2000/svg">
<rect x="0.818359" width="226.456" height="226.456" rx="13.5874" fill="#27AE60"/>
<path d="M58.2554 130.48C55.2154 130.48 52.5914 129.984 50.3834 128.992C48.2074 127.968 46.5114 126.496 45.2954 124.576C44.1114 122.624 43.4554 120.256 43.3274 117.472C43.2954 116.096 43.2794 114.64 43.2794 113.104C43.2794 111.536 43.2954 110.048 43.3274 108.64C43.4554 105.92 44.1274 103.616 45.3434 101.728C46.5594 99.84 48.2714 98.4 50.4794 97.408C52.6874 96.416 55.2794 95.92 58.2554 95.92C60.6554 95.92 62.7834 96.224 64.6394 96.832C66.4954 97.408 68.0474 98.192 69.2954 99.184C70.5754 100.176 71.5354 101.264 72.1754 102.448C72.8474 103.632 73.1994 104.8 73.2314 105.952C73.2634 106.24 73.1674 106.48 72.9434 106.672C72.7514 106.864 72.5114 106.96 72.2234 106.96H65.2154C64.8634 106.96 64.5914 106.912 64.3994 106.816C64.2394 106.688 64.0954 106.512 63.9674 106.288C63.7434 105.808 63.4074 105.312 62.9594 104.8C62.5434 104.256 61.9514 103.792 61.1834 103.408C60.4474 103.024 59.4714 102.832 58.2554 102.832C56.4314 102.832 54.9914 103.312 53.9354 104.272C52.9114 105.232 52.3514 106.768 52.2554 108.88C52.1594 111.632 52.1594 114.416 52.2554 117.232C52.3514 119.472 52.9434 121.088 54.0314 122.08C55.1194 123.072 56.5594 123.568 58.3514 123.568C59.5674 123.568 60.6394 123.36 61.5674 122.944C62.5274 122.528 63.2794 121.888 63.8234 121.024C64.3674 120.128 64.6394 118.992 64.6394 117.616V116.704H60.1274C59.7754 116.704 59.4714 116.592 59.2154 116.368C58.9914 116.112 58.8794 115.808 58.8794 115.456V111.904C58.8794 111.552 58.9914 111.264 59.2154 111.04C59.4714 110.784 59.7754 110.656 60.1274 110.656H72.2234C72.5754 110.656 72.8634 110.784 73.0874 111.04C73.3114 111.264 73.4234 111.552 73.4234 111.904V117.376C73.4234 120.128 72.7994 122.48 71.5514 124.432C70.3034 126.384 68.5274 127.888 66.2234 128.944C63.9514 129.968 61.2954 130.48 58.2554 130.48ZM79.6023 130C79.2503 130 78.9623 129.888 78.7383 129.664C78.5143 129.44 78.4023 129.152 78.4023 128.8V106.24C78.4023 105.92 78.5143 105.648 78.7383 105.424C78.9623 105.168 79.2503 105.04 79.6023 105.04H85.1223C85.4743 105.04 85.7623 105.168 85.9863 105.424C86.2103 105.648 86.3223 105.92 86.3223 106.24V108.16C87.1863 107.168 88.2103 106.4 89.3943 105.856C90.6103 105.312 91.9703 105.04 93.4743 105.04H95.5863C95.9063 105.04 96.1783 105.152 96.4023 105.376C96.6583 105.6 96.7863 105.888 96.7863 106.24V111.184C96.7863 111.504 96.6583 111.792 96.4023 112.048C96.1783 112.272 95.9063 112.384 95.5863 112.384H90.9303C89.6183 112.384 88.5943 112.752 87.8583 113.488C87.1543 114.192 86.8023 115.2 86.8023 116.512V128.8C86.8023 129.152 86.6743 129.44 86.4183 129.664C86.1943 129.888 85.9063 130 85.5543 130H79.6023ZM111.532 130.48C107.756 130.48 104.748 129.456 102.508 127.408C100.268 125.36 99.0997 122.32 99.0037 118.288C99.0037 118.064 99.0037 117.776 99.0037 117.424C99.0037 117.072 99.0037 116.8 99.0037 116.608C99.0997 114.08 99.6597 111.92 100.684 110.128C101.74 108.304 103.18 106.928 105.004 106C106.86 105.04 109.02 104.56 111.484 104.56C114.3 104.56 116.62 105.12 118.444 106.24C120.3 107.36 121.692 108.88 122.62 110.8C123.548 112.72 124.012 114.912 124.012 117.376V118.528C124.012 118.88 123.884 119.168 123.628 119.392C123.404 119.616 123.132 119.728 122.812 119.728H107.452C107.452 119.76 107.452 119.808 107.452 119.872C107.452 119.936 107.452 120 107.452 120.064C107.484 120.992 107.644 121.84 107.932 122.608C108.22 123.376 108.668 123.984 109.276 124.432C109.884 124.88 110.62 125.104 111.484 125.104C112.124 125.104 112.652 125.008 113.068 124.816C113.516 124.592 113.884 124.352 114.172 124.096C114.46 123.808 114.684 123.568 114.844 123.376C115.132 123.056 115.356 122.864 115.516 122.8C115.708 122.704 115.996 122.656 116.38 122.656H122.332C122.652 122.656 122.908 122.752 123.1 122.944C123.324 123.104 123.42 123.344 123.388 123.664C123.356 124.208 123.084 124.864 122.572 125.632C122.06 126.4 121.308 127.168 120.316 127.936C119.356 128.672 118.14 129.28 116.668 129.76C115.196 130.24 113.484 130.48 111.532 130.48ZM107.452 114.976H115.564V114.88C115.564 113.856 115.404 112.96 115.084 112.192C114.796 111.424 114.332 110.832 113.692 110.416C113.084 110 112.348 109.792 111.484 109.792C110.62 109.792 109.884 110 109.276 110.416C108.7 110.832 108.252 111.424 107.932 112.192C107.612 112.96 107.452 113.856 107.452 114.88V114.976ZM140.032 130.48C136.256 130.48 133.248 129.456 131.008 127.408C128.768 125.36 127.6 122.32 127.504 118.288C127.504 118.064 127.504 117.776 127.504 117.424C127.504 117.072 127.504 116.8 127.504 116.608C127.6 114.08 128.16 111.92 129.184 110.128C130.24 108.304 131.68 106.928 133.504 106C135.36 105.04 137.52 104.56 139.984 104.56C142.8 104.56 145.12 105.12 146.944 106.24C148.8 107.36 150.192 108.88 151.12 110.8C152.048 112.72 152.512 114.912 152.512 117.376V118.528C152.512 118.88 152.384 119.168 152.128 119.392C151.904 119.616 151.632 119.728 151.312 119.728H135.952C135.952 119.76 135.952 119.808 135.952 119.872C135.952 119.936 135.952 120 135.952 120.064C135.984 120.992 136.144 121.84 136.432 122.608C136.72 123.376 137.168 123.984 137.776 124.432C138.384 124.88 139.12 125.104 139.984 125.104C140.624 125.104 141.152 125.008 141.568 124.816C142.016 124.592 142.384 124.352 142.672 124.096C142.96 123.808 143.184 123.568 143.344 123.376C143.632 123.056 143.856 122.864 144.016 122.8C144.208 122.704 144.496 122.656 144.88 122.656H150.832C151.152 122.656 151.408 122.752 151.6 122.944C151.824 123.104 151.92 123.344 151.888 123.664C151.856 124.208 151.584 124.864 151.072 125.632C150.56 126.4 149.808 127.168 148.816 127.936C147.856 128.672 146.64 129.28 145.168 129.76C143.696 130.24 141.984 130.48 140.032 130.48ZM135.952 114.976H144.064V114.88C144.064 113.856 143.904 112.96 143.584 112.192C143.296 111.424 142.832 110.832 142.192 110.416C141.584 110 140.848 109.792 139.984 109.792C139.12 109.792 138.384 110 137.776 110.416C137.2 110.832 136.752 111.424 136.432 112.192C136.112 112.96 135.952 113.856 135.952 114.88V114.976ZM158.212 130C157.86 130 157.572 129.888 157.348 129.664C157.124 129.44 157.012 129.152 157.012 128.8V106.24C157.012 105.888 157.124 105.6 157.348 105.376C157.572 105.152 157.86 105.04 158.212 105.04H163.732C164.084 105.04 164.372 105.152 164.596 105.376C164.82 105.6 164.932 105.888 164.932 106.24V108.064C165.764 107.072 166.852 106.24 168.196 105.568C169.54 104.896 171.124 104.56 172.948 104.56C174.804 104.56 176.436 104.976 177.844 105.808C179.284 106.64 180.404 107.872 181.204 109.504C182.036 111.104 182.452 113.072 182.452 115.408V128.8C182.452 129.152 182.324 129.44 182.068 129.664C181.844 129.888 181.572 130 181.252 130H175.204C174.884 130 174.596 129.888 174.34 129.664C174.116 129.44 174.004 129.152 174.004 128.8V115.696C174.004 114.192 173.636 113.04 172.9 112.24C172.196 111.408 171.14 110.992 169.732 110.992C168.42 110.992 167.364 111.408 166.564 112.24C165.796 113.04 165.412 114.192 165.412 115.696V128.8C165.412 129.152 165.284 129.44 165.028 129.664C164.804 129.888 164.532 130 164.212 130H158.212Z" fill="black"/>
</svg>
