<svg width="228" height="227" viewBox="0 0 228 227" fill="none" xmlns="http://www.w3.org/2000/svg">
<rect x="0.634766" width="226.456" height="226.456" rx="13.5874" fill="#E0E0E0"/>
<path d="M74.232 130.48C71.192 130.48 68.568 129.984 66.36 128.992C64.184 127.968 62.488 126.496 61.272 124.576C60.088 122.624 59.432 120.256 59.304 117.472C59.272 116.096 59.256 114.64 59.256 113.104C59.256 111.536 59.272 110.048 59.304 108.64C59.432 105.92 60.104 103.616 61.32 101.728C62.536 99.84 64.248 98.4 66.456 97.408C68.664 96.416 71.256 95.92 74.232 95.92C76.632 95.92 78.76 96.224 80.616 96.832C82.472 97.408 84.024 98.192 85.272 99.184C86.552 100.176 87.512 101.264 88.152 102.448C88.824 103.632 89.176 104.8 89.208 105.952C89.24 106.24 89.144 106.48 88.92 106.672C88.728 106.864 88.488 106.96 88.2 106.96H81.192C80.84 106.96 80.568 106.912 80.376 106.816C80.216 106.688 80.072 106.512 79.944 106.288C79.72 105.808 79.384 105.312 78.936 104.8C78.52 104.256 77.928 103.792 77.16 103.408C76.424 103.024 75.448 102.832 74.232 102.832C72.408 102.832 70.968 103.312 69.912 104.272C68.888 105.232 68.328 106.768 68.232 108.88C68.136 111.632 68.136 114.416 68.232 117.232C68.328 119.472 68.92 121.088 70.008 122.08C71.096 123.072 72.536 123.568 74.328 123.568C75.544 123.568 76.616 123.36 77.544 122.944C78.504 122.528 79.256 121.888 79.8 121.024C80.344 120.128 80.616 118.992 80.616 117.616V116.704H76.104C75.752 116.704 75.448 116.592 75.192 116.368C74.968 116.112 74.856 115.808 74.856 115.456V111.904C74.856 111.552 74.968 111.264 75.192 111.04C75.448 110.784 75.752 110.656 76.104 110.656H88.2C88.552 110.656 88.84 110.784 89.064 111.04C89.288 111.264 89.4 111.552 89.4 111.904V117.376C89.4 120.128 88.776 122.48 87.528 124.432C86.28 126.384 84.504 127.888 82.2 128.944C79.928 129.968 77.272 130.48 74.232 130.48ZM95.5789 130C95.2269 130 94.9389 129.888 94.7149 129.664C94.4909 129.44 94.3789 129.152 94.3789 128.8V106.24C94.3789 105.92 94.4909 105.648 94.7149 105.424C94.9389 105.168 95.2269 105.04 95.5789 105.04H101.099C101.451 105.04 101.739 105.168 101.963 105.424C102.187 105.648 102.299 105.92 102.299 106.24V108.16C103.163 107.168 104.187 106.4 105.371 105.856C106.587 105.312 107.947 105.04 109.451 105.04H111.563C111.883 105.04 112.155 105.152 112.379 105.376C112.635 105.6 112.763 105.888 112.763 106.24V111.184C112.763 111.504 112.635 111.792 112.379 112.048C112.155 112.272 111.883 112.384 111.563 112.384H106.907C105.595 112.384 104.571 112.752 103.835 113.488C103.131 114.192 102.779 115.2 102.779 116.512V128.8C102.779 129.152 102.651 129.44 102.395 129.664C102.171 129.888 101.883 130 101.531 130H95.5789ZM127.508 130.48C123.732 130.48 120.724 129.456 118.484 127.408C116.244 125.36 115.076 122.32 114.98 118.288C114.98 118.064 114.98 117.776 114.98 117.424C114.98 117.072 114.98 116.8 114.98 116.608C115.076 114.08 115.636 111.92 116.66 110.128C117.716 108.304 119.156 106.928 120.98 106C122.836 105.04 124.996 104.56 127.46 104.56C130.276 104.56 132.596 105.12 134.42 106.24C136.276 107.36 137.668 108.88 138.596 110.8C139.524 112.72 139.988 114.912 139.988 117.376V118.528C139.988 118.88 139.86 119.168 139.604 119.392C139.38 119.616 139.108 119.728 138.788 119.728H123.428C123.428 119.76 123.428 119.808 123.428 119.872C123.428 119.936 123.428 120 123.428 120.064C123.46 120.992 123.62 121.84 123.908 122.608C124.196 123.376 124.644 123.984 125.252 124.432C125.86 124.88 126.596 125.104 127.46 125.104C128.1 125.104 128.628 125.008 129.044 124.816C129.492 124.592 129.86 124.352 130.148 124.096C130.436 123.808 130.66 123.568 130.82 123.376C131.108 123.056 131.332 122.864 131.492 122.8C131.684 122.704 131.972 122.656 132.356 122.656H138.308C138.628 122.656 138.884 122.752 139.076 122.944C139.3 123.104 139.396 123.344 139.364 123.664C139.332 124.208 139.06 124.864 138.548 125.632C138.036 126.4 137.284 127.168 136.292 127.936C135.332 128.672 134.116 129.28 132.644 129.76C131.172 130.24 129.46 130.48 127.508 130.48ZM123.428 114.976H131.54V114.88C131.54 113.856 131.38 112.96 131.06 112.192C130.772 111.424 130.308 110.832 129.668 110.416C129.06 110 128.324 109.792 127.46 109.792C126.596 109.792 125.86 110 125.252 110.416C124.676 110.832 124.228 111.424 123.908 112.192C123.588 112.96 123.428 113.856 123.428 114.88V114.976ZM148.066 139.12C147.778 139.12 147.538 139.024 147.346 138.832C147.154 138.64 147.058 138.4 147.058 138.112C147.058 138.048 147.058 137.952 147.058 137.824C147.09 137.728 147.138 137.616 147.202 137.488L150.946 128.464L141.73 106.672C141.634 106.448 141.586 106.256 141.586 106.096C141.65 105.808 141.778 105.568 141.97 105.376C142.162 105.152 142.402 105.04 142.69 105.04H148.162C148.578 105.04 148.882 105.152 149.074 105.376C149.298 105.568 149.442 105.792 149.506 106.048L155.026 120.016L160.642 106.048C160.77 105.792 160.93 105.568 161.122 105.376C161.346 105.152 161.666 105.04 162.082 105.04H167.458C167.746 105.04 167.986 105.152 168.178 105.376C168.402 105.568 168.514 105.792 168.514 106.048C168.514 106.208 168.466 106.416 168.37 106.672L154.786 138.112C154.69 138.368 154.53 138.592 154.306 138.784C154.082 139.008 153.762 139.12 153.346 139.12H148.066Z" fill="black"/>
</svg>
