<svg width="130" height="130" viewBox="0 0 130 130" fill="none" xmlns="http://www.w3.org/2000/svg">
<path d="M64.0394 130C55.2874 130 47.0156 128.318 39.2241 124.954C31.4327 121.594 24.6296 117.004 18.8148 111.185C12.9957 105.37 8.40624 98.5673 5.04631 90.7759C1.6821 82.9844 0 74.7126 0 65.9606C0 56.7816 1.76108 48.2686 5.28325 40.4217C8.80542 32.579 13.5294 25.8036 19.4552 20.0956C25.3767 14.3833 32.1798 9.92611 39.8645 6.72414C47.5493 3.52217 55.6076 1.92118 64.0394 1.92118C68.202 1.92118 72.4713 2.37373 76.8473 3.27882C81.2233 4.18818 85.4926 5.55008 89.6552 7.36453L72.0443 15.5296C70.7635 15.3161 69.4571 15.1282 68.1251 14.966C66.7888 14.808 65.4269 14.7291 64.0394 14.7291C62.5452 14.7291 61.1043 14.7824 59.7168 14.8892C58.3292 14.9959 56.8883 15.2094 55.3941 15.5296C59.8769 23.0008 65.9606 29.0056 73.6453 33.5438C81.3301 38.0778 89.8686 40.3448 99.2611 40.3448H101.502L107.106 52.6724C97.5 53.8465 87.4672 52.7258 77.0074 49.3103C66.5476 45.8949 57.422 39.2775 49.6305 29.4581C45.8949 38.5304 40.7995 46.0016 34.3443 51.8719C27.8849 57.7422 20.7061 62.1182 12.8079 65C12.8079 79.8358 17.7987 92.2445 27.7803 102.226C37.7576 112.203 49.844 117.192 64.0394 117.192C78.555 117.192 90.7759 112.069 100.702 101.823C110.628 91.5764 115.484 79.6223 115.271 65.9606C115.271 64.4663 115.218 63.1578 115.111 62.035C115.004 60.9164 114.844 59.5567 114.631 57.9557L122.635 40.1847C124.557 44.6675 125.944 48.9902 126.798 53.1527C127.652 57.3153 128.079 61.5846 128.079 65.9606C128.079 74.4992 126.452 82.6365 123.199 90.3724C119.942 98.1126 115.459 104.918 109.751 110.788C104.038 116.658 97.2865 121.329 89.4951 124.8C81.7036 128.267 73.2184 130 64.0394 130ZM15.5296 49.7906C20.9729 46.6954 25.7225 42.6929 29.7783 37.7832C33.8342 32.8736 36.876 27.3768 38.9039 21.2931C33.4606 24.3883 28.711 28.3908 24.6552 33.3005C20.5993 38.2102 17.5575 43.7069 15.5296 49.7906ZM44.8276 80.3695C42.5862 80.3695 40.6928 79.5946 39.1473 78.0448C37.5975 76.4993 36.8227 74.6059 36.8227 72.3645C36.8227 70.1232 37.5975 68.2297 39.1473 66.6842C40.6928 65.1345 42.5862 64.3596 44.8276 64.3596C47.069 64.3596 48.9624 65.1345 50.5079 66.6842C52.0576 68.2297 52.8325 70.1232 52.8325 72.3645C52.8325 74.6059 52.0576 76.4993 50.5079 78.0448C48.9624 79.5946 47.069 80.3695 44.8276 80.3695ZM83.2512 80.3695C81.0099 80.3695 79.1164 79.5946 77.5709 78.0448C76.0212 76.4993 75.2463 74.6059 75.2463 72.3645C75.2463 70.1232 76.0212 68.2297 77.5709 66.6842C79.1164 65.1345 81.0099 64.3596 83.2512 64.3596C85.4926 64.3596 87.386 65.1345 88.9315 66.6842C90.4813 68.2297 91.2562 70.1232 91.2562 72.3645C91.2562 74.6059 90.4813 76.4993 88.9315 78.0448C87.386 79.5946 85.4926 80.3695 83.2512 80.3695ZM112.069 35.8621C111.535 35.8621 111.002 35.702 110.468 35.3818C109.934 35.0616 109.507 34.5813 109.187 33.9409L105.025 24.9754L96.0591 20.8128C95.4187 20.4926 94.9384 20.0657 94.6182 19.532C94.298 18.9984 94.1379 18.4647 94.1379 17.931C94.1379 17.3974 94.298 16.8637 94.6182 16.33C94.9384 15.7964 95.4187 15.3695 96.0591 15.0493L105.025 10.8867L109.187 1.92118C109.507 1.28079 109.934 0.800492 110.468 0.480295C111.002 0.160098 111.535 0 112.069 0C112.603 0 113.136 0.160098 113.67 0.480295C114.204 0.800492 114.631 1.28079 114.951 1.92118L119.113 10.8867L128.079 15.0493C128.719 15.3695 129.2 15.7964 129.52 16.33C129.84 16.8637 130 17.3974 130 17.931C130 18.4647 129.84 18.9984 129.52 19.532C129.2 20.0657 128.719 20.4926 128.079 20.8128L119.113 24.9754L114.951 33.9409C114.631 34.5813 114.204 35.0616 113.67 35.3818C113.136 35.702 112.603 35.8621 112.069 35.8621Z" fill="white"/>
</svg>
