<svg width="227" height="227" viewBox="0 0 227 227" fill="none" xmlns="http://www.w3.org/2000/svg">
<path d="M113.091 179.667C103.98 179.667 95.3686 177.915 87.2575 174.413C79.1464 170.915 72.0642 166.138 66.0109 160.08C59.9531 154.027 55.1753 146.944 51.6775 138.833C48.1753 130.722 46.4242 122.111 46.4242 113C46.4242 103.444 48.2575 94.5821 51.9242 86.4133C55.5909 78.2488 60.5086 71.1955 66.6775 65.2532C72.842 59.3066 79.9242 54.6666 87.9242 51.3333C95.9242 47.9999 104.313 46.3333 113.091 46.3333C117.424 46.3333 121.869 46.8044 126.424 47.7466C130.98 48.6933 135.424 50.111 139.758 51.9999L121.424 60.4999C120.091 60.2777 118.731 60.0821 117.344 59.9133C115.953 59.7488 114.535 59.6666 113.091 59.6666C111.535 59.6666 110.035 59.7221 108.591 59.8333C107.146 59.9444 105.646 60.1666 104.091 60.4999C108.758 68.2777 115.091 74.5288 123.091 79.2533C131.091 83.9733 139.98 86.3333 149.758 86.3333H152.091L157.924 99.1666C147.924 100.389 137.48 99.2221 126.591 95.6666C115.702 92.111 106.202 85.2221 98.0909 74.9999C94.202 84.4444 88.8975 92.2221 82.1775 98.3333C75.4531 104.444 67.9797 109 59.7575 112C59.7575 127.444 64.9531 140.362 75.3442 150.753C85.7309 161.14 98.3131 166.333 113.091 166.333C128.202 166.333 140.924 161 151.258 150.333C161.591 139.667 166.646 127.222 166.424 113C166.424 111.444 166.369 110.082 166.258 108.913C166.146 107.749 165.98 106.333 165.758 104.667L174.091 86.1666C176.091 90.8332 177.535 95.3333 178.424 99.6666C179.313 104 179.758 108.444 179.758 113C179.758 121.889 178.064 130.36 174.678 138.413C171.286 146.471 166.62 153.555 160.678 159.667C154.731 165.778 147.702 170.64 139.591 174.253C131.48 177.862 122.646 179.667 113.091 179.667ZM62.5909 96.1666C68.2575 92.9444 73.202 88.7777 77.4242 83.6666C81.6464 78.5555 84.8131 72.8333 86.9242 66.4999C81.2575 69.7221 76.3131 73.8888 72.0909 78.9999C67.8686 84.111 64.702 89.8333 62.5909 96.1666ZM93.0909 128C90.7575 128 88.7864 127.193 87.1775 125.58C85.5642 123.971 84.7575 122 84.7575 119.667C84.7575 117.333 85.5642 115.362 87.1775 113.753C88.7864 112.14 90.7575 111.333 93.0909 111.333C95.4242 111.333 97.3953 112.14 99.0042 113.753C100.618 115.362 101.424 117.333 101.424 119.667C101.424 122 100.618 123.971 99.0042 125.58C97.3953 127.193 95.4242 128 93.0909 128ZM133.091 128C130.758 128 128.786 127.193 127.178 125.58C125.564 123.971 124.758 122 124.758 119.667C124.758 117.333 125.564 115.362 127.178 113.753C128.786 112.14 130.758 111.333 133.091 111.333C135.424 111.333 137.395 112.14 139.004 113.753C140.618 115.362 141.424 117.333 141.424 119.667C141.424 122 140.618 123.971 139.004 125.58C137.395 127.193 135.424 128 133.091 128ZM163.091 81.6666C162.535 81.6666 161.98 81.4999 161.424 81.1666C160.869 80.8332 160.424 80.3333 160.091 79.6666L155.758 70.3333L146.424 65.9999C145.758 65.6666 145.258 65.2221 144.924 64.6666C144.591 64.111 144.424 63.5555 144.424 62.9999C144.424 62.4444 144.591 61.8888 144.924 61.3333C145.258 60.7777 145.758 60.3333 146.424 59.9999L155.758 55.6666L160.091 46.3333C160.424 45.6666 160.869 45.1666 161.424 44.8333C161.98 44.4999 162.535 44.3333 163.091 44.3333C163.646 44.3333 164.202 44.4999 164.758 44.8333C165.313 45.1666 165.758 45.6666 166.091 46.3333L170.424 55.6666L179.758 59.9999C180.424 60.3333 180.924 60.7777 181.258 61.3333C181.591 61.8888 181.758 62.4444 181.758 62.9999C181.758 63.5555 181.591 64.111 181.258 64.6666C180.924 65.2221 180.424 65.6666 179.758 65.9999L170.424 70.3333L166.091 79.6666C165.758 80.3333 165.313 80.8332 164.758 81.1666C164.202 81.4999 163.646 81.6666 163.091 81.6666Z" fill="white"/>
</svg>
