<svg width="227" height="299" viewBox="0 0 227 299" fill="none" xmlns="http://www.w3.org/2000/svg">
<path d="M70.18 288C69.8573 288 69.5933 287.897 69.388 287.692C69.1827 287.487 69.08 287.223 69.08 286.9V258.3C69.08 257.977 69.1827 257.713 69.388 257.508C69.5933 257.303 69.8573 257.2 70.18 257.2H75.856C76.1787 257.2 76.4427 257.303 76.648 257.508C76.8533 257.713 76.956 257.977 76.956 258.3V268.904H87.824V258.3C87.824 257.977 87.9267 257.713 88.132 257.508C88.3373 257.303 88.6013 257.2 88.924 257.2H94.6C94.9227 257.2 95.1867 257.303 95.392 257.508C95.5973 257.713 95.7 257.977 95.7 258.3V286.9C95.7 287.223 95.5973 287.487 95.392 287.692C95.1867 287.897 94.9227 288 94.6 288H88.924C88.6013 288 88.3373 287.897 88.132 287.692C87.9267 287.487 87.824 287.223 87.824 286.9V275.944H76.956V286.9C76.956 287.223 76.8533 287.487 76.648 287.692C76.4427 287.897 76.1787 288 75.856 288H70.18ZM108.245 288.44C106.661 288.44 105.238 288.147 103.977 287.56C102.745 286.944 101.762 286.123 101.029 285.096C100.296 284.069 99.9292 282.911 99.9292 281.62C99.9292 279.537 100.78 277.895 102.481 276.692C104.182 275.46 106.441 274.624 109.257 274.184L114.757 273.348V272.732C114.757 271.676 114.537 270.869 114.097 270.312C113.657 269.755 112.85 269.476 111.677 269.476C110.856 269.476 110.181 269.637 109.653 269.96C109.154 270.283 108.758 270.723 108.465 271.28C108.201 271.661 107.834 271.852 107.365 271.852H102.437C102.114 271.852 101.865 271.764 101.689 271.588C101.513 271.383 101.44 271.148 101.469 270.884C101.469 270.356 101.66 269.755 102.041 269.08C102.452 268.376 103.068 267.687 103.889 267.012C104.71 266.337 105.766 265.78 107.057 265.34C108.348 264.9 109.902 264.68 111.721 264.68C113.628 264.68 115.256 264.9 116.605 265.34C117.954 265.78 119.04 266.396 119.861 267.188C120.712 267.98 121.342 268.919 121.753 270.004C122.164 271.06 122.369 272.233 122.369 273.524V286.9C122.369 287.223 122.252 287.487 122.017 287.692C121.812 287.897 121.562 288 121.269 288H116.165C115.842 288 115.578 287.897 115.373 287.692C115.168 287.487 115.065 287.223 115.065 286.9V285.36C114.684 285.917 114.17 286.431 113.525 286.9C112.88 287.369 112.117 287.736 111.237 288C110.386 288.293 109.389 288.44 108.245 288.44ZM110.313 283.424C111.164 283.424 111.926 283.248 112.601 282.896C113.305 282.515 113.848 281.943 114.229 281.18C114.64 280.388 114.845 279.405 114.845 278.232V277.616L111.105 278.276C109.726 278.511 108.714 278.877 108.069 279.376C107.453 279.845 107.145 280.403 107.145 281.048C107.145 281.547 107.292 281.972 107.585 282.324C107.878 282.676 108.26 282.955 108.729 283.16C109.198 283.336 109.726 283.424 110.313 283.424ZM128.434 288C128.112 288 127.848 287.897 127.642 287.692C127.437 287.487 127.334 287.223 127.334 286.9V266.22C127.334 265.897 127.437 265.633 127.642 265.428C127.848 265.223 128.112 265.12 128.434 265.12H133.626C133.92 265.12 134.169 265.223 134.374 265.428C134.609 265.633 134.726 265.897 134.726 266.22V286.9C134.726 287.223 134.609 287.487 134.374 287.692C134.169 287.897 133.92 288 133.626 288H128.434ZM128.39 261.82C128.068 261.82 127.804 261.717 127.598 261.512C127.393 261.307 127.29 261.043 127.29 260.72V256.804C127.29 256.481 127.393 256.217 127.598 256.012C127.804 255.777 128.068 255.66 128.39 255.66H133.626C133.949 255.66 134.213 255.777 134.418 256.012C134.653 256.217 134.77 256.481 134.77 256.804V260.72C134.77 261.043 134.653 261.307 134.418 261.512C134.213 261.717 133.949 261.82 133.626 261.82H128.39ZM142.356 288C142.033 288 141.769 287.897 141.564 287.692C141.359 287.487 141.256 287.223 141.256 286.9V266.22C141.256 265.927 141.359 265.677 141.564 265.472C141.769 265.237 142.033 265.12 142.356 265.12H147.416C147.739 265.12 148.003 265.237 148.208 265.472C148.413 265.677 148.516 265.927 148.516 266.22V267.98C149.308 267.071 150.247 266.367 151.332 265.868C152.447 265.369 153.693 265.12 155.072 265.12H157.008C157.301 265.12 157.551 265.223 157.756 265.428C157.991 265.633 158.108 265.897 158.108 266.22V270.752C158.108 271.045 157.991 271.309 157.756 271.544C157.551 271.749 157.301 271.852 157.008 271.852H152.74C151.537 271.852 150.599 272.189 149.924 272.864C149.279 273.509 148.956 274.433 148.956 275.636V286.9C148.956 287.223 148.839 287.487 148.604 287.692C148.399 287.897 148.135 288 147.812 288H142.356Z" fill="black"/>
<rect width="226.456" height="226.456" rx="13.5874" fill="#333333"/>
<path d="M113.09 179.667C103.979 179.667 95.3683 177.915 87.2572 174.413C79.146 170.915 72.0638 166.138 66.0105 160.08C59.9527 154.027 55.1749 146.944 51.6772 138.833C48.1749 130.722 46.4238 122.111 46.4238 113C46.4238 103.444 48.2572 94.5821 51.9238 86.4133C55.5905 78.2488 60.5083 71.1955 66.6772 65.2533C72.8416 59.3066 79.9238 54.6666 87.9238 51.3333C95.9238 47.9999 104.313 46.3333 113.09 46.3333C117.424 46.3333 121.868 46.8044 126.424 47.7466C130.979 48.6933 135.424 50.111 139.757 51.9999L121.424 60.4999C120.09 60.2777 118.73 60.0821 117.344 59.9133C115.953 59.7488 114.535 59.6666 113.09 59.6666C111.535 59.6666 110.035 59.7221 108.59 59.8333C107.146 59.9444 105.646 60.1666 104.09 60.4999C108.757 68.2777 115.09 74.5288 123.09 79.2533C131.09 83.9733 139.979 86.3333 149.757 86.3333H152.09L157.924 99.1666C147.924 100.389 137.479 99.2221 126.59 95.6666C115.702 92.111 106.202 85.2221 98.0905 74.9999C94.2016 84.4444 88.8972 92.2221 82.1772 98.3333C75.4527 104.444 67.9794 109 59.7572 112C59.7572 127.444 64.9527 140.362 75.3438 150.753C85.7305 161.14 98.3127 166.333 113.09 166.333C128.202 166.333 140.924 161 151.257 150.333C161.59 139.667 166.646 127.222 166.424 113C166.424 111.444 166.368 110.082 166.257 108.913C166.146 107.749 165.979 106.333 165.757 104.667L174.09 86.1666C176.09 90.8332 177.535 95.3333 178.424 99.6666C179.313 104 179.757 108.444 179.757 113C179.757 121.889 178.064 130.36 174.677 138.413C171.286 146.471 166.619 153.555 160.677 159.667C154.73 165.778 147.702 170.64 139.59 174.253C131.479 177.862 122.646 179.667 113.09 179.667ZM62.5905 96.1666C68.2572 92.9444 73.2016 88.7777 77.4238 83.6666C81.646 78.5555 84.8127 72.8333 86.9238 66.4999C81.2572 69.7221 76.3127 73.8888 72.0905 78.9999C67.8683 84.111 64.7016 89.8333 62.5905 96.1666ZM93.0905 128C90.7572 128 88.786 127.193 87.1772 125.58C85.5638 123.971 84.7572 122 84.7572 119.667C84.7572 117.333 85.5638 115.362 87.1772 113.753C88.786 112.14 90.7572 111.333 93.0905 111.333C95.4238 111.333 97.3949 112.14 99.0038 113.753C100.617 115.362 101.424 117.333 101.424 119.667C101.424 122 100.617 123.971 99.0038 125.58C97.3949 127.193 95.4238 128 93.0905 128ZM133.09 128C130.757 128 128.786 127.193 127.177 125.58C125.564 123.971 124.757 122 124.757 119.667C124.757 117.333 125.564 115.362 127.177 113.753C128.786 112.14 130.757 111.333 133.09 111.333C135.424 111.333 137.395 112.14 139.004 113.753C140.617 115.362 141.424 117.333 141.424 119.667C141.424 122 140.617 123.971 139.004 125.58C137.395 127.193 135.424 128 133.09 128ZM163.09 81.6666C162.535 81.6666 161.979 81.4999 161.424 81.1666C160.868 80.8332 160.424 80.3333 160.09 79.6666L155.757 70.3333L146.424 65.9999C145.757 65.6666 145.257 65.2221 144.924 64.6666C144.59 64.111 144.424 63.5555 144.424 62.9999C144.424 62.4444 144.59 61.8888 144.924 61.3333C145.257 60.7777 145.757 60.3333 146.424 59.9999L155.757 55.6666L160.09 46.3333C160.424 45.6666 160.868 45.1666 161.424 44.8333C161.979 44.4999 162.535 44.3333 163.09 44.3333C163.646 44.3333 164.202 44.4999 164.757 44.8333C165.313 45.1666 165.757 45.6666 166.09 46.3333L170.424 55.6666L179.757 59.9999C180.424 60.3333 180.924 60.7777 181.257 61.3333C181.59 61.8888 181.757 62.4444 181.757 62.9999C181.757 63.5555 181.59 64.111 181.257 64.6666C180.924 65.2221 180.424 65.6666 179.757 65.9999L170.424 70.3333L166.09 79.6666C165.757 80.3333 165.313 80.8332 164.757 81.1666C164.202 81.4999 163.646 81.6666 163.09 81.6666Z" fill="white"/>
</svg>
