<?xml version="1.0" encoding="UTF-8" standalone="no"?>
<svg
   width="90"
   height="90"
   viewBox="0 0 90 90"
   fill="none"
   version="1.1"
   id="svg2553"
   sodipodi:docname="Help_Icon.svg"
   inkscape:version="1.1.2 (b8e25be833, 2022-02-05)"
   xmlns:inkscape="http://www.inkscape.org/namespaces/inkscape"
   xmlns:sodipodi="http://sodipodi.sourceforge.net/DTD/sodipodi-0.dtd"
   xmlns="http://www.w3.org/2000/svg"
   xmlns:svg="http://www.w3.org/2000/svg">
  <defs
     id="defs2557" />
  <sodipodi:namedview
     id="namedview2555"
     pagecolor="#505050"
     bordercolor="#eeeeee"
     borderopacity="1"
     inkscape:pageshadow="0"
     inkscape:pageopacity="0"
     inkscape:pagecheckerboard="0"
     showgrid="false"
     inkscape:zoom="9.3444444"
     inkscape:cx="45"
     inkscape:cy="45"
     inkscape:window-width="1920"
     inkscape:window-height="1028"
     inkscape:window-x="-6"
     inkscape:window-y="-6"
     inkscape:window-maximized="1"
     inkscape:current-layer="svg2553" />
  <path
     d="M45.0001 22.5C41.089 22.505 37.3395 24.0608 34.5739 26.8264C31.8084 29.5919 30.2525 33.3414 30.2476 37.2525H37.7476C37.7476 33.2513 41.0026 30 45.0001 30C48.9976 30 52.2526 33.2513 52.2526 37.2525C52.2526 39.495 50.4488 41.1225 47.6926 43.35C46.7921 44.0554 45.9273 44.805 45.1013 45.5963C41.3588 49.335 41.2501 53.3063 41.2501 53.7488V56.25H48.7501L48.7463 53.8762C48.7501 53.8162 48.8701 52.4288 50.4001 50.9025C50.9626 50.34 51.6713 49.7775 52.4063 49.185C55.3276 46.8188 59.7488 43.245 59.7488 37.2525C59.7458 33.3415 58.1911 29.5914 55.4259 26.8255C52.6608 24.0596 48.9111 22.504 45.0001 22.5ZM41.2501 60H48.7501V67.5H41.2501V60Z"
     fill="black"
     id="path2549" />
  <path
     d="M45 7.5C24.3225 7.5 7.5 24.3225 7.5 45C7.5 65.6775 24.3225 82.5 45 82.5C65.6775 82.5 82.5 65.6775 82.5 45C82.5 24.3225 65.6775 7.5 45 7.5ZM45 75C28.4588 75 15 61.5412 15 45C15 28.4588 28.4588 15 45 15C61.5412 15 75 28.4588 75 45C75 61.5412 61.5412 75 45 75Z"
     fill="black"
     id="path2551" />
  <path
     style="fill:#black;stroke-width:0.107015"
     d="m 41.309373,54.658145 c 0.0022,-2.363709 0.443094,-4.074072 1.550723,-6.015434 1.035162,-1.814345 2.198223,-3.065677 4.888475,-5.259484 1.89676,-1.546742 3.004104,-2.615597 3.627918,-3.501822 0.684832,-0.97291 0.893079,-1.61331 0.893288,-2.747041 7.49e-4,-4.11387 -3.506588,-7.370859 -7.688,-7.139218 -1.962639,0.108726 -3.276945,0.709288 -4.721638,2.157516 -1.32554,1.328783 -1.913014,2.555722 -2.141911,4.473378 l -0.07345,0.615339 h -3.69236 -3.69236 l 0.07387,-0.936385 c 0.528544,-6.700181 5.237487,-12.064402 11.830164,-13.476402 1.279462,-0.274032 4.388108,-0.274552 5.67182,-9.49e-4 6.414826,1.367219 11.078828,6.509202 11.778982,12.986125 0.343562,3.178185 -0.479044,6.03891 -2.513974,8.742697 -0.924959,1.228984 -2.317542,2.579236 -4.694417,4.55172 -2.188338,1.816026 -2.853374,2.533802 -3.382208,3.650436 -0.248494,0.524696 -0.282556,0.742498 -0.313797,2.00654 l -0.03505,1.417954 h -3.683742 -3.683741 l 0.0014,-1.52497 z"
     id="path2727" />
  <path
     style="fill:#black;stroke-width:0.107015"
     d="M 41.040428,82.237571 C 30.705904,81.106774 21.422991,75.829001 15.071912,67.473246 c -0.761376,-1.001699 -2.253306,-3.31284 -2.921135,-4.525115 -1.901224,-3.45119 -3.3123157,-7.448385 -4.0126715,-11.36668 -0.7280031,-4.072974 -0.7280031,-9.089928 0,-13.162902 1.6528665,-9.247325 6.7764585,-17.56073 14.3886485,-23.346637 1.001699,-0.761376 3.31284,-2.253306 4.525115,-2.921135 4.29753,-2.3674634 9.096917,-3.8608936 14.12119,-4.3941052 1.912447,-0.2029625 5.753293,-0.2016673 7.679497,0.00259 11.584101,1.2283916 21.816093,7.6612782 27.999541,17.6034012 2.96321,4.76443 4.786336,10.104854 5.388641,15.784781 0.204257,1.926204 0.205552,5.76705 0.0026,7.679497 -0.651386,6.137795 -2.697683,11.817862 -6.081376,16.88055 -6.24881,9.349483 -16.162372,15.351204 -27.309396,16.533247 -1.842149,0.195344 -6.013363,0.193653 -7.812128,-0.0032 z M 48.318135,74.85723 C 52.131126,74.416837 55.17878,73.498694 58.653558,71.743555 64.218195,68.93281 68.869781,64.286069 71.719812,58.690907 73.990815,54.232492 75.017836,49.969076 75.017836,45 c 0,-4.946592 -1.015735,-9.182148 -3.274281,-13.653558 C 68.93003,25.776303 64.223697,21.06997 58.653558,18.256445 54.182148,15.997899 49.946592,14.982164 45,14.982164 c -8.070879,0 -15.535037,3.088617 -21.232128,8.785708 -2.373596,2.373596 -4.162152,4.850652 -5.633201,7.801688 -2.145875,4.304788 -3.152507,8.593282 -3.152507,13.43044 0,4.945212 1.018776,9.194393 3.271375,13.644471 4.505734,8.901214 13.262727,14.99892 23.268459,16.202388 1.689509,0.203211 5.081684,0.208387 6.796137,0.01037 z"
     id="path2766" />
  <path
     style="fill:#black;stroke-width:0.107015"
     d="M 41.307967,63.727705 V 60.035672 H 45 48.692033 v 3.692033 3.692033 H 45 41.307967 Z"
     id="path2805" />
</svg>
