<svg width="130" height="130" viewBox="0 0 130 130" fill="none" xmlns="http://www.w3.org/2000/svg">
<rect width="130" height="130" rx="65" fill="#3C3C3C"/>
<path d="M60.8334 90H69.1667V81.6667H60.8334V90ZM65 23.3334C59.5283 23.3334 54.1101 24.4111 49.0549 26.5051C43.9997 28.599 39.4064 31.6682 35.5373 35.5373C27.7232 43.3513 23.3334 53.9494 23.3334 65C23.3334 76.0507 27.7232 86.6488 35.5373 94.4628C39.4064 98.3319 43.9997 101.401 49.0549 103.495C54.1101 105.589 59.5283 106.667 65 106.667C76.0507 106.667 86.6488 102.277 94.4628 94.4628C102.277 86.6488 106.667 76.0507 106.667 65C106.667 59.5283 105.589 54.1101 103.495 49.0549C101.401 43.9997 98.3319 39.4064 94.4628 35.5373C90.5937 31.6682 86.0004 28.599 80.9452 26.5051C75.89 24.4111 70.4718 23.3334 65 23.3334M65 98.3334C46.625 98.3334 31.6667 83.375 31.6667 65C31.6667 46.625 46.625 31.6667 65 31.6667C83.375 31.6667 98.3334 46.625 98.3334 65C98.3334 83.375 83.375 98.3334 65 98.3334ZM65 40C60.5798 40 56.3405 41.756 53.2149 44.8816C50.0893 48.0072 48.3334 52.2464 48.3334 56.6667H56.6667C56.6667 54.4566 57.5447 52.337 59.1075 50.7742C60.6703 49.2114 62.7899 48.3334 65 48.3334C67.2102 48.3334 69.3298 49.2114 70.8926 50.7742C72.4554 52.337 73.3334 54.4566 73.3334 56.6667C73.3334 65 60.8334 63.9584 60.8334 77.5H69.1667C69.1667 68.125 81.6667 67.0834 81.6667 56.6667C81.6667 52.2464 79.9108 48.0072 76.7852 44.8816C73.6596 41.756 69.4203 40 65 40Z" fill="white"/>
</svg>
