<svg width="124" height="145" viewBox="0 0 124 145" fill="none" xmlns="http://www.w3.org/2000/svg">
<path d="M61.7125 2.5C70.26 2.5 78.2628 2.5018 85.5171 3.13273C92.7738 3.76387 99.0968 5.01259 104.305 7.40834C109.455 9.77749 113.54 13.2771 116.376 18.5262C119.239 23.8248 120.925 31.0827 120.925 41.097C120.925 61.1814 114.146 86.7268 103.147 107.223C97.654 117.459 91.1733 126.313 84.0789 132.578C76.9846 138.843 69.4317 142.39 61.7125 142.39C53.9933 142.39 46.4404 138.843 39.346 132.578C32.2516 126.313 25.7709 117.459 20.278 107.223C9.27938 86.7268 2.5 61.1814 2.5 41.097C2.5 31.0827 4.18602 23.8248 7.04911 18.5262C9.88546 13.2771 13.9695 9.77749 19.1199 7.40834C24.3281 5.01259 30.6511 3.76387 37.9078 3.13273C45.1621 2.5018 53.1649 2.5 61.7125 2.5Z" fill="#F9A9A9" stroke="white" stroke-width="5"/>
</svg>
