<svg width="228" height="294" viewBox="0 0 228 294" fill="none" xmlns="http://www.w3.org/2000/svg">
<path d="M83.976 282.48C82.152 282.48 80.408 282.256 78.744 281.808C77.112 281.328 75.656 280.624 74.376 279.696C73.096 278.768 72.072 277.616 71.304 276.24C70.568 274.864 70.168 273.264 70.104 271.44C70.104 271.152 70.2 270.912 70.392 270.72C70.584 270.496 70.84 270.384 71.16 270.384H77.64C78.088 270.384 78.424 270.496 78.648 270.72C78.904 270.944 79.112 271.28 79.272 271.728C79.432 272.624 79.736 273.36 80.184 273.936C80.632 274.48 81.192 274.896 81.864 275.184C82.568 275.44 83.352 275.568 84.216 275.568C85.816 275.568 87.048 275.056 87.912 274.032C88.776 272.976 89.208 271.44 89.208 269.424V255.552H73.656C73.336 255.552 73.048 255.44 72.792 255.216C72.568 254.992 72.456 254.704 72.456 254.352V249.6C72.456 249.248 72.568 248.96 72.792 248.736C73.048 248.512 73.336 248.4 73.656 248.4H96.888C97.24 248.4 97.528 248.512 97.752 248.736C98.008 248.96 98.136 249.248 98.136 249.6V269.664C98.136 272.448 97.528 274.8 96.312 276.72C95.096 278.608 93.432 280.048 91.32 281.04C89.208 282 86.76 282.48 83.976 282.48ZM115.796 282.48C113.108 282.48 110.836 282.048 108.98 281.184C107.156 280.32 105.748 279.088 104.756 277.488C103.796 275.856 103.252 273.92 103.124 271.68C103.092 271.04 103.076 270.32 103.076 269.52C103.076 268.688 103.092 267.968 103.124 267.36C103.252 265.088 103.828 263.152 104.852 261.552C105.876 259.952 107.3 258.72 109.124 257.856C110.98 256.992 113.204 256.56 115.796 256.56C118.42 256.56 120.644 256.992 122.468 257.856C124.324 258.72 125.764 259.952 126.788 261.552C127.812 263.152 128.388 265.088 128.516 267.36C128.548 267.968 128.564 268.688 128.564 269.52C128.564 270.32 128.548 271.04 128.516 271.68C128.388 273.92 127.828 275.856 126.836 277.488C125.876 279.088 124.468 280.32 122.612 281.184C120.788 282.048 118.516 282.48 115.796 282.48ZM115.796 276.624C117.236 276.624 118.276 276.192 118.916 275.328C119.588 274.464 119.972 273.168 120.068 271.44C120.1 270.96 120.116 270.32 120.116 269.52C120.116 268.72 120.1 268.08 120.068 267.6C119.972 265.904 119.588 264.624 118.916 263.76C118.276 262.864 117.236 262.416 115.796 262.416C114.388 262.416 113.348 262.864 112.676 263.76C112.004 264.624 111.636 265.904 111.572 267.6C111.54 268.08 111.524 268.72 111.524 269.52C111.524 270.32 111.54 270.96 111.572 271.44C111.636 273.168 112.004 274.464 112.676 275.328C113.348 276.192 114.388 276.624 115.796 276.624ZM136.863 291.12C136.575 291.12 136.335 291.024 136.143 290.832C135.951 290.64 135.855 290.4 135.855 290.112C135.855 290.048 135.855 289.952 135.855 289.824C135.887 289.728 135.935 289.616 135.999 289.488L139.743 280.464L130.527 258.672C130.431 258.448 130.383 258.256 130.383 258.096C130.447 257.808 130.575 257.568 130.767 257.376C130.959 257.152 131.199 257.04 131.487 257.04H136.959C137.375 257.04 137.679 257.152 137.871 257.376C138.095 257.568 138.239 257.792 138.303 258.048L143.823 272.016L149.439 258.048C149.567 257.792 149.727 257.568 149.919 257.376C150.143 257.152 150.463 257.04 150.879 257.04H156.255C156.543 257.04 156.783 257.152 156.975 257.376C157.199 257.568 157.311 257.792 157.311 258.048C157.311 258.208 157.263 258.416 157.167 258.672L143.583 290.112C143.487 290.368 143.327 290.592 143.103 290.784C142.879 291.008 142.559 291.12 142.143 291.12H136.863Z" fill="black"/>
<rect x="0.908203" width="226.456" height="226.456" rx="13.5874" fill="#4F4F4F"/>
<path d="M113.657 39.0127C123.423 39.0127 132.671 39.0134 141.072 39.7441C149.474 40.4749 156.955 41.9309 163.196 44.8017C169.413 47.6618 174.411 51.93 177.87 58.3321C181.341 64.7543 183.301 73.3954 183.301 85.0535C183.301 108.392 175.444 137.938 162.727 161.638C156.37 173.483 148.826 183.818 140.489 191.18C132.153 198.541 123.088 202.877 113.657 202.877C104.226 202.877 95.1607 198.541 86.8244 191.18C78.4881 183.818 70.9436 173.483 64.5873 161.638C51.8694 137.938 44.0127 108.392 44.0127 85.0535C44.0127 73.3954 45.9733 64.7543 49.4435 58.3321C52.9029 51.93 57.9006 47.6618 64.1181 44.8017C70.3591 41.9309 77.8398 40.4749 86.2418 39.7441C94.6429 39.0134 103.89 39.0127 113.657 39.0127Z" fill="#F9A9A9" stroke="white" stroke-width="2.02542"/>
</svg>
