<svg width="227" height="294" viewBox="0 0 227 294" fill="none" xmlns="http://www.w3.org/2000/svg">
<path d="M48.56 282C48.208 282 47.92 281.888 47.696 281.664C47.472 281.44 47.36 281.152 47.36 280.8V249.6C47.36 249.248 47.472 248.96 47.696 248.736C47.92 248.512 48.208 248.4 48.56 248.4H54.896C55.216 248.4 55.488 248.512 55.712 248.736C55.968 248.96 56.096 249.248 56.096 249.6V274.752H70.592C70.944 274.752 71.232 274.88 71.456 275.136C71.712 275.36 71.84 275.648 71.84 276V280.8C71.84 281.152 71.712 281.44 71.456 281.664C71.232 281.888 70.944 282 70.592 282H48.56ZM82.9606 282.48C81.2326 282.48 79.6806 282.16 78.3046 281.52C76.9606 280.848 75.8886 279.952 75.0886 278.832C74.2886 277.712 73.8886 276.448 73.8886 275.04C73.8886 272.768 74.8166 270.976 76.6726 269.664C78.5286 268.32 80.9926 267.408 84.0646 266.928L90.0646 266.016V265.344C90.0646 264.192 89.8246 263.312 89.3446 262.704C88.8646 262.096 87.9846 261.792 86.7046 261.792C85.8086 261.792 85.0726 261.968 84.4966 262.32C83.9526 262.672 83.5206 263.152 83.2006 263.76C82.9126 264.176 82.5126 264.384 82.0006 264.384H76.6246C76.2726 264.384 76.0006 264.288 75.8086 264.096C75.6166 263.872 75.5366 263.616 75.5686 263.328C75.5686 262.752 75.7766 262.096 76.1926 261.36C76.6406 260.592 77.3126 259.84 78.2086 259.104C79.1046 258.368 80.2566 257.76 81.6646 257.28C83.0726 256.8 84.7686 256.56 86.7526 256.56C88.8326 256.56 90.6086 256.8 92.0806 257.28C93.5526 257.76 94.7366 258.432 95.6326 259.296C96.5606 260.16 97.2486 261.184 97.6966 262.368C98.1446 263.52 98.3686 264.8 98.3686 266.208V280.8C98.3686 281.152 98.2406 281.44 97.9846 281.664C97.7606 281.888 97.4886 282 97.1686 282H91.6006C91.2486 282 90.9606 281.888 90.7366 281.664C90.5126 281.44 90.4006 281.152 90.4006 280.8V279.12C89.9846 279.728 89.4246 280.288 88.7206 280.8C88.0166 281.312 87.1846 281.712 86.2246 282C85.2966 282.32 84.2086 282.48 82.9606 282.48ZM85.2166 277.008C86.1446 277.008 86.9766 276.816 87.7126 276.432C88.4806 276.016 89.0726 275.392 89.4886 274.56C89.9366 273.696 90.1606 272.624 90.1606 271.344V270.672L86.0806 271.392C84.5766 271.648 83.4726 272.048 82.7686 272.592C82.0966 273.104 81.7606 273.712 81.7606 274.416C81.7606 274.96 81.9206 275.424 82.2406 275.808C82.5606 276.192 82.9766 276.496 83.4886 276.72C84.0006 276.912 84.5766 277.008 85.2166 277.008ZM104.985 282C104.633 282 104.345 281.888 104.121 281.664C103.897 281.44 103.785 281.152 103.785 280.8V258.24C103.785 257.92 103.897 257.648 104.121 257.424C104.345 257.168 104.633 257.04 104.985 257.04H110.505C110.857 257.04 111.145 257.168 111.369 257.424C111.593 257.648 111.705 257.92 111.705 258.24V260.16C112.569 259.168 113.593 258.4 114.777 257.856C115.993 257.312 117.353 257.04 118.857 257.04H120.969C121.289 257.04 121.561 257.152 121.785 257.376C122.041 257.6 122.169 257.888 122.169 258.24V263.184C122.169 263.504 122.041 263.792 121.785 264.048C121.561 264.272 121.289 264.384 120.969 264.384H116.313C115.001 264.384 113.977 264.752 113.241 265.488C112.537 266.192 112.185 267.2 112.185 268.512V280.8C112.185 281.152 112.057 281.44 111.801 281.664C111.577 281.888 111.289 282 110.937 282H104.985ZM137.588 292.56C135.124 292.56 133.076 292.24 131.444 291.6C129.844 290.96 128.564 290.192 127.604 289.296C126.676 288.4 126.004 287.504 125.588 286.608C125.172 285.744 124.948 285.056 124.916 284.544C124.884 284.192 124.996 283.904 125.252 283.68C125.508 283.456 125.812 283.344 126.164 283.344H132.26C132.548 283.344 132.788 283.408 132.98 283.536C133.204 283.696 133.38 283.952 133.508 284.304C133.668 284.656 133.876 285.024 134.132 285.408C134.42 285.792 134.804 286.096 135.284 286.32C135.796 286.576 136.484 286.704 137.348 286.704C138.308 286.704 139.108 286.544 139.748 286.224C140.388 285.936 140.868 285.44 141.188 284.736C141.508 284.064 141.668 283.152 141.668 282V278.784C140.932 279.584 139.988 280.24 138.836 280.752C137.684 281.232 136.292 281.472 134.66 281.472C133.028 281.472 131.588 281.232 130.34 280.752C129.092 280.272 128.052 279.552 127.22 278.592C126.388 277.632 125.732 276.464 125.252 275.088C124.804 273.712 124.532 272.128 124.436 270.336C124.404 269.504 124.404 268.672 124.436 267.84C124.532 266.112 124.804 264.56 125.252 263.184C125.7 261.808 126.34 260.624 127.172 259.632C128.036 258.64 129.092 257.888 130.34 257.376C131.588 256.832 133.028 256.56 134.66 256.56C136.388 256.56 137.86 256.896 139.076 257.568C140.324 258.208 141.348 259.024 142.148 260.016V258.24C142.148 257.92 142.26 257.648 142.484 257.424C142.708 257.168 142.996 257.04 143.348 257.04H148.868C149.22 257.04 149.508 257.168 149.732 257.424C149.988 257.648 150.116 257.92 150.116 258.24V281.328C150.116 283.76 149.62 285.808 148.628 287.472C147.636 289.136 146.212 290.4 144.356 291.264C142.5 292.128 140.244 292.56 137.588 292.56ZM137.252 275.232C138.276 275.232 139.108 275.008 139.748 274.56C140.388 274.112 140.852 273.536 141.14 272.832C141.46 272.128 141.636 271.376 141.668 270.576C141.7 270.224 141.716 269.728 141.716 269.088C141.716 268.448 141.7 267.968 141.668 267.648C141.636 266.816 141.46 266.048 141.14 265.344C140.852 264.64 140.388 264.08 139.748 263.664C139.108 263.216 138.276 262.992 137.252 262.992C136.196 262.992 135.348 263.216 134.708 263.664C134.1 264.112 133.652 264.72 133.364 265.488C133.108 266.256 132.948 267.104 132.884 268.032C132.852 268.736 132.852 269.456 132.884 270.192C132.948 271.12 133.108 271.968 133.364 272.736C133.652 273.504 134.1 274.112 134.708 274.56C135.348 275.008 136.196 275.232 137.252 275.232ZM167.29 282.48C163.514 282.48 160.506 281.456 158.266 279.408C156.026 277.36 154.858 274.32 154.762 270.288C154.762 270.064 154.762 269.776 154.762 269.424C154.762 269.072 154.762 268.8 154.762 268.608C154.858 266.08 155.418 263.92 156.442 262.128C157.498 260.304 158.938 258.928 160.762 258C162.618 257.04 164.778 256.56 167.242 256.56C170.058 256.56 172.378 257.12 174.202 258.24C176.058 259.36 177.45 260.88 178.378 262.8C179.306 264.72 179.77 266.912 179.77 269.376V270.528C179.77 270.88 179.642 271.168 179.385 271.392C179.162 271.616 178.89 271.728 178.57 271.728H163.21C163.21 271.76 163.21 271.808 163.21 271.872C163.21 271.936 163.21 272 163.21 272.064C163.242 272.992 163.402 273.84 163.69 274.608C163.978 275.376 164.426 275.984 165.034 276.432C165.642 276.88 166.378 277.104 167.242 277.104C167.882 277.104 168.41 277.008 168.826 276.816C169.274 276.592 169.642 276.352 169.93 276.096C170.218 275.808 170.442 275.568 170.602 275.376C170.89 275.056 171.114 274.864 171.274 274.8C171.466 274.704 171.754 274.656 172.138 274.656H178.09C178.41 274.656 178.666 274.752 178.858 274.944C179.082 275.104 179.178 275.344 179.146 275.664C179.114 276.208 178.842 276.864 178.33 277.632C177.818 278.4 177.066 279.168 176.074 279.936C175.114 280.672 173.898 281.28 172.426 281.76C170.954 282.24 169.242 282.48 167.29 282.48ZM163.21 266.976H171.322V266.88C171.322 265.856 171.162 264.96 170.842 264.192C170.554 263.424 170.09 262.832 169.45 262.416C168.842 262 168.106 261.792 167.242 261.792C166.378 261.792 165.642 262 165.034 262.416C164.458 262.832 164.01 263.424 163.69 264.192C163.37 264.96 163.21 265.856 163.21 266.88V266.976Z" fill="black"/>
<rect width="226.456" height="226.456" rx="13.5874" fill="#4F4F4F"/>
<path d="M102.696 112.848C102.696 93.6018 87.0938 77.9999 67.8478 77.9999C48.6019 77.9999 33 93.6018 33 112.848C33 132.094 48.6019 147.696 67.8478 147.696C87.0938 147.696 102.696 132.094 102.696 112.848Z" fill="white"/>
<path d="M79.4638 112.848C79.4638 106.432 74.2631 101.232 67.8478 101.232C61.4325 101.232 56.2319 106.432 56.2319 112.848C56.2319 119.263 61.4325 124.464 67.8478 124.464C74.2631 124.464 79.4638 119.263 79.4638 112.848Z" fill="black"/>
<path d="M193.3 112.848C193.3 93.6018 177.698 77.9999 158.452 77.9999C139.206 77.9999 123.604 93.6018 123.604 112.848C123.604 132.094 139.206 147.696 158.452 147.696C177.698 147.696 193.3 132.094 193.3 112.848Z" fill="white"/>
<path d="M170.068 112.848C170.068 106.432 164.868 101.232 158.452 101.232C152.037 101.232 146.836 106.432 146.836 112.848C146.836 119.263 152.037 124.464 158.452 124.464C164.868 124.464 170.068 119.263 170.068 112.848Z" fill="black"/>
</svg>
