<svg width="161" height="70" viewBox="0 0 161 70" fill="none" xmlns="http://www.w3.org/2000/svg">
<path d="M69.6957 34.8479C69.6957 15.6019 54.0938 2.28882e-05 34.8478 2.28882e-05C15.6019 2.28882e-05 0 15.6019 0 34.8479C0 54.0938 15.6019 69.6957 34.8478 69.6957C54.0938 69.6957 69.6957 54.0938 69.6957 34.8479Z" fill="white"/>
<path d="M46.4638 34.8479C46.4638 28.4325 41.2631 23.2319 34.8478 23.2319C28.4325 23.2319 23.2319 28.4325 23.2319 34.8479C23.2319 41.2632 28.4325 46.4638 34.8478 46.4638C41.2631 46.4638 46.4638 41.2632 46.4638 34.8479Z" fill="black"/>
<path d="M160.3 34.8479C160.3 15.6019 144.698 2.28882e-05 125.452 2.28882e-05C106.206 2.28882e-05 90.6044 15.6019 90.6044 34.8479C90.6044 54.0938 106.206 69.6957 125.452 69.6957C144.698 69.6957 160.3 54.0938 160.3 34.8479Z" fill="white"/>
<path d="M137.068 34.8479C137.068 28.4325 131.868 23.2319 125.452 23.2319C119.037 23.2319 113.836 28.4325 113.836 34.8479C113.836 41.2632 119.037 46.4638 125.452 46.4638C131.868 46.4638 137.068 41.2632 137.068 34.8479Z" fill="black"/>
</svg>
