<svg width="227" height="227" viewBox="0 0 227 227" fill="none" xmlns="http://www.w3.org/2000/svg">
<rect width="226.456" height="226.456" rx="13.5874" fill="#E1C7B0" fill-opacity="0.78"/>
<path d="M54.1733 101C53.8213 101 53.5333 100.888 53.3093 100.664C53.0853 100.44 52.9733 100.152 52.9733 99.8V68.6C52.9733 68.248 53.0853 67.96 53.3093 67.736C53.5333 67.512 53.8213 67.4 54.1733 67.4H60.5093C60.8293 67.4 61.1013 67.512 61.3253 67.736C61.5813 67.96 61.7093 68.248 61.7093 68.6V93.752H76.2053C76.5573 93.752 76.8453 93.88 77.0693 94.136C77.3253 94.36 77.4533 94.648 77.4533 95V99.8C77.4533 100.152 77.3253 100.44 77.0693 100.664C76.8453 100.888 76.5573 101 76.2053 101H54.1733ZM82.2859 101C81.9339 101 81.6459 100.888 81.4219 100.664C81.1979 100.44 81.0859 100.152 81.0859 99.8V77.24C81.0859 76.888 81.1979 76.6 81.4219 76.376C81.6459 76.152 81.9339 76.04 82.2859 76.04H87.9499C88.2699 76.04 88.5419 76.152 88.7659 76.376C89.0219 76.6 89.1499 76.888 89.1499 77.24V99.8C89.1499 100.152 89.0219 100.44 88.7659 100.664C88.5419 100.888 88.2699 101 87.9499 101H82.2859ZM82.2379 72.44C81.8859 72.44 81.5979 72.328 81.3739 72.104C81.1499 71.88 81.0379 71.592 81.0379 71.24V66.968C81.0379 66.616 81.1499 66.328 81.3739 66.104C81.5979 65.848 81.8859 65.72 82.2379 65.72H87.9499C88.3019 65.72 88.5899 65.848 88.8139 66.104C89.0699 66.328 89.1979 66.616 89.1979 66.968V71.24C89.1979 71.592 89.0699 71.88 88.8139 72.104C88.5899 72.328 88.3019 72.44 87.9499 72.44H82.2379ZM107.013 111.56C104.549 111.56 102.501 111.24 100.869 110.6C99.2694 109.96 97.9894 109.192 97.0294 108.296C96.1014 107.4 95.4294 106.504 95.0134 105.608C94.5974 104.744 94.3734 104.056 94.3414 103.544C94.3094 103.192 94.4214 102.904 94.6774 102.68C94.9334 102.456 95.2374 102.344 95.5894 102.344H101.685C101.973 102.344 102.213 102.408 102.405 102.536C102.629 102.696 102.805 102.952 102.933 103.304C103.093 103.656 103.301 104.024 103.557 104.408C103.845 104.792 104.229 105.096 104.709 105.32C105.221 105.576 105.909 105.704 106.773 105.704C107.733 105.704 108.533 105.544 109.173 105.224C109.813 104.936 110.293 104.44 110.613 103.736C110.933 103.064 111.093 102.152 111.093 101V97.784C110.357 98.584 109.413 99.24 108.261 99.752C107.109 100.232 105.717 100.472 104.085 100.472C102.453 100.472 101.013 100.232 99.7654 99.752C98.5174 99.272 97.4774 98.552 96.6454 97.592C95.8134 96.632 95.1574 95.464 94.6774 94.088C94.2294 92.712 93.9574 91.128 93.8614 89.336C93.8294 88.504 93.8294 87.672 93.8614 86.84C93.9574 85.112 94.2294 83.56 94.6774 82.184C95.1254 80.808 95.7654 79.624 96.5974 78.632C97.4614 77.64 98.5174 76.888 99.7654 76.376C101.013 75.832 102.453 75.56 104.085 75.56C105.813 75.56 107.285 75.896 108.501 76.568C109.749 77.208 110.773 78.024 111.573 79.016V77.24C111.573 76.92 111.685 76.648 111.909 76.424C112.133 76.168 112.421 76.04 112.773 76.04H118.293C118.645 76.04 118.933 76.168 119.157 76.424C119.413 76.648 119.541 76.92 119.541 77.24V100.328C119.541 102.76 119.045 104.808 118.053 106.472C117.061 108.136 115.637 109.4 113.781 110.264C111.925 111.128 109.669 111.56 107.013 111.56ZM106.677 94.232C107.701 94.232 108.533 94.008 109.173 93.56C109.813 93.112 110.277 92.536 110.565 91.832C110.885 91.128 111.061 90.376 111.093 89.576C111.125 89.224 111.141 88.728 111.141 88.088C111.141 87.448 111.125 86.968 111.093 86.648C111.061 85.816 110.885 85.048 110.565 84.344C110.277 83.64 109.813 83.08 109.173 82.664C108.533 82.216 107.701 81.992 106.677 81.992C105.621 81.992 104.773 82.216 104.133 82.664C103.525 83.112 103.077 83.72 102.789 84.488C102.533 85.256 102.373 86.104 102.309 87.032C102.277 87.736 102.277 88.456 102.309 89.192C102.373 90.12 102.533 90.968 102.789 91.736C103.077 92.504 103.525 93.112 104.133 93.56C104.773 94.008 105.621 94.232 106.677 94.232ZM126.395 101C126.043 101 125.755 100.888 125.531 100.664C125.307 100.44 125.195 100.152 125.195 99.8V68.12C125.195 67.768 125.307 67.48 125.531 67.256C125.755 67.032 126.043 66.92 126.395 66.92H132.539C132.891 66.92 133.179 67.032 133.403 67.256C133.627 67.48 133.739 67.768 133.739 68.12V78.824C134.603 77.832 135.659 77.048 136.907 76.472C138.187 75.864 139.659 75.56 141.323 75.56C143.179 75.56 144.827 75.976 146.267 76.808C147.739 77.64 148.891 78.872 149.723 80.504C150.555 82.104 150.971 84.072 150.971 86.408V99.8C150.971 100.152 150.859 100.44 150.635 100.664C150.411 100.888 150.123 101 149.771 101H143.579C143.259 101 142.971 100.888 142.715 100.664C142.491 100.44 142.379 100.152 142.379 99.8V86.696C142.379 85.192 142.011 84.04 141.275 83.24C140.571 82.408 139.515 81.992 138.107 81.992C136.795 81.992 135.739 82.408 134.939 83.24C134.139 84.04 133.739 85.192 133.739 86.696V99.8C133.739 100.152 133.627 100.44 133.403 100.664C133.179 100.888 132.891 101 132.539 101H126.395ZM168.948 101C166.9 101 165.124 100.68 163.62 100.04C162.148 99.368 161.012 98.344 160.212 96.968C159.412 95.56 159.012 93.752 159.012 91.544V82.328H155.268C154.916 82.328 154.612 82.216 154.356 81.992C154.132 81.768 154.02 81.48 154.02 81.128V77.24C154.02 76.888 154.132 76.6 154.356 76.376C154.612 76.152 154.916 76.04 155.268 76.04H159.012V68.12C159.012 67.768 159.124 67.48 159.348 67.256C159.604 67.032 159.892 66.92 160.212 66.92H165.78C166.132 66.92 166.42 67.032 166.644 67.256C166.868 67.48 166.98 67.768 166.98 68.12V76.04H172.98C173.332 76.04 173.62 76.152 173.844 76.376C174.068 76.6 174.18 76.888 174.18 77.24V81.128C174.18 81.48 174.068 81.768 173.844 81.992C173.62 82.216 173.332 82.328 172.98 82.328H166.98V90.872C166.98 91.96 167.188 92.824 167.604 93.464C168.02 94.104 168.724 94.424 169.716 94.424H173.412C173.764 94.424 174.052 94.536 174.276 94.76C174.5 94.984 174.612 95.272 174.612 95.624V99.8C174.612 100.152 174.5 100.44 174.276 100.664C174.052 100.888 173.764 101 173.412 101H168.948ZM39.7592 158C39.4072 158 39.1192 157.888 38.8952 157.664C38.6712 157.44 38.5592 157.152 38.5592 156.8V125.6C38.5592 125.248 38.6712 124.96 38.8952 124.736C39.1192 124.512 39.4072 124.4 39.7592 124.4H54.3992C57.1512 124.4 59.4072 124.784 61.1672 125.552C62.9272 126.32 64.2232 127.424 65.0552 128.864C65.9192 130.272 66.3512 131.952 66.3512 133.904C66.3512 135.056 66.1272 136.08 65.6792 136.976C65.2632 137.84 64.7352 138.56 64.0952 139.136C63.4872 139.712 62.9112 140.128 62.3672 140.384C63.5832 140.96 64.6552 141.904 65.5832 143.216C66.5432 144.528 67.0232 146.064 67.0232 147.824C67.0232 149.936 66.5432 151.76 65.5832 153.296C64.6552 154.8 63.2792 155.968 61.4552 156.8C59.6632 157.6 57.4552 158 54.8312 158H39.7592ZM47.1512 151.76H53.8712C55.2472 151.76 56.2872 151.36 56.9912 150.56C57.6952 149.76 58.0472 148.848 58.0472 147.824C58.0472 146.704 57.6792 145.76 56.9432 144.992C56.2392 144.224 55.2152 143.84 53.8712 143.84H47.1512V151.76ZM47.1512 137.744H53.4392C54.7512 137.744 55.7272 137.408 56.3672 136.736C57.0392 136.064 57.3752 135.2 57.3752 134.144C57.3752 133.12 57.0392 132.288 56.3672 131.648C55.7272 130.976 54.7512 130.64 53.4392 130.64H47.1512V137.744ZM73.0281 158C72.6761 158 72.3881 157.888 72.1641 157.664C71.9401 157.44 71.8281 157.152 71.8281 156.8V134.24C71.8281 133.92 71.9401 133.648 72.1641 133.424C72.3881 133.168 72.6761 133.04 73.0281 133.04H78.5481C78.9001 133.04 79.1881 133.168 79.4121 133.424C79.6361 133.648 79.7481 133.92 79.7481 134.24V136.16C80.6121 135.168 81.6361 134.4 82.8201 133.856C84.0361 133.312 85.3961 133.04 86.9001 133.04H89.0121C89.3321 133.04 89.6041 133.152 89.8281 133.376C90.0841 133.6 90.2121 133.888 90.2121 134.24V139.184C90.2121 139.504 90.0841 139.792 89.8281 140.048C89.6041 140.272 89.3321 140.384 89.0121 140.384H84.3561C83.0441 140.384 82.0201 140.752 81.2841 141.488C80.5801 142.192 80.2281 143.2 80.2281 144.512V156.8C80.2281 157.152 80.1001 157.44 79.8441 157.664C79.6201 157.888 79.3321 158 78.9801 158H73.0281ZM105.245 158.48C102.557 158.48 100.285 158.048 98.4295 157.184C96.6055 156.32 95.1975 155.088 94.2055 153.488C93.2455 151.856 92.7015 149.92 92.5735 147.68C92.5415 147.04 92.5255 146.32 92.5255 145.52C92.5255 144.688 92.5415 143.968 92.5735 143.36C92.7015 141.088 93.2775 139.152 94.3015 137.552C95.3255 135.952 96.7495 134.72 98.5735 133.856C100.429 132.992 102.653 132.56 105.245 132.56C107.869 132.56 110.093 132.992 111.917 133.856C113.773 134.72 115.213 135.952 116.237 137.552C117.261 139.152 117.837 141.088 117.965 143.36C117.997 143.968 118.013 144.688 118.013 145.52C118.013 146.32 117.997 147.04 117.965 147.68C117.837 149.92 117.277 151.856 116.285 153.488C115.325 155.088 113.917 156.32 112.061 157.184C110.237 158.048 107.965 158.48 105.245 158.48ZM105.245 152.624C106.685 152.624 107.725 152.192 108.365 151.328C109.037 150.464 109.421 149.168 109.517 147.44C109.549 146.96 109.565 146.32 109.565 145.52C109.565 144.72 109.549 144.08 109.517 143.6C109.421 141.904 109.037 140.624 108.365 139.76C107.725 138.864 106.685 138.416 105.245 138.416C103.837 138.416 102.797 138.864 102.125 139.76C101.453 140.624 101.085 141.904 101.021 143.6C100.989 144.08 100.973 144.72 100.973 145.52C100.973 146.32 100.989 146.96 101.021 147.44C101.085 149.168 101.453 150.464 102.125 151.328C102.797 152.192 103.837 152.624 105.245 152.624ZM128.944 158C128.464 158 128.112 157.888 127.888 157.664C127.664 157.44 127.488 157.152 127.36 156.8L120.448 134.576C120.384 134.416 120.352 134.256 120.352 134.096C120.352 133.808 120.464 133.568 120.688 133.376C120.912 133.152 121.168 133.04 121.456 133.04H126.4C126.816 133.04 127.136 133.152 127.36 133.376C127.616 133.6 127.776 133.824 127.84 134.048L131.872 147.776L136.192 134.096C136.256 133.872 136.4 133.648 136.624 133.424C136.88 133.168 137.232 133.04 137.68 133.04H140.848C141.296 133.04 141.632 133.168 141.856 133.424C142.112 133.648 142.272 133.872 142.336 134.096L146.656 147.776L150.688 134.048C150.752 133.824 150.896 133.6 151.12 133.376C151.376 133.152 151.712 133.04 152.128 133.04H157.072C157.36 133.04 157.6 133.152 157.792 133.376C158.016 133.568 158.128 133.808 158.128 134.096C158.128 134.256 158.112 134.416 158.08 134.576L151.168 156.8C151.072 157.152 150.896 157.44 150.64 157.664C150.416 157.888 150.064 158 149.584 158H145.264C144.816 158 144.464 157.888 144.208 157.664C143.952 157.44 143.776 157.152 143.68 156.8L139.264 143.648L134.848 156.8C134.752 157.152 134.576 157.44 134.32 157.664C134.064 157.888 133.712 158 133.264 158H128.944ZM163.403 158C163.051 158 162.763 157.888 162.539 157.664C162.315 157.44 162.203 157.152 162.203 156.8V134.24C162.203 133.888 162.315 133.6 162.539 133.376C162.763 133.152 163.051 133.04 163.403 133.04H168.923C169.275 133.04 169.563 133.152 169.787 133.376C170.011 133.6 170.123 133.888 170.123 134.24V136.064C170.955 135.072 172.043 134.24 173.387 133.568C174.731 132.896 176.315 132.56 178.139 132.56C179.995 132.56 181.627 132.976 183.035 133.808C184.475 134.64 185.595 135.872 186.395 137.504C187.227 139.104 187.643 141.072 187.643 143.408V156.8C187.643 157.152 187.515 157.44 187.259 157.664C187.035 157.888 186.763 158 186.443 158H180.395C180.075 158 179.787 157.888 179.531 157.664C179.307 157.44 179.195 157.152 179.195 156.8V143.696C179.195 142.192 178.827 141.04 178.091 140.24C177.387 139.408 176.331 138.992 174.923 138.992C173.611 138.992 172.555 139.408 171.755 140.24C170.987 141.04 170.603 142.192 170.603 143.696V156.8C170.603 157.152 170.475 157.44 170.219 157.664C169.995 157.888 169.723 158 169.403 158H163.403Z" fill="black"/>
</svg>
