<svg width="90" height="111" viewBox="0 0 90 111" fill="none" xmlns="http://www.w3.org/2000/svg">
<path d="M33.75 48.75H56.25M33.75 63.75H45M15 15V75C15 76.9891 15.7902 78.8968 17.1967 80.3033C18.6032 81.7098 20.5109 82.5 22.5 82.5H67.5C69.4891 82.5 71.3968 81.7098 72.8033 80.3033C74.2098 78.8968 75 76.9891 75 75V31.2825C74.9999 30.2833 74.8001 29.2943 74.4124 28.3734C74.0248 27.4525 73.457 26.6184 72.7425 25.92L56.0925 9.6375C54.6914 8.26747 52.8096 7.50024 50.85 7.5H22.5C20.5109 7.5 18.6032 8.29018 17.1967 9.6967C15.7902 11.1032 15 13.0109 15 15V15Z" stroke="black" stroke-width="7.5" stroke-linecap="round" stroke-linejoin="round"/>
<path d="M52.5 7.5V22.5C52.5 24.4891 53.2902 26.3968 54.6967 27.8033C56.1032 29.2098 58.0109 30 60 30H75" stroke="black" stroke-width="7.5" stroke-linejoin="round"/>
<path d="M15.6321 109V101.727H17.1697V107.732H20.2876V109H15.6321ZM23.742 109.107C23.1904 109.107 22.7134 108.989 22.3109 108.755C21.9108 108.518 21.6019 108.189 21.3841 107.768C21.1663 107.344 21.0574 106.853 21.0574 106.294C21.0574 105.731 21.1663 105.238 21.3841 104.817C21.6019 104.393 21.9108 104.064 22.3109 103.83C22.7134 103.593 23.1904 103.474 23.742 103.474C24.2936 103.474 24.7695 103.593 25.1696 103.83C25.572 104.064 25.8822 104.393 26.1 104.817C26.3178 105.238 26.4267 105.731 26.4267 106.294C26.4267 106.853 26.3178 107.344 26.1 107.768C25.8822 108.189 25.572 108.518 25.1696 108.755C24.7695 108.989 24.2936 109.107 23.742 109.107ZM23.7491 107.935C24.0001 107.935 24.2096 107.864 24.3777 107.722C24.5458 107.577 24.6724 107.381 24.7576 107.132C24.8452 106.884 24.889 106.601 24.889 106.283C24.889 105.966 24.8452 105.683 24.7576 105.435C24.6724 105.186 24.5458 104.99 24.3777 104.845C24.2096 104.701 24.0001 104.629 23.7491 104.629C23.4958 104.629 23.2827 104.701 23.1099 104.845C22.9395 104.99 22.8104 105.186 22.7228 105.435C22.6376 105.683 22.595 105.966 22.595 106.283C22.595 106.601 22.6376 106.884 22.7228 107.132C22.8104 107.381 22.9395 107.577 23.1099 107.722C23.2827 107.864 23.4958 107.935 23.7491 107.935ZM28.9657 109.103C28.6177 109.103 28.3076 109.043 28.0353 108.922C27.7631 108.799 27.5476 108.618 27.389 108.379C27.2328 108.137 27.1547 107.836 27.1547 107.477C27.1547 107.174 27.2103 106.919 27.3216 106.713C27.4328 106.507 27.5843 106.341 27.7761 106.216C27.9679 106.09 28.1857 105.996 28.4295 105.932C28.6757 105.868 28.9338 105.823 29.2037 105.797C29.5209 105.764 29.7766 105.733 29.9707 105.705C30.1648 105.674 30.3057 105.629 30.3933 105.57C30.4809 105.51 30.5247 105.423 30.5247 105.307V105.286C30.5247 105.061 30.4537 104.887 30.3116 104.763C30.1719 104.64 29.9731 104.579 29.715 104.579C29.4428 104.579 29.2261 104.639 29.0652 104.76C28.9042 104.878 28.7976 105.027 28.7456 105.207L27.3464 105.094C27.4174 104.762 27.5571 104.476 27.7654 104.234C27.9738 103.991 28.2425 103.804 28.5716 103.673C28.903 103.541 29.2865 103.474 29.7221 103.474C30.0252 103.474 30.3152 103.51 30.5922 103.581C30.8715 103.652 31.1189 103.762 31.3343 103.911C31.5521 104.06 31.7238 104.252 31.8493 104.487C31.9747 104.719 32.0375 104.997 32.0375 105.321V109H30.6028V108.244H30.5602C30.4726 108.414 30.3554 108.564 30.2086 108.695C30.0618 108.822 29.8855 108.923 29.6795 108.996C29.4735 109.067 29.2356 109.103 28.9657 109.103ZM29.399 108.059C29.6215 108.059 29.818 108.015 29.9885 107.928C30.1589 107.838 30.2927 107.717 30.3897 107.565C30.4868 107.414 30.5353 107.242 30.5353 107.05V106.472C30.488 106.502 30.4229 106.531 30.34 106.557C30.2595 106.58 30.1684 106.603 30.0666 106.624C29.9648 106.643 29.863 106.661 29.7612 106.678C29.6594 106.692 29.5671 106.705 29.4842 106.717C29.3066 106.743 29.1516 106.784 29.019 106.841C28.8864 106.898 28.7834 106.975 28.71 107.072C28.6367 107.166 28.6 107.285 28.6 107.427C28.6 107.633 28.6745 107.79 28.8237 107.899C28.9752 108.006 29.167 108.059 29.399 108.059ZM35.2211 109.089C34.8068 109.089 34.4315 108.982 34.0953 108.769C33.7615 108.554 33.4964 108.238 33.2999 107.821C33.1058 107.402 33.0087 106.888 33.0087 106.28C33.0087 105.655 33.1093 105.135 33.3105 104.721C33.5118 104.304 33.7793 103.993 34.1131 103.787C34.4493 103.579 34.8174 103.474 35.2175 103.474C35.5229 103.474 35.7774 103.527 35.981 103.631C36.187 103.732 36.3527 103.86 36.4782 104.014C36.606 104.166 36.7031 104.315 36.7694 104.462H36.8155V101.727H38.3248V109H36.8333V108.126H36.7694C36.6983 108.278 36.5977 108.428 36.4675 108.577C36.3397 108.724 36.1728 108.846 35.9668 108.943C35.7632 109.04 35.5146 109.089 35.2211 109.089ZM35.7005 107.885C35.9443 107.885 36.1503 107.819 36.3184 107.686C36.4888 107.551 36.619 107.363 36.709 107.121C36.8013 106.88 36.8475 106.597 36.8475 106.273C36.8475 105.948 36.8025 105.667 36.7125 105.428C36.6226 105.188 36.4924 105.004 36.3219 104.874C36.1515 104.743 35.9443 104.678 35.7005 104.678C35.4519 104.678 35.2424 104.746 35.0719 104.881C34.9015 105.016 34.7724 105.203 34.6848 105.442C34.5972 105.681 34.5534 105.958 34.5534 106.273C34.5534 106.59 34.5972 106.871 34.6848 107.114C34.7748 107.356 34.9038 107.545 35.0719 107.683C35.2424 107.817 35.4519 107.885 35.7005 107.885ZM41.9114 109V101.727H44.7807C45.3323 101.727 45.8023 101.833 46.1905 102.043C46.5788 102.252 46.8747 102.542 47.0783 102.913C47.2843 103.283 47.3873 103.709 47.3873 104.192C47.3873 104.675 47.2831 105.101 47.0748 105.47C46.8664 105.839 46.5646 106.127 46.1692 106.333C45.7762 106.539 45.3004 106.642 44.7417 106.642H42.9128V105.41H44.4931C44.789 105.41 45.0328 105.359 45.2246 105.257C45.4187 105.153 45.5632 105.01 45.6578 104.827C45.7549 104.643 45.8034 104.431 45.8034 104.192C45.8034 103.95 45.7549 103.74 45.6578 103.56C45.5632 103.377 45.4187 103.237 45.2246 103.137C45.0305 103.035 44.7843 102.984 44.486 102.984H43.449V109H41.9114ZM48.3576 109V103.545H49.8242V104.497H49.881C49.9805 104.159 50.1474 103.903 50.3817 103.73C50.6161 103.555 50.886 103.467 51.1914 103.467C51.2672 103.467 51.3488 103.472 51.4364 103.482C51.524 103.491 51.601 103.504 51.6673 103.521V104.863C51.5962 104.842 51.498 104.823 51.3725 104.806C51.247 104.79 51.1322 104.781 51.0281 104.781C50.8055 104.781 50.6067 104.83 50.4315 104.927C50.2586 105.022 50.1213 105.154 50.0195 105.325C49.9201 105.495 49.8704 105.692 49.8704 105.914V109H48.3576ZM54.66 109.107C54.1084 109.107 53.6313 108.989 53.2289 108.755C52.8288 108.518 52.5198 108.189 52.302 107.768C52.0842 107.344 51.9753 106.853 51.9753 106.294C51.9753 105.731 52.0842 105.238 52.302 104.817C52.5198 104.393 52.8288 104.064 53.2289 103.83C53.6313 103.593 54.1084 103.474 54.66 103.474C55.2116 103.474 55.6874 103.593 56.0875 103.83C56.49 104.064 56.8001 104.393 57.0179 104.817C57.2357 105.238 57.3446 105.731 57.3446 106.294C57.3446 106.853 57.2357 107.344 57.0179 107.768C56.8001 108.189 56.49 108.518 56.0875 108.755C55.6874 108.989 55.2116 109.107 54.66 109.107ZM54.6671 107.935C54.918 107.935 55.1275 107.864 55.2956 107.722C55.4637 107.577 55.5904 107.381 55.6756 107.132C55.7632 106.884 55.807 106.601 55.807 106.283C55.807 105.966 55.7632 105.683 55.6756 105.435C55.5904 105.186 55.4637 104.99 55.2956 104.845C55.1275 104.701 54.918 104.629 54.6671 104.629C54.4138 104.629 54.2007 104.701 54.0279 104.845C53.8574 104.99 53.7284 105.186 53.6408 105.435C53.5556 105.683 53.513 105.966 53.513 106.283C53.513 106.601 53.5556 106.884 53.6408 107.132C53.7284 107.381 53.8574 107.577 54.0279 107.722C54.2007 107.864 54.4138 107.935 54.6671 107.935ZM61.2615 103.545V104.682H57.8951V103.545H61.2615ZM58.6657 109V103.151C58.6657 102.756 58.7426 102.428 58.8965 102.168C59.0527 101.907 59.2658 101.712 59.5357 101.582C59.8056 101.451 60.1122 101.386 60.4554 101.386C60.6874 101.386 60.8993 101.404 61.0911 101.44C61.2852 101.475 61.4296 101.507 61.5243 101.536L61.2544 102.672C61.1953 102.653 61.1219 102.635 61.0343 102.619C60.949 102.602 60.8614 102.594 60.7715 102.594C60.5489 102.594 60.3939 102.646 60.3063 102.75C60.2187 102.852 60.1749 102.995 60.1749 103.18V109H58.6657ZM62.1857 109V103.545H63.6985V109H62.1857ZM62.9457 102.842C62.7208 102.842 62.5278 102.768 62.3668 102.619C62.2082 102.467 62.1289 102.286 62.1289 102.075C62.1289 101.867 62.2082 101.688 62.3668 101.539C62.5278 101.388 62.7208 101.312 62.9457 101.312C63.1706 101.312 63.3623 101.388 63.521 101.539C63.6819 101.688 63.7624 101.867 63.7624 102.075C63.7624 102.286 63.6819 102.467 63.521 102.619C63.3623 102.768 63.1706 102.842 62.9457 102.842ZM66.4231 101.727V109H64.9103V101.727H66.4231ZM70.1207 109.107C69.5597 109.107 69.0767 108.993 68.6719 108.766C68.2694 108.536 67.9593 108.212 67.7415 107.793C67.5237 107.371 67.4148 106.873 67.4148 106.298C67.4148 105.737 67.5237 105.244 67.7415 104.82C67.9593 104.397 68.2659 104.066 68.6612 103.83C69.0589 103.593 69.5253 103.474 70.0604 103.474C70.4202 103.474 70.7552 103.532 71.0653 103.648C71.3778 103.762 71.6501 103.934 71.8821 104.163C72.1165 104.393 72.2988 104.682 72.429 105.03C72.5592 105.375 72.6243 105.78 72.6243 106.244V106.66H68.0185V105.722H71.2003C71.2003 105.504 71.1529 105.312 71.0582 105.143C70.9635 104.975 70.8321 104.844 70.6641 104.749C70.4983 104.652 70.3054 104.604 70.0852 104.604C69.8556 104.604 69.652 104.657 69.4744 104.763C69.2992 104.868 69.1619 105.009 69.0625 105.186C68.9631 105.361 68.9122 105.557 68.9098 105.772V106.663C68.9098 106.933 68.9595 107.166 69.0589 107.363C69.1607 107.559 69.304 107.711 69.4886 107.817C69.6733 107.924 69.8923 107.977 70.1456 107.977C70.3137 107.977 70.4676 107.954 70.6072 107.906C70.7469 107.859 70.8665 107.788 70.9659 107.693C71.0653 107.598 71.1411 107.482 71.1932 107.345L72.5923 107.438C72.5213 107.774 72.3757 108.067 72.1555 108.318C71.9377 108.567 71.656 108.761 71.3104 108.901C70.9671 109.038 70.5705 109.107 70.1207 109.107Z" fill="black"/>
</svg>
