<svg width="90" height="90" viewBox="0 0 90 90" fill="none" xmlns="http://www.w3.org/2000/svg">
<path d="M33.75 48.75H56.25M33.75 63.75H45M15 15V75C15 76.9891 15.7902 78.8968 17.1967 80.3033C18.6032 81.7098 20.5109 82.5 22.5 82.5H67.5C69.4891 82.5 71.3968 81.7098 72.8033 80.3033C74.2098 78.8968 75 76.9891 75 75V31.2825C74.9999 30.2833 74.8001 29.2943 74.4124 28.3734C74.0248 27.4525 73.457 26.6184 72.7425 25.92L56.0925 9.6375C54.6914 8.26747 52.8096 7.50024 50.85 7.5H22.5C20.5109 7.5 18.6032 8.29018 17.1967 9.6967C15.7902 11.1032 15 13.0109 15 15V15Z" stroke="black" stroke-width="7.5" stroke-linecap="round" stroke-linejoin="round"/>
<path d="M52.5 7.5V22.5C52.5 24.4891 53.2902 26.3968 54.6967 27.8033C56.1032 29.2098 58.0109 30 60 30H75" stroke="black" stroke-width="7.5" stroke-linejoin="round"/>
</svg>
