<svg width="227" height="227" viewBox="0 0 227 227" fill="none" xmlns="http://www.w3.org/2000/svg">
<rect width="226.456" height="226.456" rx="13.5874" fill="#4F4F4F"/>
<path d="M57.56 130C57.208 130 56.92 129.888 56.696 129.664C56.472 129.44 56.36 129.152 56.36 128.8V97.6C56.36 97.248 56.472 96.96 56.696 96.736C56.92 96.512 57.208 96.4 57.56 96.4H63.896C64.216 96.4 64.488 96.512 64.712 96.736C64.968 96.96 65.096 97.248 65.096 97.6V122.752H79.592C79.944 122.752 80.232 122.88 80.456 123.136C80.712 123.36 80.84 123.648 80.84 124V128.8C80.84 129.152 80.712 129.44 80.456 129.664C80.232 129.888 79.944 130 79.592 130H57.56ZM96.0463 130.48C93.3583 130.48 91.0863 130.048 89.2303 129.184C87.4063 128.32 85.9983 127.088 85.0063 125.488C84.0463 123.856 83.5023 121.92 83.3743 119.68C83.3423 119.04 83.3263 118.32 83.3263 117.52C83.3263 116.688 83.3423 115.968 83.3743 115.36C83.5023 113.088 84.0783 111.152 85.1023 109.552C86.1263 107.952 87.5503 106.72 89.3743 105.856C91.2303 104.992 93.4543 104.56 96.0463 104.56C98.6703 104.56 100.894 104.992 102.718 105.856C104.574 106.72 106.014 107.952 107.038 109.552C108.062 111.152 108.638 113.088 108.766 115.36C108.798 115.968 108.814 116.688 108.814 117.52C108.814 118.32 108.798 119.04 108.766 119.68C108.638 121.92 108.078 123.856 107.086 125.488C106.126 127.088 104.718 128.32 102.862 129.184C101.038 130.048 98.7663 130.48 96.0463 130.48ZM96.0463 124.624C97.4863 124.624 98.5263 124.192 99.1663 123.328C99.8383 122.464 100.222 121.168 100.318 119.44C100.35 118.96 100.366 118.32 100.366 117.52C100.366 116.72 100.35 116.08 100.318 115.6C100.222 113.904 99.8383 112.624 99.1663 111.76C98.5263 110.864 97.4863 110.416 96.0463 110.416C94.6383 110.416 93.5983 110.864 92.9263 111.76C92.2543 112.624 91.8863 113.904 91.8223 115.6C91.7903 116.08 91.7743 116.72 91.7743 117.52C91.7743 118.32 91.7903 118.96 91.8223 119.44C91.8863 121.168 92.2543 122.464 92.9263 123.328C93.5983 124.192 94.6383 124.624 96.0463 124.624ZM114.735 130C114.383 130 114.095 129.888 113.871 129.664C113.647 129.44 113.535 129.152 113.535 128.8V106.24C113.535 105.888 113.647 105.6 113.871 105.376C114.095 105.152 114.383 105.04 114.735 105.04H120.255C120.607 105.04 120.895 105.152 121.119 105.376C121.343 105.6 121.455 105.888 121.455 106.24V108.064C122.287 107.072 123.375 106.24 124.719 105.568C126.063 104.896 127.647 104.56 129.471 104.56C131.327 104.56 132.959 104.976 134.367 105.808C135.807 106.64 136.927 107.872 137.727 109.504C138.559 111.104 138.975 113.072 138.975 115.408V128.8C138.975 129.152 138.847 129.44 138.591 129.664C138.367 129.888 138.095 130 137.775 130H131.727C131.407 130 131.119 129.888 130.863 129.664C130.639 129.44 130.527 129.152 130.527 128.8V115.696C130.527 114.192 130.159 113.04 129.423 112.24C128.719 111.408 127.663 110.992 126.255 110.992C124.943 110.992 123.887 111.408 123.087 112.24C122.319 113.04 121.935 114.192 121.935 115.696V128.8C121.935 129.152 121.807 129.44 121.551 129.664C121.327 129.888 121.055 130 120.735 130H114.735ZM156.572 140.56C154.108 140.56 152.06 140.24 150.428 139.6C148.828 138.96 147.548 138.192 146.588 137.296C145.66 136.4 144.988 135.504 144.572 134.608C144.156 133.744 143.932 133.056 143.9 132.544C143.868 132.192 143.98 131.904 144.236 131.68C144.492 131.456 144.796 131.344 145.148 131.344H151.244C151.532 131.344 151.772 131.408 151.964 131.536C152.188 131.696 152.364 131.952 152.492 132.304C152.652 132.656 152.86 133.024 153.116 133.408C153.404 133.792 153.788 134.096 154.268 134.32C154.78 134.576 155.468 134.704 156.332 134.704C157.292 134.704 158.092 134.544 158.732 134.224C159.372 133.936 159.852 133.44 160.172 132.736C160.492 132.064 160.652 131.152 160.652 130V126.784C159.916 127.584 158.972 128.24 157.82 128.752C156.668 129.232 155.276 129.472 153.644 129.472C152.012 129.472 150.572 129.232 149.324 128.752C148.076 128.272 147.036 127.552 146.204 126.592C145.372 125.632 144.716 124.464 144.236 123.088C143.788 121.712 143.516 120.128 143.42 118.336C143.388 117.504 143.388 116.672 143.42 115.84C143.516 114.112 143.788 112.56 144.236 111.184C144.684 109.808 145.324 108.624 146.156 107.632C147.02 106.64 148.076 105.888 149.324 105.376C150.572 104.832 152.012 104.56 153.644 104.56C155.372 104.56 156.844 104.896 158.06 105.568C159.308 106.208 160.332 107.024 161.132 108.016V106.24C161.132 105.92 161.244 105.648 161.468 105.424C161.692 105.168 161.98 105.04 162.332 105.04H167.852C168.204 105.04 168.492 105.168 168.716 105.424C168.972 105.648 169.1 105.92 169.1 106.24V129.328C169.1 131.76 168.604 133.808 167.612 135.472C166.62 137.136 165.196 138.4 163.34 139.264C161.484 140.128 159.228 140.56 156.572 140.56ZM156.236 123.232C157.26 123.232 158.092 123.008 158.732 122.56C159.372 122.112 159.836 121.536 160.124 120.832C160.444 120.128 160.62 119.376 160.652 118.576C160.684 118.224 160.7 117.728 160.7 117.088C160.7 116.448 160.684 115.968 160.652 115.648C160.62 114.816 160.444 114.048 160.124 113.344C159.836 112.64 159.372 112.08 158.732 111.664C158.092 111.216 157.26 110.992 156.236 110.992C155.18 110.992 154.332 111.216 153.692 111.664C153.084 112.112 152.636 112.72 152.348 113.488C152.092 114.256 151.932 115.104 151.868 116.032C151.836 116.736 151.836 117.456 151.868 118.192C151.932 119.12 152.092 119.968 152.348 120.736C152.636 121.504 153.084 122.112 153.692 122.56C154.332 123.008 155.18 123.232 156.236 123.232Z" fill="white"/>
</svg>
