<svg width="227" height="227" viewBox="0 0 227 227" fill="none" xmlns="http://www.w3.org/2000/svg">
<rect x="0.543945" width="226.456" height="226.456" rx="13.5874" fill="#333333"/>
<path d="M109.997 47.0033L48.7136 108.287C47.4638 109.537 46.7617 111.232 46.7617 113C46.7617 114.768 47.4638 116.463 48.7136 117.713L110 179C111.25 180.25 112.946 180.952 114.714 180.952C116.481 180.952 118.177 180.25 119.427 179L180.71 117.717C181.96 116.466 182.662 114.771 182.662 113.003C182.662 111.236 181.96 109.54 180.71 108.29L119.424 47C118.173 45.7502 116.478 45.0481 114.71 45.0481C112.943 45.0481 111.247 45.7502 109.997 47V47.0033Z" stroke="white" stroke-width="7.5" stroke-linejoin="round"/>
<path d="M94 113H134M114 93V133" stroke="white" stroke-width="7.5" stroke-linecap="round"/>
</svg>
