<svg width="130" height="130" viewBox="0 0 130 130" fill="none" xmlns="http://www.w3.org/2000/svg">
<rect width="130" height="130" fill="black"/>
<path d="M65 7.12833C33.0362 7.12833 7.12833 33.0362 7.12833 65C7.12833 96.9638 33.0362 122.872 65 122.872C96.9638 122.872 122.872 96.9638 122.872 65C122.807 33.0633 96.9367 7.19333 65.0054 7.12833H65ZM65 127.904C30.2575 127.904 2.09625 99.7425 2.09625 65C2.09625 30.2575 30.2575 2.09625 65 2.09625C99.7425 2.09625 127.904 30.2575 127.904 65V65.0812C127.904 99.775 99.7804 127.898 65.0867 127.898H65H65.0054L65 127.904Z" fill="white"/>
<path d="M65 130C29.1742 129.816 0.184167 100.826 0 65.0162V65C0 29.1038 29.1038 0 65 0C100.896 0 130 29.1038 130 65C129.816 100.826 100.826 129.816 65.0162 130H65ZM65 4.1925C31.4167 4.1925 4.1925 31.4167 4.1925 65C4.1925 98.5833 31.4167 125.807 65 125.807C98.5833 125.807 125.807 98.5833 125.807 65C125.786 31.4275 98.5725 4.21958 65.0054 4.1925H65ZM65 124.968C31.8825 124.968 5.03208 98.1175 5.03208 65C5.03208 31.8825 31.8825 5.03208 65 5.03208C98.1608 5.14042 125.038 31.8717 125.385 64.9675V65C125.038 98.1229 98.1554 124.86 65.0108 124.968H65ZM65 9.22458C34.1954 9.22458 9.22458 34.1954 9.22458 65C9.22458 95.8046 34.1954 120.775 65 120.775C95.8046 120.775 120.775 95.8046 120.775 65C120.635 34.255 95.7504 9.36542 65.0162 9.22458H65Z" fill="white"/>
<path d="M52.4171 53.6792V53.7279C52.4171 59.9571 47.3687 65.0054 41.1396 65.0054H41.0421C38.0511 65.0054 35.1826 63.8173 33.0677 61.7023C30.9527 59.5874 29.7646 56.7189 29.7646 53.7279V53.6792C29.7646 50.6767 30.9573 47.7972 33.0804 45.6741C35.2034 43.5511 38.0829 42.3583 41.0854 42.3583C44.0879 42.3583 46.9674 43.5511 49.0905 45.6741C51.2135 47.7972 52.4062 50.6767 52.4062 53.6792H52.4171ZM100.647 53.6792V53.7279C100.647 59.9571 95.5988 65.0054 89.3696 65.0054H89.2721C87.7911 65.0054 86.3246 64.7137 84.9564 64.147C83.5881 63.5802 82.3449 62.7495 81.2977 61.7023C80.2505 60.6551 79.4198 59.4119 78.853 58.0436C78.2863 56.6754 77.9946 55.2089 77.9946 53.7279V53.6304C77.9946 47.4013 83.0429 42.3529 89.2721 42.3529H89.3208C92.3032 42.4111 95.1475 43.621 97.2577 45.7292C99.368 47.8375 100.581 50.6806 100.642 53.6629V53.6737L100.647 53.6792ZM79.6792 91.4171C79.6792 102.321 73.3904 111.128 65 111.128C56.6096 111.128 50.3208 102.321 50.3208 91.4171C50.3208 80.5133 56.6096 71.7058 65 71.7058C73.3904 71.7058 79.6792 80.5133 79.6792 91.4171Z" fill="white"/>
</svg>
