<svg width="227" height="299" viewBox="0 0 227 299" fill="none" xmlns="http://www.w3.org/2000/svg">
<path d="M46.18 288C45.8867 288 45.6227 287.897 45.388 287.692C45.1827 287.487 45.08 287.223 45.08 286.9V258.3C45.08 257.977 45.1827 257.713 45.388 257.508C45.6227 257.303 45.8867 257.2 46.18 257.2H50.932C51.4013 257.2 51.7533 257.332 51.988 257.596C52.252 257.831 52.4133 258.021 52.472 258.168L60.216 272.072L67.96 258.168C68.048 258.021 68.1947 257.831 68.4 257.596C68.6347 257.332 69.0013 257.2 69.5 257.2H74.208C74.5307 257.2 74.7947 257.303 75 257.508C75.2347 257.713 75.352 257.977 75.352 258.3V286.9C75.352 287.223 75.2347 287.487 75 287.692C74.7947 287.897 74.5307 288 74.208 288H68.972C68.6493 288 68.3707 287.897 68.136 287.692C67.9307 287.487 67.828 287.223 67.828 286.9V270.4L62.856 279.596C62.7387 279.86 62.5627 280.095 62.328 280.3C62.0933 280.505 61.7707 280.608 61.36 280.608H59.072C58.6613 280.608 58.3387 280.505 58.104 280.3C57.8693 280.095 57.6787 279.86 57.532 279.596L52.56 270.4V286.9C52.56 287.223 52.4573 287.487 52.252 287.692C52.0467 287.897 51.7827 288 51.46 288H46.18ZM91.8145 288.44C89.3505 288.44 87.2679 288.044 85.5665 287.252C83.8945 286.46 82.6039 285.331 81.6945 283.864C80.8145 282.368 80.3159 280.593 80.1985 278.54C80.1692 277.953 80.1545 277.293 80.1545 276.56C80.1545 275.797 80.1692 275.137 80.1985 274.58C80.3159 272.497 80.8439 270.723 81.7825 269.256C82.7212 267.789 84.0265 266.66 85.6985 265.868C87.3999 265.076 89.4385 264.68 91.8145 264.68C94.2199 264.68 96.2585 265.076 97.9305 265.868C99.6319 266.66 100.952 267.789 101.891 269.256C102.829 270.723 103.357 272.497 103.475 274.58C103.504 275.137 103.519 275.797 103.519 276.56C103.519 277.293 103.504 277.953 103.475 278.54C103.357 280.593 102.844 282.368 101.935 283.864C101.055 285.331 99.7639 286.46 98.0625 287.252C96.3905 288.044 94.3079 288.44 91.8145 288.44ZM91.8145 283.072C93.1345 283.072 94.0879 282.676 94.6745 281.884C95.2905 281.092 95.6425 279.904 95.7305 278.32C95.7599 277.88 95.7745 277.293 95.7745 276.56C95.7745 275.827 95.7599 275.24 95.7305 274.8C95.6425 273.245 95.2905 272.072 94.6745 271.28C94.0879 270.459 93.1345 270.048 91.8145 270.048C90.5239 270.048 89.5705 270.459 88.9545 271.28C88.3385 272.072 88.0012 273.245 87.9425 274.8C87.9132 275.24 87.8985 275.827 87.8985 276.56C87.8985 277.293 87.9132 277.88 87.9425 278.32C88.0012 279.904 88.3385 281.092 88.9545 281.884C89.5705 282.676 90.5239 283.072 91.8145 283.072ZM116.25 288.44C114.578 288.44 113.082 288.059 111.762 287.296C110.471 286.533 109.459 285.419 108.726 283.952C107.993 282.456 107.626 280.637 107.626 278.496V266.22C107.626 265.897 107.729 265.633 107.934 265.428C108.139 265.223 108.403 265.12 108.726 265.12H114.226C114.549 265.12 114.813 265.223 115.018 265.428C115.223 265.633 115.326 265.897 115.326 266.22V278.232C115.326 281.107 116.617 282.544 119.198 282.544C120.401 282.544 121.354 282.177 122.058 281.444C122.791 280.681 123.158 279.611 123.158 278.232V266.22C123.158 265.897 123.261 265.633 123.466 265.428C123.671 265.223 123.935 265.12 124.258 265.12H129.758C130.081 265.12 130.345 265.223 130.55 265.428C130.755 265.633 130.858 265.897 130.858 266.22V286.9C130.858 287.223 130.755 287.487 130.55 287.692C130.345 287.897 130.081 288 129.758 288H124.654C124.361 288 124.097 287.897 123.862 287.692C123.657 287.487 123.554 287.223 123.554 286.9V285.228C122.791 286.284 121.794 287.091 120.562 287.648C119.359 288.176 117.922 288.44 116.25 288.44ZM147.738 288C145.86 288 144.232 287.707 142.854 287.12C141.504 286.504 140.463 285.565 139.73 284.304C138.996 283.013 138.63 281.356 138.63 279.332V270.884H135.198C134.875 270.884 134.596 270.781 134.362 270.576C134.156 270.371 134.054 270.107 134.054 269.784V266.22C134.054 265.897 134.156 265.633 134.362 265.428C134.596 265.223 134.875 265.12 135.198 265.12H138.63V257.86C138.63 257.537 138.732 257.273 138.938 257.068C139.172 256.863 139.436 256.76 139.73 256.76H144.834C145.156 256.76 145.42 256.863 145.626 257.068C145.831 257.273 145.934 257.537 145.934 257.86V265.12H151.434C151.756 265.12 152.02 265.223 152.226 265.428C152.431 265.633 152.534 265.897 152.534 266.22V269.784C152.534 270.107 152.431 270.371 152.226 270.576C152.02 270.781 151.756 270.884 151.434 270.884H145.934V278.716C145.934 279.713 146.124 280.505 146.506 281.092C146.887 281.679 147.532 281.972 148.442 281.972H151.83C152.152 281.972 152.416 282.075 152.622 282.28C152.827 282.485 152.93 282.749 152.93 283.072V286.9C152.93 287.223 152.827 287.487 152.622 287.692C152.416 287.897 152.152 288 151.83 288H147.738ZM157.673 288C157.35 288 157.086 287.897 156.881 287.692C156.675 287.487 156.573 287.223 156.573 286.9V257.86C156.573 257.537 156.675 257.273 156.881 257.068C157.086 256.863 157.35 256.76 157.673 256.76H163.305C163.627 256.76 163.891 256.863 164.097 257.068C164.302 257.273 164.405 257.537 164.405 257.86V267.672C165.197 266.763 166.165 266.044 167.309 265.516C168.482 264.959 169.831 264.68 171.357 264.68C173.058 264.68 174.569 265.061 175.889 265.824C177.238 266.587 178.294 267.716 179.057 269.212C179.819 270.679 180.201 272.483 180.201 274.624V286.9C180.201 287.223 180.098 287.487 179.893 287.692C179.687 287.897 179.423 288 179.101 288H173.425C173.131 288 172.867 287.897 172.633 287.692C172.427 287.487 172.325 287.223 172.325 286.9V274.888C172.325 273.509 171.987 272.453 171.313 271.72C170.667 270.957 169.699 270.576 168.409 270.576C167.206 270.576 166.238 270.957 165.505 271.72C164.771 272.453 164.405 273.509 164.405 274.888V286.9C164.405 287.223 164.302 287.487 164.097 287.692C163.891 287.897 163.627 288 163.305 288H157.673Z" fill="black"/>
<rect width="226.456" height="226.456" rx="13.5874" fill="#333333"/>
<g clip-path="url(#clip0_968_18977)">
<path d="M113.274 41.7734C73.9335 41.7734 42.0468 73.6601 42.0468 113C42.0468 152.34 73.9335 184.227 113.274 184.227C152.614 184.227 184.5 152.34 184.5 113C184.42 73.6934 152.58 41.8534 113.28 41.7734H113.274ZM113.274 190.42C70.5135 190.42 35.8535 155.76 35.8535 113C35.8535 70.2401 70.5135 35.5801 113.274 35.5801C156.034 35.5801 190.694 70.2401 190.694 113V113.1C190.694 155.8 156.08 190.413 113.38 190.413H113.274H113.28L113.274 190.42Z" fill="white"/>
<path d="M113.273 193C69.1801 192.773 33.5001 157.093 33.2734 113.02V113C33.2734 68.82 69.0934 33 113.273 33C157.453 33 193.273 68.82 193.273 113C193.047 157.093 157.367 192.773 113.293 193H113.273ZM113.273 38.16C71.9401 38.16 38.4334 71.6667 38.4334 113C38.4334 154.333 71.9401 187.84 113.273 187.84C154.607 187.84 188.113 154.333 188.113 113C188.087 71.68 154.593 38.1933 113.28 38.16H113.273ZM113.273 186.807C72.5134 186.807 39.4668 153.76 39.4668 113C39.4668 72.24 72.5134 39.1933 113.273 39.1933C154.087 39.3267 187.167 72.2267 187.593 112.96V113C187.167 153.767 154.08 186.673 113.287 186.807H113.273ZM113.273 44.3533C75.3601 44.3533 44.6268 75.0867 44.6268 113C44.6268 150.913 75.3601 181.647 113.273 181.647C151.187 181.647 181.92 150.913 181.92 113C181.747 75.16 151.12 44.5267 113.293 44.3533H113.28H113.273Z" fill="white"/>
<path d="M97.7863 99.0667V99.1267C97.7863 106.793 91.5729 113.007 83.9062 113.007H83.7863C80.105 113.007 76.5746 111.544 73.9716 108.941C71.3686 106.338 69.9062 102.808 69.9062 99.1267V99.0667C69.9062 95.3714 71.3742 91.8274 73.9872 89.2144C76.6002 86.6014 80.1442 85.1334 83.8396 85.1334C87.5349 85.1334 91.0789 86.6014 93.6919 89.2144C96.3049 91.8274 97.7729 95.3714 97.7729 99.0667H97.7863ZM157.146 99.0667V99.1267C157.146 106.793 150.933 113.007 143.266 113.007H143.146C141.324 113.007 139.519 112.648 137.835 111.95C136.151 111.253 134.62 110.23 133.332 108.941C132.043 107.652 131.02 106.122 130.323 104.438C129.625 102.754 129.266 100.949 129.266 99.1267V99.0067C129.266 91.34 135.48 85.1267 143.146 85.1267H143.206C146.877 85.1983 150.377 86.6874 152.975 89.2822C155.572 91.877 157.065 95.3761 157.14 99.0467V99.06L157.146 99.0667ZM131.34 145.513C131.34 158.933 123.6 169.773 113.273 169.773C102.946 169.773 95.2063 158.933 95.2063 145.513C95.2063 132.093 102.946 121.253 113.273 121.253C123.6 121.253 131.34 132.093 131.34 145.513Z" fill="white"/>
</g>
<defs>
<clipPath id="clip0_968_18977">
<rect width="160" height="160" fill="white" transform="translate(33.2734 33)"/>
</clipPath>
</defs>
</svg>
