<svg width="161" height="160" viewBox="0 0 161 160" fill="none" xmlns="http://www.w3.org/2000/svg">
<g clip-path="url(#clip0_1230_19183)">
<path d="M80.0908 8.77341C40.7508 8.77341 8.86411 40.6601 8.86411 80.0001C8.86411 119.34 40.7508 151.227 80.0908 151.227C119.431 151.227 151.317 119.34 151.317 80.0001C151.237 40.6934 119.397 8.85341 80.0974 8.77341H80.0908V8.77341ZM80.0908 157.42C37.3308 157.42 2.67078 122.76 2.67078 80.0001C2.67078 37.2401 37.3308 2.58008 80.0908 2.58008C122.851 2.58008 157.511 37.2401 157.511 80.0001V80.1001C157.511 122.8 122.897 157.413 80.1974 157.413H80.0908H80.0974L80.0908 157.42Z" fill="white"/>
<path d="M80.0908 160C35.9975 159.773 0.317487 124.093 0.0908203 80.02V80C0.0908203 35.82 35.9108 0 80.0908 0C124.271 0 160.091 35.82 160.091 80C159.864 124.093 124.184 159.773 80.1108 160H80.0908ZM80.0908 5.16C38.7575 5.16 5.25082 38.6667 5.25082 80C5.25082 121.333 38.7575 154.84 80.0908 154.84C121.424 154.84 154.931 121.333 154.931 80C154.904 38.68 121.411 5.19333 80.0975 5.16H80.0908ZM80.0908 153.807C39.3308 153.807 6.28415 120.76 6.28415 80C6.28415 39.24 39.3308 6.19333 80.0908 6.19333C120.904 6.32667 153.984 39.2267 154.411 79.96V80C153.984 120.767 120.897 153.673 80.1042 153.807H80.0908ZM80.0908 11.3533C42.1775 11.3533 11.4442 42.0867 11.4442 80C11.4442 117.913 42.1775 148.647 80.0908 148.647C118.004 148.647 148.737 117.913 148.737 80C148.564 42.16 117.937 11.5267 80.1108 11.3533H80.0975H80.0908Z" fill="white"/>
<path d="M64.6041 66.0667V66.1267C64.6041 73.7934 58.3908 80.0067 50.7241 80.0067H50.6041C46.9229 80.0067 43.3925 78.5444 40.7895 75.9414C38.1865 73.3383 36.7241 69.8079 36.7241 66.1267V66.0667C36.7241 62.3714 38.1921 58.8274 40.8051 56.2144C43.4181 53.6014 46.9621 52.1334 50.6575 52.1334C54.3528 52.1334 57.8968 53.6014 60.5098 56.2144C63.1228 58.8274 64.5908 62.3714 64.5908 66.0667H64.6041ZM123.964 66.0667V66.1267C123.964 73.7934 117.751 80.0067 110.084 80.0067H109.964C108.141 80.0067 106.336 79.6477 104.652 78.9502C102.968 78.2526 101.438 77.2302 100.149 75.9414C98.8606 74.6525 97.8382 73.1224 97.1407 71.4384C96.4431 69.7544 96.0841 67.9495 96.0841 66.1267V66.0067C96.0841 58.34 102.297 52.1267 109.964 52.1267H110.024C113.695 52.1983 117.195 53.6874 119.793 56.2822C122.39 58.877 123.882 62.3761 123.957 66.0467V66.06L123.964 66.0667ZM98.1575 112.513C98.1575 125.933 90.4175 136.773 80.0908 136.773C69.7641 136.773 62.0241 125.933 62.0241 112.513C62.0241 99.0934 69.7641 88.2534 80.0908 88.2534C90.4175 88.2534 98.1575 99.0934 98.1575 112.513V112.513Z" fill="white"/>
</g>
<defs>
<clipPath id="clip0_1230_19183">
<rect width="160" height="160" fill="white" transform="translate(0.0908203)"/>
</clipPath>
</defs>
</svg>
