<svg width="184" height="6" viewBox="0 0 184 6" fill="none" xmlns="http://www.w3.org/2000/svg">
<path d="M0 3.29548C0 4.50882 0.983611 5.49243 2.19696 5.49243H76.8934C78.1068 5.49243 79.0904 4.50882 79.0904 3.29548V2.197C79.0904 0.983654 78.1068 4.3869e-05 76.8934 4.3869e-05H2.19696C0.983612 4.3869e-05 0 0.983654 0 2.197V3.29548Z" fill="white"/>
<path d="M104.355 3.29548C104.355 4.50882 105.339 5.49243 106.552 5.49243H181.249C182.462 5.49243 183.446 4.50882 183.446 3.29548V2.197C183.446 0.983654 182.462 4.3869e-05 181.249 4.3869e-05H106.552C105.339 4.3869e-05 104.355 0.983654 104.355 2.197V3.29548Z" fill="white"/>
</svg>
