<svg width="227" height="294" viewBox="0 0 227 294" fill="none" xmlns="http://www.w3.org/2000/svg">
<path d="M27.56 282C27.208 282 26.92 281.888 26.696 281.664C26.472 281.44 26.36 281.152 26.36 280.8V249.6C26.36 249.248 26.472 248.96 26.696 248.736C26.92 248.512 27.208 248.4 27.56 248.4H32.648C33.192 248.4 33.576 248.528 33.8 248.784C34.056 249.008 34.216 249.184 34.28 249.312L45.992 267.792V249.6C45.992 249.248 46.104 248.96 46.328 248.736C46.552 248.512 46.84 248.4 47.192 248.4H52.952C53.304 248.4 53.592 248.512 53.816 248.736C54.04 248.96 54.152 249.248 54.152 249.6V280.8C54.152 281.12 54.04 281.408 53.816 281.664C53.592 281.888 53.304 282 52.952 282H47.816C47.304 282 46.92 281.872 46.664 281.616C46.44 281.36 46.296 281.184 46.232 281.088L34.52 263.328V280.8C34.52 281.152 34.408 281.44 34.184 281.664C33.96 281.888 33.672 282 33.32 282H27.56ZM71.852 282.48C68.076 282.48 65.068 281.456 62.828 279.408C60.588 277.36 59.42 274.32 59.324 270.288C59.324 270.064 59.324 269.776 59.324 269.424C59.324 269.072 59.324 268.8 59.324 268.608C59.42 266.08 59.98 263.92 61.004 262.128C62.06 260.304 63.5 258.928 65.324 258C67.18 257.04 69.34 256.56 71.804 256.56C74.62 256.56 76.94 257.12 78.764 258.24C80.62 259.36 82.012 260.88 82.94 262.8C83.868 264.72 84.332 266.912 84.332 269.376V270.528C84.332 270.88 84.204 271.168 83.948 271.392C83.724 271.616 83.452 271.728 83.132 271.728H67.772C67.772 271.76 67.772 271.808 67.772 271.872C67.772 271.936 67.772 272 67.772 272.064C67.804 272.992 67.964 273.84 68.252 274.608C68.54 275.376 68.988 275.984 69.596 276.432C70.204 276.88 70.94 277.104 71.804 277.104C72.444 277.104 72.972 277.008 73.388 276.816C73.836 276.592 74.204 276.352 74.492 276.096C74.78 275.808 75.004 275.568 75.164 275.376C75.452 275.056 75.676 274.864 75.836 274.8C76.028 274.704 76.316 274.656 76.7 274.656H82.652C82.972 274.656 83.228 274.752 83.42 274.944C83.644 275.104 83.74 275.344 83.708 275.664C83.676 276.208 83.404 276.864 82.892 277.632C82.38 278.4 81.628 279.168 80.636 279.936C79.676 280.672 78.46 281.28 76.988 281.76C75.516 282.24 73.804 282.48 71.852 282.48ZM67.772 266.976H75.884V266.88C75.884 265.856 75.724 264.96 75.404 264.192C75.116 263.424 74.652 262.832 74.012 262.416C73.404 262 72.668 261.792 71.804 261.792C70.94 261.792 70.204 262 69.596 262.416C69.02 262.832 68.572 263.424 68.252 264.192C67.932 264.96 67.772 265.856 67.772 266.88V266.976ZM98 282.48C96.176 282.48 94.544 282.064 93.104 281.232C91.696 280.4 90.592 279.184 89.792 277.584C88.992 275.952 88.592 273.968 88.592 271.632V258.24C88.592 257.888 88.704 257.6 88.928 257.376C89.152 257.152 89.44 257.04 89.792 257.04H95.792C96.144 257.04 96.432 257.152 96.656 257.376C96.88 257.6 96.992 257.888 96.992 258.24V271.344C96.992 274.48 98.4 276.048 101.216 276.048C102.528 276.048 103.568 275.648 104.336 274.848C105.136 274.016 105.536 272.848 105.536 271.344V258.24C105.536 257.888 105.648 257.6 105.872 257.376C106.096 257.152 106.384 257.04 106.736 257.04H112.736C113.088 257.04 113.376 257.152 113.6 257.376C113.824 257.6 113.936 257.888 113.936 258.24V280.8C113.936 281.152 113.824 281.44 113.6 281.664C113.376 281.888 113.088 282 112.736 282H107.168C106.848 282 106.56 281.888 106.304 281.664C106.08 281.44 105.968 281.152 105.968 280.8V278.976C105.136 280.128 104.048 281.008 102.704 281.616C101.392 282.192 99.824 282.48 98 282.48ZM132.35 282C130.302 282 128.526 281.68 127.022 281.04C125.55 280.368 124.414 279.344 123.614 277.968C122.814 276.56 122.414 274.752 122.414 272.544V263.328H118.67C118.318 263.328 118.014 263.216 117.758 262.992C117.534 262.768 117.422 262.48 117.422 262.128V258.24C117.422 257.888 117.534 257.6 117.758 257.376C118.014 257.152 118.318 257.04 118.67 257.04H122.414V249.12C122.414 248.768 122.526 248.48 122.75 248.256C123.006 248.032 123.294 247.92 123.614 247.92H129.182C129.534 247.92 129.822 248.032 130.046 248.256C130.27 248.48 130.382 248.768 130.382 249.12V257.04H136.382C136.734 257.04 137.022 257.152 137.246 257.376C137.47 257.6 137.582 257.888 137.582 258.24V262.128C137.582 262.48 137.47 262.768 137.246 262.992C137.022 263.216 136.734 263.328 136.382 263.328H130.382V271.872C130.382 272.96 130.59 273.824 131.006 274.464C131.422 275.104 132.126 275.424 133.118 275.424H136.814C137.166 275.424 137.454 275.536 137.678 275.76C137.902 275.984 138.014 276.272 138.014 276.624V280.8C138.014 281.152 137.902 281.44 137.678 281.664C137.454 281.888 137.166 282 136.814 282H132.35ZM143.188 282C142.836 282 142.548 281.888 142.324 281.664C142.1 281.44 141.988 281.152 141.988 280.8V258.24C141.988 257.92 142.1 257.648 142.324 257.424C142.548 257.168 142.836 257.04 143.188 257.04H148.708C149.06 257.04 149.348 257.168 149.572 257.424C149.796 257.648 149.908 257.92 149.908 258.24V260.16C150.772 259.168 151.796 258.4 152.98 257.856C154.196 257.312 155.556 257.04 157.06 257.04H159.172C159.492 257.04 159.764 257.152 159.988 257.376C160.244 257.6 160.372 257.888 160.372 258.24V263.184C160.372 263.504 160.244 263.792 159.988 264.048C159.764 264.272 159.492 264.384 159.172 264.384H154.516C153.204 264.384 152.18 264.752 151.444 265.488C150.74 266.192 150.388 267.2 150.388 268.512V280.8C150.388 281.152 150.26 281.44 150.004 281.664C149.78 281.888 149.492 282 149.14 282H143.188ZM170.851 282.48C169.123 282.48 167.571 282.16 166.195 281.52C164.851 280.848 163.779 279.952 162.979 278.832C162.179 277.712 161.779 276.448 161.779 275.04C161.779 272.768 162.707 270.976 164.563 269.664C166.419 268.32 168.883 267.408 171.955 266.928L177.955 266.016V265.344C177.955 264.192 177.715 263.312 177.235 262.704C176.755 262.096 175.875 261.792 174.595 261.792C173.699 261.792 172.963 261.968 172.387 262.32C171.843 262.672 171.411 263.152 171.091 263.76C170.803 264.176 170.403 264.384 169.891 264.384H164.515C164.163 264.384 163.891 264.288 163.699 264.096C163.507 263.872 163.427 263.616 163.459 263.328C163.459 262.752 163.667 262.096 164.083 261.36C164.531 260.592 165.203 259.84 166.099 259.104C166.995 258.368 168.147 257.76 169.555 257.28C170.963 256.8 172.659 256.56 174.643 256.56C176.723 256.56 178.499 256.8 179.971 257.28C181.443 257.76 182.627 258.432 183.523 259.296C184.451 260.16 185.139 261.184 185.587 262.368C186.035 263.52 186.259 264.8 186.259 266.208V280.8C186.259 281.152 186.131 281.44 185.875 281.664C185.651 281.888 185.379 282 185.059 282H179.491C179.139 282 178.851 281.888 178.627 281.664C178.403 281.44 178.291 281.152 178.291 280.8V279.12C177.875 279.728 177.315 280.288 176.611 280.8C175.907 281.312 175.075 281.712 174.115 282C173.187 282.32 172.099 282.48 170.851 282.48ZM173.107 277.008C174.035 277.008 174.867 276.816 175.603 276.432C176.371 276.016 176.963 275.392 177.379 274.56C177.827 273.696 178.051 272.624 178.051 271.344V270.672L173.971 271.392C172.467 271.648 171.363 272.048 170.659 272.592C169.987 273.104 169.651 273.712 169.651 274.416C169.651 274.96 169.811 275.424 170.131 275.808C170.451 276.192 170.867 276.496 171.379 276.72C171.891 276.912 172.467 277.008 173.107 277.008ZM192.876 282C192.524 282 192.236 281.888 192.012 281.664C191.788 281.44 191.676 281.152 191.676 280.8V249.12C191.676 248.768 191.788 248.48 192.012 248.256C192.236 248.032 192.524 247.92 192.876 247.92H198.54C198.892 247.92 199.18 248.032 199.404 248.256C199.628 248.48 199.74 248.768 199.74 249.12V280.8C199.74 281.152 199.628 281.44 199.404 281.664C199.18 281.888 198.892 282 198.54 282H192.876Z" fill="black"/>
<rect width="226.456" height="226.456" rx="13.5874" fill="#4F4F4F"/>
<path d="M37 127.306C37 129.628 38.8822 131.51 41.204 131.51H184.14C186.462 131.51 188.344 129.628 188.344 127.306V125.204C188.344 122.882 186.462 121 184.14 121H41.204C38.8822 121 37 122.882 37 125.204V127.306Z" fill="white"/>
</svg>
