<?xml version="1.0" encoding="UTF-8" standalone="no"?>
<svg
   width="227"
   height="294"
   viewBox="0 0 227 294"
   fill="none"
   version="1.1"
   id="svg10"
   sodipodi:docname="Neutral_Eyebrows 2.svg"
   inkscape:version="1.1.2 (b8e25be833, 2022-02-05)"
   xmlns:inkscape="http://www.inkscape.org/namespaces/inkscape"
   xmlns:sodipodi="http://sodipodi.sourceforge.net/DTD/sodipodi-0.dtd"
   xmlns="http://www.w3.org/2000/svg"
   xmlns:svg="http://www.w3.org/2000/svg">
  <defs
     id="defs14" />
  <sodipodi:namedview
     id="namedview12"
     pagecolor="#505050"
     bordercolor="#eeeeee"
     borderopacity="1"
     inkscape:pageshadow="0"
     inkscape:pageopacity="0"
     inkscape:pagecheckerboard="0"
     showgrid="false"
     inkscape:zoom="2.8605442"
     inkscape:cx="113.61474"
     inkscape:cy="91.066587"
     inkscape:window-width="1920"
     inkscape:window-height="1028"
     inkscape:window-x="-6"
     inkscape:window-y="-6"
     inkscape:window-maximized="1"
     inkscape:current-layer="svg10" />
  <path
     d="M21.56 282C21.208 282 20.92 281.888 20.696 281.664C20.472 281.44 20.36 281.152 20.36 280.8V249.6C20.36 249.248 20.472 248.96 20.696 248.736C20.92 248.512 21.208 248.4 21.56 248.4H26.648C27.192 248.4 27.576 248.528 27.8 248.784C28.056 249.008 28.216 249.184 28.28 249.312L39.992 267.792V249.6C39.992 249.248 40.104 248.96 40.328 248.736C40.552 248.512 40.84 248.4 41.192 248.4H46.952C47.304 248.4 47.592 248.512 47.816 248.736C48.04 248.96 48.152 249.248 48.152 249.6V280.8C48.152 281.12 48.04 281.408 47.816 281.664C47.592 281.888 47.304 282 46.952 282H41.816C41.304 282 40.92 281.872 40.664 281.616C40.44 281.36 40.296 281.184 40.232 281.088L28.52 263.328V280.8C28.52 281.152 28.408 281.44 28.184 281.664C27.96 281.888 27.672 282 27.32 282H21.56ZM65.852 282.48C62.076 282.48 59.068 281.456 56.828 279.408C54.588 277.36 53.42 274.32 53.324 270.288C53.324 270.064 53.324 269.776 53.324 269.424C53.324 269.072 53.324 268.8 53.324 268.608C53.42 266.08 53.98 263.92 55.004 262.128C56.06 260.304 57.5 258.928 59.324 258C61.18 257.04 63.34 256.56 65.804 256.56C68.62 256.56 70.94 257.12 72.764 258.24C74.62 259.36 76.012 260.88 76.94 262.8C77.868 264.72 78.332 266.912 78.332 269.376V270.528C78.332 270.88 78.204 271.168 77.948 271.392C77.724 271.616 77.452 271.728 77.132 271.728H61.772C61.772 271.76 61.772 271.808 61.772 271.872C61.772 271.936 61.772 272 61.772 272.064C61.804 272.992 61.964 273.84 62.252 274.608C62.54 275.376 62.988 275.984 63.596 276.432C64.204 276.88 64.94 277.104 65.804 277.104C66.444 277.104 66.972 277.008 67.388 276.816C67.836 276.592 68.204 276.352 68.492 276.096C68.78 275.808 69.004 275.568 69.164 275.376C69.452 275.056 69.676 274.864 69.836 274.8C70.028 274.704 70.316 274.656 70.7 274.656H76.652C76.972 274.656 77.228 274.752 77.42 274.944C77.644 275.104 77.74 275.344 77.708 275.664C77.676 276.208 77.404 276.864 76.892 277.632C76.38 278.4 75.628 279.168 74.636 279.936C73.676 280.672 72.46 281.28 70.988 281.76C69.516 282.24 67.804 282.48 65.852 282.48ZM61.772 266.976H69.884V266.88C69.884 265.856 69.724 264.96 69.404 264.192C69.116 263.424 68.652 262.832 68.012 262.416C67.404 262 66.668 261.792 65.804 261.792C64.94 261.792 64.204 262 63.596 262.416C63.02 262.832 62.572 263.424 62.252 264.192C61.932 264.96 61.772 265.856 61.772 266.88V266.976ZM92 282.48C90.176 282.48 88.544 282.064 87.104 281.232C85.696 280.4 84.592 279.184 83.792 277.584C82.992 275.952 82.592 273.968 82.592 271.632V258.24C82.592 257.888 82.704 257.6 82.928 257.376C83.152 257.152 83.44 257.04 83.792 257.04H89.792C90.144 257.04 90.432 257.152 90.656 257.376C90.88 257.6 90.992 257.888 90.992 258.24V271.344C90.992 274.48 92.4 276.048 95.216 276.048C96.528 276.048 97.568 275.648 98.336 274.848C99.136 274.016 99.536 272.848 99.536 271.344V258.24C99.536 257.888 99.648 257.6 99.872 257.376C100.096 257.152 100.384 257.04 100.736 257.04H106.736C107.088 257.04 107.376 257.152 107.6 257.376C107.824 257.6 107.936 257.888 107.936 258.24V280.8C107.936 281.152 107.824 281.44 107.6 281.664C107.376 281.888 107.088 282 106.736 282H101.168C100.848 282 100.56 281.888 100.304 281.664C100.08 281.44 99.968 281.152 99.968 280.8V278.976C99.136 280.128 98.048 281.008 96.704 281.616C95.392 282.192 93.824 282.48 92 282.48ZM126.35 282C124.302 282 122.526 281.68 121.022 281.04C119.55 280.368 118.414 279.344 117.614 277.968C116.814 276.56 116.414 274.752 116.414 272.544V263.328H112.67C112.318 263.328 112.014 263.216 111.758 262.992C111.534 262.768 111.422 262.48 111.422 262.128V258.24C111.422 257.888 111.534 257.6 111.758 257.376C112.014 257.152 112.318 257.04 112.67 257.04H116.414V249.12C116.414 248.768 116.526 248.48 116.75 248.256C117.006 248.032 117.294 247.92 117.614 247.92H123.182C123.534 247.92 123.822 248.032 124.046 248.256C124.27 248.48 124.382 248.768 124.382 249.12V257.04H130.382C130.734 257.04 131.022 257.152 131.246 257.376C131.47 257.6 131.582 257.888 131.582 258.24V262.128C131.582 262.48 131.47 262.768 131.246 262.992C131.022 263.216 130.734 263.328 130.382 263.328H124.382V271.872C124.382 272.96 124.59 273.824 125.006 274.464C125.422 275.104 126.126 275.424 127.118 275.424H130.814C131.166 275.424 131.454 275.536 131.678 275.76C131.902 275.984 132.014 276.272 132.014 276.624V280.8C132.014 281.152 131.902 281.44 131.678 281.664C131.454 281.888 131.166 282 130.814 282H126.35ZM137.188 282C136.836 282 136.548 281.888 136.324 281.664C136.1 281.44 135.988 281.152 135.988 280.8V258.24C135.988 257.92 136.1 257.648 136.324 257.424C136.548 257.168 136.836 257.04 137.188 257.04H142.708C143.06 257.04 143.348 257.168 143.572 257.424C143.796 257.648 143.908 257.92 143.908 258.24V260.16C144.772 259.168 145.796 258.4 146.98 257.856C148.196 257.312 149.556 257.04 151.06 257.04H153.172C153.492 257.04 153.764 257.152 153.988 257.376C154.244 257.6 154.372 257.888 154.372 258.24V263.184C154.372 263.504 154.244 263.792 153.988 264.048C153.764 264.272 153.492 264.384 153.172 264.384H148.516C147.204 264.384 146.18 264.752 145.444 265.488C144.74 266.192 144.388 267.2 144.388 268.512V280.8C144.388 281.152 144.26 281.44 144.004 281.664C143.78 281.888 143.492 282 143.14 282H137.188ZM164.851 282.48C163.123 282.48 161.571 282.16 160.195 281.52C158.851 280.848 157.779 279.952 156.979 278.832C156.179 277.712 155.779 276.448 155.779 275.04C155.779 272.768 156.707 270.976 158.563 269.664C160.419 268.32 162.883 267.408 165.955 266.928L171.955 266.016V265.344C171.955 264.192 171.715 263.312 171.235 262.704C170.755 262.096 169.875 261.792 168.595 261.792C167.699 261.792 166.963 261.968 166.387 262.32C165.843 262.672 165.411 263.152 165.091 263.76C164.803 264.176 164.403 264.384 163.891 264.384H158.515C158.163 264.384 157.891 264.288 157.699 264.096C157.507 263.872 157.427 263.616 157.459 263.328C157.459 262.752 157.667 262.096 158.083 261.36C158.531 260.592 159.203 259.84 160.099 259.104C160.995 258.368 162.147 257.76 163.555 257.28C164.963 256.8 166.659 256.56 168.643 256.56C170.723 256.56 172.499 256.8 173.971 257.28C175.443 257.76 176.627 258.432 177.523 259.296C178.451 260.16 179.139 261.184 179.587 262.368C180.035 263.52 180.259 264.8 180.259 266.208V280.8C180.259 281.152 180.131 281.44 179.875 281.664C179.651 281.888 179.379 282 179.059 282H173.491C173.139 282 172.851 281.888 172.627 281.664C172.403 281.44 172.291 281.152 172.291 280.8V279.12C171.875 279.728 171.315 280.288 170.611 280.8C169.907 281.312 169.075 281.712 168.115 282C167.187 282.32 166.099 282.48 164.851 282.48ZM167.107 277.008C168.035 277.008 168.867 276.816 169.603 276.432C170.371 276.016 170.963 275.392 171.379 274.56C171.827 273.696 172.051 272.624 172.051 271.344V270.672L167.971 271.392C166.467 271.648 165.363 272.048 164.659 272.592C163.987 273.104 163.651 273.712 163.651 274.416C163.651 274.96 163.811 275.424 164.131 275.808C164.451 276.192 164.867 276.496 165.379 276.72C165.891 276.912 166.467 277.008 167.107 277.008ZM186.876 282C186.524 282 186.236 281.888 186.012 281.664C185.788 281.44 185.676 281.152 185.676 280.8V249.12C185.676 248.768 185.788 248.48 186.012 248.256C186.236 248.032 186.524 247.92 186.876 247.92H192.54C192.892 247.92 193.18 248.032 193.404 248.256C193.628 248.48 193.74 248.768 193.74 249.12V280.8C193.74 281.152 193.628 281.44 193.404 281.664C193.18 281.888 192.892 282 192.54 282H186.876Z"
     fill="black"
     id="path2" />
  <rect
     width="226.456"
     height="226.456"
     rx="13.5874"
     fill="#4F4F4F"
     id="rect4" />
  <path
     d="M21 120.295C21 121.509 21.9836 122.492 23.197 122.492H97.8934C99.1068 122.492 100.09 121.509 100.09 120.295V119.197C100.09 117.984 99.1068 117 97.8934 117H23.197C21.9836 117 21 117.984 21 119.197V120.295Z"
     fill="white"
     id="path6" />
  <path
     d="M125.355 120.295C125.355 121.509 126.339 122.492 127.552 122.492H202.249C203.462 122.492 204.446 121.509 204.446 120.295V119.197C204.446 117.984 203.462 117 202.249 117H127.552C126.339 117 125.355 117.984 125.355 119.197V120.295Z"
     fill="white"
     id="path8" />
</svg>
