<svg width="227" height="227" viewBox="0 0 227 227" fill="none" xmlns="http://www.w3.org/2000/svg">
<rect width="226.456" height="226.456" rx="13.5874" fill="#4F4F4F"/>
<path d="M57.56 130C57.208 130 56.92 129.888 56.696 129.664C56.472 129.44 56.36 129.152 56.36 128.8V97.6C56.36 97.248 56.472 96.96 56.696 96.736C56.92 96.512 57.208 96.4 57.56 96.4H62.648C63.192 96.4 63.576 96.528 63.8 96.784C64.056 97.008 64.216 97.184 64.28 97.312L75.992 115.792V97.6C75.992 97.248 76.104 96.96 76.328 96.736C76.552 96.512 76.84 96.4 77.192 96.4H82.952C83.304 96.4 83.592 96.512 83.816 96.736C84.04 96.96 84.152 97.248 84.152 97.6V128.8C84.152 129.12 84.04 129.408 83.816 129.664C83.592 129.888 83.304 130 82.952 130H77.816C77.304 130 76.92 129.872 76.664 129.616C76.44 129.36 76.296 129.184 76.232 129.088L64.52 111.328V128.8C64.52 129.152 64.408 129.44 64.184 129.664C63.96 129.888 63.672 130 63.32 130H57.56ZM102.14 130.48C99.452 130.48 97.18 130.048 95.324 129.184C93.5 128.32 92.092 127.088 91.1 125.488C90.14 123.856 89.596 121.92 89.468 119.68C89.436 119.04 89.42 118.32 89.42 117.52C89.42 116.688 89.436 115.968 89.468 115.36C89.596 113.088 90.172 111.152 91.196 109.552C92.22 107.952 93.644 106.72 95.468 105.856C97.324 104.992 99.548 104.56 102.14 104.56C104.764 104.56 106.988 104.992 108.812 105.856C110.668 106.72 112.108 107.952 113.132 109.552C114.156 111.152 114.732 113.088 114.86 115.36C114.892 115.968 114.908 116.688 114.908 117.52C114.908 118.32 114.892 119.04 114.86 119.68C114.732 121.92 114.172 123.856 113.18 125.488C112.22 127.088 110.812 128.32 108.956 129.184C107.132 130.048 104.86 130.48 102.14 130.48ZM102.14 124.624C103.58 124.624 104.62 124.192 105.26 123.328C105.932 122.464 106.316 121.168 106.412 119.44C106.444 118.96 106.46 118.32 106.46 117.52C106.46 116.72 106.444 116.08 106.412 115.6C106.316 113.904 105.932 112.624 105.26 111.76C104.62 110.864 103.58 110.416 102.14 110.416C100.732 110.416 99.692 110.864 99.02 111.76C98.348 112.624 97.98 113.904 97.916 115.6C97.884 116.08 97.868 116.72 97.868 117.52C97.868 118.32 97.884 118.96 97.916 119.44C97.98 121.168 98.348 122.464 99.02 123.328C99.692 124.192 100.732 124.624 102.14 124.624ZM120.829 130C120.477 130 120.189 129.888 119.965 129.664C119.741 129.44 119.629 129.152 119.629 128.8V106.24C119.629 105.888 119.741 105.6 119.965 105.376C120.189 105.152 120.477 105.04 120.829 105.04H126.349C126.701 105.04 126.989 105.152 127.213 105.376C127.437 105.6 127.549 105.888 127.549 106.24V108.064C128.381 107.072 129.469 106.24 130.813 105.568C132.157 104.896 133.741 104.56 135.565 104.56C137.421 104.56 139.053 104.976 140.461 105.808C141.901 106.64 143.021 107.872 143.821 109.504C144.653 111.104 145.069 113.072 145.069 115.408V128.8C145.069 129.152 144.941 129.44 144.685 129.664C144.461 129.888 144.189 130 143.869 130H137.821C137.501 130 137.213 129.888 136.957 129.664C136.733 129.44 136.621 129.152 136.621 128.8V115.696C136.621 114.192 136.253 113.04 135.517 112.24C134.813 111.408 133.757 110.992 132.349 110.992C131.037 110.992 129.981 111.408 129.181 112.24C128.413 113.04 128.029 114.192 128.029 115.696V128.8C128.029 129.152 127.901 129.44 127.645 129.664C127.421 129.888 127.149 130 126.829 130H120.829ZM161.946 130.48C158.17 130.48 155.162 129.456 152.922 127.408C150.682 125.36 149.514 122.32 149.418 118.288C149.418 118.064 149.418 117.776 149.418 117.424C149.418 117.072 149.418 116.8 149.418 116.608C149.514 114.08 150.074 111.92 151.098 110.128C152.154 108.304 153.594 106.928 155.418 106C157.274 105.04 159.434 104.56 161.898 104.56C164.714 104.56 167.034 105.12 168.858 106.24C170.714 107.36 172.106 108.88 173.034 110.8C173.962 112.72 174.426 114.912 174.426 117.376V118.528C174.426 118.88 174.298 119.168 174.042 119.392C173.818 119.616 173.546 119.728 173.226 119.728H157.866C157.866 119.76 157.866 119.808 157.866 119.872C157.866 119.936 157.866 120 157.866 120.064C157.898 120.992 158.058 121.84 158.346 122.608C158.634 123.376 159.082 123.984 159.69 124.432C160.298 124.88 161.034 125.104 161.898 125.104C162.538 125.104 163.066 125.008 163.482 124.816C163.93 124.592 164.298 124.352 164.586 124.096C164.874 123.808 165.098 123.568 165.258 123.376C165.546 123.056 165.77 122.864 165.93 122.8C166.122 122.704 166.41 122.656 166.794 122.656H172.746C173.066 122.656 173.322 122.752 173.514 122.944C173.738 123.104 173.834 123.344 173.802 123.664C173.77 124.208 173.498 124.864 172.986 125.632C172.474 126.4 171.722 127.168 170.73 127.936C169.77 128.672 168.554 129.28 167.082 129.76C165.61 130.24 163.898 130.48 161.946 130.48ZM157.866 114.976H165.978V114.88C165.978 113.856 165.818 112.96 165.498 112.192C165.21 111.424 164.746 110.832 164.106 110.416C163.498 110 162.762 109.792 161.898 109.792C161.034 109.792 160.298 110 159.69 110.416C159.114 110.832 158.666 111.424 158.346 112.192C158.026 112.96 157.866 113.856 157.866 114.88V114.976Z" fill="white"/>
</svg>
