<svg width="228" height="227" viewBox="0 0 228 227" fill="none" xmlns="http://www.w3.org/2000/svg">
<rect x="0.726562" width="226.456" height="226.456" rx="13.5874" fill="#F2994A"/>
<path d="M43.2989 130.48C40.3549 130.48 37.7949 130 35.6189 129.04C33.4429 128.08 31.7469 126.64 30.5309 124.72C29.3149 122.768 28.6429 120.336 28.5149 117.424C28.4829 116.048 28.4669 114.672 28.4669 113.296C28.4669 111.92 28.4829 110.528 28.5149 109.12C28.6429 106.24 29.3149 103.824 30.5309 101.872C31.7789 99.888 33.4909 98.4 35.6669 97.408C37.8429 96.416 40.3869 95.92 43.2989 95.92C46.1789 95.92 48.7069 96.416 50.8829 97.408C53.0909 98.4 54.8189 99.888 56.0669 101.872C57.3149 103.824 57.9869 106.24 58.0829 109.12C58.1469 110.528 58.1789 111.92 58.1789 113.296C58.1789 114.672 58.1469 116.048 58.0829 117.424C57.9549 120.336 57.2829 122.768 56.0669 124.72C54.8509 126.64 53.1549 128.08 50.9789 129.04C48.8029 130 46.2429 130.48 43.2989 130.48ZM43.2989 123.568C44.9949 123.568 46.3709 123.056 47.4269 122.032C48.5149 121.008 49.0909 119.376 49.1549 117.136C49.2189 115.728 49.2509 114.4 49.2509 113.152C49.2509 111.904 49.2189 110.608 49.1549 109.264C49.0909 107.76 48.8029 106.544 48.2909 105.616C47.8109 104.656 47.1389 103.952 46.2749 103.504C45.4109 103.056 44.4189 102.832 43.2989 102.832C42.2109 102.832 41.2349 103.056 40.3709 103.504C39.5069 103.952 38.8189 104.656 38.3069 105.616C37.7949 106.544 37.5069 107.76 37.4429 109.264C37.4109 110.608 37.3949 111.904 37.3949 113.152C37.3949 114.4 37.4109 115.728 37.4429 117.136C37.5389 119.376 38.1149 121.008 39.1709 122.032C40.2269 123.056 41.6029 123.568 43.2989 123.568ZM64.4148 130C64.0628 130 63.7748 129.888 63.5508 129.664C63.3268 129.44 63.2148 129.152 63.2148 128.8V106.24C63.2148 105.92 63.3268 105.648 63.5508 105.424C63.7748 105.168 64.0628 105.04 64.4148 105.04H69.9348C70.2868 105.04 70.5748 105.168 70.7988 105.424C71.0228 105.648 71.1348 105.92 71.1348 106.24V108.16C71.9988 107.168 73.0228 106.4 74.2068 105.856C75.4228 105.312 76.7828 105.04 78.2868 105.04H80.3988C80.7188 105.04 80.9908 105.152 81.2148 105.376C81.4708 105.6 81.5988 105.888 81.5988 106.24V111.184C81.5988 111.504 81.4708 111.792 81.2148 112.048C80.9908 112.272 80.7188 112.384 80.3988 112.384H75.7428C74.4308 112.384 73.4068 112.752 72.6708 113.488C71.9668 114.192 71.6148 115.2 71.6148 116.512V128.8C71.6148 129.152 71.4868 129.44 71.2308 129.664C71.0068 129.888 70.7188 130 70.3668 130H64.4148ZM92.0778 130.48C90.3498 130.48 88.7978 130.16 87.4218 129.52C86.0778 128.848 85.0058 127.952 84.2058 126.832C83.4058 125.712 83.0058 124.448 83.0058 123.04C83.0058 120.768 83.9338 118.976 85.7898 117.664C87.6458 116.32 90.1098 115.408 93.1818 114.928L99.1818 114.016V113.344C99.1818 112.192 98.9418 111.312 98.4618 110.704C97.9818 110.096 97.1018 109.792 95.8218 109.792C94.9258 109.792 94.1898 109.968 93.6138 110.32C93.0698 110.672 92.6378 111.152 92.3178 111.76C92.0298 112.176 91.6298 112.384 91.1178 112.384H85.7418C85.3898 112.384 85.1178 112.288 84.9258 112.096C84.7338 111.872 84.6538 111.616 84.6858 111.328C84.6858 110.752 84.8938 110.096 85.3098 109.36C85.7578 108.592 86.4298 107.84 87.3258 107.104C88.2218 106.368 89.3738 105.76 90.7818 105.28C92.1898 104.8 93.8858 104.56 95.8698 104.56C97.9498 104.56 99.7258 104.8 101.198 105.28C102.67 105.76 103.854 106.432 104.75 107.296C105.678 108.16 106.366 109.184 106.814 110.368C107.262 111.52 107.486 112.8 107.486 114.208V128.8C107.486 129.152 107.358 129.44 107.102 129.664C106.878 129.888 106.606 130 106.286 130H100.718C100.366 130 100.078 129.888 99.8538 129.664C99.6298 129.44 99.5178 129.152 99.5178 128.8V127.12C99.1018 127.728 98.5418 128.288 97.8378 128.8C97.1338 129.312 96.3018 129.712 95.3418 130C94.4138 130.32 93.3258 130.48 92.0778 130.48ZM94.3338 125.008C95.2618 125.008 96.0938 124.816 96.8298 124.432C97.5978 124.016 98.1898 123.392 98.6058 122.56C99.0538 121.696 99.2778 120.624 99.2778 119.344V118.672L95.1978 119.392C93.6938 119.648 92.5898 120.048 91.8858 120.592C91.2138 121.104 90.8778 121.712 90.8778 122.416C90.8778 122.96 91.0378 123.424 91.3578 123.808C91.6778 124.192 92.0938 124.496 92.6058 124.72C93.1178 124.912 93.6938 125.008 94.3338 125.008ZM114.102 130C113.75 130 113.462 129.888 113.238 129.664C113.014 129.44 112.902 129.152 112.902 128.8V106.24C112.902 105.888 113.014 105.6 113.238 105.376C113.462 105.152 113.75 105.04 114.102 105.04H119.622C119.974 105.04 120.262 105.152 120.486 105.376C120.71 105.6 120.822 105.888 120.822 106.24V108.064C121.654 107.072 122.742 106.24 124.086 105.568C125.43 104.896 127.014 104.56 128.838 104.56C130.694 104.56 132.326 104.976 133.734 105.808C135.174 106.64 136.294 107.872 137.094 109.504C137.926 111.104 138.342 113.072 138.342 115.408V128.8C138.342 129.152 138.214 129.44 137.958 129.664C137.734 129.888 137.462 130 137.142 130H131.094C130.774 130 130.486 129.888 130.23 129.664C130.006 129.44 129.894 129.152 129.894 128.8V115.696C129.894 114.192 129.526 113.04 128.79 112.24C128.086 111.408 127.03 110.992 125.622 110.992C124.31 110.992 123.254 111.408 122.454 112.24C121.686 113.04 121.302 114.192 121.302 115.696V128.8C121.302 129.152 121.174 129.44 120.918 129.664C120.694 129.888 120.422 130 120.102 130H114.102ZM155.939 140.56C153.475 140.56 151.427 140.24 149.795 139.6C148.195 138.96 146.915 138.192 145.955 137.296C145.027 136.4 144.355 135.504 143.939 134.608C143.523 133.744 143.299 133.056 143.267 132.544C143.235 132.192 143.347 131.904 143.603 131.68C143.859 131.456 144.163 131.344 144.515 131.344H150.611C150.899 131.344 151.139 131.408 151.331 131.536C151.555 131.696 151.731 131.952 151.859 132.304C152.019 132.656 152.227 133.024 152.483 133.408C152.771 133.792 153.155 134.096 153.635 134.32C154.147 134.576 154.835 134.704 155.699 134.704C156.659 134.704 157.459 134.544 158.099 134.224C158.739 133.936 159.219 133.44 159.539 132.736C159.859 132.064 160.019 131.152 160.019 130V126.784C159.283 127.584 158.339 128.24 157.187 128.752C156.035 129.232 154.643 129.472 153.011 129.472C151.379 129.472 149.939 129.232 148.691 128.752C147.443 128.272 146.403 127.552 145.571 126.592C144.739 125.632 144.083 124.464 143.603 123.088C143.155 121.712 142.883 120.128 142.787 118.336C142.755 117.504 142.755 116.672 142.787 115.84C142.883 114.112 143.155 112.56 143.603 111.184C144.051 109.808 144.691 108.624 145.523 107.632C146.387 106.64 147.443 105.888 148.691 105.376C149.939 104.832 151.379 104.56 153.011 104.56C154.739 104.56 156.211 104.896 157.427 105.568C158.675 106.208 159.699 107.024 160.499 108.016V106.24C160.499 105.92 160.611 105.648 160.835 105.424C161.059 105.168 161.347 105.04 161.699 105.04H167.219C167.571 105.04 167.859 105.168 168.083 105.424C168.339 105.648 168.467 105.92 168.467 106.24V129.328C168.467 131.76 167.971 133.808 166.979 135.472C165.987 137.136 164.563 138.4 162.707 139.264C160.851 140.128 158.595 140.56 155.939 140.56ZM155.603 123.232C156.627 123.232 157.459 123.008 158.099 122.56C158.739 122.112 159.203 121.536 159.491 120.832C159.811 120.128 159.987 119.376 160.019 118.576C160.051 118.224 160.067 117.728 160.067 117.088C160.067 116.448 160.051 115.968 160.019 115.648C159.987 114.816 159.811 114.048 159.491 113.344C159.203 112.64 158.739 112.08 158.099 111.664C157.459 111.216 156.627 110.992 155.603 110.992C154.547 110.992 153.699 111.216 153.059 111.664C152.451 112.112 152.003 112.72 151.715 113.488C151.459 114.256 151.299 115.104 151.235 116.032C151.203 116.736 151.203 117.456 151.235 118.192C151.299 119.12 151.459 119.968 151.715 120.736C152.003 121.504 152.451 122.112 153.059 122.56C153.699 123.008 154.547 123.232 155.603 123.232ZM185.641 130.48C181.865 130.48 178.857 129.456 176.617 127.408C174.377 125.36 173.209 122.32 173.113 118.288C173.113 118.064 173.113 117.776 173.113 117.424C173.113 117.072 173.113 116.8 173.113 116.608C173.209 114.08 173.769 111.92 174.793 110.128C175.849 108.304 177.289 106.928 179.113 106C180.969 105.04 183.129 104.56 185.593 104.56C188.409 104.56 190.729 105.12 192.553 106.24C194.409 107.36 195.801 108.88 196.729 110.8C197.657 112.72 198.121 114.912 198.121 117.376V118.528C198.121 118.88 197.993 119.168 197.737 119.392C197.513 119.616 197.241 119.728 196.921 119.728H181.561C181.561 119.76 181.561 119.808 181.561 119.872C181.561 119.936 181.561 120 181.561 120.064C181.593 120.992 181.753 121.84 182.041 122.608C182.329 123.376 182.777 123.984 183.385 124.432C183.993 124.88 184.729 125.104 185.593 125.104C186.233 125.104 186.761 125.008 187.177 124.816C187.625 124.592 187.993 124.352 188.281 124.096C188.569 123.808 188.793 123.568 188.953 123.376C189.241 123.056 189.465 122.864 189.625 122.8C189.817 122.704 190.105 122.656 190.489 122.656H196.441C196.761 122.656 197.017 122.752 197.209 122.944C197.433 123.104 197.529 123.344 197.497 123.664C197.465 124.208 197.193 124.864 196.681 125.632C196.169 126.4 195.417 127.168 194.425 127.936C193.465 128.672 192.249 129.28 190.777 129.76C189.305 130.24 187.593 130.48 185.641 130.48ZM181.561 114.976H189.673V114.88C189.673 113.856 189.513 112.96 189.193 112.192C188.905 111.424 188.441 110.832 187.801 110.416C187.193 110 186.457 109.792 185.593 109.792C184.729 109.792 183.993 110 183.385 110.416C182.809 110.832 182.361 111.424 182.041 112.192C181.721 112.96 181.561 113.856 181.561 114.88V114.976Z" fill="black"/>
</svg>
