<svg width="227" height="299" viewBox="0 0 227 299" fill="none" xmlns="http://www.w3.org/2000/svg">
<path d="M26.664 288.44C23.9653 288.44 21.6187 288 19.624 287.12C17.6293 286.24 16.0747 284.92 14.96 283.16C13.8453 281.371 13.2293 279.141 13.112 276.472C13.0827 275.211 13.068 273.949 13.068 272.688C13.068 271.427 13.0827 270.151 13.112 268.86C13.2293 266.22 13.8453 264.005 14.96 262.216C16.104 260.397 17.6733 259.033 19.668 258.124C21.6627 257.215 23.9947 256.76 26.664 256.76C29.304 256.76 31.6213 257.215 33.616 258.124C35.64 259.033 37.224 260.397 38.368 262.216C39.512 264.005 40.128 266.22 40.216 268.86C40.2747 270.151 40.304 271.427 40.304 272.688C40.304 273.949 40.2747 275.211 40.216 276.472C40.0987 279.141 39.4827 281.371 38.368 283.16C37.2533 284.92 35.6987 286.24 33.704 287.12C31.7093 288 29.3627 288.44 26.664 288.44ZM26.664 282.104C28.2187 282.104 29.48 281.635 30.448 280.696C31.4453 279.757 31.9733 278.261 32.032 276.208C32.0907 274.917 32.12 273.7 32.12 272.556C32.12 271.412 32.0907 270.224 32.032 268.992C31.9733 267.613 31.7093 266.499 31.24 265.648C30.8 264.768 30.184 264.123 29.392 263.712C28.6 263.301 27.6907 263.096 26.664 263.096C25.6667 263.096 24.772 263.301 23.98 263.712C23.188 264.123 22.5573 264.768 22.088 265.648C21.6187 266.499 21.3547 267.613 21.296 268.992C21.2667 270.224 21.252 271.412 21.252 272.556C21.252 273.7 21.2667 274.917 21.296 276.208C21.384 278.261 21.912 279.757 22.88 280.696C23.848 281.635 25.1093 282.104 26.664 282.104ZM53.0602 288C52.6202 288 52.2976 287.897 52.0922 287.692C51.8869 287.457 51.7109 287.193 51.5642 286.9L43.2482 266.484C43.1896 266.367 43.1602 266.235 43.1602 266.088C43.1602 265.824 43.2482 265.604 43.4242 265.428C43.6296 265.223 43.8789 265.12 44.1722 265.12H49.1442C49.5256 265.12 49.8189 265.223 50.0242 265.428C50.2296 265.633 50.3616 265.839 50.4202 266.044L55.3922 279.552L60.4082 266.044C60.4669 265.839 60.5989 265.633 60.8042 265.428C61.0096 265.223 61.3029 265.12 61.6842 265.12H66.6562C66.9202 265.12 67.1549 265.223 67.3602 265.428C67.5656 265.604 67.6682 265.824 67.6682 266.088C67.6682 266.235 67.6389 266.367 67.5802 266.484L59.2642 286.9C59.1469 287.193 58.9709 287.457 58.7362 287.692C58.5309 287.897 58.1936 288 57.7242 288H53.0602ZM80.7888 288.44C77.3275 288.44 74.5701 287.501 72.5168 285.624C70.4635 283.747 69.3928 280.96 69.3048 277.264C69.3048 277.059 69.3048 276.795 69.3048 276.472C69.3048 276.149 69.3048 275.9 69.3048 275.724C69.3928 273.407 69.9061 271.427 70.8448 269.784C71.8128 268.112 73.1328 266.851 74.8048 266C76.5061 265.12 78.4861 264.68 80.7448 264.68C83.3261 264.68 85.4528 265.193 87.1248 266.22C88.8261 267.247 90.1021 268.64 90.9528 270.4C91.8035 272.16 92.2288 274.169 92.2288 276.428V277.484C92.2288 277.807 92.1115 278.071 91.8768 278.276C91.6715 278.481 91.4221 278.584 91.1288 278.584H77.0488C77.0488 278.613 77.0488 278.657 77.0488 278.716C77.0488 278.775 77.0488 278.833 77.0488 278.892C77.0781 279.743 77.2248 280.52 77.4888 281.224C77.7528 281.928 78.1635 282.485 78.7208 282.896C79.2781 283.307 79.9528 283.512 80.7448 283.512C81.3315 283.512 81.8155 283.424 82.1968 283.248C82.6075 283.043 82.9448 282.823 83.2088 282.588C83.4728 282.324 83.6781 282.104 83.8248 281.928C84.0888 281.635 84.2941 281.459 84.4408 281.4C84.6168 281.312 84.8808 281.268 85.2328 281.268H90.6888C90.9821 281.268 91.2168 281.356 91.3928 281.532C91.5981 281.679 91.6861 281.899 91.6568 282.192C91.6275 282.691 91.3781 283.292 90.9088 283.996C90.4395 284.7 89.7501 285.404 88.8408 286.108C87.9608 286.783 86.8461 287.34 85.4968 287.78C84.1475 288.22 82.5781 288.44 80.7888 288.44ZM77.0488 274.228H84.4848V274.14C84.4848 273.201 84.3381 272.38 84.0448 271.676C83.7808 270.972 83.3555 270.429 82.7688 270.048C82.2115 269.667 81.5368 269.476 80.7448 269.476C79.9528 269.476 79.2781 269.667 78.7208 270.048C78.1928 270.429 77.7821 270.972 77.4888 271.676C77.1955 272.38 77.0488 273.201 77.0488 274.14V274.228ZM97.4538 288C97.1311 288 96.8671 287.897 96.6618 287.692C96.4565 287.487 96.3538 287.223 96.3538 286.9V266.22C96.3538 265.927 96.4565 265.677 96.6618 265.472C96.8671 265.237 97.1311 265.12 97.4538 265.12H102.514C102.836 265.12 103.1 265.237 103.306 265.472C103.511 265.677 103.614 265.927 103.614 266.22V267.98C104.406 267.071 105.344 266.367 106.43 265.868C107.544 265.369 108.791 265.12 110.17 265.12H112.106C112.399 265.12 112.648 265.223 112.854 265.428C113.088 265.633 113.206 265.897 113.206 266.22V270.752C113.206 271.045 113.088 271.309 112.854 271.544C112.648 271.749 112.399 271.852 112.106 271.852H107.838C106.635 271.852 105.696 272.189 105.022 272.864C104.376 273.509 104.054 274.433 104.054 275.636V286.9C104.054 287.223 103.936 287.487 103.702 287.692C103.496 287.897 103.232 288 102.91 288H97.4538ZM124.474 288C124.034 288 123.712 287.897 123.506 287.692C123.301 287.457 123.125 287.193 122.978 286.9L114.662 266.484C114.604 266.367 114.574 266.235 114.574 266.088C114.574 265.824 114.662 265.604 114.838 265.428C115.044 265.223 115.293 265.12 115.586 265.12H120.558C120.94 265.12 121.233 265.223 121.438 265.428C121.644 265.633 121.776 265.839 121.834 266.044L126.806 279.552L131.822 266.044C131.881 265.839 132.013 265.633 132.218 265.428C132.424 265.223 132.717 265.12 133.098 265.12H138.07C138.334 265.12 138.569 265.223 138.774 265.428C138.98 265.604 139.082 265.824 139.082 266.088C139.082 266.235 139.053 266.367 138.994 266.484L130.678 286.9C130.561 287.193 130.385 287.457 130.15 287.692C129.945 287.897 129.608 288 129.138 288H124.474ZM143.602 288C143.28 288 143.016 287.897 142.81 287.692C142.605 287.487 142.502 287.223 142.502 286.9V266.22C142.502 265.897 142.605 265.633 142.81 265.428C143.016 265.223 143.28 265.12 143.602 265.12H148.794C149.088 265.12 149.337 265.223 149.542 265.428C149.777 265.633 149.894 265.897 149.894 266.22V286.9C149.894 287.223 149.777 287.487 149.542 287.692C149.337 287.897 149.088 288 148.794 288H143.602ZM143.558 261.82C143.236 261.82 142.972 261.717 142.766 261.512C142.561 261.307 142.458 261.043 142.458 260.72V256.804C142.458 256.481 142.561 256.217 142.766 256.012C142.972 255.777 143.236 255.66 143.558 255.66H148.794C149.117 255.66 149.381 255.777 149.586 256.012C149.821 256.217 149.938 256.481 149.938 256.804V260.72C149.938 261.043 149.821 261.307 149.586 261.512C149.381 261.717 149.117 261.82 148.794 261.82H143.558ZM165.824 288.44C162.363 288.44 159.605 287.501 157.552 285.624C155.499 283.747 154.428 280.96 154.34 277.264C154.34 277.059 154.34 276.795 154.34 276.472C154.34 276.149 154.34 275.9 154.34 275.724C154.428 273.407 154.941 271.427 155.88 269.784C156.848 268.112 158.168 266.851 159.84 266C161.541 265.12 163.521 264.68 165.78 264.68C168.361 264.68 170.488 265.193 172.16 266.22C173.861 267.247 175.137 268.64 175.988 270.4C176.839 272.16 177.264 274.169 177.264 276.428V277.484C177.264 277.807 177.147 278.071 176.912 278.276C176.707 278.481 176.457 278.584 176.164 278.584H162.084C162.084 278.613 162.084 278.657 162.084 278.716C162.084 278.775 162.084 278.833 162.084 278.892C162.113 279.743 162.26 280.52 162.524 281.224C162.788 281.928 163.199 282.485 163.756 282.896C164.313 283.307 164.988 283.512 165.78 283.512C166.367 283.512 166.851 283.424 167.232 283.248C167.643 283.043 167.98 282.823 168.244 282.588C168.508 282.324 168.713 282.104 168.86 281.928C169.124 281.635 169.329 281.459 169.476 281.4C169.652 281.312 169.916 281.268 170.268 281.268H175.724C176.017 281.268 176.252 281.356 176.428 281.532C176.633 281.679 176.721 281.899 176.692 282.192C176.663 282.691 176.413 283.292 175.944 283.996C175.475 284.7 174.785 285.404 173.876 286.108C172.996 286.783 171.881 287.34 170.532 287.78C169.183 288.22 167.613 288.44 165.824 288.44ZM162.084 274.228H169.52V274.14C169.52 273.201 169.373 272.38 169.08 271.676C168.816 270.972 168.391 270.429 167.804 270.048C167.247 269.667 166.572 269.476 165.78 269.476C164.988 269.476 164.313 269.667 163.756 270.048C163.228 270.429 162.817 270.972 162.524 271.676C162.231 272.38 162.084 273.201 162.084 274.14V274.228ZM187.081 288C186.641 288 186.319 287.897 186.113 287.692C185.908 287.487 185.747 287.223 185.629 286.9L179.293 266.528C179.235 266.381 179.205 266.235 179.205 266.088C179.205 265.824 179.308 265.604 179.513 265.428C179.719 265.223 179.953 265.12 180.217 265.12H184.749C185.131 265.12 185.424 265.223 185.629 265.428C185.864 265.633 186.011 265.839 186.069 266.044L189.765 278.628L193.725 266.088C193.784 265.883 193.916 265.677 194.121 265.472C194.356 265.237 194.679 265.12 195.089 265.12H197.993C198.404 265.12 198.712 265.237 198.917 265.472C199.152 265.677 199.299 265.883 199.357 266.088L203.317 278.628L207.013 266.044C207.072 265.839 207.204 265.633 207.409 265.428C207.644 265.223 207.952 265.12 208.333 265.12H212.865C213.129 265.12 213.349 265.223 213.525 265.428C213.731 265.604 213.833 265.824 213.833 266.088C213.833 266.235 213.819 266.381 213.789 266.528L207.453 286.9C207.365 287.223 207.204 287.487 206.969 287.692C206.764 287.897 206.441 288 206.001 288H202.041C201.631 288 201.308 287.897 201.073 287.692C200.839 287.487 200.677 287.223 200.589 286.9L196.541 274.844L192.493 286.9C192.405 287.223 192.244 287.487 192.009 287.692C191.775 287.897 191.452 288 191.041 288H187.081Z" fill="black"/>
<rect width="226.456" height="226.456" rx="13.5874" fill="#333333"/>
<g clip-path="url(#clip0_968_18974)">
<path d="M128.943 69.2713C131.404 69.2713 133.669 69.7467 135.739 70.6977C141.883 73.7901 145.511 79.6673 145.557 86.2209V131.364C144.404 138.541 136.19 136.589 135.991 131.364V88.7383C135.259 86.3075 130.565 87.3153 130.453 88.7383V186.576C129.26 196.567 116.35 193.634 116.021 186.409V126.497C115.195 122.633 109.763 124.389 109.644 126.665C109.874 146.579 109.812 166.494 109.812 186.409C108.524 196.348 95.6774 193.805 95.3792 186.576L95.2115 88.7383C94.4591 86.3599 90.1098 87.2721 90.009 88.7383V131.364C88.8564 138.541 80.6423 136.589 80.4434 131.364V86.2209C80.5595 79.9468 82.859 73.6613 88.3308 70.6977C90.121 69.7467 92.3026 69.2712 94.8758 69.2712L128.943 69.2713ZM128.773 48.7703C128.773 57.48 121.713 64.5407 113.003 64.5407C104.293 64.5407 97.2328 57.48 97.2328 48.7703C97.2327 40.0607 104.293 33 113.003 33C121.713 33 128.773 40.0607 128.773 48.7703Z" fill="white"/>
</g>
<defs>
<clipPath id="clip0_968_18974">
<rect width="160" height="160" fill="white" transform="translate(33 33)"/>
</clipPath>
</defs>
</svg>
