<svg width="227" height="227" viewBox="0 0 227 227" fill="none" xmlns="http://www.w3.org/2000/svg">
<mask id="path-1-inside-1_911_18840" fill="white">
<rect width="226.456" height="226.456" rx="13.5874"/>
</mask>
<rect width="226.456" height="226.456" rx="13.5874" fill="#2F80ED" stroke="#EFCD5D" stroke-width="30" mask="url(#path-1-inside-1_911_18840)"/>
<g clip-path="url(#clip0_911_18840)">
<path d="M128.943 69.2713C131.404 69.2713 133.669 69.7467 135.739 70.6977C141.883 73.7901 145.511 79.6673 145.557 86.2209V131.364C144.404 138.541 136.19 136.589 135.991 131.364V88.7383C135.259 86.3075 130.565 87.3153 130.453 88.7383V186.576C129.26 196.567 116.35 193.634 116.021 186.409V126.497C115.195 122.633 109.763 124.389 109.644 126.665C109.874 146.579 109.812 166.494 109.812 186.409C108.524 196.348 95.6774 193.805 95.3792 186.576L95.2115 88.7383C94.4591 86.3599 90.1098 87.2721 90.009 88.7383V131.364C88.8564 138.541 80.6423 136.589 80.4434 131.364V86.2209C80.5595 79.9468 82.859 73.6613 88.3308 70.6977C90.121 69.7467 92.3026 69.2712 94.8758 69.2712L128.943 69.2713V69.2713ZM128.773 48.7703C128.773 57.48 121.713 64.5407 113.003 64.5407C104.293 64.5407 97.2328 57.48 97.2328 48.7703C97.2327 40.0607 104.293 33 113.003 33C121.713 33 128.773 40.0607 128.773 48.7703V48.7703Z" fill="white"/>
</g>
<defs>
<clipPath id="clip0_911_18840">
<rect width="160" height="160" fill="white" transform="translate(33 33)"/>
</clipPath>
</defs>
</svg>
