<svg width="228" height="294" viewBox="0 0 228 294" fill="none" xmlns="http://www.w3.org/2000/svg">
<rect x="0.908203" width="226.456" height="226.456" rx="13.5874" fill="#4F4F4F"/>
<path d="M25.56 282C25.208 282 24.92 281.888 24.696 281.664C24.472 281.44 24.36 281.152 24.36 280.8V249.6C24.36 249.248 24.472 248.96 24.696 248.736C24.92 248.512 25.208 248.4 25.56 248.4H39C41.656 248.4 43.96 248.816 45.912 249.648C47.896 250.448 49.432 251.664 50.52 253.296C51.64 254.928 52.2 256.992 52.2 259.488C52.2 261.952 51.64 263.984 50.52 265.584C49.432 267.184 47.896 268.368 45.912 269.136C43.96 269.904 41.656 270.288 39 270.288H33.288V280.8C33.288 281.152 33.16 281.44 32.904 281.664C32.68 281.888 32.392 282 32.04 282H25.56ZM33.144 263.664H38.76C40.136 263.664 41.224 263.312 42.024 262.608C42.856 261.904 43.272 260.832 43.272 259.392C43.272 258.176 42.92 257.152 42.216 256.32C41.512 255.488 40.36 255.072 38.76 255.072H33.144V263.664ZM63.195 282.48C61.467 282.48 59.915 282.16 58.539 281.52C57.195 280.848 56.123 279.952 55.323 278.832C54.523 277.712 54.123 276.448 54.123 275.04C54.123 272.768 55.051 270.976 56.907 269.664C58.763 268.32 61.227 267.408 64.299 266.928L70.299 266.016V265.344C70.299 264.192 70.059 263.312 69.579 262.704C69.099 262.096 68.219 261.792 66.939 261.792C66.043 261.792 65.307 261.968 64.731 262.32C64.187 262.672 63.755 263.152 63.435 263.76C63.147 264.176 62.747 264.384 62.235 264.384H56.859C56.507 264.384 56.235 264.288 56.043 264.096C55.851 263.872 55.771 263.616 55.803 263.328C55.803 262.752 56.011 262.096 56.427 261.36C56.875 260.592 57.547 259.84 58.443 259.104C59.339 258.368 60.491 257.76 61.899 257.28C63.307 256.8 65.003 256.56 66.987 256.56C69.067 256.56 70.843 256.8 72.315 257.28C73.787 257.76 74.971 258.432 75.867 259.296C76.795 260.16 77.483 261.184 77.931 262.368C78.379 263.52 78.603 264.8 78.603 266.208V280.8C78.603 281.152 78.475 281.44 78.219 281.664C77.995 281.888 77.723 282 77.403 282H71.835C71.483 282 71.195 281.888 70.971 281.664C70.747 281.44 70.635 281.152 70.635 280.8V279.12C70.219 279.728 69.659 280.288 68.955 280.8C68.251 281.312 67.419 281.712 66.459 282C65.531 282.32 64.443 282.48 63.195 282.48ZM65.451 277.008C66.379 277.008 67.211 276.816 67.947 276.432C68.715 276.016 69.307 275.392 69.723 274.56C70.171 273.696 70.395 272.624 70.395 271.344V270.672L66.315 271.392C64.811 271.648 63.707 272.048 63.003 272.592C62.331 273.104 61.995 273.712 61.995 274.416C61.995 274.96 62.155 275.424 62.475 275.808C62.795 276.192 63.211 276.496 63.723 276.72C64.235 276.912 64.811 277.008 65.451 277.008ZM96.6 282C94.552 282 92.776 281.68 91.272 281.04C89.8 280.368 88.664 279.344 87.864 277.968C87.064 276.56 86.664 274.752 86.664 272.544V263.328H82.92C82.568 263.328 82.264 263.216 82.008 262.992C81.784 262.768 81.672 262.48 81.672 262.128V258.24C81.672 257.888 81.784 257.6 82.008 257.376C82.264 257.152 82.568 257.04 82.92 257.04H86.664V249.12C86.664 248.768 86.776 248.48 87 248.256C87.256 248.032 87.544 247.92 87.864 247.92H93.432C93.784 247.92 94.072 248.032 94.296 248.256C94.52 248.48 94.632 248.768 94.632 249.12V257.04H100.632C100.984 257.04 101.272 257.152 101.496 257.376C101.72 257.6 101.832 257.888 101.832 258.24V262.128C101.832 262.48 101.72 262.768 101.496 262.992C101.272 263.216 100.984 263.328 100.632 263.328H94.632V271.872C94.632 272.96 94.84 273.824 95.256 274.464C95.672 275.104 96.376 275.424 97.368 275.424H101.064C101.416 275.424 101.704 275.536 101.928 275.76C102.152 275.984 102.264 276.272 102.264 276.624V280.8C102.264 281.152 102.152 281.44 101.928 281.664C101.704 281.888 101.416 282 101.064 282H96.6ZM119.006 282C116.958 282 115.182 281.68 113.678 281.04C112.206 280.368 111.07 279.344 110.27 277.968C109.47 276.56 109.07 274.752 109.07 272.544V263.328H105.326C104.974 263.328 104.67 263.216 104.414 262.992C104.19 262.768 104.078 262.48 104.078 262.128V258.24C104.078 257.888 104.19 257.6 104.414 257.376C104.67 257.152 104.974 257.04 105.326 257.04H109.07V249.12C109.07 248.768 109.182 248.48 109.406 248.256C109.662 248.032 109.95 247.92 110.27 247.92H115.838C116.19 247.92 116.478 248.032 116.702 248.256C116.926 248.48 117.038 248.768 117.038 249.12V257.04H123.038C123.39 257.04 123.678 257.152 123.902 257.376C124.126 257.6 124.238 257.888 124.238 258.24V262.128C124.238 262.48 124.126 262.768 123.902 262.992C123.678 263.216 123.39 263.328 123.038 263.328H117.038V271.872C117.038 272.96 117.246 273.824 117.662 274.464C118.078 275.104 118.782 275.424 119.774 275.424H123.47C123.822 275.424 124.11 275.536 124.334 275.76C124.558 275.984 124.67 276.272 124.67 276.624V280.8C124.67 281.152 124.558 281.44 124.334 281.664C124.11 281.888 123.822 282 123.47 282H119.006ZM140.165 282.48C136.389 282.48 133.381 281.456 131.141 279.408C128.901 277.36 127.733 274.32 127.637 270.288C127.637 270.064 127.637 269.776 127.637 269.424C127.637 269.072 127.637 268.8 127.637 268.608C127.733 266.08 128.293 263.92 129.317 262.128C130.373 260.304 131.813 258.928 133.637 258C135.493 257.04 137.653 256.56 140.117 256.56C142.933 256.56 145.253 257.12 147.077 258.24C148.933 259.36 150.325 260.88 151.253 262.8C152.181 264.72 152.645 266.912 152.645 269.376V270.528C152.645 270.88 152.517 271.168 152.26 271.392C152.037 271.616 151.765 271.728 151.445 271.728H136.085C136.085 271.76 136.085 271.808 136.085 271.872C136.085 271.936 136.085 272 136.085 272.064C136.117 272.992 136.277 273.84 136.565 274.608C136.853 275.376 137.301 275.984 137.909 276.432C138.517 276.88 139.253 277.104 140.117 277.104C140.757 277.104 141.285 277.008 141.701 276.816C142.149 276.592 142.517 276.352 142.805 276.096C143.093 275.808 143.317 275.568 143.477 275.376C143.765 275.056 143.989 274.864 144.149 274.8C144.341 274.704 144.629 274.656 145.013 274.656H150.965C151.285 274.656 151.541 274.752 151.733 274.944C151.957 275.104 152.053 275.344 152.021 275.664C151.989 276.208 151.717 276.864 151.205 277.632C150.693 278.4 149.941 279.168 148.949 279.936C147.989 280.672 146.773 281.28 145.301 281.76C143.829 282.24 142.117 282.48 140.165 282.48ZM136.085 266.976H144.197V266.88C144.197 265.856 144.037 264.96 143.717 264.192C143.429 263.424 142.965 262.832 142.325 262.416C141.717 262 140.981 261.792 140.117 261.792C139.253 261.792 138.517 262 137.909 262.416C137.333 262.832 136.885 263.424 136.565 264.192C136.245 264.96 136.085 265.856 136.085 266.88V266.976ZM158.345 282C157.993 282 157.705 281.888 157.48 281.664C157.257 281.44 157.145 281.152 157.145 280.8V258.24C157.145 257.92 157.257 257.648 157.48 257.424C157.705 257.168 157.993 257.04 158.345 257.04H163.865C164.217 257.04 164.505 257.168 164.729 257.424C164.953 257.648 165.065 257.92 165.065 258.24V260.16C165.929 259.168 166.953 258.4 168.137 257.856C169.353 257.312 170.713 257.04 172.217 257.04H174.329C174.649 257.04 174.921 257.152 175.145 257.376C175.401 257.6 175.529 257.888 175.529 258.24V263.184C175.529 263.504 175.401 263.792 175.145 264.048C174.921 264.272 174.649 264.384 174.329 264.384H169.673C168.361 264.384 167.337 264.752 166.601 265.488C165.897 266.192 165.545 267.2 165.545 268.512V280.8C165.545 281.152 165.417 281.44 165.161 281.664C164.937 281.888 164.649 282 164.297 282H158.345ZM180.141 282C179.789 282 179.501 281.888 179.277 281.664C179.053 281.44 178.941 281.152 178.941 280.8V258.24C178.941 257.888 179.053 257.6 179.277 257.376C179.501 257.152 179.789 257.04 180.141 257.04H185.661C186.013 257.04 186.301 257.152 186.525 257.376C186.749 257.6 186.861 257.888 186.861 258.24V260.064C187.693 259.072 188.781 258.24 190.125 257.568C191.469 256.896 193.053 256.56 194.877 256.56C196.733 256.56 198.365 256.976 199.773 257.808C201.213 258.64 202.333 259.872 203.133 261.504C203.965 263.104 204.381 265.072 204.381 267.408V280.8C204.381 281.152 204.253 281.44 203.997 281.664C203.773 281.888 203.501 282 203.181 282H197.133C196.813 282 196.525 281.888 196.269 281.664C196.045 281.44 195.933 281.152 195.933 280.8V267.696C195.933 266.192 195.565 265.04 194.829 264.24C194.125 263.408 193.069 262.992 191.661 262.992C190.349 262.992 189.293 263.408 188.493 264.24C187.725 265.04 187.341 266.192 187.341 267.696V280.8C187.341 281.152 187.213 281.44 186.957 281.664C186.733 281.888 186.461 282 186.141 282H180.141Z" fill="black"/>
<rect width="160" height="160" transform="translate(34 33)" fill="white"/>
<path d="M54 59.6667H67.3333" stroke="black" stroke-width="7.5" stroke-linecap="round" stroke-linejoin="round"/>
<path d="M80.666 86.3333H93.9993" stroke="black" stroke-width="7.5" stroke-linecap="round" stroke-linejoin="round"/>
<path d="M87.334 53V66.3333" stroke="black" stroke-width="7.5" stroke-linecap="round" stroke-linejoin="round"/>
<path d="M60.666 79.6667V93" stroke="black" stroke-width="7.5" stroke-linecap="round" stroke-linejoin="round"/>
<path d="M107.334 59.6667H120.667" stroke="black" stroke-width="7.5" stroke-linecap="round" stroke-linejoin="round"/>
<path d="M134 86.3333H147.333" stroke="black" stroke-width="7.5" stroke-linecap="round" stroke-linejoin="round"/>
<path d="M140.666 53V66.3333" stroke="black" stroke-width="7.5" stroke-linecap="round" stroke-linejoin="round"/>
<path d="M114 79.6667V93" stroke="black" stroke-width="7.5" stroke-linecap="round" stroke-linejoin="round"/>
<path d="M160.666 59.6667H173.999" stroke="black" stroke-width="7.5" stroke-linecap="round" stroke-linejoin="round"/>
<path d="M167.334 79.6667V93" stroke="black" stroke-width="7.5" stroke-linecap="round" stroke-linejoin="round"/>
<path d="M54 113H67.3333" stroke="black" stroke-width="7.5" stroke-linecap="round" stroke-linejoin="round"/>
<path d="M80.666 139.667H93.9993" stroke="black" stroke-width="7.5" stroke-linecap="round" stroke-linejoin="round"/>
<path d="M87.334 106.333V119.667" stroke="black" stroke-width="7.5" stroke-linecap="round" stroke-linejoin="round"/>
<path d="M60.666 133V146.333" stroke="black" stroke-width="7.5" stroke-linecap="round" stroke-linejoin="round"/>
<path d="M107.334 113H120.667" stroke="black" stroke-width="7.5" stroke-linecap="round" stroke-linejoin="round"/>
<path d="M134 139.667H147.333" stroke="black" stroke-width="7.5" stroke-linecap="round" stroke-linejoin="round"/>
<path d="M140.666 106.333V119.667" stroke="black" stroke-width="7.5" stroke-linecap="round" stroke-linejoin="round"/>
<path d="M114 133V146.333" stroke="black" stroke-width="7.5" stroke-linecap="round" stroke-linejoin="round"/>
<path d="M160.666 113H173.999" stroke="black" stroke-width="7.5" stroke-linecap="round" stroke-linejoin="round"/>
<path d="M167.334 133V146.333" stroke="black" stroke-width="7.5" stroke-linecap="round" stroke-linejoin="round"/>
<path d="M54 166.333H67.3333" stroke="black" stroke-width="7.5" stroke-linecap="round" stroke-linejoin="round"/>
<path d="M87.334 159.667V173" stroke="black" stroke-width="7.5" stroke-linecap="round" stroke-linejoin="round"/>
<path d="M107.334 166.333H120.667" stroke="black" stroke-width="7.5" stroke-linecap="round" stroke-linejoin="round"/>
<path d="M140.666 159.667V173" stroke="black" stroke-width="7.5" stroke-linecap="round" stroke-linejoin="round"/>
<path d="M160.666 166.333H173.999" stroke="black" stroke-width="7.5" stroke-linecap="round" stroke-linejoin="round"/>
</svg>
