<svg width="227" height="227" viewBox="0 0 227 227" fill="none" xmlns="http://www.w3.org/2000/svg">
<rect width="226.456" height="226.456" rx="13.5874" fill="#FFC8C8"/>
<path d="M63.56 130C63.208 130 62.92 129.888 62.696 129.664C62.472 129.44 62.36 129.152 62.36 128.8V97.6C62.36 97.248 62.472 96.96 62.696 96.736C62.92 96.512 63.208 96.4 63.56 96.4H77C79.656 96.4 81.96 96.816 83.912 97.648C85.896 98.448 87.432 99.664 88.52 101.296C89.64 102.928 90.2 104.992 90.2 107.488C90.2 109.952 89.64 111.984 88.52 113.584C87.432 115.184 85.896 116.368 83.912 117.136C81.96 117.904 79.656 118.288 77 118.288H71.288V128.8C71.288 129.152 71.16 129.44 70.904 129.664C70.68 129.888 70.392 130 70.04 130H63.56ZM71.144 111.664H76.76C78.136 111.664 79.224 111.312 80.024 110.608C80.856 109.904 81.272 108.832 81.272 107.392C81.272 106.176 80.92 105.152 80.216 104.32C79.512 103.488 78.36 103.072 76.76 103.072H71.144V111.664ZM95.9383 130C95.5863 130 95.2983 129.888 95.0742 129.664C94.8503 129.44 94.7383 129.152 94.7383 128.8V106.24C94.7383 105.888 94.8503 105.6 95.0742 105.376C95.2983 105.152 95.5863 105.04 95.9383 105.04H101.602C101.922 105.04 102.194 105.152 102.418 105.376C102.674 105.6 102.802 105.888 102.802 106.24V128.8C102.802 129.152 102.674 129.44 102.418 129.664C102.194 129.888 101.922 130 101.602 130H95.9383ZM95.8903 101.44C95.5383 101.44 95.2503 101.328 95.0263 101.104C94.8023 100.88 94.6903 100.592 94.6903 100.24V95.968C94.6903 95.616 94.8023 95.328 95.0263 95.104C95.2503 94.848 95.5383 94.72 95.8903 94.72H101.602C101.954 94.72 102.242 94.848 102.466 95.104C102.722 95.328 102.85 95.616 102.85 95.968V100.24C102.85 100.592 102.722 100.88 102.466 101.104C102.242 101.328 101.954 101.44 101.602 101.44H95.8903ZM111.126 130C110.774 130 110.486 129.888 110.262 129.664C110.038 129.44 109.926 129.152 109.926 128.8V106.24C109.926 105.888 110.038 105.6 110.262 105.376C110.486 105.152 110.774 105.04 111.126 105.04H116.646C116.998 105.04 117.286 105.152 117.51 105.376C117.734 105.6 117.846 105.888 117.846 106.24V108.064C118.678 107.072 119.766 106.24 121.11 105.568C122.454 104.896 124.038 104.56 125.862 104.56C127.718 104.56 129.35 104.976 130.758 105.808C132.198 106.64 133.318 107.872 134.118 109.504C134.95 111.104 135.366 113.072 135.366 115.408V128.8C135.366 129.152 135.238 129.44 134.982 129.664C134.758 129.888 134.486 130 134.166 130H128.118C127.798 130 127.51 129.888 127.254 129.664C127.03 129.44 126.918 129.152 126.918 128.8V115.696C126.918 114.192 126.55 113.04 125.814 112.24C125.11 111.408 124.054 110.992 122.646 110.992C121.334 110.992 120.278 111.408 119.478 112.24C118.71 113.04 118.326 114.192 118.326 115.696V128.8C118.326 129.152 118.198 129.44 117.942 129.664C117.718 129.888 117.446 130 117.126 130H111.126ZM141.923 130C141.571 130 141.283 129.888 141.059 129.664C140.835 129.44 140.723 129.152 140.723 128.8V97.12C140.723 96.768 140.835 96.48 141.059 96.256C141.283 96.032 141.571 95.92 141.923 95.92H147.491C147.811 95.92 148.083 96.032 148.307 96.256C148.563 96.48 148.691 96.768 148.691 97.12V113.2L155.363 105.856C155.555 105.632 155.763 105.44 155.987 105.28C156.211 105.12 156.531 105.04 156.947 105.04H163.379C163.667 105.04 163.907 105.152 164.099 105.376C164.323 105.568 164.435 105.808 164.435 106.096C164.435 106.224 164.403 106.368 164.339 106.528C164.275 106.688 164.179 106.816 164.051 106.912L155.411 116.224L165.251 128.176C165.507 128.432 165.635 128.688 165.635 128.944C165.635 129.232 165.523 129.488 165.299 129.712C165.107 129.904 164.851 130 164.531 130H157.955C157.475 130 157.123 129.92 156.899 129.76C156.675 129.568 156.467 129.376 156.275 129.184L148.691 120.064V128.8C148.691 129.152 148.563 129.44 148.307 129.664C148.083 129.888 147.811 130 147.491 130H141.923Z" fill="black"/>
</svg>
