<svg width="227" height="294" viewBox="0 0 227 294" fill="none" xmlns="http://www.w3.org/2000/svg">
<rect width="226.456" height="226.456" rx="13.5874" fill="#4F4F4F"/>
<path d="M56.56 282C56.208 282 55.92 281.888 55.696 281.664C55.472 281.44 55.36 281.152 55.36 280.8V249.6C55.36 249.248 55.472 248.96 55.696 248.736C55.92 248.512 56.208 248.4 56.56 248.4H70C72.656 248.4 74.96 248.816 76.912 249.648C78.896 250.448 80.432 251.664 81.52 253.296C82.64 254.928 83.2 256.992 83.2 259.488C83.2 261.952 82.64 263.984 81.52 265.584C80.432 267.184 78.896 268.368 76.912 269.136C74.96 269.904 72.656 270.288 70 270.288H64.288V280.8C64.288 281.152 64.16 281.44 63.904 281.664C63.68 281.888 63.392 282 63.04 282H56.56ZM64.144 263.664H69.76C71.136 263.664 72.224 263.312 73.024 262.608C73.856 261.904 74.272 260.832 74.272 259.392C74.272 258.176 73.92 257.152 73.216 256.32C72.512 255.488 71.36 255.072 69.76 255.072H64.144V263.664ZM88.4695 282C88.1175 282 87.8295 281.888 87.6055 281.664C87.3815 281.44 87.2695 281.152 87.2695 280.8V249.12C87.2695 248.768 87.3815 248.48 87.6055 248.256C87.8295 248.032 88.1175 247.92 88.4695 247.92H94.1335C94.4855 247.92 94.7735 248.032 94.9975 248.256C95.2215 248.48 95.3335 248.768 95.3335 249.12V280.8C95.3335 281.152 95.2215 281.44 94.9975 281.664C94.7735 281.888 94.4855 282 94.1335 282H88.4695ZM108.492 282.48C106.764 282.48 105.212 282.16 103.836 281.52C102.492 280.848 101.42 279.952 100.62 278.832C99.8199 277.712 99.4199 276.448 99.4199 275.04C99.4199 272.768 100.348 270.976 102.204 269.664C104.06 268.32 106.524 267.408 109.596 266.928L115.596 266.016V265.344C115.596 264.192 115.356 263.312 114.876 262.704C114.396 262.096 113.516 261.792 112.236 261.792C111.34 261.792 110.604 261.968 110.028 262.32C109.484 262.672 109.052 263.152 108.732 263.76C108.444 264.176 108.044 264.384 107.532 264.384H102.156C101.804 264.384 101.532 264.288 101.34 264.096C101.148 263.872 101.068 263.616 101.1 263.328C101.1 262.752 101.308 262.096 101.724 261.36C102.172 260.592 102.844 259.84 103.74 259.104C104.636 258.368 105.788 257.76 107.196 257.28C108.604 256.8 110.3 256.56 112.284 256.56C114.364 256.56 116.14 256.8 117.612 257.28C119.084 257.76 120.268 258.432 121.164 259.296C122.092 260.16 122.78 261.184 123.228 262.368C123.676 263.52 123.9 264.8 123.9 266.208V280.8C123.9 281.152 123.772 281.44 123.516 281.664C123.292 281.888 123.02 282 122.7 282H117.132C116.78 282 116.492 281.888 116.268 281.664C116.044 281.44 115.932 281.152 115.932 280.8V279.12C115.516 279.728 114.956 280.288 114.252 280.8C113.548 281.312 112.716 281.712 111.756 282C110.828 282.32 109.74 282.48 108.492 282.48ZM110.748 277.008C111.676 277.008 112.508 276.816 113.244 276.432C114.012 276.016 114.604 275.392 115.02 274.56C115.468 273.696 115.692 272.624 115.692 271.344V270.672L111.612 271.392C110.108 271.648 109.004 272.048 108.3 272.592C107.628 273.104 107.292 273.712 107.292 274.416C107.292 274.96 107.452 275.424 107.772 275.808C108.092 276.192 108.508 276.496 109.02 276.72C109.532 276.912 110.108 277.008 110.748 277.008ZM130.516 282C130.164 282 129.876 281.888 129.652 281.664C129.428 281.44 129.316 281.152 129.316 280.8V258.24C129.316 257.888 129.428 257.6 129.652 257.376C129.876 257.152 130.164 257.04 130.516 257.04H136.18C136.5 257.04 136.772 257.152 136.996 257.376C137.252 257.6 137.38 257.888 137.38 258.24V280.8C137.38 281.152 137.252 281.44 136.996 281.664C136.772 281.888 136.5 282 136.18 282H130.516ZM130.468 253.44C130.116 253.44 129.828 253.328 129.604 253.104C129.38 252.88 129.268 252.592 129.268 252.24V247.968C129.268 247.616 129.38 247.328 129.604 247.104C129.828 246.848 130.116 246.72 130.468 246.72H136.18C136.532 246.72 136.82 246.848 137.044 247.104C137.3 247.328 137.428 247.616 137.428 247.968V252.24C137.428 252.592 137.3 252.88 137.044 253.104C136.82 253.328 136.532 253.44 136.18 253.44H130.468ZM145.704 282C145.352 282 145.064 281.888 144.84 281.664C144.616 281.44 144.504 281.152 144.504 280.8V258.24C144.504 257.888 144.616 257.6 144.84 257.376C145.064 257.152 145.352 257.04 145.704 257.04H151.224C151.576 257.04 151.864 257.152 152.088 257.376C152.312 257.6 152.424 257.888 152.424 258.24V260.064C153.256 259.072 154.344 258.24 155.688 257.568C157.032 256.896 158.616 256.56 160.44 256.56C162.296 256.56 163.928 256.976 165.336 257.808C166.776 258.64 167.896 259.872 168.696 261.504C169.528 263.104 169.944 265.072 169.944 267.408V280.8C169.944 281.152 169.816 281.44 169.56 281.664C169.336 281.888 169.064 282 168.744 282H162.696C162.376 282 162.088 281.888 161.832 281.664C161.608 281.44 161.496 281.152 161.496 280.8V267.696C161.496 266.192 161.128 265.04 160.392 264.24C159.688 263.408 158.632 262.992 157.224 262.992C155.912 262.992 154.856 263.408 154.056 264.24C153.288 265.04 152.904 266.192 152.904 267.696V280.8C152.904 281.152 152.776 281.44 152.52 281.664C152.296 281.888 152.024 282 151.704 282H145.704Z" fill="black"/>
</svg>
