<svg width="83" height="83" viewBox="0 0 83 83" fill="none" xmlns="http://www.w3.org/2000/svg">
<rect x="3.6087" y="3.6087" width="75.7826" height="75.7826" rx="37.8913" fill="white"/>
<path d="M25.2802 54.7432L28.2767 51.7467C26.4251 49.3888 25.2514 46.5706 24.8821 43.5954H20.6493C21.0684 47.8072 22.7447 51.6419 25.2802 54.7432ZM31.2312 28.2777C33.599 26.4293 36.4229 25.2563 39.4035 24.8831V20.6503C35.1916 21.0694 31.357 22.7458 28.2557 25.2812L31.2312 28.2777ZM20.6493 39.4045H24.8821C25.2592 36.3452 26.4746 33.5582 28.2767 31.2323L25.2802 28.2568C22.671 31.4347 21.0598 35.3132 20.6493 39.4045ZM43.6991 20.6503V24.8831C51.9133 25.9727 58.2625 33.0134 58.2625 41.5C58.2625 49.9865 51.9133 57.0272 43.6991 58.1168V62.3496C54.2392 61.239 62.4534 52.3125 62.4534 41.5C62.4534 30.6875 54.2392 21.7609 43.6991 20.6503ZM49.8807 41.5L43.6991 36.869L37.308 32.0705V50.9295L43.6991 46.1309L49.8807 41.5ZM28.2557 57.7187C31.4357 60.3245 35.3132 61.9352 39.4035 62.3496V58.1168C36.4229 57.7437 33.599 56.5706 31.2312 54.7222L28.2557 57.7187Z" fill="black"/>
<rect x="3.6087" y="3.6087" width="75.7826" height="75.7826" rx="37.8913" stroke="black" stroke-width="7.21739"/>
</svg>
