<svg width="83" height="83" viewBox="0 0 83 83" fill="none" xmlns="http://www.w3.org/2000/svg">
<rect width="83" height="83" rx="41.5" fill="#3C3C3C"/>
<rect x="2.5" y="2.5" width="78" height="78" rx="39" fill="#3C3C3C"/>
<path d="M25.2803 54.7432L28.2768 51.7468C26.4252 49.3889 25.2516 46.5707 24.8822 43.5955H20.6494C21.0685 47.8073 22.7449 51.642 25.2803 54.7432ZM31.2314 28.2778C33.5991 26.4294 36.4231 25.2564 39.4036 24.8832V20.6504C35.1918 21.0695 31.3571 22.7458 28.2559 25.2813L31.2314 28.2778ZM20.6494 39.4046H24.8822C25.2594 36.3453 26.4747 33.5583 28.2768 31.2324L25.2803 28.2568C22.6711 31.4348 21.0599 35.3133 20.6494 39.4046ZM43.6993 20.6504V24.8832C51.9134 25.9728 58.2626 33.0135 58.2626 41.5C58.2626 49.9866 51.9134 57.0273 43.6993 58.1169V62.3497C54.2394 61.2391 62.4535 52.3125 62.4535 41.5C62.4535 30.6876 54.2394 21.761 43.6993 20.6504ZM49.8808 41.5L43.6993 36.8691L37.3082 32.0706V50.9295L43.6993 46.131L49.8808 41.5ZM28.2559 57.7188C31.4359 60.3245 35.3133 61.9353 39.4036 62.3497V58.1169C36.4231 57.7437 33.5991 56.5707 31.2314 54.7223L28.2559 57.7188Z" fill="white"/>
<rect x="2.5" y="2.5" width="78" height="78" rx="39" stroke="white" stroke-width="5"/>
</svg>
