<svg width="90" height="90" viewBox="0 0 90 90" fill="none" xmlns="http://www.w3.org/2000/svg">
<rect x="0.0" width="90" height="90" rx="13.5874" fill="#FFFFFF"/>
<path d="M45 45C55.3553 45 63.75 36.6053 63.75 26.25C63.75 15.8947 55.3553 7.5 45 7.5C34.6447 7.5 26.25 15.8947 26.25 26.25C26.25 36.6053 34.6447 45 45 45Z" stroke="black" stroke-width="7.5"/>
<path d="M63.75 52.5H65.07C67.8115 52.5008 70.4584 53.5026 72.5134 55.3173C74.5684 57.132 75.89 59.6346 76.23 62.355L77.6962 74.07C77.8281 75.1254 77.734 76.1967 77.4202 77.2129C77.1064 78.2291 76.5801 79.167 75.8761 79.9642C75.1721 80.7615 74.3066 81.3999 73.3371 81.8371C72.3675 82.2743 71.316 82.5002 70.2525 82.5H19.7475C18.6839 82.5002 17.6325 82.2743 16.6629 81.8371C15.6933 81.3999 14.8279 80.7615 14.1239 79.9642C13.4199 79.167 12.8936 78.2291 12.5797 77.2129C12.2659 76.1967 12.1719 75.1254 12.3037 74.07L13.7662 62.355C14.1063 59.6333 15.429 57.1297 17.4856 55.3148C19.5422 53.5 22.1909 52.4989 24.9337 52.5H26.25" stroke="black" stroke-width="7.5" stroke-linecap="round" stroke-linejoin="round"/>
</svg>
