<svg width="130" height="130" viewBox="0 0 130 130" fill="none" xmlns="http://www.w3.org/2000/svg">
<rect width="130" height="130" rx="65" fill="#3C3C3C"/>
<path d="M64.6557 64.5465C77.5092 64.5465 87.929 54.1267 87.929 41.2733C87.929 28.4198 77.5092 18 64.6557 18C51.8022 18 41.3824 28.4198 41.3824 41.2733C41.3824 54.1267 51.8022 64.5465 64.6557 64.5465Z" stroke="white" stroke-width="7.5"/>
<path d="M87.929 73.8558H89.5675C92.9704 73.8568 96.2558 75.1003 98.8066 77.3528C101.357 79.6052 102.998 82.7116 103.42 86.0883L105.24 100.629C105.403 101.939 105.287 103.269 104.897 104.531C104.508 105.792 103.854 106.956 102.98 107.946C102.107 108.935 101.032 109.728 99.8289 110.27C98.6254 110.813 97.3203 111.093 96.0002 111.093H33.3113C31.9912 111.093 30.6861 110.813 29.4826 110.27C28.2792 109.728 27.2049 108.935 26.3311 107.946C25.4573 106.956 24.804 105.792 24.4145 104.531C24.0249 103.269 23.9082 101.939 24.0718 100.629L25.8872 86.0883C26.3093 82.71 27.9511 79.6024 30.5038 77.3497C33.0565 75.097 36.3442 73.8545 39.7487 73.8558H41.3825" stroke="white" stroke-width="7.5" stroke-linecap="round" stroke-linejoin="round"/>
</svg>
