<svg width="1226" height="1226" viewBox="0 0 1226 1226" fill="none" xmlns="http://www.w3.org/2000/svg">
<circle cx="613" cy="613" r="612.5" fill="#3C3C3C" stroke="black"/>
<circle cx="613.5" cy="613.5" r="403.5" fill="black"/>
<circle cx="613" cy="619" r="137" fill="#3C3C3C"/>
<path d="M629.778 588.28L637.72 596.219M634.885 581.286L613.409 602.762C612.299 603.871 611.542 605.282 611.234 606.82L609.25 616.75L619.18 614.762C620.717 614.455 622.127 613.701 623.237 612.591L644.714 591.115C645.359 590.47 645.871 589.703 646.22 588.86C646.57 588.017 646.749 587.113 646.749 586.201C646.749 585.288 646.57 584.384 646.22 583.541C645.871 582.698 645.359 581.932 644.714 581.286C644.068 580.641 643.302 580.129 642.459 579.78C641.616 579.43 640.712 579.251 639.799 579.251C638.887 579.251 637.983 579.43 637.14 579.78C636.297 580.129 635.53 580.641 634.885 581.286V581.286Z" stroke="white" stroke-width="7.5" stroke-linecap="round" stroke-linejoin="round"/>
<path d="M639.25 624.25V635.5C639.25 637.489 638.46 639.397 637.053 640.803C635.647 642.21 633.739 643 631.75 643H590.5C588.511 643 586.603 642.21 585.197 640.803C583.79 639.397 583 637.489 583 635.5V594.25C583 592.261 583.79 590.353 585.197 588.947C586.603 587.54 588.511 586.75 590.5 586.75H601.75" stroke="white" stroke-width="7.5" stroke-linecap="round" stroke-linejoin="round"/>
<path d="M440 781.128C408.036 781.128 382.128 807.036 382.128 839C382.128 870.964 408.036 896.872 440 896.872C471.964 896.872 497.872 870.964 497.872 839C497.807 807.063 471.937 781.193 440.005 781.128H440ZM440 901.904C405.258 901.904 377.096 873.743 377.096 839C377.096 804.258 405.258 776.096 440 776.096C474.743 776.096 502.904 804.258 502.904 839V839.081C502.904 873.775 474.78 901.898 440.087 901.898H440H440.005L440 901.904Z" fill="white"/>
<path d="M440 904C404.174 903.816 375.184 874.826 375 839.016V839C375 803.104 404.104 774 440 774C475.896 774 505 803.104 505 839C504.816 874.826 475.826 903.816 440.016 904H440ZM440 778.193C406.417 778.193 379.193 805.417 379.193 839C379.193 872.583 406.417 899.807 440 899.807C473.583 899.807 500.807 872.583 500.807 839C500.786 805.427 473.573 778.22 440.005 778.193H440ZM440 898.968C406.883 898.968 380.032 872.118 380.032 839C380.032 805.883 406.883 779.032 440 779.032C473.161 779.14 500.038 805.872 500.385 838.967V839C500.038 872.123 473.155 898.86 440.011 898.968H440ZM440 783.225C409.195 783.225 384.225 808.195 384.225 839C384.225 869.805 409.195 894.775 440 894.775C470.805 894.775 495.775 869.805 495.775 839C495.635 808.255 470.75 783.365 440.016 783.225H440Z" fill="white"/>
<path d="M427.417 827.679V827.728C427.417 833.957 422.369 839.005 416.14 839.005H416.042C413.051 839.005 410.183 837.817 408.068 835.702C405.953 833.587 404.765 830.719 404.765 827.728V827.679C404.765 824.677 405.957 821.797 408.08 819.674C410.203 817.551 413.083 816.358 416.085 816.358C419.088 816.358 421.967 817.551 424.09 819.674C426.214 821.797 427.406 824.677 427.406 827.679H427.417ZM475.647 827.679V827.728C475.647 833.957 470.599 839.005 464.37 839.005H464.272C462.791 839.005 461.325 838.714 459.956 838.147C458.588 837.58 457.345 836.75 456.298 835.702C455.25 834.655 454.42 833.412 453.853 832.044C453.286 830.675 452.995 829.209 452.995 827.728V827.63C452.995 821.401 458.043 816.353 464.272 816.353H464.321C467.303 816.411 470.147 817.621 472.258 819.729C474.368 821.838 475.581 824.681 475.642 827.663V827.674L475.647 827.679ZM454.679 865.417C454.679 876.321 448.39 885.128 440 885.128C431.61 885.128 425.321 876.321 425.321 865.417C425.321 854.513 431.61 845.706 440 845.706C448.39 845.706 454.679 854.513 454.679 865.417Z" fill="white"/>
<path d="M419.039 482C410.287 482 402.016 480.318 394.224 476.954C386.433 473.594 379.63 469.004 373.815 463.185C367.996 457.37 363.406 450.567 360.046 442.776C356.682 434.984 355 426.713 355 417.961C355 408.782 356.761 400.269 360.283 392.422C363.805 384.579 368.529 377.804 374.455 372.096C380.377 366.383 387.18 361.926 394.865 358.724C402.549 355.522 410.608 353.921 419.039 353.921C423.202 353.921 427.471 354.374 431.847 355.279C436.223 356.188 440.493 357.55 444.655 359.365L427.044 367.53C425.764 367.316 424.457 367.128 423.125 366.966C421.789 366.808 420.427 366.729 419.039 366.729C417.545 366.729 416.104 366.782 414.717 366.889C413.329 366.996 411.888 367.209 410.394 367.53C414.877 375.001 420.961 381.006 428.645 385.544C436.33 390.078 444.869 392.345 454.261 392.345H456.502L462.106 404.672C452.5 405.846 442.467 404.726 432.007 401.31C421.548 397.895 412.422 391.278 404.631 381.458C400.895 390.53 395.8 398.002 389.344 403.872C382.885 409.742 375.706 414.118 367.808 417C367.808 431.836 372.799 444.245 382.78 454.226C392.758 464.203 404.844 469.192 419.039 469.192C433.555 469.192 445.776 464.069 455.702 453.823C465.628 443.576 470.484 431.622 470.271 417.961C470.271 416.466 470.218 415.158 470.111 414.035C470.004 412.916 469.844 411.557 469.631 409.956L477.635 392.185C479.557 396.667 480.944 400.99 481.798 405.153C482.652 409.315 483.079 413.585 483.079 417.961C483.079 426.499 481.452 434.636 478.199 442.372C474.942 450.113 470.459 456.918 464.751 462.788C459.038 468.658 452.287 473.329 444.495 476.8C436.704 480.267 428.218 482 419.039 482ZM370.53 401.791C375.973 398.695 380.722 394.693 384.778 389.783C388.834 384.874 391.876 379.377 393.904 373.293C388.461 376.388 383.711 380.391 379.655 385.3C375.599 390.21 372.557 395.707 370.53 401.791ZM399.828 432.369C397.586 432.369 395.693 431.595 394.147 430.045C392.598 428.499 391.823 426.606 391.823 424.365C391.823 422.123 392.598 420.23 394.147 418.684C395.693 417.134 397.586 416.36 399.828 416.36C402.069 416.36 403.962 417.134 405.508 418.684C407.058 420.23 407.833 422.123 407.833 424.365C407.833 426.606 407.058 428.499 405.508 430.045C403.962 431.595 402.069 432.369 399.828 432.369ZM438.251 432.369C436.01 432.369 434.116 431.595 432.571 430.045C431.021 428.499 430.246 426.606 430.246 424.365C430.246 422.123 431.021 420.23 432.571 418.684C434.116 417.134 436.01 416.36 438.251 416.36C440.493 416.36 442.386 417.134 443.932 418.684C445.481 420.23 446.256 422.123 446.256 424.365C446.256 426.606 445.481 428.499 443.932 430.045C442.386 431.595 440.493 432.369 438.251 432.369ZM467.069 387.862C466.535 387.862 466.002 387.702 465.468 387.382C464.934 387.062 464.507 386.581 464.187 385.941L460.025 376.975L451.059 372.813C450.419 372.493 449.938 372.066 449.618 371.532C449.298 370.998 449.138 370.465 449.138 369.931C449.138 369.397 449.298 368.864 449.618 368.33C449.938 367.796 450.419 367.369 451.059 367.049L460.025 362.887L464.187 353.921C464.507 353.281 464.934 352.8 465.468 352.48C466.002 352.16 466.535 352 467.069 352C467.603 352 468.136 352.16 468.67 352.48C469.204 352.8 469.631 353.281 469.951 353.921L474.113 362.887L483.079 367.049C483.719 367.369 484.2 367.796 484.52 368.33C484.84 368.864 485 369.397 485 369.931C485 370.465 484.84 370.998 484.52 371.532C484.2 372.066 483.719 372.493 483.079 372.813L474.113 376.975L469.951 385.941C469.631 386.581 469.204 387.062 468.67 387.382C468.136 387.702 467.603 387.862 467.069 387.862Z" fill="white"/>
<path d="M816 375C766.793 375 741 411.24 741 417C741 422.745 766.793 459 816 459C865.2 459 891 422.745 891 417C891 411.24 865.2 375 816 375ZM816 449.302C797.588 449.302 782.662 434.842 782.662 417C782.662 399.157 797.588 384.682 816 384.682C834.412 384.682 849.33 399.157 849.33 417C849.33 434.842 834.412 449.302 816 449.302ZM816 417C812.948 413.647 820.973 400.845 816 400.845C806.79 400.845 799.327 408.083 799.327 417C799.327 425.917 806.79 433.155 816 433.155C825.202 433.155 832.673 425.917 832.673 417C832.673 412.897 818.595 419.842 816 417Z" fill="white"/>
<path d="M848.25 816.25V881.25M848.25 881.25V904H763.75V881.25M848.25 881.25H871V816.25C871 806.5 864.5 795.125 854.75 787C845 778.875 825.5 774 825.5 774M763.75 881.25H741V816.25C741 806.5 747.5 795.125 757.25 787C767 778.875 786.5 774 786.5 774M763.75 881.25V816.25M786.5 774H825.5M786.5 774C786.5 784.77 795.23 793.5 806 793.5C816.77 793.5 825.5 784.77 825.5 774" stroke="white" stroke-width="7.5" stroke-linecap="round" stroke-linejoin="round"/>
<path fill-rule="evenodd" clip-rule="evenodd" d="M215.513 992.149C209.248 987.899 204.859 983.151 202.884 978.027L197 980.295C199.615 987.082 205.146 992.736 211.972 997.367C218.828 1002.02 227.243 1005.81 236.05 1008.78C253.637 1014.71 273.31 1017.55 286.418 1017.21V1017.2C299.519 1017.35 318.556 1014.5 335.62 1008.74C344.417 1005.76 352.82 1001.97 359.666 997.326C366.483 992.698 372.005 987.048 374.618 980.267L368.733 978C366.761 983.119 362.379 987.862 356.124 992.109C349.898 996.336 342.06 999.904 333.602 1002.76C316.657 1008.49 297.741 1011.19 285.441 1010.88L285.367 1010.88L285.366 1010.92C273.07 1011.1 254.631 1008.4 238.066 1002.81C229.597 999.948 221.748 996.379 215.513 992.149Z" fill="white"/>
<path d="M59 757.306C59 759.628 60.8822 761.51 63.204 761.51H206.14C208.462 761.51 210.344 759.628 210.344 757.306V755.204C210.344 752.882 208.462 751 206.14 751H63.204C60.8822 751 59 752.882 59 755.204V757.306Z" fill="white"/>
<path fill-rule="evenodd" clip-rule="evenodd" d="M236.845 860.915C242.312 864.624 246.142 868.767 247.865 873.238L253 871.26C250.718 865.337 245.891 860.403 239.934 856.361C233.952 852.303 226.609 848.995 218.922 846.401C204.044 841.381 187.453 838.899 176.031 839.029V839.025C164.592 838.722 147.425 841.199 132.078 846.377C124.391 848.971 117.048 852.279 111.066 856.338C105.109 860.379 100.282 865.313 98 871.236L103.135 873.215C104.858 868.743 108.688 864.6 114.155 860.892C119.597 857.2 126.446 854.085 133.837 851.591C148.291 846.714 164.382 844.355 175.112 844.51L175.113 844.55L175.114 844.55C175.135 844.549 175.156 844.549 175.177 844.548C185.899 844.275 202.386 846.629 217.163 851.615C224.554 854.109 231.403 857.224 236.845 860.915Z" fill="white"/>
<path d="M629.712 1040.5C638.26 1040.5 646.263 1040.5 653.517 1041.13C660.774 1041.76 667.097 1043.01 672.305 1045.41C677.455 1047.78 681.54 1051.28 684.376 1056.53C687.239 1061.82 688.925 1069.08 688.925 1079.1C688.925 1099.18 682.146 1124.73 671.147 1145.22C665.654 1155.46 659.173 1164.31 652.079 1170.58C644.985 1176.84 637.432 1180.39 629.712 1180.39C621.993 1180.39 614.44 1176.84 607.346 1170.58C600.252 1164.31 593.771 1155.46 588.278 1145.22C577.279 1124.73 570.5 1099.18 570.5 1079.1C570.5 1069.08 572.186 1061.82 575.049 1056.53C577.885 1051.28 581.97 1047.78 587.12 1045.41C592.328 1043.01 598.651 1041.76 605.908 1041.13C613.162 1040.5 621.165 1040.5 629.712 1040.5Z" fill="#F9A9A9" stroke="white" stroke-width="5"/>
<path d="M519.058 1089C519.058 1108.43 513.5 1125.91 504.642 1138.47C495.779 1151.04 483.77 1158.5 470.779 1158.5C457.788 1158.5 445.779 1151.04 436.916 1138.47C428.058 1125.91 422.5 1108.43 422.5 1089C422.5 1069.57 428.058 1052.09 436.916 1039.53C445.779 1026.96 457.788 1019.5 470.779 1019.5C483.77 1019.5 495.779 1026.96 504.642 1039.53C513.5 1052.09 519.058 1069.57 519.058 1089Z" fill="#F9A9A9" stroke="white" stroke-width="5"/>
<rect x="952" y="873" width="130" height="130" rx="65" fill="#0E93FF"/>
<rect x="1017" y="709" width="130" height="130" rx="65" fill="#EB5757"/>
<path d="M1090.57 431.783C1090.57 450.993 1074.99 466.565 1055.78 466.565C1036.57 466.565 1021 450.993 1021 431.783C1021 412.573 1036.57 397 1055.78 397C1074.99 397 1090.57 412.573 1090.57 431.783Z" fill="white"/>
<path d="M1181 431.783C1181 450.993 1165.43 466.565 1146.22 466.565C1127.01 466.565 1111.43 450.993 1111.43 431.783C1111.43 412.573 1127.01 397 1146.22 397C1165.43 397 1181 412.573 1181 431.783Z" fill="white"/>
<path d="M1181 431.783C1181 450.993 1165.43 466.565 1146.22 466.565C1127.01 466.565 1111.43 450.993 1111.43 431.783C1111.43 412.573 1127.01 397 1146.22 397C1165.43 397 1181 412.573 1181 431.783Z" fill="white"/>
<path d="M1090.57 431.783C1090.57 450.993 1074.99 466.565 1055.78 466.565C1036.57 466.565 1021 450.993 1021 431.783C1021 412.573 1036.57 397 1055.78 397C1074.99 397 1090.57 412.573 1090.57 431.783Z" fill="white"/>
<path d="M1181 431.783C1181 450.993 1165.43 466.565 1146.22 466.565C1127.01 466.565 1111.43 450.993 1111.43 431.783C1111.43 412.573 1127.01 397 1146.22 397C1165.43 397 1181 412.573 1181 431.783Z" fill="white"/>
<path d="M1181 431.783C1181 450.993 1165.43 466.565 1146.22 466.565C1127.01 466.565 1111.43 450.993 1111.43 431.783C1111.43 412.573 1127.01 397 1146.22 397C1165.43 397 1181 412.573 1181 431.783Z" fill="white"/>
<path d="M1060.42 431.782C1060.42 434.344 1058.34 436.42 1055.78 436.42C1053.22 436.42 1051.15 434.344 1051.15 431.782C1051.15 429.221 1053.22 427.145 1055.78 427.145C1058.34 427.145 1060.42 429.221 1060.42 431.782Z" fill="black"/>
<path d="M1150.86 431.782C1150.86 434.344 1148.78 436.42 1146.22 436.42C1143.66 436.42 1141.58 434.344 1141.58 431.782C1141.58 429.221 1143.66 427.145 1146.22 427.145C1148.78 427.145 1150.86 429.221 1150.86 431.782Z" fill="black"/>
<path d="M1006.7 316.848C1006.7 297.602 991.094 282 971.848 282C952.602 282 937 297.602 937 316.848C937 336.094 952.602 351.696 971.848 351.696C991.094 351.696 1006.7 336.094 1006.7 316.848Z" fill="white"/>
<path d="M983.464 316.848C983.464 310.433 978.263 305.232 971.848 305.232C965.433 305.232 960.232 310.433 960.232 316.848C960.232 323.263 965.433 328.464 971.848 328.464C978.263 328.464 983.464 323.263 983.464 316.848Z" fill="black"/>
<path d="M1097.3 316.848C1097.3 297.602 1081.7 282 1062.45 282C1043.21 282 1027.6 297.602 1027.6 316.848C1027.6 336.094 1043.21 351.696 1062.45 351.696C1081.7 351.696 1097.3 336.094 1097.3 316.848Z" fill="white"/>
<path d="M1074.07 316.848C1074.07 310.433 1068.87 305.232 1062.45 305.232C1056.04 305.232 1050.84 310.433 1050.84 316.848C1050.84 323.263 1056.04 328.464 1062.45 328.464C1068.87 328.464 1074.07 323.263 1074.07 316.848Z" fill="black"/>
<path d="M816 185.295C816 186.509 816.984 187.492 818.197 187.492H892.893C894.107 187.492 895.09 186.509 895.09 185.295V184.197C895.09 182.984 894.107 182 892.893 182H818.197C816.984 182 816 182.984 816 184.197V185.295Z" fill="white"/>
<path d="M920.355 185.295C920.355 186.509 921.339 187.492 922.552 187.492H997.249C998.462 187.492 999.446 186.509 999.446 185.295V184.197C999.446 182.984 998.462 182 997.249 182H922.552C921.339 182 920.355 182.984 920.355 184.197V185.295Z" fill="white"/>
<path d="M440.844 137.597C439.719 136.977 439.719 135.971 440.844 135.351L510.089 97.1613C511.214 96.541 513.037 96.541 514.162 97.1613L515.18 97.7229C516.305 98.3433 516.305 99.3491 515.18 99.9694L445.935 138.159C444.81 138.779 442.987 138.779 441.862 138.159L440.844 137.597Z" fill="white"/>
<path d="M613.43 136.901C614.555 136.281 614.555 135.275 613.43 134.655L544.185 96.4653C543.06 95.8449 541.236 95.8449 540.111 96.4653L539.093 97.0269C537.968 97.6472 537.968 98.653 539.093 99.2733L608.338 137.463C609.463 138.083 611.287 138.083 612.412 137.463L613.43 136.901Z" fill="white"/>
<path d="M632.844 97.0268C631.719 97.6472 631.719 98.653 632.844 99.2733L702.089 137.463C703.214 138.083 705.037 138.083 706.162 137.463L707.18 136.901C708.305 136.281 708.305 135.275 707.18 134.655L637.935 96.4652C636.81 95.8449 634.987 95.8449 633.862 96.4652L632.844 97.0268Z" fill="white"/>
<path d="M805.43 97.7229C806.555 98.3433 806.555 99.349 805.43 99.9694L736.185 138.159C735.06 138.779 733.236 138.779 732.111 138.159L731.093 137.597C729.968 136.977 729.968 135.971 731.093 135.351L800.338 97.1613C801.463 96.541 803.287 96.541 804.412 97.1613L805.43 97.7229Z" fill="white"/>
</svg>
