<svg width="228" height="227" viewBox="0 0 228 227" fill="none" xmlns="http://www.w3.org/2000/svg">
<rect x="0.908203" width="226.456" height="226.456" rx="13.5874" fill="#EB5757"/>
<path d="M72.56 130C72.208 130 71.92 129.888 71.696 129.664C71.472 129.44 71.36 129.152 71.36 128.8V97.6C71.36 97.248 71.472 96.96 71.696 96.736C71.92 96.512 72.208 96.4 72.56 96.4H85.616C89.744 96.4 92.992 97.36 95.36 99.28C97.76 101.168 98.96 103.856 98.96 107.344C98.96 109.616 98.4 111.536 97.28 113.104C96.192 114.672 94.752 115.856 92.96 116.656L99.584 128.464C99.68 128.656 99.728 128.832 99.728 128.992C99.728 129.248 99.616 129.488 99.392 129.712C99.2 129.904 98.96 130 98.672 130H92.336C91.728 130 91.28 129.856 90.992 129.568C90.704 129.248 90.496 128.96 90.368 128.704L84.896 118.144H79.952V128.8C79.952 129.152 79.84 129.44 79.616 129.664C79.392 129.888 79.104 130 78.752 130H72.56ZM79.952 111.376H85.52C87.024 111.376 88.144 111.008 88.88 110.272C89.648 109.536 90.032 108.528 90.032 107.248C90.032 106 89.664 104.992 88.928 104.224C88.224 103.456 87.088 103.072 85.52 103.072H79.952V111.376ZM115.211 130.48C111.435 130.48 108.427 129.456 106.187 127.408C103.947 125.36 102.779 122.32 102.683 118.288C102.683 118.064 102.683 117.776 102.683 117.424C102.683 117.072 102.683 116.8 102.683 116.608C102.779 114.08 103.339 111.92 104.363 110.128C105.419 108.304 106.859 106.928 108.683 106C110.539 105.04 112.699 104.56 115.163 104.56C117.979 104.56 120.299 105.12 122.123 106.24C123.979 107.36 125.371 108.88 126.299 110.8C127.227 112.72 127.691 114.912 127.691 117.376V118.528C127.691 118.88 127.563 119.168 127.307 119.392C127.083 119.616 126.811 119.728 126.491 119.728H111.131C111.131 119.76 111.131 119.808 111.131 119.872C111.131 119.936 111.131 120 111.131 120.064C111.163 120.992 111.323 121.84 111.611 122.608C111.899 123.376 112.347 123.984 112.955 124.432C113.563 124.88 114.299 125.104 115.163 125.104C115.803 125.104 116.331 125.008 116.747 124.816C117.195 124.592 117.563 124.352 117.851 124.096C118.139 123.808 118.363 123.568 118.523 123.376C118.811 123.056 119.035 122.864 119.195 122.8C119.387 122.704 119.675 122.656 120.059 122.656H126.011C126.331 122.656 126.587 122.752 126.779 122.944C127.003 123.104 127.099 123.344 127.067 123.664C127.035 124.208 126.763 124.864 126.251 125.632C125.739 126.4 124.987 127.168 123.995 127.936C123.035 128.672 121.819 129.28 120.347 129.76C118.875 130.24 117.163 130.48 115.211 130.48ZM111.131 114.976H119.243V114.88C119.243 113.856 119.083 112.96 118.763 112.192C118.475 111.424 118.011 110.832 117.371 110.416C116.763 110 116.027 109.792 115.163 109.792C114.299 109.792 113.563 110 112.955 110.416C112.379 110.832 111.931 111.424 111.611 112.192C111.291 112.96 111.131 113.856 111.131 114.88V114.976ZM141.503 130.48C139.967 130.48 138.575 130.24 137.327 129.76C136.111 129.248 135.055 128.512 134.159 127.552C133.295 126.56 132.623 125.376 132.143 124C131.663 122.592 131.391 120.992 131.327 119.2C131.295 118.56 131.279 118 131.279 117.52C131.279 117.008 131.295 116.448 131.327 115.84C131.391 114.112 131.663 112.56 132.143 111.184C132.623 109.808 133.295 108.624 134.159 107.632C135.023 106.64 136.079 105.888 137.327 105.376C138.575 104.832 139.967 104.56 141.503 104.56C143.103 104.56 144.479 104.832 145.631 105.376C146.783 105.888 147.759 106.56 148.559 107.392V97.12C148.559 96.768 148.671 96.48 148.895 96.256C149.119 96.032 149.407 95.92 149.759 95.92H155.615C155.935 95.92 156.207 96.032 156.431 96.256C156.687 96.48 156.815 96.768 156.815 97.12V128.8C156.815 129.152 156.687 129.44 156.431 129.664C156.207 129.888 155.935 130 155.615 130H150.191C149.839 130 149.551 129.888 149.327 129.664C149.103 129.44 148.991 129.152 148.991 128.8V127.264C148.223 128.192 147.231 128.96 146.015 129.568C144.799 130.176 143.295 130.48 141.503 130.48ZM144.095 124.048C145.183 124.048 146.031 123.824 146.639 123.376C147.279 122.896 147.743 122.288 148.031 121.552C148.351 120.816 148.527 120.016 148.559 119.152C148.591 118.512 148.607 117.904 148.607 117.328C148.607 116.752 148.591 116.16 148.559 115.552C148.527 114.752 148.351 114.016 148.031 113.344C147.711 112.64 147.231 112.08 146.591 111.664C145.951 111.216 145.119 110.992 144.095 110.992C143.039 110.992 142.191 111.216 141.551 111.664C140.943 112.112 140.511 112.72 140.255 113.488C139.999 114.256 139.839 115.104 139.775 116.032C139.679 117.024 139.679 118.016 139.775 119.008C139.839 119.936 139.999 120.784 140.255 121.552C140.511 122.32 140.943 122.928 141.551 123.376C142.191 123.824 143.039 124.048 144.095 124.048Z" fill="black"/>
</svg>
