<svg width="227" height="227" viewBox="0 0 227 227" fill="none" xmlns="http://www.w3.org/2000/svg">
<rect width="226.456" height="226.456" rx="13.5874" fill="#333333"/>
<path d="M22.685 130C22.333 130 22.045 129.888 21.821 129.664C21.597 129.44 21.485 129.152 21.485 128.8V97.6C21.485 97.248 21.597 96.96 21.821 96.736C22.045 96.512 22.333 96.4 22.685 96.4H35.741C39.869 96.4 43.117 97.36 45.485 99.28C47.885 101.168 49.085 103.856 49.085 107.344C49.085 109.616 48.525 111.536 47.405 113.104C46.317 114.672 44.877 115.856 43.085 116.656L49.709 128.464C49.805 128.656 49.853 128.832 49.853 128.992C49.853 129.248 49.741 129.488 49.517 129.712C49.325 129.904 49.085 130 48.797 130H42.461C41.853 130 41.405 129.856 41.117 129.568C40.829 129.248 40.621 128.96 40.493 128.704L35.021 118.144H30.077V128.8C30.077 129.152 29.965 129.44 29.741 129.664C29.517 129.888 29.229 130 28.877 130H22.685ZM30.077 111.376H35.645C37.149 111.376 38.269 111.008 39.005 110.272C39.773 109.536 40.157 108.528 40.157 107.248C40.157 106 39.789 104.992 39.053 104.224C38.349 103.456 37.213 103.072 35.645 103.072H30.077V111.376ZM65.3364 130.48C61.5604 130.48 58.5524 129.456 56.3124 127.408C54.0724 125.36 52.9044 122.32 52.8084 118.288C52.8084 118.064 52.8084 117.776 52.8084 117.424C52.8084 117.072 52.8084 116.8 52.8084 116.608C52.9044 114.08 53.4644 111.92 54.4884 110.128C55.5444 108.304 56.9844 106.928 58.8084 106C60.6644 105.04 62.8244 104.56 65.2884 104.56C68.1044 104.56 70.4244 105.12 72.2484 106.24C74.1044 107.36 75.4964 108.88 76.4244 110.8C77.3524 112.72 77.8164 114.912 77.8164 117.376V118.528C77.8164 118.88 77.6884 119.168 77.4324 119.392C77.2084 119.616 76.9364 119.728 76.6164 119.728H61.2564C61.2564 119.76 61.2564 119.808 61.2564 119.872C61.2564 119.936 61.2564 120 61.2564 120.064C61.2884 120.992 61.4484 121.84 61.7364 122.608C62.0244 123.376 62.4724 123.984 63.0804 124.432C63.6884 124.88 64.4244 125.104 65.2884 125.104C65.9284 125.104 66.4564 125.008 66.8724 124.816C67.3204 124.592 67.6884 124.352 67.9764 124.096C68.2644 123.808 68.4884 123.568 68.6484 123.376C68.9364 123.056 69.1604 122.864 69.3204 122.8C69.5124 122.704 69.8004 122.656 70.1844 122.656H76.1364C76.4564 122.656 76.7124 122.752 76.9044 122.944C77.1284 123.104 77.2244 123.344 77.1924 123.664C77.1604 124.208 76.8884 124.864 76.3764 125.632C75.8644 126.4 75.1124 127.168 74.1204 127.936C73.1604 128.672 71.9444 129.28 70.4724 129.76C69.0004 130.24 67.2884 130.48 65.3364 130.48ZM61.2564 114.976H69.3684V114.88C69.3684 113.856 69.2084 112.96 68.8884 112.192C68.6004 111.424 68.1364 110.832 67.4964 110.416C66.8884 110 66.1524 109.792 65.2884 109.792C64.4244 109.792 63.6884 110 63.0804 110.416C62.5044 110.832 62.0564 111.424 61.7364 112.192C61.4164 112.96 61.2564 113.856 61.2564 114.88V114.976ZM83.5164 130C83.1644 130 82.8764 129.888 82.6524 129.664C82.4284 129.44 82.3164 129.152 82.3164 128.8V106.24C82.3164 105.888 82.4284 105.6 82.6524 105.376C82.8764 105.152 83.1644 105.04 83.5164 105.04H88.7484C89.1004 105.04 89.3884 105.152 89.6124 105.376C89.8364 105.6 89.9484 105.888 89.9484 106.24V107.872C90.5884 107.008 91.4844 106.256 92.6364 105.616C93.7884 104.944 95.1484 104.592 96.7164 104.56C100.396 104.496 102.924 105.888 104.3 108.736C105.036 107.52 106.092 106.528 107.468 105.76C108.844 104.96 110.348 104.56 111.98 104.56C113.644 104.56 115.132 104.944 116.444 105.712C117.788 106.448 118.86 107.6 119.66 109.168C120.46 110.704 120.86 112.704 120.86 115.168V128.8C120.86 129.152 120.732 129.44 120.476 129.664C120.252 129.888 119.98 130 119.66 130H114.092C113.74 130 113.436 129.888 113.18 129.664C112.956 129.44 112.844 129.152 112.844 128.8V115.504C112.844 114.384 112.684 113.504 112.364 112.864C112.044 112.192 111.612 111.712 111.068 111.424C110.524 111.136 109.9 110.992 109.196 110.992C108.62 110.992 108.044 111.136 107.468 111.424C106.924 111.712 106.476 112.192 106.124 112.864C105.804 113.504 105.644 114.384 105.644 115.504V128.8C105.644 129.152 105.532 129.44 105.308 129.664C105.084 129.888 104.796 130 104.444 130H98.8764C98.5244 130 98.2364 129.888 98.0124 129.664C97.7884 129.44 97.6764 129.152 97.6764 128.8V115.504C97.6764 114.384 97.5004 113.504 97.1484 112.864C96.7964 112.192 96.3484 111.712 95.8044 111.424C95.2604 111.136 94.6524 110.992 93.9804 110.992C93.4044 110.992 92.8284 111.136 92.2524 111.424C91.7084 111.712 91.2604 112.192 90.9084 112.864C90.5884 113.504 90.4284 114.368 90.4284 115.456V128.8C90.4284 129.152 90.3004 129.44 90.0444 129.664C89.8204 129.888 89.5324 130 89.1804 130H83.5164ZM138.046 130.48C135.358 130.48 133.086 130.048 131.23 129.184C129.406 128.32 127.998 127.088 127.006 125.488C126.046 123.856 125.502 121.92 125.374 119.68C125.342 119.04 125.326 118.32 125.326 117.52C125.326 116.688 125.342 115.968 125.374 115.36C125.502 113.088 126.078 111.152 127.102 109.552C128.126 107.952 129.55 106.72 131.374 105.856C133.23 104.992 135.454 104.56 138.046 104.56C140.67 104.56 142.894 104.992 144.718 105.856C146.574 106.72 148.014 107.952 149.038 109.552C150.062 111.152 150.638 113.088 150.766 115.36C150.798 115.968 150.814 116.688 150.814 117.52C150.814 118.32 150.798 119.04 150.766 119.68C150.638 121.92 150.078 123.856 149.086 125.488C148.126 127.088 146.718 128.32 144.862 129.184C143.038 130.048 140.766 130.48 138.046 130.48ZM138.046 124.624C139.486 124.624 140.526 124.192 141.166 123.328C141.838 122.464 142.222 121.168 142.318 119.44C142.35 118.96 142.366 118.32 142.366 117.52C142.366 116.72 142.35 116.08 142.318 115.6C142.222 113.904 141.838 112.624 141.166 111.76C140.526 110.864 139.486 110.416 138.046 110.416C136.638 110.416 135.598 110.864 134.926 111.76C134.254 112.624 133.886 113.904 133.822 115.6C133.79 116.08 133.774 116.72 133.774 117.52C133.774 118.32 133.79 118.96 133.822 119.44C133.886 121.168 134.254 122.464 134.926 123.328C135.598 124.192 136.638 124.624 138.046 124.624ZM163.478 130C162.998 130 162.646 129.888 162.422 129.664C162.198 129.408 162.006 129.12 161.846 128.8L152.774 106.528C152.71 106.4 152.678 106.256 152.678 106.096C152.678 105.808 152.774 105.568 152.966 105.376C153.19 105.152 153.462 105.04 153.782 105.04H159.206C159.622 105.04 159.942 105.152 160.166 105.376C160.39 105.6 160.534 105.824 160.598 106.048L166.022 120.784L171.494 106.048C171.558 105.824 171.702 105.6 171.926 105.376C172.15 105.152 172.47 105.04 172.886 105.04H178.31C178.598 105.04 178.854 105.152 179.078 105.376C179.302 105.568 179.414 105.808 179.414 106.096C179.414 106.256 179.382 106.4 179.318 106.528L170.246 128.8C170.118 129.12 169.926 129.408 169.67 129.664C169.446 129.888 169.078 130 168.566 130H163.478ZM193.727 130.48C189.951 130.48 186.943 129.456 184.703 127.408C182.463 125.36 181.295 122.32 181.199 118.288C181.199 118.064 181.199 117.776 181.199 117.424C181.199 117.072 181.199 116.8 181.199 116.608C181.295 114.08 181.855 111.92 182.879 110.128C183.935 108.304 185.375 106.928 187.199 106C189.055 105.04 191.215 104.56 193.679 104.56C196.495 104.56 198.815 105.12 200.639 106.24C202.495 107.36 203.887 108.88 204.815 110.8C205.743 112.72 206.207 114.912 206.207 117.376V118.528C206.207 118.88 206.079 119.168 205.823 119.392C205.599 119.616 205.327 119.728 205.007 119.728H189.647C189.647 119.76 189.647 119.808 189.647 119.872C189.647 119.936 189.647 120 189.647 120.064C189.679 120.992 189.839 121.84 190.127 122.608C190.415 123.376 190.863 123.984 191.471 124.432C192.079 124.88 192.815 125.104 193.679 125.104C194.319 125.104 194.847 125.008 195.263 124.816C195.711 124.592 196.079 124.352 196.367 124.096C196.655 123.808 196.879 123.568 197.039 123.376C197.327 123.056 197.551 122.864 197.711 122.8C197.903 122.704 198.191 122.656 198.575 122.656H204.527C204.847 122.656 205.103 122.752 205.295 122.944C205.519 123.104 205.615 123.344 205.583 123.664C205.551 124.208 205.279 124.864 204.767 125.632C204.255 126.4 203.503 127.168 202.511 127.936C201.551 128.672 200.335 129.28 198.863 129.76C197.391 130.24 195.679 130.48 193.727 130.48ZM189.647 114.976H197.759V114.88C197.759 113.856 197.599 112.96 197.279 112.192C196.991 111.424 196.527 110.832 195.887 110.416C195.279 110 194.543 109.792 193.679 109.792C192.815 109.792 192.079 110 191.471 110.416C190.895 110.832 190.447 111.424 190.127 112.192C189.807 112.96 189.647 113.856 189.647 114.88V114.976Z" fill="white"/>
</svg>
