<?xml version="1.0" encoding="UTF-8" standalone="no"?>
<svg
   width="113"
   height="90"
   viewBox="0 0 113 90"
   fill="none"
   version="1.1"
   id="svg2135"
   sodipodi:docname="Restroom.svg"
   inkscape:version="1.1.2 (b8e25be833, 2022-02-05)"
   xmlns:inkscape="http://www.inkscape.org/namespaces/inkscape"
   xmlns:sodipodi="http://sodipodi.sourceforge.net/DTD/sodipodi-0.dtd"
   xmlns="http://www.w3.org/2000/svg"
   xmlns:svg="http://www.w3.org/2000/svg">
  <sodipodi:namedview
     id="namedview2137"
     pagecolor="#505050"
     bordercolor="#eeeeee"
     borderopacity="1"
     inkscape:pageshadow="0"
     inkscape:pageopacity="0"
     inkscape:pagecheckerboard="0"
     showgrid="false"
     inkscape:zoom="9.3444444"
     inkscape:cx="56.450654"
     inkscape:cy="45"
     inkscape:window-width="1920"
     inkscape:window-height="1028"
     inkscape:window-x="-6"
     inkscape:window-y="-6"
     inkscape:window-maximized="1"
     inkscape:current-layer="svg2135" />
  <g
     clip-path="url(#clip0_724_17242)"
     id="g2128">
    <path
       d="M103.876 29.773L103.876 29.7735L111.891 62.4334C112.457 64.7433 110.625 67 108.07 67H98.4375H97.9375V67.5V85.7812C97.9375 87.843 96.2805 89.5 94.2188 89.5H85.7812C83.7195 89.5 82.0625 87.843 82.0625 85.7812V67.5V67H81.5625H71.9297C69.378 67 67.5399 64.7445 68.0743 62.4303C68.0745 62.4293 68.0748 62.4283 68.075 62.4274L76.0891 29.7735L76.0892 29.773C76.5999 27.684 78.4662 26.1674 80.7182 25.9149C83.3993 27.6118 86.5678 28.625 89.9824 28.625C93.397 28.625 96.5656 27.6118 99.2467 25.9149C101.499 26.1674 103.365 27.684 103.876 29.773ZM11.75 61.875V61.375H11.25H9.84375C7.782 61.375 6.125 59.718 6.125 57.6562V33.75C6.125 29.6602 9.22605 26.3217 13.2164 25.8971C15.8996 27.6121 19.0859 28.625 22.5 28.625C25.9141 28.625 29.1004 27.6121 31.7836 25.8971C35.7739 26.3217 38.875 29.6602 38.875 33.75V57.6562C38.875 59.718 37.218 61.375 35.1562 61.375H33.75H33.25V61.875V85.7812C33.25 87.843 31.593 89.5 29.5312 89.5H15.4688C13.407 89.5 11.75 87.843 11.75 85.7812V61.875ZM33.25 11.25C33.25 17.1789 28.4289 22 22.5 22C16.5711 22 11.75 17.1789 11.75 11.25C11.75 5.32106 16.5711 0.5 22.5 0.5C28.4289 0.5 33.25 5.32106 33.25 11.25ZM100.75 11.25C100.75 17.1789 95.9289 22 90 22C84.0711 22 79.25 17.1789 79.25 11.25C79.25 5.32106 84.0711 0.5 90 0.5C95.9289 0.5 100.75 5.32106 100.75 11.25ZM53.4375 0.5H59.0625C60.3332 0.5 61.375 1.54177 61.375 2.8125V87.1875C61.375 88.4582 60.3332 89.5 59.0625 89.5H53.4375C52.1668 89.5 51.125 88.4582 51.125 87.1875V2.8125C51.125 1.54177 52.1668 0.5 53.4375 0.5Z"
       fill="black"
       stroke="black"
       id="path2126" />
  </g>
  <defs
     id="defs2133">
    <clipPath
       id="clip0_724_17242">
      <rect
         width="112.5"
         height="90"
         fill="white"
         id="rect2130" />
    </clipPath>
  </defs>
  <path
     style="fill:#black;stroke-width:0.107015"
     d="m 14.85447,89.884542 c -1.299524,-0.190596 -2.58172,-1.164874 -3.157733,-2.399405 l -0.299591,-0.642093 -0.02806,-12.494055 -0.02806,-12.494054 h -0.849547 c -0.46725,0 -1.1047403,-0.05415 -1.4166445,-0.120326 C 7.9309642,61.491906 6.820204,60.713705 6.264718,59.76584 5.6444922,58.707505 5.6633241,59.191305 5.6956649,45.146571 l 0.029662,-12.88141 0.3375226,-0.993123 c 0.9645903,-2.838198 3.2107827,-4.932767 6.0367345,-5.629239 0.942112,-0.232189 1.208886,-0.219023 1.687792,0.0833 1.358996,0.857896 3.550454,1.719606 5.351422,2.104248 1.322867,0.282533 4.076532,0.392465 5.42125,0.21643 2.131296,-0.279006 4.381875,-1.027157 6.206896,-2.063335 l 0.963139,-0.546834 0.709252,0.120965 c 3.178023,0.542021 5.810604,3.009557 6.63218,6.216386 0.194031,0.757355 0.203158,1.373191 0.203158,13.707724 0,14.256812 0.04007,13.41365 -0.689783,14.512895 -0.783716,1.180362 -1.928647,1.744271 -3.722448,1.833407 l -1.148259,0.05706 -0.02891,12.431104 -0.02891,12.431105 -0.403698,0.816769 c -0.664576,1.344578 -1.784803,2.145311 -3.269159,2.33678 -0.910268,0.117416 -14.31584,0.103013 -15.129034,-0.01626 z"
     id="path2233" />
  <path
     style="fill:#black;stroke-width:0.107015"
     d="M 53.026159,89.90009 C 52.061862,89.714087 51.371426,89.189135 50.976953,88.342039 L 50.727418,87.806183 V 45 2.1938169 l 0.249535,-0.5358563 c 0.273809,-0.5879811 0.822378,-1.12830146 1.437851,-1.41623115 0.351108,-0.16425474 0.795657,-0.18601197 3.821819,-0.18704862 3.358288,-0.0011504 3.434154,0.003585 3.924096,0.24493605 0.699929,0.34479217 1.322375,1.05548082 1.526529,1.74293732 C 61.838254,2.5510488 61.854935,6.8241768 61.854935,45 c 0,38.175823 -0.01668,42.448952 -0.167687,42.957446 -0.204154,0.687457 -0.8266,1.398145 -1.526529,1.742937 -0.483504,0.238179 -0.599598,0.246691 -3.60305,0.264193 -1.706896,0.0099 -3.296076,-0.01907 -3.53151,-0.06449 z"
     id="path2272" />
  <path
     style="fill:#black;stroke-width:0.107015"
     d="m 85.163626,89.884542 c -1.299524,-0.190596 -2.58172,-1.164874 -3.157733,-2.399405 l -0.299591,-0.642093 -0.02841,-9.707927 -0.02841,-9.707927 -5.435128,-0.03048 -5.435128,-0.03048 -0.808479,-0.399673 c -0.975284,-0.482134 -1.582513,-1.103217 -2.049215,-2.09597 -0.643987,-1.369869 -0.853365,-0.309073 3.762846,-19.064054 3.570246,-14.505378 4.14382,-16.730073 4.476684,-17.363515 0.724977,-1.379633 2.349683,-2.559755 3.949204,-2.868544 l 0.65128,-0.12573 0.953952,0.540764 c 1.818963,1.03111 4.07204,1.778996 6.19771,2.057265 2.13902,0.280017 5.175209,-0.01701 7.289432,-0.71311 0.937076,-0.308529 3.081997,-1.300589 3.582432,-1.656929 0.268001,-0.190833 0.406808,-0.217028 0.820949,-0.154924 1.811989,0.271725 3.551859,1.528213 4.299279,3.104824 0.16741,0.353151 0.5053,1.460761 0.75086,2.461355 5.36457,21.85929 7.70257,31.439949 7.76161,31.805514 0.16354,1.012692 -0.43705,2.5586 -1.30477,3.358436 -0.26074,0.240343 -0.79574,0.589379 -1.18889,0.775638 l -0.71483,0.338653 -5.42937,0.03048 -5.429374,0.03048 -0.02841,9.707927 -0.02841,9.707927 -0.299591,0.642093 c -0.596503,1.278446 -1.846246,2.201937 -3.255629,2.405732 -0.870264,0.125838 -8.709037,0.120659 -9.574852,-0.0063 z"
     id="path2311" />
  <path
     style="fill:#black;stroke-width:0.107015"
     d="M 88.631103,22.358659 C 86.160138,22.037733 84.05361,21.008102 82.204877,19.217641 76.866607,14.047636 78.001014,5.2622471 84.488704,1.5305905 86.174149,0.56113872 87.955407,0.09818257 90,0.09818257 c 3.163069,0 5.973889,1.21041233 8.137921,3.50439973 3.116619,3.3037776 3.914589,8.1467927 2.027919,12.3077517 -1.101745,2.429846 -3.46852,4.69455 -5.950271,5.693656 -1.854742,0.746684 -3.712734,0.997768 -5.584466,0.754669 z"
     id="path2350" />
  <path
     style="fill:#black;stroke-width:0.107015"
     d="M 21.510107,22.41312 C 21.362961,22.388013 20.90547,22.312951 20.49346,22.246316 17.722743,21.798197 14.913434,19.970722 13.266043,17.54483 12.641052,16.624491 11.940801,15.1006 11.645881,14.019025 c -0.218393,-0.800928 -0.247129,-1.139827 -0.240457,-2.83591 0.007,-1.7755054 0.03032,-2.0016642 0.298195,-2.889417 0.749736,-2.4847151 2.110181,-4.4815576 4.048212,-5.9419078 2.046179,-1.54184174 4.188781,-2.25423137 6.781433,-2.25474549 2.934912,-5.8216e-4 5.438058,0.99799469 7.587449,3.02685209 1.618972,1.5281827 2.671981,3.2889684 3.238544,5.4153148 0.241082,0.9047992 0.276752,1.252464 0.276752,2.6974114 0,1.448498 -0.03567,1.79438 -0.281419,2.728894 -0.369497,1.405086 -1.261839,3.189958 -2.141978,4.284409 -1.581272,1.966308 -3.987926,3.44782 -6.412376,3.947395 -0.835595,0.17218 -2.793227,0.30058 -3.290129,0.215799 z"
     id="path2389" />
</svg>
