<?xml version="1.0" encoding="UTF-8" standalone="no"?>
<svg
   width="192"
   height="192"
   viewBox="0 0 192 192"
   fill="none"
   version="1.1"
   id="svg4"
   sodipodi:docname="ring_yellow.svg"
   inkscape:version="1.1.2 (b8e25be833, 2022-02-05)"
   xmlns:inkscape="http://www.inkscape.org/namespaces/inkscape"
   xmlns:sodipodi="http://sodipodi.sourceforge.net/DTD/sodipodi-0.dtd"
   xmlns="http://www.w3.org/2000/svg"
   xmlns:svg="http://www.w3.org/2000/svg">
  <defs
     id="defs8" />
  <sodipodi:namedview
     id="namedview6"
     pagecolor="#505050"
     bordercolor="#eeeeee"
     borderopacity="1"
     inkscape:pageshadow="0"
     inkscape:pageopacity="0"
     inkscape:pagecheckerboard="0"
     showgrid="false"
     inkscape:zoom="4.3802083"
     inkscape:cx="95.88585"
     inkscape:cy="96"
     inkscape:window-width="1920"
     inkscape:window-height="1028"
     inkscape:window-x="-6"
     inkscape:window-y="-6"
     inkscape:window-maximized="1"
     inkscape:current-layer="svg4" />
  <rect
     x="5"
     y="5"
     width="182"
     height="182"
     rx="90"
     stroke="#0E93FF"
     stroke-width="10"
     id="rect2" />
  <path
     style="fill:#f8e45c;stroke:#000000;stroke-width:0.862865;stroke-linejoin:round"
     d="M 90.575018,191.76262 C 60.710519,190.42845 33.315429,175.09845 16.461525,150.28949 3.0656501,130.57076 -2.3182504,106.66564 1.0465807,81.845422 5.839399,46.491846 30.453924,16.701839 64.394382,5.1780316 73.229337,2.1782982 81.586809,0.63725693 91.2105,0.23338477 c 17.52479,-0.73545324 32.82284,2.34419213 47.59568,9.58147463 12.82816,6.2845676 23.58696,14.9326896 32.52076,26.1407796 16.34588,20.507075 23.32727,46.900568 19.62648,74.198941 -3.76108,27.74313 -19.93431,52.61885 -43.88413,67.49731 -16.61591,10.32239 -35.5323,15.04719 -56.494272,14.11073 z m 14.565672,-10.04298 c 23.38261,-2.35099 44.39154,-13.73926 58.58965,-31.75957 10.04338,-12.7471 16.0932,-27.5741 17.91846,-43.91489 0.41047,-3.67472 0.41047,-16.415642 0,-20.090364 C 179.15607,63.638491 168.55819,43.77327 151.58335,29.598558 138.64704,18.796189 123.15056,12.253449 106.00064,10.353164 c -4.81181,-0.533169 -15.189471,-0.533169 -20.001276,0 -27.324443,3.027665 -50.763225,18.180593 -64.627886,41.781247 -5.774388,9.829258 -9.486497,21.172031 -11.030925,33.706255 -0.396386,3.216979 -0.3976974,16.817424 -0.0019,20.204514 1.540605,13.18555 5.734212,25.41736 12.316666,35.92496 14.775995,23.58698 39.208767,38.14249 67.122645,39.98747 3.479277,0.22996 12.025396,0.0976 15.362776,-0.23797 z"
     id="path899" />
</svg>
