<svg width="83" height="108" viewBox="0 0 83 108" fill="none" xmlns="http://www.w3.org/2000/svg">
<path d="M9.6321 106V98.7273H12.5014C13.0507 98.7273 13.5194 98.8255 13.9077 99.022C14.2983 99.2161 14.5954 99.492 14.799 99.8494C15.005 100.205 15.108 100.622 15.108 101.103C15.108 101.586 15.0038 102.001 14.7955 102.349C14.5871 102.695 14.2853 102.96 13.8899 103.145C13.4969 103.33 13.0211 103.422 12.4624 103.422H10.5412V102.186H12.2138C12.5073 102.186 12.7512 102.146 12.9453 102.065C13.1394 101.985 13.2839 101.864 13.3786 101.703C13.4756 101.542 13.5241 101.342 13.5241 101.103C13.5241 100.862 13.4756 100.658 13.3786 100.492C13.2839 100.326 13.1383 100.201 12.9418 100.116C12.7476 100.028 12.5026 99.9844 12.2067 99.9844H11.1697V106H9.6321ZM13.5597 102.69L15.3672 106H13.6697L11.9013 102.69H13.5597ZM18.5428 106.107C17.9912 106.107 17.5141 105.989 17.1117 105.755C16.7116 105.518 16.4026 105.189 16.1848 104.768C15.967 104.344 15.8581 103.853 15.8581 103.294C15.8581 102.731 15.967 102.238 16.1848 101.817C16.4026 101.393 16.7116 101.064 17.1117 100.83C17.5141 100.593 17.9912 100.474 18.5428 100.474C19.0944 100.474 19.5703 100.593 19.9703 100.83C20.3728 101.064 20.6829 101.393 20.9007 101.817C21.1185 102.238 21.2275 102.731 21.2275 103.294C21.2275 103.853 21.1185 104.344 20.9007 104.768C20.6829 105.189 20.3728 105.518 19.9703 105.755C19.5703 105.989 19.0944 106.107 18.5428 106.107ZM18.5499 104.935C18.8008 104.935 19.0104 104.864 19.1784 104.722C19.3465 104.577 19.4732 104.381 19.5584 104.132C19.646 103.884 19.6898 103.601 19.6898 103.283C19.6898 102.966 19.646 102.683 19.5584 102.435C19.4732 102.186 19.3465 101.99 19.1784 101.845C19.0104 101.701 18.8008 101.629 18.5499 101.629C18.2966 101.629 18.0835 101.701 17.9107 101.845C17.7402 101.99 17.6112 102.186 17.5236 102.435C17.4384 102.683 17.3958 102.966 17.3958 103.283C17.3958 103.601 17.4384 103.884 17.5236 104.132C17.6112 104.381 17.7402 104.577 17.9107 104.722C18.0835 104.864 18.2966 104.935 18.5499 104.935ZM25.1124 100.545V101.682H21.8276V100.545H25.1124ZM22.5733 99.2386H24.0861V104.324C24.0861 104.464 24.1074 104.572 24.15 104.651C24.1926 104.726 24.2518 104.78 24.3276 104.81C24.4057 104.841 24.4957 104.857 24.5975 104.857C24.6685 104.857 24.7395 104.851 24.8105 104.839C24.8816 104.825 24.936 104.814 24.9739 104.807L25.2118 105.933C25.1361 105.956 25.0295 105.983 24.8922 106.014C24.7549 106.047 24.588 106.067 24.3915 106.075C24.0269 106.089 23.7073 106.04 23.4327 105.929C23.1605 105.818 22.9486 105.645 22.7971 105.411C22.6455 105.176 22.571 104.88 22.5733 104.523V99.2386ZM27.6532 106.103C27.3052 106.103 26.9951 106.043 26.7228 105.922C26.4506 105.799 26.2351 105.618 26.0765 105.379C25.9203 105.137 25.8422 104.836 25.8422 104.477C25.8422 104.174 25.8978 103.919 26.0091 103.713C26.1203 103.507 26.2718 103.341 26.4636 103.216C26.6554 103.09 26.8732 102.996 27.117 102.932C27.3632 102.868 27.6213 102.823 27.8912 102.797C28.2084 102.764 28.4641 102.733 28.6582 102.705C28.8523 102.674 28.9932 102.629 29.0808 102.57C29.1684 102.51 29.2122 102.423 29.2122 102.307V102.286C29.2122 102.061 29.1412 101.887 28.9991 101.763C28.8594 101.64 28.6606 101.579 28.4025 101.579C28.1303 101.579 27.9136 101.639 27.7527 101.76C27.5917 101.878 27.4851 102.027 27.4331 102.207L26.0339 102.094C26.1049 101.762 26.2446 101.476 26.4529 101.234C26.6613 100.991 26.93 100.804 27.2591 100.673C27.5905 100.541 27.974 100.474 28.4096 100.474C28.7127 100.474 29.0027 100.51 29.2797 100.581C29.559 100.652 29.8064 100.762 30.0218 100.911C30.2396 101.06 30.4113 101.252 30.5368 101.487C30.6622 101.719 30.725 101.997 30.725 102.321V106H29.2903V105.244H29.2477C29.1601 105.414 29.0429 105.564 28.8961 105.695C28.7493 105.822 28.573 105.923 28.367 105.996C28.161 106.067 27.9231 106.103 27.6532 106.103ZM28.0865 105.059C28.309 105.059 28.5055 105.015 28.676 104.928C28.8464 104.838 28.9802 104.717 29.0772 104.565C29.1743 104.414 29.2228 104.242 29.2228 104.05V103.472C29.1755 103.502 29.1104 103.531 29.0275 103.557C28.947 103.58 28.8559 103.603 28.7541 103.624C28.6523 103.643 28.5505 103.661 28.4487 103.678C28.3469 103.692 28.2546 103.705 28.1717 103.717C27.9941 103.743 27.8391 103.784 27.7065 103.841C27.5739 103.898 27.4709 103.975 27.3975 104.072C27.3242 104.166 27.2875 104.285 27.2875 104.427C27.2875 104.633 27.362 104.79 27.5112 104.899C27.6627 105.006 27.8545 105.059 28.0865 105.059ZM34.7999 100.545V101.682H31.5151V100.545H34.7999ZM32.2608 99.2386H33.7736V104.324C33.7736 104.464 33.7949 104.572 33.8375 104.651C33.8801 104.726 33.9393 104.78 34.0151 104.81C34.0932 104.841 34.1832 104.857 34.285 104.857C34.356 104.857 34.427 104.851 34.498 104.839C34.5691 104.825 34.6235 104.814 34.6614 104.807L34.8993 105.933C34.8236 105.956 34.717 105.983 34.5797 106.014C34.4424 106.047 34.2755 106.067 34.079 106.075C33.7144 106.089 33.3948 106.04 33.1202 105.929C32.848 105.818 32.6361 105.645 32.4846 105.411C32.333 105.176 32.2585 104.88 32.2608 104.523V99.2386ZM38.2125 106.107C37.6515 106.107 37.1685 105.993 36.7637 105.766C36.3612 105.536 36.0511 105.212 35.8333 104.793C35.6155 104.371 35.5066 103.873 35.5066 103.298C35.5066 102.737 35.6155 102.244 35.8333 101.82C36.0511 101.397 36.3577 101.066 36.753 100.83C37.1507 100.593 37.6171 100.474 38.1522 100.474C38.512 100.474 38.847 100.532 39.1571 100.648C39.4696 100.762 39.7419 100.934 39.9739 101.163C40.2083 101.393 40.3906 101.682 40.5208 102.03C40.651 102.375 40.7161 102.78 40.7161 103.244V103.66H36.1103V102.722H39.2921C39.2921 102.504 39.2447 102.312 39.15 102.143C39.0553 101.975 38.9239 101.844 38.7559 101.749C38.5901 101.652 38.3972 101.604 38.177 101.604C37.9474 101.604 37.7438 101.657 37.5662 101.763C37.391 101.868 37.2537 102.009 37.1543 102.186C37.0549 102.361 37.004 102.557 37.0016 102.772V103.663C37.0016 103.933 37.0513 104.166 37.1507 104.363C37.2525 104.559 37.3958 104.711 37.5804 104.817C37.7651 104.924 37.9841 104.977 38.2374 104.977C38.4055 104.977 38.5594 104.954 38.699 104.906C38.8387 104.859 38.9583 104.788 39.0577 104.693C39.1571 104.598 39.2329 104.482 39.285 104.345L40.6841 104.438C40.6131 104.774 40.4675 105.067 40.2473 105.318C40.0295 105.567 39.7478 105.761 39.4022 105.901C39.0589 106.038 38.6623 106.107 38.2125 106.107ZM44.0462 98.7273H45.9425L47.9453 103.614H48.0305L50.0334 98.7273H51.9297V106H50.4382V101.266H50.3778L48.4957 105.964H47.4801L45.598 101.249H45.5376V106H44.0462V98.7273ZM55.6326 106.107C55.081 106.107 54.604 105.989 54.2015 105.755C53.8014 105.518 53.4925 105.189 53.2747 104.768C53.0569 104.344 52.948 103.853 52.948 103.294C52.948 102.731 53.0569 102.238 53.2747 101.817C53.4925 101.393 53.8014 101.064 54.2015 100.83C54.604 100.593 55.081 100.474 55.6326 100.474C56.1842 100.474 56.6601 100.593 57.0602 100.83C57.4627 101.064 57.7728 101.393 57.9906 101.817C58.2084 102.238 58.3173 102.731 58.3173 103.294C58.3173 103.853 58.2084 104.344 57.9906 104.768C57.7728 105.189 57.4627 105.518 57.0602 105.755C56.6601 105.989 56.1842 106.107 55.6326 106.107ZM55.6397 104.935C55.8907 104.935 56.1002 104.864 56.2683 104.722C56.4364 104.577 56.563 104.381 56.6483 104.132C56.7359 103.884 56.7797 103.601 56.7797 103.283C56.7797 102.966 56.7359 102.683 56.6483 102.435C56.563 102.186 56.4364 101.99 56.2683 101.845C56.1002 101.701 55.8907 101.629 55.6397 101.629C55.3864 101.629 55.1734 101.701 55.0005 101.845C54.8301 101.99 54.7011 102.186 54.6135 102.435C54.5282 102.683 54.4856 102.966 54.4856 103.283C54.4856 103.601 54.5282 103.884 54.6135 104.132C54.7011 104.381 54.8301 104.577 55.0005 104.722C55.1734 104.864 55.3864 104.935 55.6397 104.935ZM61.3109 106.089C60.8966 106.089 60.5214 105.982 60.1852 105.769C59.8514 105.554 59.5862 105.238 59.3897 104.821C59.1956 104.402 59.0985 103.888 59.0985 103.28C59.0985 102.655 59.1992 102.135 59.4004 101.721C59.6016 101.304 59.8691 100.993 60.2029 100.787C60.5391 100.579 60.9073 100.474 61.3074 100.474C61.6127 100.474 61.8672 100.527 62.0708 100.631C62.2768 100.732 62.4425 100.86 62.568 101.014C62.6958 101.166 62.7929 101.315 62.8592 101.462H62.9054V98.7273H64.4146V106H62.9231V105.126H62.8592C62.7882 105.278 62.6876 105.428 62.5574 105.577C62.4295 105.724 62.2626 105.846 62.0566 105.943C61.853 106.04 61.6045 106.089 61.3109 106.089ZM61.7903 104.885C62.0342 104.885 62.2401 104.819 62.4082 104.686C62.5787 104.551 62.7089 104.363 62.7988 104.121C62.8912 103.88 62.9373 103.597 62.9373 103.273C62.9373 102.948 62.8923 102.667 62.8024 102.428C62.7124 102.188 62.5822 102.004 62.4118 101.874C62.2413 101.743 62.0342 101.678 61.7903 101.678C61.5417 101.678 61.3322 101.746 61.1618 101.881C60.9913 102.016 60.8623 102.203 60.7747 102.442C60.6871 102.681 60.6433 102.958 60.6433 103.273C60.6433 103.59 60.6871 103.871 60.7747 104.114C60.8646 104.356 60.9937 104.545 61.1618 104.683C61.3322 104.817 61.5417 104.885 61.7903 104.885ZM68.1442 106.107C67.5831 106.107 67.1001 105.993 66.6953 105.766C66.2929 105.536 65.9827 105.212 65.7649 104.793C65.5471 104.371 65.4382 103.873 65.4382 103.298C65.4382 102.737 65.5471 102.244 65.7649 101.82C65.9827 101.397 66.2893 101.066 66.6847 100.83C67.0824 100.593 67.5488 100.474 68.0838 100.474C68.4437 100.474 68.7786 100.532 69.0888 100.648C69.4013 100.762 69.6735 100.934 69.9055 101.163C70.1399 101.393 70.3222 101.682 70.4524 102.03C70.5826 102.375 70.6477 102.78 70.6477 103.244V103.66H66.0419V102.722H69.2237C69.2237 102.504 69.1764 102.312 69.0817 102.143C68.987 101.975 68.8556 101.844 68.6875 101.749C68.5218 101.652 68.3288 101.604 68.1087 101.604C67.879 101.604 67.6754 101.657 67.4979 101.763C67.3227 101.868 67.1854 102.009 67.0859 102.186C66.9865 102.361 66.9356 102.557 66.9332 102.772V103.663C66.9332 103.933 66.983 104.166 67.0824 104.363C67.1842 104.559 67.3274 104.711 67.5121 104.817C67.6967 104.924 67.9157 104.977 68.169 104.977C68.3371 104.977 68.491 104.954 68.6307 104.906C68.7704 104.859 68.8899 104.788 68.9893 104.693C69.0888 104.598 69.1645 104.482 69.2166 104.345L70.6158 104.438C70.5447 104.774 70.3991 105.067 70.179 105.318C69.9612 105.567 69.6795 105.761 69.3338 105.901C68.9905 106.038 68.594 106.107 68.1442 106.107ZM73.1477 98.7273V106H71.6349V98.7273H73.1477Z" fill="black"/>
<rect x="3.6087" y="3.6087" width="75.7826" height="75.7826" rx="37.8913" fill="white"/>
<path d="M25.2802 54.7432L28.2767 51.7467C26.4251 49.3888 25.2514 46.5706 24.8821 43.5954H20.6493C21.0684 47.8072 22.7447 51.6419 25.2802 54.7432ZM31.2312 28.2777C33.599 26.4293 36.4229 25.2563 39.4035 24.8831V20.6503C35.1916 21.0694 31.357 22.7458 28.2557 25.2812L31.2312 28.2777ZM20.6493 39.4045H24.8821C25.2592 36.3452 26.4746 33.5582 28.2767 31.2323L25.2802 28.2568C22.671 31.4347 21.0598 35.3132 20.6493 39.4045V39.4045ZM43.6991 20.6503V24.8831C51.9133 25.9727 58.2625 33.0134 58.2625 41.5C58.2625 49.9865 51.9133 57.0272 43.6991 58.1168V62.3496C54.2392 61.239 62.4534 52.3124 62.4534 41.5C62.4534 30.6875 54.2392 21.7609 43.6991 20.6503ZM49.8807 41.5L43.6991 36.869L37.308 32.0705V50.9295L43.6991 46.1309L49.8807 41.5ZM28.2557 57.7187C31.4357 60.3245 35.3132 61.9352 39.4035 62.3496V58.1168C36.4229 57.7437 33.599 56.5706 31.2312 54.7222L28.2557 57.7187Z" fill="black"/>
<rect x="3.6087" y="3.6087" width="75.7826" height="75.7826" rx="37.8913" stroke="black" stroke-width="7.21739"/>
</svg>
