<?xml version="1.0" encoding="UTF-8" standalone="no"?>
<svg
   width="90"
   height="90"
   viewBox="0 0 90 90"
   fill="none"
   version="1.1"
   id="svg1448"
   sodipodi:docname="Route_Icon.svg"
   inkscape:version="1.1.2 (b8e25be833, 2022-02-05)"
   xmlns:inkscape="http://www.inkscape.org/namespaces/inkscape"
   xmlns:sodipodi="http://sodipodi.sourceforge.net/DTD/sodipodi-0.dtd"
   xmlns="http://www.w3.org/2000/svg"
   xmlns:svg="http://www.w3.org/2000/svg">
  <defs
     id="defs1452" />
  <sodipodi:namedview
     id="namedview1450"
     pagecolor="#505050"
     bordercolor="#eeeeee"
     borderopacity="1"
     inkscape:pageshadow="0"
     inkscape:pageopacity="0"
     inkscape:pagecheckerboard="0"
     showgrid="false"
     inkscape:zoom="9.3444444"
     inkscape:cx="45"
     inkscape:cy="45"
     inkscape:window-width="1920"
     inkscape:window-height="1028"
     inkscape:window-x="-6"
     inkscape:window-y="-6"
     inkscape:window-maximized="1"
     inkscape:current-layer="svg1448" />
  <path
     d="M18.9 28.8C8.5131 28.8 0 37.287 0 47.646C0 51.66 1.2816 55.3905 3.4515 58.4568L16.5942 81.1764C18.4347 83.5812 19.6587 83.1249 21.1896 81.0504L35.685 56.3814C35.9775 55.8504 36.207 55.287 36.4077 54.711C37.3276 52.4692 37.8005 50.0692 37.8 47.646C37.8 37.287 29.2896 28.8 18.9 28.8ZM18.9 37.6308C24.4944 37.6308 28.944 42.0687 28.944 47.6469C28.944 53.2251 24.4944 57.6612 18.9 57.6612C13.3065 57.6612 8.856 53.2242 8.856 47.6469C8.856 42.0687 13.3065 37.6308 18.9 37.6308ZM78.975 0C72.9162 0 67.95 4.9509 67.95 10.9944C67.95 13.3353 68.697 15.5115 69.9633 17.2998L77.6304 30.5532C78.7041 31.9554 79.4178 31.689 80.3106 30.4794L88.7661 16.0884C88.9371 15.7797 89.0712 15.4512 89.1873 15.1146C89.7241 13.8073 90.0001 12.4076 90 10.9944C90 4.95 85.0356 0 78.975 0ZM78.975 5.1516C82.2384 5.1516 84.834 7.74 84.834 10.9944C84.834 14.2479 82.2384 16.8354 78.975 16.8354C75.7125 16.8354 73.116 14.2479 73.116 10.9944C73.116 7.74 75.7125 5.1516 78.975 5.1516Z"
     fill="black"
     id="path1444" />
  <path
     fill-rule="evenodd"
     clip-rule="evenodd"
     d="M79.388 33.6708C77.3657 33.7158 75.338 33.8013 73.3067 33.9516L73.6199 38.9304C75.5712 38.7891 77.5257 38.6982 79.4816 38.6577L79.388 33.6708ZM68.6105 34.4088C65.4875 34.7967 62.3375 35.3493 59.2235 36.2376L60.3962 41.0625C63.2258 40.2561 66.158 39.735 69.1361 39.3651L68.6105 34.4088ZM54.5606 37.908C53.6276 38.3199 52.7242 38.7959 51.857 39.3327L51.8534 39.3372L51.848 39.339C50.6105 40.1184 49.3064 41.1075 48.2417 42.5448C47.4704 43.5861 46.8395 44.9028 46.6919 46.4598L51.2774 46.9683C51.3116 46.6029 51.4988 46.1205 51.8354 45.6669H51.8372V45.6651C52.3799 44.9307 53.1935 44.2638 54.161 43.6536L54.1646 43.6518C54.8543 43.2262 55.5724 42.8485 56.3138 42.5214L54.5606 37.908ZM52.1999 49.1895L49.2272 53.001C49.9319 53.6454 50.6708 54.1404 51.3845 54.5544L51.3935 54.5589L51.4025 54.5643C53.7713 55.9116 56.2139 56.6721 58.4783 57.3939L59.7797 52.6077C57.5162 51.8859 55.3823 51.1893 53.5535 50.1507C53.0297 49.8465 52.5707 49.5288 52.1999 49.1895ZM64.2014 53.9541L62.9306 58.7484L63.5318 58.9356L64.2698 59.1714C66.7124 59.9661 69.0524 60.8148 71.144 61.9893L73.2662 57.5613C70.7372 56.1402 68.1119 55.2114 65.582 54.3888L65.5748 54.387L64.817 54.1449L64.2014 53.9541ZM77.5817 60.8841L74.321 64.4121C75.0914 65.2464 75.6683 66.2499 75.9491 67.2867L75.9509 67.2921L75.9527 67.3002C76.2875 68.5107 76.2884 69.9345 76.0265 71.3727L80.5481 72.3375C80.9171 70.3071 80.9765 68.0778 80.3699 65.8773C79.8416 63.9315 78.8336 62.2413 77.5817 60.8841ZM74.4479 74.3787C73.9497 74.905 73.399 75.379 72.8045 75.7935H72.8027C71.1827 76.9329 69.3035 77.7915 67.3073 78.5295L68.7959 83.2491C70.9793 82.4418 73.2212 81.4518 75.3164 79.9776L75.3218 79.9731L75.3245 79.9713C76.185 79.3688 76.9809 78.679 77.6996 77.913L74.4479 74.3787ZM63.0719 79.8588C60.1802 80.6364 57.2246 81.2286 54.233 81.7308L54.9386 86.6619C58.0175 86.1444 61.109 85.5261 64.1816 84.6999L63.0719 79.8588ZM49.7321 82.4112C46.7207 82.8225 43.6931 83.1582 40.6565 83.4444L41.0543 88.4142C44.1377 88.1244 47.2265 87.7833 50.3108 87.3612L49.7321 82.4112ZM36.0926 83.8359C33.0497 84.0771 29.9996 84.2733 26.9468 84.4389L27.1772 89.4213C30.2597 89.2548 33.3449 89.0559 36.4292 88.8111L36.0926 83.8359ZM22.3595 84.6639C20.5298 84.7494 18.6956 84.8196 16.8569 84.8844L17.0081 89.8713C18.8583 89.8077 20.7082 89.7339 22.5575 89.6499L22.3595 84.6639Z"
     fill="black"
     id="path1446" />
  <path
     style="fill:#black;stroke-width:0.107015"
     d="M 17.971324,82.420294 C 17.708844,82.253834 17.30212,81.89862 17.067495,81.630931 16.83287,81.363241 13.778049,76.190131 10.279004,70.135132 6.7799597,64.080132 3.5578209,58.55047 3.1186958,57.846994 1.0393946,54.515965 0.09948216,51.361175 0.09759078,47.706738 0.09657758,45.749096 0.30195769,44.224236 0.79913711,42.498055 2.7344819,35.778635 8.2523613,30.705673 15.249703,29.212666 c 1.535676,-0.327664 4.58909,-0.409047 6.239403,-0.166301 7.176628,1.055618 13.098327,6.021189 15.318362,12.84503 1.35105,4.152795 1.231727,8.27856 -0.362554,12.535755 -0.532827,1.422804 -0.981264,2.217428 -7.937048,14.064341 -5.9001,10.0489 -7.495503,12.689247 -7.989205,13.221917 -0.991769,1.070046 -1.675507,1.259784 -2.547337,0.706886 z m 3.059112,-24.940955 c 5.558399,-1.147235 9.008659,-6.69858 7.649278,-12.307419 -1.45763,-6.014221 -8.105681,-9.229156 -13.902315,-6.723029 -2.863781,1.238132 -5.0470097,3.918369 -5.7510214,7.060233 -0.2650461,1.182848 -0.2398649,3.312828 0.053288,4.507439 0.9396424,3.829077 3.9568844,6.721154 7.8287764,7.504013 1.052381,0.212781 2.984939,0.193448 4.121994,-0.04124 z"
     id="path1548" />
  <path
     style="fill:#black;stroke-width:0.107015"
     d="m 16.978586,87.427002 c -0.03943,-1.311115 -0.04474,-2.410789 -0.01181,-2.443718 0.06732,-0.06732 5.281691,-0.275911 5.337272,-0.213512 0.01959,0.02199 0.0699,1.106369 0.11181,2.409737 l 0.0762,2.369758 -0.517729,0.06158 c -0.284751,0.03387 -1.509154,0.09272 -2.720896,0.130791 l -2.203166,0.06921 z"
     id="path1587" />
  <path
     style="fill:#black;stroke-width:0.107015"
     d="m 27.138351,87.351367 c -0.03962,-1.103596 -0.09854,-2.203817 -0.130936,-2.444935 l -0.0589,-0.438396 1.534659,-0.07395 c 0.844062,-0.04067 2.877749,-0.169748 4.519304,-0.286829 1.641554,-0.117081 2.99758,-0.199544 3.01339,-0.18325 0.07246,0.07467 0.346655,4.745926 0.281996,4.80407 -0.04022,0.03617 -0.891803,0.121296 -1.892397,0.189166 -2.994518,0.203117 -6.726449,0.438569 -6.968527,0.439653 -0.220159,9.87e-4 -0.228585,-0.05561 -0.298592,-2.005525 z"
     id="path1626" />
  <path
     style="fill:#black;stroke-width:0.107015"
     d="m 41.088092,88.147255 c -0.0032,-0.128731 -0.08846,-1.229538 -0.189429,-2.446237 l -0.183585,-2.21218 0.75126,-0.07047 c 1.233524,-0.11571 5.36349,-0.579094 6.778608,-0.760563 0.725267,-0.09301 1.351307,-0.136521 1.3912,-0.0967 0.08907,0.0889 0.635474,4.763354 0.556864,4.763907 -0.03095,2.18e-4 -0.778622,0.0942 -1.6615,0.208853 -0.882877,0.114651 -2.760999,0.331152 -4.173603,0.481114 -1.412604,0.149961 -2.724881,0.293735 -2.916171,0.319496 -0.299424,0.04032 -0.348613,0.01429 -0.353644,-0.187217 z"
     id="path1665" />
  <path
     style="fill:#black;stroke-width:0.107015"
     d="m 54.998481,86.558158 c -0.0041,-0.01989 -0.163567,-1.103602 -0.354359,-2.408254 l -0.346895,-2.372093 1.023206,-0.180071 c 1.584832,-0.278911 4.951757,-0.979895 6.373506,-1.326946 0.706042,-0.172346 1.301229,-0.29584 1.322636,-0.274433 0.10515,0.10515 1.073692,4.599762 1.00482,4.662966 -0.230841,0.211846 -8.990616,2.0553 -9.022914,1.898831 z"
     id="path1704" />
  <path
     style="fill:#black;stroke-width:0.107015"
     d="m 68.328741,81.572533 c -0.271411,-0.868163 -0.592319,-1.88374 -0.713129,-2.256837 -0.12081,-0.373098 -0.178186,-0.712612 -0.127503,-0.754476 0.05068,-0.04187 0.381094,-0.188913 0.734245,-0.326774 2.15527,-0.841365 4.514423,-2.190716 5.687921,-3.253288 l 0.551178,-0.499078 1.577456,1.717746 1.577455,1.717746 -0.309371,0.326748 c -0.974334,1.029063 -3.014173,2.429733 -4.962031,3.407213 -0.955403,0.479444 -3.314836,1.499478 -3.468431,1.499478 -0.02987,0 -0.276379,-0.710315 -0.54779,-1.578478 z"
     id="path1743" />
  <path
     style="fill:#black;stroke-width:0.107015"
     d="m 78.091675,71.76966 -2.009396,-0.439714 0.07829,-0.483641 c 0.130129,-0.803851 0.07088,-2.578737 -0.111703,-3.346307 -0.193627,-0.813988 -0.667216,-1.818885 -1.204571,-2.555953 -0.198847,-0.272749 -0.361539,-0.527022 -0.361539,-0.565051 0,-0.03803 0.657366,-0.77801 1.460814,-1.644402 0.803448,-0.866392 1.498512,-1.617795 1.544587,-1.669785 0.201053,-0.226866 1.658015,1.879055 2.250019,3.252222 0.856317,1.986245 1.169646,4.057126 0.96041,6.347636 -0.07013,0.767738 -0.151832,1.435235 -0.181555,1.483328 -0.0784,0.126862 -0.211882,0.106041 -2.425359,-0.378333 z"
     id="path1782" />
  <path
     style="fill:#black;stroke-width:0.107015"
     d="m 70.362663,61.512473 c -1.207496,-0.624662 -3.055454,-1.369677 -5.166464,-2.082891 -1.160823,-0.392189 -2.126845,-0.725473 -2.146716,-0.740631 -0.03756,-0.02865 1.145256,-4.560266 1.206207,-4.621217 0.05298,-0.05298 2.280479,0.677533 4.07368,1.335984 0.882877,0.324186 2.339244,0.941556 3.236371,1.371933 l 1.63114,0.782504 -0.813963,1.693574 c -0.44768,0.931466 -0.907044,1.898241 -1.020808,2.14839 -0.113765,0.250149 -0.24071,0.452499 -0.2821,0.449668 -0.04139,-0.0028 -0.364195,-0.154622 -0.717347,-0.337314 z"
     id="path1821" />
  <path
     style="fill:#black;stroke-width:0.107015"
     d="m 56.611177,56.726833 c -3.343806,-1.138857 -5.76442,-2.365668 -7.209487,-3.6539 -0.05113,-0.04558 0.502677,-0.842958 1.230678,-1.771953 0.728,-0.928996 1.375553,-1.757605 1.439005,-1.841355 0.09595,-0.126649 0.222011,-0.07952 0.749108,0.280058 1.235127,0.84259 4.117143,2.08913 6.121186,2.647557 0.369462,0.102951 0.690443,0.217429 0.71329,0.254397 0.02285,0.03697 -0.234922,1.077669 -0.572821,2.312669 -0.409435,1.496459 -0.665209,2.254724 -0.766798,2.27324 -0.08384,0.01528 -0.850713,-0.21004 -1.704161,-0.500713 z"
     id="path1860" />
  <path
     style="fill:#black;stroke-width:0.107015"
     d="M 56.808179,56.724604 C 54.052538,55.794297 51.792706,54.734588 50.268475,53.65792 l -0.831406,-0.587278 0.342092,-0.503811 c 0.188151,-0.277096 0.754912,-1.030898 1.259468,-1.675115 0.504557,-0.644217 0.971054,-1.242573 1.03666,-1.32968 0.101713,-0.135049 0.220162,-0.09467 0.804148,0.274153 1.34835,0.851561 3.277012,1.702971 5.528178,2.440422 0.972373,0.318536 1.198034,0.430171 1.157485,0.572612 -0.0277,0.09731 -0.219882,0.827055 -0.427065,1.621645 -0.493928,1.894324 -0.747807,2.615964 -0.931738,2.648421 -0.08273,0.0146 -0.711879,-0.16301 -1.398118,-0.394685 z"
     id="path1899" />
  <path
     style="fill:#black;stroke-width:0.107015"
     d="m 48.852556,46.651797 c -0.882877,-0.107266 -1.719052,-0.197742 -1.858167,-0.201059 -0.238912,-0.0057 -0.248898,-0.03296 -0.180107,-0.491685 0.335738,-2.238862 2.001095,-4.498111 4.616727,-6.263121 0.819303,-0.55286 3.022944,-1.759463 3.088163,-1.690923 0.06537,0.06869 1.663986,4.332243 1.662855,4.434868 -5.99e-4,0.05432 -0.191438,0.178702 -0.424088,0.2764 -0.711346,0.29872 -2.128193,1.182666 -2.851702,1.779126 -0.786909,0.648729 -1.375113,1.396141 -1.555135,1.97606 -0.148398,0.478046 -0.08551,0.473507 -2.498546,0.180334 z"
     id="path1938" />
  <path
     style="fill:#black;stroke-width:0.107015"
     d="m 60.411288,40.86053 c -0.111224,-0.305481 -1.10486,-4.53081 -1.072973,-4.562698 0.09344,-0.09344 2.133098,-0.599381 3.747297,-0.929523 1.640215,-0.335463 5.412608,-0.943814 5.463431,-0.881054 0.03427,0.04232 0.475927,4.289763 0.475927,4.577044 0,0.263979 -0.02459,0.27182 -1.442387,0.460008 -2.070785,0.27486 -5.390706,0.955244 -6.932099,1.420664 -0.103293,0.03119 -0.210931,-0.0068 -0.239196,-0.08444 z"
     id="path1977" />
  <path
     style="fill:#black;stroke-width:0.107015"
     d="m 73.520328,36.504413 c -0.07609,-1.304345 -0.106969,-2.402909 -0.06863,-2.441252 0.07514,-0.07514 1.619266,-0.18439 4.199008,-0.297083 l 1.616227,-0.0706 0.06834,0.569028 c 0.03758,0.312966 0.06875,1.416364 0.06927,2.451997 l 9.3e-4,1.882968 -1.899525,0.07197 c -1.044738,0.03958 -2.337768,0.10179 -2.8734,0.138242 l -0.973877,0.06627 z"
     id="path2016" />
  <path
     style="fill:#black;stroke-width:0.107015"
     d="M 78.602854,31.359169 C 78.095533,31.146294 77.44179,30.13253 74.32184,24.720571 72.506507,21.571641 70.606311,18.296968 70.099181,17.44352 68.68302,15.060261 68.269733,13.955443 68.070541,12.020467 67.561255,7.0731879 70.735892,2.2098663 75.49354,0.64895569 c 1.31143,-0.43026001 2.111641,-0.5560001 3.52754,-0.55429506 2.90771,0.0035015 5.459705,1.05476327 7.56378,3.11580307 1.731448,1.6960342 2.72406,3.510587 3.161186,5.7788348 0.2068,1.0730865 0.197568,3.0802785 -0.01902,4.1343505 -0.356719,1.736084 -0.710167,2.421808 -5.127028,9.946917 -2.346375,3.997574 -4.407984,7.450355 -4.581354,7.672845 -0.312937,0.401603 -0.795918,0.725361 -1.062679,0.71235 -0.07649,-0.0037 -0.235397,-0.0472 -0.353114,-0.09659 z m 1.605232,-14.612418 c 2.705512,-0.570552 4.647464,-2.96822 4.65359,-5.745645 C 84.867593,8.3185779 83.071149,5.9656649 80.513685,5.3062751 79.694587,5.0950875 78.25465,5.0895512 77.484044,5.2946266 75.34473,5.8639457 73.64191,7.6253975 73.208951,9.7169202 c -0.876505,4.2341848 2.790578,7.9173508 6.999135,7.0298308 z"
     id="path2055" />
</svg>
