<svg version="1.1" xmlns="http://www.w3.org/2000/svg" xmlns:xlink="http://www.w3.org/1999/xlink" width="755" height="125" viewBox="0,0,755,125"><g id="1 cm. Tick Group" fill="none" fill-rule="nonzero" stroke="none" stroke-width="none" stroke-linecap="butt" stroke-linejoin="miter" stroke-miterlimit="10" stroke-dasharray="" stroke-dashoffset="0" font-family="none" font-weight="none" font-size="none" text-anchor="none" style="mix-blend-mode: normal"><path d="M0,0v75.59055" id="1 cm. Tick no. 0" fill="none" stroke="#000000" stroke-width="1"/><text x="4" y="76.59055" id="1 cm. label no. 0" fill="#000000" stroke="none" stroke-width="1" font-family="monospace" font-weight="bold" font-size="16" text-anchor="start">0</text><path d="M37.79528,0v75.59055" id="1 cm. Tick no. 1" fill="none" stroke="#000000" stroke-width="1"/><text x="41.79528" y="76.59055" id="1 cm. label no. 1" fill="#000000" stroke="none" stroke-width="1" font-family="monospace" font-weight="bold" font-size="16" text-anchor="start">1</text><path d="M75.59055,0v75.59055" id="1 cm. Tick no. 2" fill="none" stroke="#000000" stroke-width="1"/><text x="79.59055" y="76.59055" id="1 cm. label no. 2" fill="#000000" stroke="none" stroke-width="1" font-family="monospace" font-weight="bold" font-size="16" text-anchor="start">2</text><path d="M113.38583,0v75.59055" id="1 cm. Tick no. 3" fill="none" stroke="#000000" stroke-width="1"/><text x="117.38583" y="76.59055" id="1 cm. label no. 3" fill="#000000" stroke="none" stroke-width="1" font-family="monospace" font-weight="bold" font-size="16" text-anchor="start">3</text><path d="M151.1811,0v75.59055" id="1 cm. Tick no. 4" fill="none" stroke="#000000" stroke-width="1"/><text x="155.1811" y="76.59055" id="1 cm. label no. 4" fill="#000000" stroke="none" stroke-width="1" font-family="monospace" font-weight="bold" font-size="16" text-anchor="start">4</text><path d="M188.97638,0v75.59055" id="1 cm. Tick no. 5" fill="none" stroke="#000000" stroke-width="1"/><text x="192.97638" y="76.59055" id="1 cm. label no. 5" fill="#000000" stroke="none" stroke-width="1" font-family="monospace" font-weight="bold" font-size="16" text-anchor="start">5</text><path d="M226.77165,0v75.59055" id="1 cm. Tick no. 6" fill="none" stroke="#000000" stroke-width="1"/><text x="230.77165" y="76.59055" id="1 cm. label no. 6" fill="#000000" stroke="none" stroke-width="1" font-family="monospace" font-weight="bold" font-size="16" text-anchor="start">6</text><path d="M264.56693,0v75.59055" id="1 cm. Tick no. 7" fill="none" stroke="#000000" stroke-width="1"/><text x="268.56693" y="76.59055" id="1 cm. label no. 7" fill="#000000" stroke="none" stroke-width="1" font-family="monospace" font-weight="bold" font-size="16" text-anchor="start">7</text><path d="M302.3622,0v75.59055" id="1 cm. Tick no. 8" fill="none" stroke="#000000" stroke-width="1"/><text x="306.3622" y="76.59055" id="1 cm. label no. 8" fill="#000000" stroke="none" stroke-width="1" font-family="monospace" font-weight="bold" font-size="16" text-anchor="start">8</text><path d="M340.15748,0v75.59055" id="1 cm. Tick no. 9" fill="none" stroke="#000000" stroke-width="1"/><text x="344.15748" y="76.59055" id="1 cm. label no. 9" fill="#000000" stroke="none" stroke-width="1" font-family="monospace" font-weight="bold" font-size="16" text-anchor="start">9</text><path d="M377.95276,0v75.59055" id="1 cm. Tick no. 10" fill="none" stroke="#000000" stroke-width="1"/><text x="381.95276" y="76.59055" id="1 cm. label no. 10" fill="#000000" stroke="none" stroke-width="1" font-family="monospace" font-weight="bold" font-size="16" text-anchor="start">10</text><path d="M415.74803,0v75.59055" id="1 cm. Tick no. 11" fill="none" stroke="#000000" stroke-width="1"/><text x="419.74803" y="76.59055" id="1 cm. label no. 11" fill="#000000" stroke="none" stroke-width="1" font-family="monospace" font-weight="bold" font-size="16" text-anchor="start">11</text><path d="M453.54331,0v75.59055" id="1 cm. Tick no. 12" fill="none" stroke="#000000" stroke-width="1"/><text x="457.54331" y="76.59055" id="1 cm. label no. 12" fill="#000000" stroke="none" stroke-width="1" font-family="monospace" font-weight="bold" font-size="16" text-anchor="start">12</text><path d="M491.33858,0v75.59055" id="1 cm. Tick no. 13" fill="none" stroke="#000000" stroke-width="1"/><text x="495.33858" y="76.59055" id="1 cm. label no. 13" fill="#000000" stroke="none" stroke-width="1" font-family="monospace" font-weight="bold" font-size="16" text-anchor="start">13</text><path d="M529.13386,0v75.59055" id="1 cm. Tick no. 14" fill="none" stroke="#000000" stroke-width="1"/><text x="533.13386" y="76.59055" id="1 cm. label no. 14" fill="#000000" stroke="none" stroke-width="1" font-family="monospace" font-weight="bold" font-size="16" text-anchor="start">14</text><path d="M566.92913,0v75.59055" id="1 cm. Tick no. 15" fill="none" stroke="#000000" stroke-width="1"/><text x="570.92913" y="76.59055" id="1 cm. label no. 15" fill="#000000" stroke="none" stroke-width="1" font-family="monospace" font-weight="bold" font-size="16" text-anchor="start">15</text><path d="M604.72441,0v75.59055" id="1 cm. Tick no. 16" fill="none" stroke="#000000" stroke-width="1"/><text x="608.72441" y="76.59055" id="1 cm. label no. 16" fill="#000000" stroke="none" stroke-width="1" font-family="monospace" font-weight="bold" font-size="16" text-anchor="start">16</text><path d="M642.51969,0v75.59055" id="1 cm. Tick no. 17" fill="none" stroke="#000000" stroke-width="1"/><text x="646.51969" y="76.59055" id="1 cm. label no. 17" fill="#000000" stroke="none" stroke-width="1" font-family="monospace" font-weight="bold" font-size="16" text-anchor="start">17</text><path d="M680.31496,0v75.59055" id="1 cm. Tick no. 18" fill="none" stroke="#000000" stroke-width="1"/><text x="684.31496" y="76.59055" id="1 cm. label no. 18" fill="#000000" stroke="none" stroke-width="1" font-family="monospace" font-weight="bold" font-size="16" text-anchor="start">18</text><path d="M718.11024,0v75.59055" id="1 cm. Tick no. 19" fill="none" stroke="#000000" stroke-width="1"/><text x="722.11024" y="76.59055" id="1 cm. label no. 19" fill="#000000" stroke="none" stroke-width="1" font-family="monospace" font-weight="bold" font-size="16" text-anchor="start">19</text><path d="M755.90551,0v75.59055" id="1 cm. Tick no. 20" fill="none" stroke="#000000" stroke-width="1"/><text x="759.90551" y="76.59055" id="1 cm. label no. 20" fill="#000000" stroke="none" stroke-width="1" font-family="monospace" font-weight="bold" font-size="16" text-anchor="start">20</text><path d="M793.70079,0v75.59055" id="1 cm. Tick no. 21" fill="none" stroke="#000000" stroke-width="1"/><text x="797.70079" y="76.59055" id="1 cm. label no. 21" fill="#000000" stroke="none" stroke-width="1" font-family="monospace" font-weight="bold" font-size="16" text-anchor="start">21</text><path d="M831.49606,0v75.59055" id="1 cm. Tick no. 22" fill="none" stroke="#000000" stroke-width="1"/><text x="835.49606" y="76.59055" id="1 cm. label no. 22" fill="#000000" stroke="none" stroke-width="1" font-family="monospace" font-weight="bold" font-size="16" text-anchor="start">22</text><path d="M869.29134,0v75.59055" id="1 cm. Tick no. 23" fill="none" stroke="#000000" stroke-width="1"/><text x="873.29134" y="76.59055" id="1 cm. label no. 23" fill="#000000" stroke="none" stroke-width="1" font-family="monospace" font-weight="bold" font-size="16" text-anchor="start">23</text><path d="M907.08661,0v75.59055" id="1 cm. Tick no. 24" fill="none" stroke="#000000" stroke-width="1"/><text x="911.08661" y="76.59055" id="1 cm. label no. 24" fill="#000000" stroke="none" stroke-width="1" font-family="monospace" font-weight="bold" font-size="16" text-anchor="start">24</text><path d="M944.88189,0v75.59055" id="1 cm. Tick no. 25" fill="none" stroke="#000000" stroke-width="1"/><text x="940.88189" y="76.59055" id="1 cm. label no. 25" fill="#000000" stroke="none" stroke-width="1" font-family="monospace" font-weight="bold" font-size="16" text-anchor="end">25</text></g><g id="1/2 cm. Tick Group" fill="none" fill-rule="nonzero" stroke="#000000" stroke-width="1" stroke-linecap="butt" stroke-linejoin="miter" stroke-miterlimit="10" stroke-dasharray="" stroke-dashoffset="0" font-family="none" font-weight="none" font-size="none" text-anchor="none" style="mix-blend-mode: normal"><path d="M18.89764,0v37.79528" id="1/2 cm. Tick no. 1"/><path d="M56.69291,0v37.79528" id="1/2 cm. Tick no. 3"/><path d="M94.48819,0v37.79528" id="1/2 cm. Tick no. 5"/><path d="M132.28346,0v37.79528" id="1/2 cm. Tick no. 7"/><path d="M170.07874,0v37.79528" id="1/2 cm. Tick no. 9"/><path d="M207.87402,0v37.79528" id="1/2 cm. Tick no. 11"/><path d="M245.66929,0v37.79528" id="1/2 cm. Tick no. 13"/><path d="M283.46457,0v37.79528" id="1/2 cm. Tick no. 15"/><path d="M321.25984,0v37.79528" id="1/2 cm. Tick no. 17"/><path d="M359.05512,0v37.79528" id="1/2 cm. Tick no. 19"/><path d="M396.85039,0v37.79528" id="1/2 cm. Tick no. 21"/><path d="M434.64567,0v37.79528" id="1/2 cm. Tick no. 23"/><path d="M472.44094,0v37.79528" id="1/2 cm. Tick no. 25"/><path d="M510.23622,0v37.79528" id="1/2 cm. Tick no. 27"/><path d="M548.0315,0v37.79528" id="1/2 cm. Tick no. 29"/><path d="M585.82677,0v37.79528" id="1/2 cm. Tick no. 31"/><path d="M623.62205,0v37.79528" id="1/2 cm. Tick no. 33"/><path d="M661.41732,0v37.79528" id="1/2 cm. Tick no. 35"/><path d="M699.2126,0v37.79528" id="1/2 cm. Tick no. 37"/><path d="M737.00787,0v37.79528" id="1/2 cm. Tick no. 39"/><path d="M774.80315,0v37.79528" id="1/2 cm. Tick no. 41"/><path d="M812.59843,0v37.79528" id="1/2 cm. Tick no. 43"/><path d="M850.3937,0v37.79528" id="1/2 cm. Tick no. 45"/><path d="M888.18898,0v37.79528" id="1/2 cm. Tick no. 47"/><path d="M925.98425,0v37.79528" id="1/2 cm. Tick no. 49"/></g><g id="1/4 cm. Tick Group" fill="none" fill-rule="nonzero" stroke="#000000" stroke-width="1" stroke-linecap="butt" stroke-linejoin="miter" stroke-miterlimit="10" stroke-dasharray="" stroke-dashoffset="0" font-family="none" font-weight="none" font-size="none" text-anchor="none" style="mix-blend-mode: normal"><path d="M9.44882,0v18.89764" id="1/4 cm. Tick no. 1"/><path d="M28.34646,0v18.89764" id="1/4 cm. Tick no. 3"/><path d="M47.24409,0v18.89764" id="1/4 cm. Tick no. 5"/><path d="M66.14173,0v18.89764" id="1/4 cm. Tick no. 7"/><path d="M85.03937,0v18.89764" id="1/4 cm. Tick no. 9"/><path d="M103.93701,0v18.89764" id="1/4 cm. Tick no. 11"/><path d="M122.83465,0v18.89764" id="1/4 cm. Tick no. 13"/><path d="M141.73228,0v18.89764" id="1/4 cm. Tick no. 15"/><path d="M160.62992,0v18.89764" id="1/4 cm. Tick no. 17"/><path d="M179.52756,0v18.89764" id="1/4 cm. Tick no. 19"/><path d="M198.4252,0v18.89764" id="1/4 cm. Tick no. 21"/><path d="M217.32283,0v18.89764" id="1/4 cm. Tick no. 23"/><path d="M236.22047,0v18.89764" id="1/4 cm. Tick no. 25"/><path d="M255.11811,0v18.89764" id="1/4 cm. Tick no. 27"/><path d="M274.01575,0v18.89764" id="1/4 cm. Tick no. 29"/><path d="M292.91339,0v18.89764" id="1/4 cm. Tick no. 31"/><path d="M311.81102,0v18.89764" id="1/4 cm. Tick no. 33"/><path d="M330.70866,0v18.89764" id="1/4 cm. Tick no. 35"/><path d="M349.6063,0v18.89764" id="1/4 cm. Tick no. 37"/><path d="M368.50394,0v18.89764" id="1/4 cm. Tick no. 39"/><path d="M387.40157,0v18.89764" id="1/4 cm. Tick no. 41"/><path d="M406.29921,0v18.89764" id="1/4 cm. Tick no. 43"/><path d="M425.19685,0v18.89764" id="1/4 cm. Tick no. 45"/><path d="M444.09449,0v18.89764" id="1/4 cm. Tick no. 47"/><path d="M462.99213,0v18.89764" id="1/4 cm. Tick no. 49"/><path d="M481.88976,0v18.89764" id="1/4 cm. Tick no. 51"/><path d="M500.7874,0v18.89764" id="1/4 cm. Tick no. 53"/><path d="M519.68504,0v18.89764" id="1/4 cm. Tick no. 55"/><path d="M538.58268,0v18.89764" id="1/4 cm. Tick no. 57"/><path d="M557.48031,0v18.89764" id="1/4 cm. Tick no. 59"/><path d="M576.37795,0v18.89764" id="1/4 cm. Tick no. 61"/><path d="M595.27559,0v18.89764" id="1/4 cm. Tick no. 63"/><path d="M614.17323,0v18.89764" id="1/4 cm. Tick no. 65"/><path d="M633.07087,0v18.89764" id="1/4 cm. Tick no. 67"/><path d="M651.9685,0v18.89764" id="1/4 cm. Tick no. 69"/><path d="M670.86614,0v18.89764" id="1/4 cm. Tick no. 71"/><path d="M689.76378,0v18.89764" id="1/4 cm. Tick no. 73"/><path d="M708.66142,0v18.89764" id="1/4 cm. Tick no. 75"/><path d="M727.55906,0v18.89764" id="1/4 cm. Tick no. 77"/><path d="M746.45669,0v18.89764" id="1/4 cm. Tick no. 79"/><path d="M765.35433,0v18.89764" id="1/4 cm. Tick no. 81"/><path d="M784.25197,0v18.89764" id="1/4 cm. Tick no. 83"/><path d="M803.14961,0v18.89764" id="1/4 cm. Tick no. 85"/><path d="M822.04724,0v18.89764" id="1/4 cm. Tick no. 87"/><path d="M840.94488,0v18.89764" id="1/4 cm. Tick no. 89"/><path d="M859.84252,0v18.89764" id="1/4 cm. Tick no. 91"/><path d="M878.74016,0v18.89764" id="1/4 cm. Tick no. 93"/><path d="M897.6378,0v18.89764" id="1/4 cm. Tick no. 95"/><path d="M916.53543,0v18.89764" id="1/4 cm. Tick no. 97"/><path d="M935.43307,0v18.89764" id="1/4 cm. Tick no. 99"/></g></svg>