<svg width="155" height="35" viewBox="0 0 155 35" fill="none" xmlns="http://www.w3.org/2000/svg">
<path fill-rule="evenodd" clip-rule="evenodd" d="M138.845 21.9154C144.312 25.6242 148.142 29.7669 149.865 34.2384L155 32.2599C152.718 26.3369 147.891 21.4026 141.934 17.3614C135.952 13.3029 128.609 9.99454 120.922 7.40106C106.044 2.38061 89.4535 -0.10067 78.0314 0.0287018V0.0248528C66.5925 -0.278168 49.4246 2.19878 34.0776 7.37724C26.3914 9.97071 19.0485 13.2791 13.0658 17.3376C7.1086 21.3788 2.2821 26.3131 0 32.2361L5.13503 34.2146C6.85789 29.743 10.6879 25.6004 16.1551 21.8916C21.597 18.2 28.4464 15.0852 35.8369 12.5914C50.2914 7.71414 66.3817 5.35529 77.1118 5.51015L77.1129 5.54978L77.1143 5.54974C77.1353 5.54919 77.1563 5.54864 77.1773 5.54811C87.8988 5.27501 104.386 7.62904 119.163 12.6152C126.554 15.109 133.403 18.2238 138.845 21.9154Z" fill="white"/>
</svg>
