<svg width="228" height="294" viewBox="0 0 228 294" fill="none" xmlns="http://www.w3.org/2000/svg">
<path d="M83.888 282.48C80.688 282.48 78.032 282.032 75.92 281.136C73.808 280.208 72.208 279.008 71.12 277.536C70.032 276.064 69.456 274.496 69.392 272.832C69.392 272.576 69.488 272.352 69.68 272.16C69.904 271.936 70.16 271.824 70.448 271.824H76.496C76.944 271.824 77.28 271.904 77.504 272.064C77.76 272.224 77.984 272.432 78.176 272.688C78.432 273.168 78.784 273.632 79.232 274.08C79.712 274.528 80.32 274.896 81.056 275.184C81.824 275.44 82.768 275.568 83.888 275.568C85.744 275.568 87.136 275.28 88.064 274.704C89.024 274.128 89.504 273.344 89.504 272.352C89.504 271.648 89.248 271.072 88.736 270.624C88.224 270.144 87.392 269.728 86.24 269.376C85.12 268.992 83.616 268.608 81.728 268.224C79.296 267.712 77.216 267.056 75.488 266.256C73.792 265.424 72.496 264.352 71.6 263.04C70.704 261.696 70.256 260.032 70.256 258.048C70.256 256.096 70.8 254.352 71.888 252.816C73.008 251.28 74.56 250.08 76.544 249.216C78.528 248.352 80.88 247.92 83.6 247.92C85.808 247.92 87.744 248.208 89.408 248.784C91.104 249.36 92.528 250.128 93.68 251.088C94.832 252.048 95.696 253.072 96.272 254.16C96.88 255.216 97.2 256.256 97.232 257.28C97.232 257.536 97.136 257.776 96.944 258C96.752 258.192 96.512 258.288 96.224 258.288H89.888C89.536 258.288 89.232 258.224 88.976 258.096C88.72 257.968 88.496 257.76 88.304 257.472C88.112 256.768 87.6 256.16 86.768 255.648C85.968 255.104 84.912 254.832 83.6 254.832C82.192 254.832 81.088 255.088 80.288 255.6C79.52 256.08 79.136 256.832 79.136 257.856C79.136 258.496 79.344 259.056 79.76 259.536C80.208 260.016 80.928 260.432 81.92 260.784C82.944 261.136 84.336 261.504 86.096 261.888C89.008 262.432 91.36 263.12 93.152 263.952C94.944 264.752 96.256 265.808 97.088 267.12C97.92 268.4 98.336 270.016 98.336 271.968C98.336 274.144 97.712 276.032 96.464 277.632C95.248 279.2 93.552 280.4 91.376 281.232C89.2 282.064 86.704 282.48 83.888 282.48ZM110.101 282.48C108.373 282.48 106.821 282.16 105.445 281.52C104.101 280.848 103.029 279.952 102.229 278.832C101.429 277.712 101.029 276.448 101.029 275.04C101.029 272.768 101.957 270.976 103.813 269.664C105.669 268.32 108.133 267.408 111.205 266.928L117.205 266.016V265.344C117.205 264.192 116.965 263.312 116.485 262.704C116.005 262.096 115.125 261.792 113.845 261.792C112.949 261.792 112.213 261.968 111.637 262.32C111.093 262.672 110.661 263.152 110.341 263.76C110.053 264.176 109.653 264.384 109.141 264.384H103.765C103.413 264.384 103.141 264.288 102.949 264.096C102.757 263.872 102.677 263.616 102.709 263.328C102.709 262.752 102.917 262.096 103.333 261.36C103.781 260.592 104.453 259.84 105.349 259.104C106.245 258.368 107.397 257.76 108.805 257.28C110.213 256.8 111.909 256.56 113.893 256.56C115.973 256.56 117.749 256.8 119.221 257.28C120.693 257.76 121.877 258.432 122.773 259.296C123.701 260.16 124.389 261.184 124.837 262.368C125.285 263.52 125.509 264.8 125.509 266.208V280.8C125.509 281.152 125.381 281.44 125.125 281.664C124.901 281.888 124.629 282 124.309 282H118.741C118.389 282 118.101 281.888 117.877 281.664C117.653 281.44 117.541 281.152 117.541 280.8V279.12C117.125 279.728 116.565 280.288 115.861 280.8C115.157 281.312 114.325 281.712 113.365 282C112.437 282.32 111.349 282.48 110.101 282.48ZM112.357 277.008C113.285 277.008 114.117 276.816 114.853 276.432C115.621 276.016 116.213 275.392 116.629 274.56C117.077 273.696 117.301 272.624 117.301 271.344V270.672L113.221 271.392C111.717 271.648 110.613 272.048 109.909 272.592C109.237 273.104 108.901 273.712 108.901 274.416C108.901 274.96 109.061 275.424 109.381 275.808C109.701 276.192 110.117 276.496 110.629 276.72C111.141 276.912 111.717 277.008 112.357 277.008ZM140.238 282.48C138.702 282.48 137.31 282.24 136.062 281.76C134.846 281.248 133.79 280.512 132.894 279.552C132.03 278.56 131.358 277.376 130.878 276C130.398 274.592 130.126 272.992 130.062 271.2C130.03 270.56 130.014 270 130.014 269.52C130.014 269.008 130.03 268.448 130.062 267.84C130.126 266.112 130.398 264.56 130.878 263.184C131.358 261.808 132.03 260.624 132.894 259.632C133.758 258.64 134.814 257.888 136.062 257.376C137.31 256.832 138.702 256.56 140.238 256.56C141.838 256.56 143.214 256.832 144.366 257.376C145.518 257.888 146.494 258.56 147.294 259.392V249.12C147.294 248.768 147.406 248.48 147.63 248.256C147.854 248.032 148.142 247.92 148.494 247.92H154.35C154.67 247.92 154.942 248.032 155.166 248.256C155.422 248.48 155.55 248.768 155.55 249.12V280.8C155.55 281.152 155.422 281.44 155.166 281.664C154.942 281.888 154.67 282 154.35 282H148.926C148.574 282 148.286 281.888 148.062 281.664C147.838 281.44 147.726 281.152 147.726 280.8V279.264C146.958 280.192 145.966 280.96 144.75 281.568C143.534 282.176 142.03 282.48 140.238 282.48ZM142.83 276.048C143.918 276.048 144.766 275.824 145.374 275.376C146.014 274.896 146.478 274.288 146.766 273.552C147.086 272.816 147.262 272.016 147.294 271.152C147.326 270.512 147.342 269.904 147.342 269.328C147.342 268.752 147.326 268.16 147.294 267.552C147.262 266.752 147.086 266.016 146.766 265.344C146.446 264.64 145.966 264.08 145.326 263.664C144.686 263.216 143.854 262.992 142.83 262.992C141.774 262.992 140.926 263.216 140.286 263.664C139.678 264.112 139.246 264.72 138.99 265.488C138.734 266.256 138.574 267.104 138.51 268.032C138.414 269.024 138.414 270.016 138.51 271.008C138.574 271.936 138.734 272.784 138.99 273.552C139.246 274.32 139.678 274.928 140.286 275.376C140.926 275.824 141.774 276.048 142.83 276.048Z" fill="black"/>
<rect x="0.908203" width="226.456" height="226.456" rx="13.5874" fill="#4F4F4F"/>
<path fill-rule="evenodd" clip-rule="evenodd" d="M184.105 118.113C190.37 122.363 194.759 127.11 196.733 132.234L202.618 129.967C200.003 123.18 194.472 117.526 187.645 112.895C180.79 108.244 172.375 104.453 163.568 101.481C146.518 95.7278 127.507 92.8845 114.418 93.0327V93.0283C101.31 92.6811 81.6368 95.5195 64.0502 101.454C55.2425 104.426 46.828 108.217 39.9724 112.867C33.1459 117.498 27.6151 123.153 25 129.94L30.8843 132.207C32.8586 127.083 37.2475 122.336 43.5125 118.086C49.7484 113.856 57.5973 110.286 66.0663 107.429C82.63 101.84 101.068 99.1366 113.364 99.314L113.365 99.3595L113.367 99.3594C113.391 99.3588 113.415 99.3582 113.439 99.3575C125.725 99.0446 144.618 101.742 161.552 107.456C170.021 110.314 177.869 113.883 184.105 118.113Z" fill="white"/>
</svg>
