<svg width="90" height="111" viewBox="0 0 90 111" fill="none" xmlns="http://www.w3.org/2000/svg">
<path d="M71.25 45V71.25H18.75V45H11.25V71.25C11.25 75.375 14.625 78.75 18.75 78.75H71.25C75.375 78.75 78.75 75.375 78.75 71.25V45H71.25ZM48.75 47.5125L58.4625 37.8375L63.75 43.125L45 61.875L26.25 43.125L31.5375 37.8375L41.25 47.5125V11.25H48.75V47.5125Z" fill="black"/>
<path d="M20.5774 103.819C20.549 103.532 20.4271 103.31 20.2116 103.151C19.9962 102.993 19.7038 102.913 19.3345 102.913C19.0836 102.913 18.8717 102.949 18.6989 103.02C18.526 103.089 18.3935 103.184 18.3011 103.308C18.2112 103.431 18.1662 103.57 18.1662 103.727C18.1615 103.857 18.1887 103.97 18.2479 104.067C18.3094 104.165 18.3935 104.249 18.5 104.32C18.6065 104.388 18.7296 104.449 18.8693 104.501C19.009 104.55 19.1581 104.593 19.3168 104.629L19.9702 104.785C20.2874 104.856 20.5786 104.951 20.8438 105.069C21.1089 105.187 21.3385 105.333 21.5327 105.506C21.7268 105.679 21.8771 105.882 21.9837 106.116C22.0926 106.351 22.1482 106.62 22.1506 106.923C22.1482 107.368 22.0346 107.754 21.8097 108.08C21.5871 108.405 21.2652 108.657 20.8438 108.837C20.4247 109.014 19.9193 109.103 19.3274 109.103C18.7403 109.103 18.2289 109.013 17.7933 108.833C17.3601 108.653 17.0215 108.387 16.7777 108.034C16.5362 107.679 16.4096 107.24 16.3977 106.717H17.8857C17.9022 106.96 17.9721 107.164 18.0952 107.327C18.2206 107.488 18.3875 107.61 18.5959 107.693C18.8066 107.774 19.0445 107.814 19.3097 107.814C19.5701 107.814 19.7962 107.776 19.9879 107.7C20.1821 107.625 20.3324 107.519 20.4389 107.384C20.5455 107.249 20.5987 107.094 20.5987 106.919C20.5987 106.756 20.5502 106.618 20.4531 106.507C20.3584 106.396 20.2188 106.301 20.0341 106.223C19.8518 106.145 19.6281 106.074 19.3629 106.01L18.571 105.811C17.9579 105.662 17.4737 105.429 17.1186 105.112C16.7635 104.794 16.5871 104.367 16.5895 103.83C16.5871 103.389 16.7043 103.004 16.9411 102.675C17.1802 102.346 17.508 102.089 17.9247 101.905C18.3414 101.72 18.8149 101.628 19.3452 101.628C19.8849 101.628 20.3561 101.72 20.7585 101.905C21.1634 102.089 21.4782 102.346 21.7031 102.675C21.928 103.004 22.044 103.386 22.0511 103.819H20.5774ZM24.7118 109.103C24.3638 109.103 24.0537 109.043 23.7814 108.922C23.5092 108.799 23.2937 108.618 23.1351 108.379C22.9789 108.137 22.9007 107.836 22.9007 107.477C22.9007 107.174 22.9564 106.919 23.0676 106.713C23.1789 106.507 23.3304 106.341 23.5222 106.216C23.714 106.09 23.9318 105.996 24.1756 105.932C24.4218 105.868 24.6799 105.823 24.9498 105.797C25.267 105.764 25.5227 105.733 25.7168 105.705C25.9109 105.674 26.0518 105.629 26.1394 105.57C26.227 105.51 26.2708 105.423 26.2708 105.307V105.286C26.2708 105.061 26.1998 104.887 26.0577 104.763C25.918 104.64 25.7192 104.579 25.4611 104.579C25.1889 104.579 24.9722 104.639 24.8113 104.76C24.6503 104.878 24.5437 105.027 24.4917 105.207L23.0925 105.094C23.1635 104.762 23.3032 104.476 23.5115 104.234C23.7199 103.991 23.9886 103.804 24.3176 103.673C24.6491 103.541 25.0326 103.474 25.4682 103.474C25.7712 103.474 26.0613 103.51 26.3382 103.581C26.6176 103.652 26.865 103.762 27.0804 103.911C27.2982 104.06 27.4699 104.252 27.5953 104.487C27.7208 104.719 27.7836 104.997 27.7836 105.321V109H26.3489V108.244H26.3063C26.2187 108.414 26.1015 108.564 25.9547 108.695C25.8079 108.822 25.6316 108.923 25.4256 108.996C25.2196 109.067 24.9817 109.103 24.7118 109.103ZM25.1451 108.059C25.3676 108.059 25.5641 108.015 25.7346 107.928C25.905 107.838 26.0388 107.717 26.1358 107.565C26.2329 107.414 26.2814 107.242 26.2814 107.05V106.472C26.2341 106.502 26.169 106.531 26.0861 106.557C26.0056 106.58 25.9145 106.603 25.8127 106.624C25.7109 106.643 25.6091 106.661 25.5073 106.678C25.4055 106.692 25.3132 106.705 25.2303 106.717C25.0527 106.743 24.8977 106.784 24.7651 106.841C24.6325 106.898 24.5295 106.975 24.4561 107.072C24.3828 107.166 24.3461 107.285 24.3461 107.427C24.3461 107.633 24.4206 107.79 24.5698 107.899C24.7213 108.006 24.9131 108.059 25.1451 108.059ZM33.8471 103.545L31.9402 109H30.2356L28.3287 103.545H29.9267L31.0595 107.448H31.1163L32.2456 103.545H33.8471ZM36.9313 109.107C36.3702 109.107 35.8873 108.993 35.4824 108.766C35.08 108.536 34.7698 108.212 34.552 107.793C34.3342 107.371 34.2253 106.873 34.2253 106.298C34.2253 105.737 34.3342 105.244 34.552 104.82C34.7698 104.397 35.0764 104.066 35.4718 103.83C35.8695 103.593 36.3359 103.474 36.8709 103.474C37.2308 103.474 37.5658 103.532 37.8759 103.648C38.1884 103.762 38.4606 103.934 38.6926 104.163C38.927 104.393 39.1093 104.682 39.2395 105.03C39.3697 105.375 39.4348 105.78 39.4348 106.244V106.66H34.829V105.722H38.0108C38.0108 105.504 37.9635 105.312 37.8688 105.143C37.7741 104.975 37.6427 104.844 37.4746 104.749C37.3089 104.652 37.1159 104.604 36.8958 104.604C36.6661 104.604 36.4625 104.657 36.285 104.763C36.1098 104.868 35.9725 105.009 35.873 105.186C35.7736 105.361 35.7227 105.557 35.7203 105.772V106.663C35.7203 106.933 35.7701 107.166 35.8695 107.363C35.9713 107.559 36.1145 107.711 36.2992 107.817C36.4838 107.924 36.7028 107.977 36.9561 107.977C37.1242 107.977 37.2781 107.954 37.4178 107.906C37.5575 107.859 37.677 107.788 37.7765 107.693C37.8759 107.598 37.9516 107.482 38.0037 107.345L39.4029 107.438C39.3319 107.774 39.1863 108.067 38.9661 108.318C38.7483 108.567 38.4666 108.761 38.1209 108.901C37.7776 109.038 37.3811 109.107 36.9313 109.107ZM42.7649 109V101.727H45.6342C46.1858 101.727 46.6558 101.833 47.044 102.043C47.4323 102.252 47.7282 102.542 47.9318 102.913C48.1378 103.283 48.2408 103.709 48.2408 104.192C48.2408 104.675 48.1366 105.101 47.9283 105.47C47.7199 105.839 47.4181 106.127 47.0227 106.333C46.6297 106.539 46.1539 106.642 45.5952 106.642H43.7663V105.41H45.3466C45.6425 105.41 45.8864 105.359 46.0781 105.257C46.2723 105.153 46.4167 105.01 46.5114 104.827C46.6084 104.643 46.657 104.431 46.657 104.192C46.657 103.95 46.6084 103.74 46.5114 103.56C46.4167 103.377 46.2723 103.237 46.0781 103.137C45.884 103.035 45.6378 102.984 45.3395 102.984H44.3026V109H42.7649ZM49.2111 109V103.545H50.6777V104.497H50.7346C50.834 104.159 51.0009 103.903 51.2353 103.73C51.4696 103.555 51.7395 103.467 52.0449 103.467C52.1207 103.467 52.2024 103.472 52.29 103.482C52.3775 103.491 52.4545 103.504 52.5208 103.521V104.863C52.4498 104.842 52.3515 104.823 52.226 104.806C52.1006 104.79 51.9857 104.781 51.8816 104.781C51.659 104.781 51.4602 104.83 51.285 104.927C51.1122 105.022 50.9748 105.154 50.873 105.325C50.7736 105.495 50.7239 105.692 50.7239 105.914V109H49.2111ZM55.5135 109.107C54.9619 109.107 54.4848 108.989 54.0824 108.755C53.6823 108.518 53.3733 108.189 53.1555 107.768C52.9377 107.344 52.8288 106.853 52.8288 106.294C52.8288 105.731 52.9377 105.238 53.1555 104.817C53.3733 104.393 53.6823 104.064 54.0824 103.83C54.4848 103.593 54.9619 103.474 55.5135 103.474C56.0651 103.474 56.541 103.593 56.9411 103.83C57.3435 104.064 57.6536 104.393 57.8714 104.817C58.0893 105.238 58.1982 105.731 58.1982 106.294C58.1982 106.853 58.0893 107.344 57.8714 107.768C57.6536 108.189 57.3435 108.518 56.9411 108.755C56.541 108.989 56.0651 109.107 55.5135 109.107ZM55.5206 107.935C55.7715 107.935 55.9811 107.864 56.1491 107.722C56.3172 107.577 56.4439 107.381 56.5291 107.132C56.6167 106.884 56.6605 106.601 56.6605 106.283C56.6605 105.966 56.6167 105.683 56.5291 105.435C56.4439 105.186 56.3172 104.99 56.1491 104.845C55.9811 104.701 55.7715 104.629 55.5206 104.629C55.2673 104.629 55.0542 104.701 54.8814 104.845C54.7109 104.99 54.5819 105.186 54.4943 105.435C54.4091 105.683 54.3665 105.966 54.3665 106.283C54.3665 106.601 54.4091 106.884 54.4943 107.132C54.5819 107.381 54.7109 107.577 54.8814 107.722C55.0542 107.864 55.2673 107.935 55.5206 107.935ZM62.1151 103.545V104.682H58.7486V103.545H62.1151ZM59.5192 109V103.151C59.5192 102.756 59.5961 102.428 59.75 102.168C59.9062 101.907 60.1193 101.712 60.3892 101.582C60.6591 101.451 60.9657 101.386 61.3089 101.386C61.541 101.386 61.7528 101.404 61.9446 101.44C62.1387 101.475 62.2831 101.507 62.3778 101.536L62.108 102.672C62.0488 102.653 61.9754 102.635 61.8878 102.619C61.8026 102.602 61.715 102.594 61.625 102.594C61.4025 102.594 61.2474 102.646 61.1598 102.75C61.0722 102.852 61.0284 102.995 61.0284 103.18V109H59.5192ZM63.0392 109V103.545H64.552V109H63.0392ZM63.7992 102.842C63.5743 102.842 63.3813 102.768 63.2203 102.619C63.0617 102.467 62.9824 102.286 62.9824 102.075C62.9824 101.867 63.0617 101.688 63.2203 101.539C63.3813 101.388 63.5743 101.312 63.7992 101.312C64.0241 101.312 64.2158 101.388 64.3745 101.539C64.5355 101.688 64.6159 101.867 64.6159 102.075C64.6159 102.286 64.5355 102.467 64.3745 102.619C64.2158 102.768 64.0241 102.842 63.7992 102.842ZM67.2766 101.727V109H65.7638V101.727H67.2766ZM70.9743 109.107C70.4132 109.107 69.9302 108.993 69.5254 108.766C69.1229 108.536 68.8128 108.212 68.595 107.793C68.3772 107.371 68.2683 106.873 68.2683 106.298C68.2683 105.737 68.3772 105.244 68.595 104.82C68.8128 104.397 69.1194 104.066 69.5147 103.83C69.9125 103.593 70.3788 103.474 70.9139 103.474C71.2737 103.474 71.6087 103.532 71.9189 103.648C72.2314 103.762 72.5036 103.934 72.7356 104.163C72.97 104.393 73.1523 104.682 73.2825 105.03C73.4127 105.375 73.4778 105.78 73.4778 106.244V106.66H68.872V105.722H72.0538C72.0538 105.504 72.0065 105.312 71.9118 105.143C71.8171 104.975 71.6857 104.844 71.5176 104.749C71.3519 104.652 71.1589 104.604 70.9387 104.604C70.7091 104.604 70.5055 104.657 70.3279 104.763C70.1528 104.868 70.0154 105.009 69.916 105.186C69.8166 105.361 69.7657 105.557 69.7633 105.772V106.663C69.7633 106.933 69.813 107.166 69.9125 107.363C70.0143 107.559 70.1575 107.711 70.3422 107.817C70.5268 107.924 70.7458 107.977 70.9991 107.977C71.1672 107.977 71.3211 107.954 71.4608 107.906C71.6004 107.859 71.72 107.788 71.8194 107.693C71.9189 107.598 71.9946 107.482 72.0467 107.345L73.4458 107.438C73.3748 107.774 73.2292 108.067 73.0091 108.318C72.7913 108.567 72.5095 108.761 72.1639 108.901C71.8206 109.038 71.4241 109.107 70.9743 109.107Z" fill="black"/>
</svg>
