<svg width="90" height="111" viewBox="0 0 90 111" fill="none" xmlns="http://www.w3.org/2000/svg">
<path d="M11.25 11.25H18.75V18.75H11.25V11.25ZM26.25 11.25H33.75V18.75H26.25V11.25ZM41.25 11.25H48.75V18.75H41.25V11.25ZM56.25 11.25H63.75V18.75H56.25V11.25ZM71.25 11.25H78.75V18.75H71.25V11.25ZM71.25 26.25H78.75V33.75H71.25V26.25ZM11.25 71.25H18.75V78.75H11.25V71.25ZM11.25 56.25H18.75V63.75H11.25V56.25ZM11.25 41.25H18.75V48.75H11.25V41.25ZM11.25 26.25H18.75V33.75H11.25V26.25ZM40.0012 41.25L43.8862 35.4187C44.2288 34.9053 44.6928 34.4844 45.2371 34.1933C45.7813 33.9022 46.389 33.7499 47.0062 33.75H57.9938C58.611 33.7499 59.2187 33.9022 59.7629 34.1933C60.3072 34.4844 60.7712 34.9053 61.1138 35.4187L64.9987 41.25H75C75.9946 41.25 76.9484 41.6451 77.6517 42.3484C78.3549 43.0516 78.75 44.0054 78.75 45V75C78.75 75.9946 78.3549 76.9484 77.6517 77.6517C76.9484 78.3549 75.9946 78.75 75 78.75H30C29.0054 78.75 28.0516 78.3549 27.3484 77.6517C26.6451 76.9484 26.25 75.9946 26.25 75V45C26.25 44.0054 26.6451 43.0516 27.3484 42.3484C28.0516 41.6451 29.0054 41.25 30 41.25H40.0012ZM33.75 71.25H71.25V48.75H60.9863L55.9875 41.25H49.0125L44.0138 48.75H33.75V71.25ZM52.5 67.5C50.5109 67.5 48.6032 66.7098 47.1967 65.3033C45.7902 63.8968 45 61.9891 45 60C45 58.0109 45.7902 56.1032 47.1967 54.6967C48.6032 53.2902 50.5109 52.5 52.5 52.5C54.4891 52.5 56.3968 53.2902 57.8033 54.6967C59.2098 56.1032 60 58.0109 60 60C60 61.9891 59.2098 63.8968 57.8033 65.3033C56.3968 66.7098 54.4891 67.5 52.5 67.5Z" fill="black"/>
<path d="M20.5774 103.819C20.549 103.532 20.4271 103.31 20.2116 103.151C19.9962 102.993 19.7038 102.913 19.3345 102.913C19.0836 102.913 18.8717 102.949 18.6989 103.02C18.526 103.089 18.3935 103.184 18.3011 103.308C18.2112 103.431 18.1662 103.57 18.1662 103.727C18.1615 103.857 18.1887 103.97 18.2479 104.067C18.3094 104.165 18.3935 104.249 18.5 104.32C18.6065 104.388 18.7296 104.449 18.8693 104.501C19.009 104.55 19.1581 104.593 19.3168 104.629L19.9702 104.785C20.2874 104.856 20.5786 104.951 20.8438 105.069C21.1089 105.187 21.3385 105.333 21.5327 105.506C21.7268 105.679 21.8771 105.882 21.9837 106.116C22.0926 106.351 22.1482 106.62 22.1506 106.923C22.1482 107.368 22.0346 107.754 21.8097 108.08C21.5871 108.405 21.2652 108.657 20.8438 108.837C20.4247 109.014 19.9193 109.103 19.3274 109.103C18.7403 109.103 18.2289 109.013 17.7933 108.833C17.3601 108.653 17.0215 108.387 16.7777 108.034C16.5362 107.679 16.4096 107.24 16.3977 106.717H17.8857C17.9022 106.96 17.9721 107.164 18.0952 107.327C18.2206 107.488 18.3875 107.61 18.5959 107.693C18.8066 107.774 19.0445 107.814 19.3097 107.814C19.5701 107.814 19.7962 107.776 19.9879 107.7C20.1821 107.625 20.3324 107.519 20.4389 107.384C20.5455 107.249 20.5987 107.094 20.5987 106.919C20.5987 106.756 20.5502 106.618 20.4531 106.507C20.3584 106.396 20.2188 106.301 20.0341 106.223C19.8518 106.145 19.6281 106.074 19.3629 106.01L18.571 105.811C17.9579 105.662 17.4737 105.429 17.1186 105.112C16.7635 104.794 16.5871 104.367 16.5895 103.83C16.5871 103.389 16.7043 103.004 16.9411 102.675C17.1802 102.346 17.508 102.089 17.9247 101.905C18.3414 101.72 18.8149 101.628 19.3452 101.628C19.8849 101.628 20.3561 101.72 20.7585 101.905C21.1634 102.089 21.4782 102.346 21.7031 102.675C21.928 103.004 22.044 103.386 22.0511 103.819H20.5774ZM25.6209 109.107C25.0622 109.107 24.5816 108.988 24.1792 108.751C23.7791 108.512 23.4713 108.181 23.2559 107.757C23.0428 107.333 22.9363 106.846 22.9363 106.294C22.9363 105.735 23.044 105.245 23.2594 104.824C23.4772 104.4 23.7862 104.07 24.1863 103.833C24.5864 103.594 25.0622 103.474 25.6138 103.474C26.0897 103.474 26.5063 103.561 26.8638 103.734C27.2213 103.906 27.5042 104.149 27.7125 104.462C27.9209 104.774 28.0357 105.141 28.057 105.562H26.6294C26.5892 105.29 26.4827 105.071 26.3098 104.906C26.1394 104.737 25.9157 104.653 25.6387 104.653C25.4043 104.653 25.1995 104.717 25.0243 104.845C24.8515 104.971 24.7166 105.154 24.6195 105.396C24.5224 105.637 24.4739 105.929 24.4739 106.273C24.4739 106.621 24.5212 106.917 24.6159 107.161C24.713 107.404 24.8491 107.59 25.0243 107.718C25.1995 107.846 25.4043 107.91 25.6387 107.91C25.8115 107.91 25.9666 107.874 26.1039 107.803C26.2435 107.732 26.3584 107.629 26.4483 107.494C26.5407 107.357 26.601 107.192 26.6294 107.001H28.057C28.0333 107.417 27.9197 107.784 27.7161 108.102C27.5149 108.416 27.2367 108.663 26.8816 108.84C26.5265 109.018 26.1062 109.107 25.6209 109.107ZM29.0256 109V103.545H30.4922V104.497H30.549C30.6484 104.159 30.8153 103.903 31.0497 103.73C31.2841 103.555 31.554 103.467 31.8594 103.467C31.9351 103.467 32.0168 103.472 32.1044 103.482C32.192 103.491 32.2689 103.504 32.3352 103.521V104.863C32.2642 104.842 32.166 104.823 32.0405 104.806C31.915 104.79 31.8002 104.781 31.696 104.781C31.4735 104.781 31.2746 104.83 31.0994 104.927C30.9266 105.022 30.7893 105.154 30.6875 105.325C30.5881 105.495 30.5384 105.692 30.5384 105.914V109H29.0256ZM35.3493 109.107C34.7882 109.107 34.3052 108.993 33.9004 108.766C33.4979 108.536 33.1878 108.212 32.97 107.793C32.7522 107.371 32.6433 106.873 32.6433 106.298C32.6433 105.737 32.7522 105.244 32.97 104.82C33.1878 104.397 33.4944 104.066 33.8897 103.83C34.2875 103.593 34.7538 103.474 35.2889 103.474C35.6487 103.474 35.9837 103.532 36.2939 103.648C36.6064 103.762 36.8786 103.934 37.1106 104.163C37.345 104.393 37.5273 104.682 37.6575 105.03C37.7877 105.375 37.8528 105.78 37.8528 106.244V106.66H33.247V105.722H36.4288C36.4288 105.504 36.3815 105.312 36.2868 105.143C36.1921 104.975 36.0607 104.844 35.8926 104.749C35.7269 104.652 35.5339 104.604 35.3137 104.604C35.0841 104.604 34.8805 104.657 34.7029 104.763C34.5278 104.868 34.3904 105.009 34.291 105.186C34.1916 105.361 34.1407 105.557 34.1383 105.772V106.663C34.1383 106.933 34.188 107.166 34.2875 107.363C34.3893 107.559 34.5325 107.711 34.7172 107.817C34.9018 107.924 35.1208 107.977 35.3741 107.977C35.5422 107.977 35.6961 107.954 35.8358 107.906C35.9754 107.859 36.095 107.788 36.1944 107.693C36.2939 107.598 36.3696 107.482 36.4217 107.345L37.8208 107.438C37.7498 107.774 37.6042 108.067 37.3841 108.318C37.1663 108.567 36.8845 108.761 36.5389 108.901C36.1956 109.038 35.7991 109.107 35.3493 109.107ZM41.3258 109.107C40.7647 109.107 40.2818 108.993 39.877 108.766C39.4745 108.536 39.1644 108.212 38.9466 107.793C38.7288 107.371 38.6199 106.873 38.6199 106.298C38.6199 105.737 38.7288 105.244 38.9466 104.82C39.1644 104.397 39.4709 104.066 39.8663 103.83C40.264 103.593 40.7304 103.474 41.2654 103.474C41.6253 103.474 41.9603 103.532 42.2704 103.648C42.5829 103.762 42.8552 103.934 43.0872 104.163C43.3216 104.393 43.5038 104.682 43.6341 105.03C43.7643 105.375 43.8294 105.78 43.8294 106.244V106.66H39.2235V105.722H42.4054C42.4054 105.504 42.358 105.312 42.2633 105.143C42.1686 104.975 42.0372 104.844 41.8691 104.749C41.7034 104.652 41.5105 104.604 41.2903 104.604C41.0607 104.604 40.8571 104.657 40.6795 104.763C40.5043 104.868 40.367 105.009 40.2676 105.186C40.1681 105.361 40.1172 105.557 40.1149 105.772V106.663C40.1149 106.933 40.1646 107.166 40.264 107.363C40.3658 107.559 40.5091 107.711 40.6937 107.817C40.8784 107.924 41.0974 107.977 41.3507 107.977C41.5188 107.977 41.6726 107.954 41.8123 107.906C41.952 107.859 42.0716 107.788 42.171 107.693C42.2704 107.598 42.3462 107.482 42.3983 107.345L43.7974 107.438C43.7264 107.774 43.5808 108.067 43.3606 108.318C43.1428 108.567 42.8611 108.761 42.5154 108.901C42.1722 109.038 41.7756 109.107 41.3258 109.107ZM46.3294 105.847V109H44.8166V103.545H46.2583V104.508H46.3223C46.443 104.191 46.6454 103.94 46.9295 103.755C47.2136 103.568 47.5581 103.474 47.9629 103.474C48.3417 103.474 48.6719 103.557 48.9537 103.723C49.2354 103.889 49.4544 104.125 49.6106 104.433C49.7669 104.739 49.845 105.103 49.845 105.527V109H48.3322V105.797C48.3346 105.463 48.2493 105.203 48.0765 105.016C47.9037 104.826 47.6658 104.732 47.3627 104.732C47.1592 104.732 46.9792 104.775 46.823 104.863C46.6691 104.951 46.5484 105.078 46.4608 105.246C46.3755 105.412 46.3317 105.612 46.3294 105.847ZM55.5756 105.101L54.1907 105.186C54.167 105.068 54.1161 104.961 54.038 104.866C53.9599 104.769 53.8569 104.692 53.729 104.636C53.6036 104.576 53.4532 104.547 53.2781 104.547C53.0437 104.547 52.846 104.597 52.685 104.696C52.524 104.793 52.4435 104.923 52.4435 105.087C52.4435 105.217 52.4956 105.327 52.5998 105.417C52.704 105.507 52.8827 105.579 53.136 105.634L54.1232 105.832C54.6535 105.941 55.0489 106.116 55.3093 106.358C55.5697 106.599 55.6999 106.917 55.6999 107.31C55.6999 107.667 55.5946 107.981 55.3839 108.251C55.1755 108.521 54.8891 108.731 54.5245 108.883C54.1623 109.032 53.7444 109.107 53.271 109.107C52.5489 109.107 51.9736 108.956 51.5451 108.656C51.119 108.353 50.8692 107.941 50.7958 107.42L52.2837 107.342C52.3287 107.562 52.4376 107.73 52.6104 107.846C52.7833 107.96 53.0046 108.016 53.2745 108.016C53.5397 108.016 53.7527 107.965 53.9137 107.864C54.0771 107.759 54.1599 107.626 54.1623 107.462C54.1599 107.325 54.1019 107.213 53.9883 107.125C53.8746 107.035 53.6995 106.966 53.4627 106.919L52.5181 106.731C51.9854 106.624 51.5889 106.44 51.3285 106.177C51.0704 105.914 50.9414 105.579 50.9414 105.172C50.9414 104.821 51.0361 104.52 51.2255 104.266C51.4173 104.013 51.686 103.818 52.0316 103.68C52.3796 103.543 52.7868 103.474 53.2532 103.474C53.9421 103.474 54.4843 103.62 54.8796 103.911C55.2773 104.202 55.5094 104.599 55.5756 105.101ZM58.1653 105.847V109H56.6525V101.727H58.1227V104.508H58.1866C58.3097 104.186 58.5086 103.934 58.7832 103.751C59.0578 103.567 59.4023 103.474 59.8166 103.474C60.1954 103.474 60.5256 103.557 60.8074 103.723C61.0914 103.886 61.3116 104.122 61.4679 104.43C61.6265 104.735 61.7046 105.101 61.7022 105.527V109H60.1895V105.797C60.1918 105.461 60.1066 105.199 59.9338 105.012C59.7633 104.825 59.5242 104.732 59.2164 104.732C59.0105 104.732 58.8282 104.775 58.6696 104.863C58.5133 104.951 58.3902 105.078 58.3002 105.246C58.2127 105.412 58.1677 105.612 58.1653 105.847ZM65.3572 109.107C64.8056 109.107 64.3286 108.989 63.9261 108.755C63.526 108.518 63.2171 108.189 62.9993 107.768C62.7815 107.344 62.6726 106.853 62.6726 106.294C62.6726 105.731 62.7815 105.238 62.9993 104.817C63.2171 104.393 63.526 104.064 63.9261 103.83C64.3286 103.593 64.8056 103.474 65.3572 103.474C65.9089 103.474 66.3847 103.593 66.7848 103.83C67.1873 104.064 67.4974 104.393 67.7152 104.817C67.933 105.238 68.0419 105.731 68.0419 106.294C68.0419 106.853 67.933 107.344 67.7152 107.768C67.4974 108.189 67.1873 108.518 66.7848 108.755C66.3847 108.989 65.9089 109.107 65.3572 109.107ZM65.3643 107.935C65.6153 107.935 65.8248 107.864 65.9929 107.722C66.161 107.577 66.2876 107.381 66.3729 107.132C66.4605 106.884 66.5043 106.601 66.5043 106.283C66.5043 105.966 66.4605 105.683 66.3729 105.435C66.2876 105.186 66.161 104.99 65.9929 104.845C65.8248 104.701 65.6153 104.629 65.3643 104.629C65.111 104.629 64.898 104.701 64.7251 104.845C64.5547 104.99 64.4257 105.186 64.3381 105.435C64.2528 105.683 64.2102 105.966 64.2102 106.283C64.2102 106.601 64.2528 106.884 64.3381 107.132C64.4257 107.381 64.5547 107.577 64.7251 107.722C64.898 107.864 65.111 107.935 65.3643 107.935ZM71.9268 103.545V104.682H68.642V103.545H71.9268ZM69.3878 102.239H70.9006V107.324C70.9006 107.464 70.9219 107.572 70.9645 107.651C71.0071 107.726 71.0663 107.78 71.142 107.81C71.2202 107.841 71.3101 107.857 71.4119 107.857C71.483 107.857 71.554 107.851 71.625 107.839C71.696 107.825 71.7505 107.814 71.7884 107.807L72.0263 108.933C71.9505 108.956 71.844 108.983 71.7067 109.014C71.5694 109.047 71.4025 109.067 71.206 109.075C70.8414 109.089 70.5218 109.04 70.2472 108.929C69.9749 108.818 69.763 108.645 69.6115 108.411C69.46 108.176 69.3854 107.88 69.3878 107.523V102.239Z" fill="black"/>
</svg>
