<svg width="104" height="147" viewBox="0 0 104 147" fill="none" xmlns="http://www.w3.org/2000/svg">
<path d="M7.15527 132.047H10.4502C11.1976 132.047 11.8288 132.161 12.3438 132.389C12.8633 132.617 13.2575 132.954 13.5264 133.4C13.7998 133.842 13.9365 134.387 13.9365 135.034C13.9365 135.49 13.8431 135.907 13.6562 136.285C13.474 136.659 13.2096 136.978 12.8633 137.242C12.5215 137.502 12.1113 137.696 11.6328 137.823L11.2637 137.967H8.16699L8.15332 136.894H10.4912C10.9652 136.894 11.3594 136.812 11.6738 136.647C11.9883 136.479 12.2253 136.253 12.3848 135.971C12.5443 135.688 12.624 135.376 12.624 135.034C12.624 134.651 12.5488 134.316 12.3984 134.029C12.248 133.742 12.0111 133.521 11.6875 133.366C11.3685 133.207 10.9561 133.127 10.4502 133.127H8.47461V142H7.15527V132.047ZM12.9727 142L10.5527 137.488L11.9268 137.481L14.3809 141.918V142H12.9727ZM24.8453 136.709V137.338C24.8453 138.085 24.7519 138.755 24.565 139.348C24.3782 139.94 24.1093 140.444 23.7584 140.858C23.4075 141.273 22.9859 141.59 22.4937 141.809C22.0061 142.027 21.4592 142.137 20.8531 142.137C20.2652 142.137 19.7252 142.027 19.233 141.809C18.7454 141.59 18.3215 141.273 17.9615 140.858C17.6061 140.444 17.3303 139.94 17.1344 139.348C16.9384 138.755 16.8404 138.085 16.8404 137.338V136.709C16.8404 135.962 16.9361 135.294 17.1275 134.706C17.3235 134.114 17.5992 133.61 17.9547 133.195C18.3102 132.776 18.7317 132.457 19.2193 132.238C19.7115 132.02 20.2516 131.91 20.8395 131.91C21.4456 131.91 21.9924 132.02 22.4801 132.238C22.9723 132.457 23.3938 132.776 23.7447 133.195C24.1002 133.61 24.3714 134.114 24.5582 134.706C24.7496 135.294 24.8453 135.962 24.8453 136.709ZM23.5396 137.338V136.695C23.5396 136.103 23.4781 135.579 23.3551 135.123C23.2366 134.667 23.0611 134.285 22.8287 133.975C22.5963 133.665 22.3115 133.43 21.9742 133.271C21.6415 133.111 21.2633 133.031 20.8395 133.031C20.4293 133.031 20.0579 133.111 19.7252 133.271C19.3971 133.43 19.1145 133.665 18.8775 133.975C18.6451 134.285 18.4651 134.667 18.3375 135.123C18.2099 135.579 18.1461 136.103 18.1461 136.695V137.338C18.1461 137.935 18.2099 138.464 18.3375 138.924C18.4651 139.38 18.6474 139.765 18.8844 140.079C19.1259 140.389 19.4107 140.624 19.7389 140.783C20.0715 140.943 20.443 141.022 20.8531 141.022C21.2815 141.022 21.662 140.943 21.9947 140.783C22.3274 140.624 22.6077 140.389 22.8355 140.079C23.068 139.765 23.2434 139.38 23.3619 138.924C23.4804 138.464 23.5396 137.935 23.5396 137.338ZM31.7687 137.345H29.2463L29.2326 136.285H31.5227C31.9009 136.285 32.2313 136.221 32.5139 136.094C32.7964 135.966 33.0152 135.784 33.1701 135.547C33.3296 135.305 33.4094 135.018 33.4094 134.686C33.4094 134.321 33.3387 134.025 33.1975 133.797C33.0607 133.564 32.8488 133.396 32.5617 133.291C32.2792 133.182 31.9191 133.127 31.4816 133.127H29.5402V142H28.2209V132.047H31.4816C31.9921 132.047 32.4478 132.099 32.8488 132.204C33.2499 132.304 33.5894 132.464 33.8674 132.683C34.1499 132.897 34.3641 133.17 34.51 133.503C34.6558 133.836 34.7287 134.234 34.7287 134.699C34.7287 135.109 34.6239 135.481 34.4143 135.813C34.2046 136.142 33.913 136.41 33.5393 136.62C33.1701 136.83 32.7372 136.964 32.2404 137.023L31.7687 137.345ZM31.7072 142H28.7268L29.4719 140.927H31.7072C32.1265 140.927 32.482 140.854 32.7736 140.708C33.0699 140.562 33.2954 140.357 33.4504 140.093C33.6053 139.824 33.6828 139.507 33.6828 139.143C33.6828 138.773 33.6167 138.454 33.4846 138.186C33.3524 137.917 33.1451 137.709 32.8625 137.563C32.5799 137.418 32.2154 137.345 31.7687 137.345H29.8889L29.9025 136.285H32.4729L32.7531 136.668C33.2316 136.709 33.6372 136.846 33.9699 137.078C34.3026 137.306 34.5555 137.598 34.7287 137.953C34.9064 138.309 34.9953 138.701 34.9953 139.129C34.9953 139.749 34.8586 140.273 34.5852 140.701C34.3163 141.125 33.9357 141.449 33.4436 141.672C32.9514 141.891 32.3726 142 31.7072 142ZM44.6668 140.927V142H39.3963V140.927H44.6668ZM39.6629 132.047V142H38.3436V132.047H39.6629ZM43.9695 136.326V137.399H39.3963V136.326H43.9695ZM44.5984 132.047V133.127H39.3963V132.047H44.5984ZM47.7006 132.047H50.9955C51.7429 132.047 52.3741 132.161 52.8891 132.389C53.4086 132.617 53.8028 132.954 54.0717 133.4C54.3451 133.842 54.4818 134.387 54.4818 135.034C54.4818 135.49 54.3884 135.907 54.2016 136.285C54.0193 136.659 53.7549 136.978 53.4086 137.242C53.0668 137.502 52.6566 137.696 52.1781 137.823L51.809 137.967H48.7123L48.6986 136.894H51.0365C51.5105 136.894 51.9047 136.812 52.2191 136.647C52.5336 136.479 52.7706 136.253 52.9301 135.971C53.0896 135.688 53.1693 135.376 53.1693 135.034C53.1693 134.651 53.0941 134.316 52.9437 134.029C52.7934 133.742 52.5564 133.521 52.2328 133.366C51.9138 133.207 51.5014 133.127 50.9955 133.127H49.0199V142H47.7006V132.047ZM53.518 142L51.098 137.488L52.4721 137.481L54.9262 141.918V142H53.518ZM60.8584 132.047V142H59.5596V132.047H60.8584ZM64.0576 132.047V133.127H56.3672V132.047H64.0576ZM77.5695 140.927V142H72.593V140.927H77.5695ZM72.8527 132.047V142H71.5334V132.047H72.8527ZM86.8035 140.927V142H81.533V140.927H86.8035ZM81.7996 132.047V142H80.4803V132.047H81.7996ZM86.1062 136.326V137.399H81.533V136.326H86.1062ZM86.7352 132.047V133.127H81.533V132.047H86.7352ZM96.1605 140.927V142H90.89V140.927H96.1605ZM91.1566 132.047V142H89.8373V132.047H91.1566ZM95.4633 136.326V137.399H90.89V136.326H95.4633ZM96.0922 132.047V133.127H90.89V132.047H96.0922Z" fill="black"/>
<path d="M103.984 101.219L102.578 121H50.5938V117.672C51.3438 117.609 52.4219 117.5 53.8281 117.344C55.2656 117.188 56.2656 116.984 56.8281 116.734C57.7656 116.328 58.4375 115.734 58.8438 114.953C59.2812 114.172 59.5 113.172 59.5 111.953V64.3281C59.5 63.2656 59.3125 62.3281 58.9375 61.5156C58.5938 60.7031 57.8906 60.0469 56.8281 59.5469C56.1094 59.1719 55.0938 58.8125 53.7812 58.4688C52.5 58.0938 51.4375 57.875 50.5938 57.8125V54.4844H78.6719V57.8125C77.7969 57.8438 76.6562 58 75.25 58.2812C73.875 58.5625 72.875 58.8125 72.25 59.0312C71.1875 59.4062 70.4531 60.0469 70.0469 60.9531C69.6719 61.8594 69.4844 62.8281 69.4844 63.8594V108.531C69.4844 110.594 69.5781 112.203 69.7656 113.359C69.9844 114.484 70.4688 115.359 71.2188 115.984C71.9375 116.547 73 116.922 74.4062 117.109C75.8438 117.266 77.8438 117.344 80.4062 117.344C81.5625 117.344 82.7656 117.312 84.0156 117.25C85.2656 117.188 86.4531 117.062 87.5781 116.875C88.6719 116.688 89.6719 116.438 90.5781 116.125C91.5156 115.781 92.2031 115.359 92.6406 114.859C93.9219 113.422 95.4062 111.25 97.0938 108.344C98.8125 105.406 100 103.031 100.656 101.219H103.984Z" fill="black"/>
<path d="M69.375 88H51.4688C47.5 81.7812 43.9062 76.4062 40.6875 71.875C37.5 67.3438 34.0312 62.6719 30.2812 57.8594H23.4844V78.9531C23.4844 80.0469 23.6562 81.0156 24 81.8594C24.3438 82.6719 25.0781 83.2969 26.2031 83.7344C26.7656 83.9531 27.75 84.1562 29.1562 84.3438C30.5625 84.5312 31.75 84.6406 32.7188 84.6719V88H4.59375V84.6719C5.34375 84.6094 6.42188 84.5 7.82812 84.3438C9.26562 84.1875 10.2656 83.9844 10.8281 83.7344C11.7656 83.3281 12.4375 82.7344 12.8438 81.9531C13.2812 81.1719 13.5 80.1719 13.5 78.9531V30.8594C13.5 29.7656 13.3438 28.7969 13.0312 27.9531C12.7188 27.1094 11.9844 26.4687 10.8281 26.0312C10.0469 25.75 9.03125 25.5 7.78125 25.2812C6.53125 25.0313 5.46875 24.875 4.59375 24.8125V21.4844H35.2969C38.1094 21.4844 40.75 21.7812 43.2188 22.375C45.6875 22.9375 47.9219 23.8594 49.9219 25.1406C51.8594 26.3906 53.4062 28.0313 54.5625 30.0625C55.7188 32.0625 56.2969 34.4844 56.2969 37.3281C56.2969 39.8906 55.9062 42.1562 55.125 44.125C54.3438 46.0938 53.1875 47.7969 51.6562 49.2344C50.25 50.5781 48.5625 51.75 46.5938 52.75C44.625 53.7188 42.4531 54.5469 40.0781 55.2344C43.3594 59.5781 46.0781 63.2344 48.2344 66.2031C50.4219 69.1719 53.0938 72.7812 56.25 77.0312C57.625 78.9062 58.8594 80.2969 59.9531 81.2031C61.0781 82.0781 62.1875 82.7969 63.2812 83.3594C64.0938 83.7656 65.1094 84.0781 66.3281 84.2969C67.5469 84.5156 68.5625 84.6406 69.375 84.6719V88ZM44.7188 38.4062C44.7188 34.375 43.5625 31.1875 41.25 28.8438C38.9375 26.4687 35.6719 25.2812 31.4531 25.2812H23.4844V53.8281H29.625C33.9375 53.8281 37.5312 52.4531 40.4062 49.7031C43.2812 46.9219 44.7188 43.1562 44.7188 38.4062Z" fill="black"/>
</svg>
