<?xml version="1.0" encoding="UTF-8" standalone="no"?>
<svg
   width="113"
   height="90"
   viewBox="0 0 113 90"
   fill="none"
   version="1.1"
   id="svg1210"
   sodipodi:docname="Shop.svg"
   inkscape:version="1.1.2 (b8e25be833, 2022-02-05)"
   xmlns:inkscape="http://www.inkscape.org/namespaces/inkscape"
   xmlns:sodipodi="http://sodipodi.sourceforge.net/DTD/sodipodi-0.dtd"
   xmlns="http://www.w3.org/2000/svg"
   xmlns:svg="http://www.w3.org/2000/svg">
  <defs
     id="defs1214" />
  <sodipodi:namedview
     id="namedview1212"
     pagecolor="#505050"
     bordercolor="#eeeeee"
     borderopacity="1"
     inkscape:pageshadow="0"
     inkscape:pageopacity="0"
     inkscape:pagecheckerboard="0"
     showgrid="false"
     inkscape:zoom="9.3444444"
     inkscape:cx="56.450654"
     inkscape:cy="45"
     inkscape:window-width="1920"
     inkscape:window-height="1028"
     inkscape:window-x="-6"
     inkscape:window-y="-6"
     inkscape:window-maximized="1"
     inkscape:current-layer="svg1210" />
  <path
     d="M0 27.2812C0 25.998 0.378457 24.75 1.08773 23.6777L14.3701 3.75643C15.1404 2.60006 16.1846 1.65201 17.4098 0.996641C18.635 0.341272 20.0031 -0.00109974 21.3926 -1.26782e-05H91.1074C93.9375 -1.26782e-05 96.5566 1.40993 98.1211 3.75643L111.41 23.6777C112.113 24.75 112.5 25.998 112.5 27.2812C112.5 30.8496 109.6 33.75 106.031 33.75H6.47578C2.90039 33.75 0 30.8496 0 27.2812ZM11.25 39.375H22.5V67.5H56.25V39.375H67.5V81.5625C67.5 86.2207 63.7207 90 59.0625 90H19.6875C15.0275 90 11.25 86.2207 11.25 81.5625V39.375ZM90 39.375H101.25V84.375C101.25 87.4863 98.7363 90 95.625 90C92.5137 90 90 87.4863 90 84.375V39.375Z"
     fill="black"
     id="path1208" />
  <path
     style="fill:#black;stroke-width:0.107015"
     d="M 5.1590683,33.546657 C 2.9077263,33.057791 1.0626451,31.37315 0.36710797,29.171386 -0.10747478,27.669066 0.02859528,25.822812 0.71351547,24.471186 0.86184417,24.178473 4.1015632,19.262883 7.9128911,13.547652 14.352791,3.8907773 14.903827,3.0987047 15.70914,2.3411236 c 0.605762,-0.5698575 1.150135,-0.9605902 1.808794,-1.2982918 1.150202,-0.58972109 1.847561,-0.79632086 3.151503,-0.93366629 1.340835,-0.14123125 69.734815,-0.14238605 71.186519,-0.001202 1.966711,0.19127057 3.775538,1.04077109 5.156452,2.42168629 0.533224,0.5332232 2.243833,3.0186168 7.539852,10.9548622 3.76758,5.645839 6.99076,10.543809 7.16263,10.884379 0.50557,1.001802 0.69271,1.79068 0.69271,2.920051 0,2.432774 -1.33306,4.603952 -3.47502,5.659847 -1.68091,0.828604 3.27216,0.758113 -52.749465,0.750715 -42.145096,-0.0056 -50.4604961,-0.03048 -51.0240467,-0.152847 z"
     id="path1310" />
  <path
     style="fill:#black;stroke-width:0.107015"
     d="M 18.789989,89.883681 C 17.738553,89.771052 16.788081,89.470139 15.677765,88.89837 15.017166,88.558188 14.58843,88.224263 13.800503,87.436241 12.936925,86.572561 12.701316,86.258115 12.273542,85.398335 11.99534,84.83918 11.672302,84.000769 11.55568,83.5352 11.347789,82.705283 11.343639,82.264823 11.343639,61.0352 V 39.381688 h 5.564803 5.564804 V 53.454221 67.526754 H 39.381688 56.290131 V 53.454221 39.381688 h 5.564804 5.564803 l -0.0019,21.590369 c -0.002,23.352095 0.0256,22.20254 -0.568508,23.673391 -1.005783,2.49007 -3.060839,4.282696 -5.797054,5.056774 l -0.856123,0.242197 -20.27943,0.01502 c -11.153686,0.0083 -20.660735,-0.02583 -21.126776,-0.07575 z"
     id="path1349" />
  <path
     style="fill:#black;stroke-width:0.107015"
     d="m 94.913557,89.877741 c -1.602738,-0.160739 -3.242732,-1.241819 -4.09816,-2.701496 -0.144525,-0.246613 -0.375073,-0.759568 -0.512331,-1.139902 l -0.249558,-0.691515 -0.02912,-22.98157 -0.02912,-22.98157 h 5.622587 5.622585 l -0.0287,22.98157 -0.0287,22.98157 -0.23695,0.6956 c -0.88783,2.606408 -3.260062,4.115373 -6.032609,3.837313 z"
     id="path1388" />
</svg>
