<?xml version="1.0" encoding="UTF-8" standalone="no"?>
<svg
   width="68"
   height="77"
   viewBox="0 0 68 77"
   fill="none"
   version="1.1"
   id="svg4"
   sodipodi:docname="Shop_Cart.svg"
   inkscape:version="1.1.2 (b8e25be833, 2022-02-05)"
   xmlns:inkscape="http://www.inkscape.org/namespaces/inkscape"
   xmlns:sodipodi="http://sodipodi.sourceforge.net/DTD/sodipodi-0.dtd"
   xmlns="http://www.w3.org/2000/svg"
   xmlns:svg="http://www.w3.org/2000/svg">
  <defs
     id="defs8" />
  <sodipodi:namedview
     id="namedview6"
     pagecolor="#505050"
     bordercolor="#eeeeee"
     borderopacity="1"
     inkscape:pageshadow="0"
     inkscape:pageopacity="0"
     inkscape:pagecheckerboard="0"
     showgrid="false"
     inkscape:zoom="10.922078"
     inkscape:cx="34.013674"
     inkscape:cy="37.126635"
     inkscape:window-width="1920"
     inkscape:window-height="1028"
     inkscape:window-x="-6"
     inkscape:window-y="-6"
     inkscape:window-maximized="1"
     inkscape:current-layer="svg4" />
  <path
     d="M49.4999 18C50.6933 18 51.8379 18.4741 52.6819 19.318C53.5258 20.1619 53.9999 21.3065 53.9999 22.5V32.4315C52.5289 32.0151 51.0224 31.7364 49.4999 31.599V22.5H35.9999V34.2C34.3969 35.019 32.888 36.0104 31.4999 37.1565V22.5H4.49987V58.5C4.49442 59.6826 4.72482 60.8545 5.1776 61.9471C5.63039 63.0396 6.29646 64.0309 7.13687 64.863C8.82929 66.5435 11.1149 67.4907 13.4999 67.5H25.1999C26.0234 69.111 27.0179 70.6185 28.1564 72H13.4999C9.92856 71.9992 6.50305 70.5834 3.97337 68.0625C2.7387 66.8305 1.74918 65.3752 1.05737 63.774C0.346457 62.1073 -0.0135233 60.312 -0.000127709 58.5V22.5C-0.000127709 21.3065 0.473979 20.1619 1.31789 19.318C2.16181 18.4741 3.3064 18 4.49987 18H8.99987V11.25C8.99987 9.702 9.29237 8.2485 9.87737 6.8895C10.4624 5.508 11.2724 4.311 12.3029 3.303C13.3109 2.2725 14.5079 1.4625 15.8894 0.8775C17.2484 0.2925 18.7019 5.15873e-07 20.2499 5.15873e-07C21.5144 5.15873e-07 22.7204 0.198 23.8724 0.5985C25.0244 0.999 26.0774 1.5615 27.0359 2.286C28.9597 0.80287 31.3207 -0.0010183 33.7499 5.15873e-07C35.9672 -0.009885 38.1373 0.639885 39.9843 1.86668C41.8313 3.09347 43.2717 4.84186 44.1224 6.8895C44.7074 8.2485 44.9999 9.702 44.9999 11.25V18H49.4999ZM40.4999 11.25C40.4999 10.314 40.3244 9.432 39.9734 8.613C39.464 7.38529 38.5994 6.3378 37.4905 5.60494C36.3816 4.87209 35.079 4.48732 33.7499 4.5C32.3684 4.5 31.1264 4.887 30.0239 5.661C30.9937 7.36388 31.5025 9.29032 31.4999 11.25V18H40.4999V11.25ZM13.4999 18H26.9999V11.25C26.9999 10.314 26.8244 9.432 26.4734 8.613C25.964 7.38529 25.0994 6.3378 23.9905 5.60494C22.8816 4.87209 21.579 4.48732 20.2499 4.5C19.3139 4.5 18.4319 4.6755 17.6129 5.0265C16.3852 5.53587 15.3377 6.40048 14.6048 7.50938C13.872 8.61828 13.4872 9.92088 13.4999 11.25V18ZM47.2499 76.5C52.6205 76.5 57.7712 74.3665 61.5688 70.5689C65.3664 66.7713 67.4999 61.6206 67.4999 56.25C67.4999 50.8794 65.3664 45.7287 61.5688 41.9311C57.7712 38.1335 52.6205 36 47.2499 36C41.8792 36 36.7286 38.1335 32.931 41.9311C29.1334 45.7287 26.9999 50.8794 26.9999 56.25C26.9999 61.6206 29.1334 66.7713 32.931 70.5689C36.7286 74.3665 41.8792 76.5 47.2499 76.5ZM36.6479 54.6705L45.6614 45.657C46.0839 45.2351 46.6566 44.9983 47.2537 44.9987C47.8508 44.9992 48.4232 45.2368 48.8451 45.6592C49.267 46.0817 49.5038 46.6545 49.5034 47.2516C49.503 47.8487 49.2654 48.4211 48.8429 48.843L43.6814 54H56.2499C56.8466 54 57.4189 54.2371 57.8409 54.659C58.2628 55.081 58.4999 55.6533 58.4999 56.25C58.4999 56.8467 58.2628 57.419 57.8409 57.841C57.4189 58.2629 56.8466 58.5 56.2499 58.5H43.6814L48.8429 63.657C49.2654 64.0795 49.5027 64.6525 49.5027 65.25C49.5027 65.8475 49.2654 66.4205 48.8429 66.843C48.4204 67.2655 47.8474 67.5028 47.2499 67.5028C46.6524 67.5028 46.0794 67.2655 45.6569 66.843L36.6569 57.843C36.2385 57.4235 36.0024 56.856 35.9999 56.2635V56.2365C36.0035 55.65 36.236 55.0881 36.6479 54.6705Z"
     fill="black"
     id="path2" />
  <path
     style="fill:#black;stroke-width:0.0915577"
     d="M 44.92804,76.317645 C 37.01175,75.308469 30.513562,69.996602 28.07574,62.541934 27.340186,60.292665 27.081518,58.632266 27.083179,56.17063 c 0.0027,-4.074279 1.140917,-7.789318 3.436164,-11.215814 3.285402,-4.904668 8.749528,-8.174036 14.702315,-8.796886 1.294126,-0.135406 4.02104,-0.0616 5.226618,0.141457 8.803459,1.482801 15.481422,8.302659 16.813042,17.170292 0.189928,1.264779 0.214328,3.93449 0.0477,5.218787 -1.166137,8.987986 -7.898944,15.977187 -16.860739,17.502818 -1.390714,0.236752 -4.157498,0.300085 -5.520236,0.126361 z m 3.413564,-9.053814 c 0.77785,-0.393189 1.249898,-1.28454 1.171124,-2.211388 -0.07194,-0.846442 -0.237425,-1.053594 -3.072515,-3.846141 l -2.695621,-2.655172 6.632281,-0.04578 6.632281,-0.04578 0.448115,-0.277094 c 1.49593,-0.925011 1.374989,-3.214088 -0.211081,-3.995178 l -0.434654,-0.214054 -6.47837,-0.04578 -6.47837,-0.04578 2.619506,-2.609393 c 2.878551,-2.867438 3.057545,-3.103434 3.055494,-4.028538 -0.0019,-0.863947 -0.466834,-1.634368 -1.233123,-2.04342 -0.567901,-0.303151 -1.603112,-0.281095 -2.151606,0.04584 -0.22739,0.135539 -2.512643,2.35096 -5.099955,4.944114 -5.100824,5.11234 -5.058925,5.062051 -5.058925,6.071896 0,1.009173 -0.03828,0.963154 5.013154,6.026122 2.553188,2.559016 4.820641,4.758861 5.038785,4.888545 0.218145,0.129683 0.527152,0.268833 0.686683,0.309222 0.435404,0.110233 1.15464,0.01137 1.616797,-0.222246 z"
     id="path1047" />
  <path
     style="fill:#black;stroke-width:0.0915577"
     d="M 11.681383,71.821869 C 5.8893132,71.033319 1.2428077,66.527387 0.21535871,60.702735 0.05392418,59.787556 0.04577883,58.828847 0.04577883,40.743163 V 21.744946 L 0.25890642,21.149822 C 0.65403751,20.046481 1.3104493,19.248249 2.3203739,18.642968 3.1972653,18.117418 3.7643835,18.036861 6.5873367,18.036861 h 2.4768726 v -3.924987 c 0,-4.3168651 0.045859,-4.841258 0.5567274,-6.3660976 1.2758793,-3.8082431 4.5079433,-6.6791709 8.4106903,-7.47091501 0.697322,-0.14146463 1.292102,-0.19373771 2.197384,-0.1931202 2.292318,0.0015636 4.151545,0.53842731 6.02375,1.73939701 0.401096,0.2572919 0.75831,0.4678035 0.79381,0.4678035 0.0355,0 0.300581,-0.1602881 0.589069,-0.356196 2.969373,-2.01646306 6.828212,-2.43159532 10.232621,-1.10082113 1.420895,0.55542383 2.472632,1.24995003 3.662198,2.41837273 1.691655,1.6615875 2.657639,3.3881666 3.201534,5.7223543 0.13642,0.5854628 0.165599,1.3041204 0.197958,4.8754464 l 0.03795,4.188763 h 2.461007 c 1.442947,0 2.661715,0.04186 2.94619,0.101178 1.614789,0.336744 2.921846,1.560808 3.404819,3.188626 0.128191,0.432058 0.147547,1.185752 0.147547,5.745244 0,3.199547 -0.03346,5.247948 -0.08572,5.247948 -0.04715,0 -0.503539,-0.101168 -1.0142,-0.224818 -0.510661,-0.12365 -1.460907,-0.296957 -2.111659,-0.385125 L 49.5327,31.549606 v -4.558988 -4.558989 h -6.775267 -6.775268 v 5.849376 5.849377 l -0.846908,0.479963 C 34.148262,35.1697 32.853463,36.024066 32.136742,36.5889 l -0.503567,0.396852 -0.04578,-7.254172 -0.04578,-7.254172 -13.52893,-0.02319 -13.5289305,-0.02319 0.024174,18.838292 0.024174,18.838293 0.2076179,0.732461 c 0.2998676,1.057912 1.0161997,2.449043 1.7089625,3.318839 1.1484024,1.441872 2.9590267,2.601273 4.8586871,3.111173 l 0.915577,0.245757 6.470536,0.03239 6.470535,0.03239 0.47722,0.841377 c 0.468049,0.825208 1.411851,2.246327 2.063723,3.107429 l 0.329228,0.434899 -7.722506,-0.0094 c -5.929475,-0.0072 -7.933279,-0.03813 -8.630302,-0.133025 z M 26.991003,13.939655 26.963734,9.8424495 26.676724,9.040293 C 26.274832,7.9170495 25.887046,7.3045041 25.041008,6.4565174 23.727708,5.1401931 22.439033,4.5813449 20.554697,4.5109795 19.204585,4.4605634 18.384269,4.6148945 17.350178,5.1138658 15.548832,5.9830547 14.365341,7.3468476 13.723462,9.2931034 13.517859,9.9165169 13.511203,10.044572 13.47955,13.985434 l -0.03254,4.051427 h 6.785634 6.785633 z m 13.544832,0.137337 C 40.495505,9.6904592 40.48232,9.5754032 39.872727,8.29081 39.211956,6.8983676 38.116803,5.8124514 36.668847,5.1139525 34.860708,4.2417004 32.569633,4.2633923 30.769737,5.1698054 30.409222,5.351358 30.092743,5.5559598 30.066451,5.624476 c -0.02629,0.068516 0.07341,0.3657738 0.221567,0.6605726 0.390905,0.7778303 0.719139,1.7392987 0.941147,2.7568319 0.177078,0.8116062 0.198844,1.2577935 0.241153,4.9435535 l 0.04651,4.051427 h 4.527709 4.527709 z"
     id="path1086" />
  <path
     style="fill:#black;stroke-width:0.0915577"
     d="M 44.817479,76.258725 C 36.734812,75.110484 30.285931,69.661579 27.971034,62.024521 26.77792,58.088325 26.847852,53.704997 28.165949,49.807372 c 0.399901,-1.182511 1.292741,-3.061376 1.986184,-4.179665 2.62188,-4.228205 6.800795,-7.356323 11.714673,-8.768992 1.983557,-0.570244 2.64463,-0.648014 5.468509,-0.64332 2.481093,0.0041 2.666931,0.01656 3.77959,0.252888 7.542259,1.601978 13.277711,6.882782 15.496544,14.268134 0.832925,2.77238 1.00666,6.332622 0.448364,9.188077 -0.925611,4.73413 -3.418594,8.915996 -7.111917,11.929919 -2.926385,2.388067 -6.954304,4.071289 -10.552534,4.409785 -1.173616,0.110406 -3.784161,0.107285 -4.577883,-0.0055 z m 3.492243,-8.946962 c 0.469158,-0.239569 1.010586,-0.858258 1.131273,-1.292701 0.154614,-0.556573 0.109958,-1.283117 -0.106921,-1.739561 -0.139879,-0.294388 -0.966721,-1.192131 -2.795595,-3.035313 l -2.59697,-2.617285 4.550242,-0.06078 c 2.502634,-0.03343 5.450709,-0.06078 6.551279,-0.06078 1.956106,0 2.008875,-0.0049 2.350149,-0.220384 0.756357,-0.477468 1.116639,-1.125198 1.123506,-2.019887 0.0073,-0.954787 -0.459078,-1.728989 -1.300074,-2.158033 -0.317938,-0.162201 -0.545835,-0.179579 -2.354875,-0.179579 -1.101579,0 -3.987471,-0.02733 -6.413094,-0.06073 L 44.038419,53.806 46.487997,51.326005 c 1.347267,-1.363996 2.57318,-2.661876 2.72425,-2.884175 0.252956,-0.372225 0.274673,-0.466899 0.274673,-1.19743 0,-0.723161 -0.02448,-0.832848 -0.277094,-1.241436 -0.171983,-0.278177 -0.447257,-0.553298 -0.725684,-0.725281 -0.408744,-0.25248 -0.51893,-0.277094 -1.240415,-0.277094 -0.703073,0 -0.832108,0.02701 -1.151247,0.240939 -0.463715,0.31085 -6.616154,6.368965 -8.389522,8.2609 -0.748499,0.798544 -1.441882,1.610621 -1.54085,1.804617 -0.246153,0.482498 -0.246153,1.427776 0,1.910275 0.267524,0.524392 2.486249,2.848336 6.279799,6.577609 3.798825,3.734457 3.903346,3.814546 4.893408,3.749565 0.356948,-0.02343 0.746918,-0.116572 0.974407,-0.232736 z"
     id="path7304" />
</svg>
