<svg width="228" height="227" viewBox="0 0 228 227" fill="none" xmlns="http://www.w3.org/2000/svg">
<rect x="0.908203" width="226.456" height="226.456" rx="13.5874" fill="#4F4F4F"/>
<path d="M60.888 130.48C57.688 130.48 55.032 130.032 52.92 129.136C50.808 128.208 49.208 127.008 48.12 125.536C47.032 124.064 46.456 122.496 46.392 120.832C46.392 120.576 46.488 120.352 46.68 120.16C46.904 119.936 47.16 119.824 47.448 119.824H53.496C53.944 119.824 54.28 119.904 54.504 120.064C54.76 120.224 54.984 120.432 55.176 120.688C55.432 121.168 55.784 121.632 56.232 122.08C56.712 122.528 57.32 122.896 58.056 123.184C58.824 123.44 59.768 123.568 60.888 123.568C62.744 123.568 64.136 123.28 65.064 122.704C66.024 122.128 66.504 121.344 66.504 120.352C66.504 119.648 66.248 119.072 65.736 118.624C65.224 118.144 64.392 117.728 63.24 117.376C62.12 116.992 60.616 116.608 58.728 116.224C56.296 115.712 54.216 115.056 52.488 114.256C50.792 113.424 49.496 112.352 48.6 111.04C47.704 109.696 47.256 108.032 47.256 106.048C47.256 104.096 47.8 102.352 48.888 100.816C50.008 99.28 51.56 98.08 53.544 97.216C55.528 96.352 57.88 95.92 60.6 95.92C62.808 95.92 64.744 96.208 66.408 96.784C68.104 97.36 69.528 98.128 70.68 99.088C71.832 100.048 72.696 101.072 73.272 102.16C73.88 103.216 74.2 104.256 74.232 105.28C74.232 105.536 74.136 105.776 73.944 106C73.752 106.192 73.512 106.288 73.224 106.288H66.888C66.536 106.288 66.232 106.224 65.976 106.096C65.72 105.968 65.496 105.76 65.304 105.472C65.112 104.768 64.6 104.16 63.768 103.648C62.968 103.104 61.912 102.832 60.6 102.832C59.192 102.832 58.088 103.088 57.288 103.6C56.52 104.08 56.136 104.832 56.136 105.856C56.136 106.496 56.344 107.056 56.76 107.536C57.208 108.016 57.928 108.432 58.92 108.784C59.944 109.136 61.336 109.504 63.096 109.888C66.008 110.432 68.36 111.12 70.152 111.952C71.944 112.752 73.256 113.808 74.088 115.12C74.92 116.4 75.336 118.016 75.336 119.968C75.336 122.144 74.712 124.032 73.464 125.632C72.248 127.2 70.552 128.4 68.376 129.232C66.2 130.064 63.704 130.48 60.888 130.48ZM80.8133 130C80.4613 130 80.1733 129.888 79.9492 129.664C79.7253 129.44 79.6133 129.152 79.6133 128.8V97.12C79.6133 96.768 79.7253 96.48 79.9492 96.256C80.1733 96.032 80.4613 95.92 80.8133 95.92H86.9573C87.3093 95.92 87.5973 96.032 87.8213 96.256C88.0453 96.48 88.1573 96.768 88.1573 97.12V107.824C89.0213 106.832 90.0773 106.048 91.3253 105.472C92.6053 104.864 94.0773 104.56 95.7413 104.56C97.5973 104.56 99.2453 104.976 100.685 105.808C102.157 106.64 103.309 107.872 104.141 109.504C104.973 111.104 105.389 113.072 105.389 115.408V128.8C105.389 129.152 105.277 129.44 105.053 129.664C104.829 129.888 104.541 130 104.189 130H97.9973C97.6773 130 97.3893 129.888 97.1333 129.664C96.9093 129.44 96.7973 129.152 96.7973 128.8V115.696C96.7973 114.192 96.4293 113.04 95.6933 112.24C94.9893 111.408 93.9333 110.992 92.5253 110.992C91.2133 110.992 90.1573 111.408 89.3573 112.24C88.5573 113.04 88.1573 114.192 88.1573 115.696V128.8C88.1573 129.152 88.0453 129.44 87.8213 129.664C87.5973 129.888 87.3093 130 86.9573 130H80.8133ZM122.64 130.48C119.952 130.48 117.68 130.048 115.824 129.184C114 128.32 112.592 127.088 111.6 125.488C110.64 123.856 110.096 121.92 109.968 119.68C109.936 119.04 109.92 118.32 109.92 117.52C109.92 116.688 109.936 115.968 109.968 115.36C110.096 113.088 110.672 111.152 111.696 109.552C112.72 107.952 114.144 106.72 115.968 105.856C117.824 104.992 120.048 104.56 122.64 104.56C125.264 104.56 127.488 104.992 129.312 105.856C131.168 106.72 132.608 107.952 133.632 109.552C134.656 111.152 135.232 113.088 135.36 115.36C135.392 115.968 135.408 116.688 135.408 117.52C135.408 118.32 135.392 119.04 135.36 119.68C135.232 121.92 134.672 123.856 133.68 125.488C132.72 127.088 131.312 128.32 129.456 129.184C127.632 130.048 125.36 130.48 122.64 130.48ZM122.64 124.624C124.08 124.624 125.12 124.192 125.76 123.328C126.432 122.464 126.816 121.168 126.912 119.44C126.944 118.96 126.96 118.32 126.96 117.52C126.96 116.72 126.944 116.08 126.912 115.6C126.816 113.904 126.432 112.624 125.76 111.76C125.12 110.864 124.08 110.416 122.64 110.416C121.232 110.416 120.192 110.864 119.52 111.76C118.848 112.624 118.48 113.904 118.416 115.6C118.384 116.08 118.368 116.72 118.368 117.52C118.368 118.32 118.384 118.96 118.416 119.44C118.48 121.168 118.848 122.464 119.52 123.328C120.192 124.192 121.232 124.624 122.64 124.624ZM141.329 130C140.977 130 140.689 129.888 140.465 129.664C140.241 129.44 140.129 129.152 140.129 128.8V106.24C140.129 105.92 140.241 105.648 140.465 105.424C140.689 105.168 140.977 105.04 141.329 105.04H146.849C147.201 105.04 147.489 105.168 147.713 105.424C147.937 105.648 148.049 105.92 148.049 106.24V108.16C148.913 107.168 149.937 106.4 151.121 105.856C152.337 105.312 153.697 105.04 155.201 105.04H157.313C157.633 105.04 157.905 105.152 158.129 105.376C158.385 105.6 158.513 105.888 158.513 106.24V111.184C158.513 111.504 158.385 111.792 158.129 112.048C157.905 112.272 157.633 112.384 157.313 112.384H152.657C151.345 112.384 150.321 112.752 149.585 113.488C148.881 114.192 148.529 115.2 148.529 116.512V128.8C148.529 129.152 148.401 129.44 148.145 129.664C147.921 129.888 147.633 130 147.281 130H141.329ZM174.694 130C172.646 130 170.87 129.68 169.366 129.04C167.894 128.368 166.758 127.344 165.958 125.968C165.158 124.56 164.758 122.752 164.758 120.544V111.328H161.014C160.662 111.328 160.358 111.216 160.102 110.992C159.878 110.768 159.766 110.48 159.766 110.128V106.24C159.766 105.888 159.878 105.6 160.102 105.376C160.358 105.152 160.662 105.04 161.014 105.04H164.758V97.12C164.758 96.768 164.87 96.48 165.094 96.256C165.35 96.032 165.638 95.92 165.958 95.92H171.526C171.878 95.92 172.166 96.032 172.39 96.256C172.614 96.48 172.726 96.768 172.726 97.12V105.04H178.726C179.078 105.04 179.366 105.152 179.59 105.376C179.814 105.6 179.926 105.888 179.926 106.24V110.128C179.926 110.48 179.814 110.768 179.59 110.992C179.366 111.216 179.078 111.328 178.726 111.328H172.726V119.872C172.726 120.96 172.934 121.824 173.35 122.464C173.766 123.104 174.47 123.424 175.462 123.424H179.158C179.51 123.424 179.798 123.536 180.022 123.76C180.246 123.984 180.358 124.272 180.358 124.624V128.8C180.358 129.152 180.246 129.44 180.022 129.664C179.798 129.888 179.51 130 179.158 130H174.694Z" fill="white"/>
</svg>
