<svg width="130" height="130" viewBox="0 0 130 130" fill="none" xmlns="http://www.w3.org/2000/svg">
<rect width="130" height="130" rx="65" fill="#3C3C3C"/>
<path d="M62.5455 42.4545H75.1818V72.2727C75.1818 75.8182 74.3333 78.8864 72.6364 81.4773C70.9545 84.053 68.6061 86.0455 65.5909 87.4545C62.5758 88.8485 59.0758 89.5455 55.0909 89.5455C51.0758 89.5455 47.5606 88.8485 44.5455 87.4545C41.5303 86.0455 39.1818 84.053 37.5 81.4773C35.8333 78.8864 35 75.8182 35 72.2727V42.4545H47.6364V71.1818C47.6364 72.6212 47.9545 73.9091 48.5909 75.0455C49.2273 76.1667 50.1061 77.0455 51.2273 77.6818C52.3636 78.3182 53.6515 78.6364 55.0909 78.6364C56.5455 78.6364 57.8333 78.3182 58.9545 77.6818C60.0758 77.0455 60.9545 76.1667 61.5909 75.0455C62.2273 73.9091 62.5455 72.6212 62.5455 71.1818V42.4545ZM93.8239 42.4545V89H81.1875V42.4545H93.8239Z" fill="white"/>
</svg>
