<svg width="130" height="130" viewBox="0 0 130 130" fill="none" xmlns="http://www.w3.org/2000/svg">
<rect width="130" height="130" rx="65" fill="#3C3C3C"/>
<path d="M57.375 46C57.375 45.0054 57.7701 44.0516 58.4734 43.3484C59.1766 42.6451 60.1304 42.25 61.125 42.25C62.1196 42.25 63.0734 42.6451 63.7767 43.3484C64.4799 44.0516 64.875 45.0054 64.875 46V62.7625L69.4125 63.25L87.9375 71.4625C89.925 72.3625 91.125 74.35 91.125 76.525V92.875C91.0125 95.95 88.575 98.3875 85.5 98.5H61.125C59.7 98.5 58.35 97.9375 57.375 96.8875L39 81.1375L41.775 78.25C42.4875 77.4625 43.5 77.05 44.55 77.05H45.375L57.375 83.5V46ZM61.125 31C65.1032 31 68.9186 32.5804 71.7316 35.3934C74.5447 38.2064 76.125 42.0218 76.125 46C76.125 51.625 73.125 56.3875 68.625 58.975V54.4C70.9125 52.3375 72.375 49.3375 72.375 46C72.375 43.0163 71.1897 40.1548 69.08 38.045C66.9702 35.9353 64.1087 34.75 61.125 34.75C58.1413 34.75 55.2798 35.9353 53.17 38.045C51.0603 40.1548 49.875 43.0163 49.875 46C49.875 49.3375 51.3375 52.3375 53.625 54.4V58.975C49.125 56.3875 46.125 51.625 46.125 46C46.125 42.0218 47.7054 38.2064 50.5184 35.3934C53.3314 32.5804 57.1468 31 61.125 31V31Z" fill="white"/>
</svg>
