<svg width="228" height="299" viewBox="0 0 228 299" fill="none" xmlns="http://www.w3.org/2000/svg">
<path d="M71.564 288.44C68.6307 288.44 66.196 288.029 64.26 287.208C62.324 286.357 60.8573 285.257 59.86 283.908C58.8627 282.559 58.3347 281.121 58.276 279.596C58.276 279.361 58.364 279.156 58.54 278.98C58.7453 278.775 58.98 278.672 59.244 278.672H64.788C65.1987 278.672 65.5067 278.745 65.712 278.892C65.9467 279.039 66.152 279.229 66.328 279.464C66.5627 279.904 66.8853 280.329 67.296 280.74C67.736 281.151 68.2933 281.488 68.968 281.752C69.672 281.987 70.5373 282.104 71.564 282.104C73.2653 282.104 74.5413 281.84 75.392 281.312C76.272 280.784 76.712 280.065 76.712 279.156C76.712 278.511 76.4773 277.983 76.008 277.572C75.5387 277.132 74.776 276.751 73.72 276.428C72.6933 276.076 71.3147 275.724 69.584 275.372C67.3547 274.903 65.448 274.301 63.864 273.568C62.3093 272.805 61.1213 271.823 60.3 270.62C59.4787 269.388 59.068 267.863 59.068 266.044C59.068 264.255 59.5667 262.656 60.564 261.248C61.5907 259.84 63.0133 258.74 64.832 257.948C66.6507 257.156 68.8067 256.76 71.3 256.76C73.324 256.76 75.0987 257.024 76.624 257.552C78.1787 258.08 79.484 258.784 80.54 259.664C81.596 260.544 82.388 261.483 82.916 262.48C83.4733 263.448 83.7667 264.401 83.796 265.34C83.796 265.575 83.708 265.795 83.532 266C83.356 266.176 83.136 266.264 82.872 266.264H77.064C76.7413 266.264 76.4627 266.205 76.228 266.088C75.9933 265.971 75.788 265.78 75.612 265.516C75.436 264.871 74.9667 264.313 74.204 263.844C73.4707 263.345 72.5027 263.096 71.3 263.096C70.0093 263.096 68.9973 263.331 68.264 263.8C67.56 264.24 67.208 264.929 67.208 265.868C67.208 266.455 67.3987 266.968 67.78 267.408C68.1907 267.848 68.8507 268.229 69.76 268.552C70.6987 268.875 71.9747 269.212 73.588 269.564C76.2573 270.063 78.4133 270.693 80.056 271.456C81.6987 272.189 82.9013 273.157 83.664 274.36C84.4267 275.533 84.808 277.015 84.808 278.804C84.808 280.799 84.236 282.529 83.092 283.996C81.9773 285.433 80.4227 286.533 78.428 287.296C76.4333 288.059 74.1453 288.44 71.564 288.44ZM89.8288 288C89.5061 288 89.2421 287.897 89.0368 287.692C88.8315 287.487 88.7288 287.223 88.7288 286.9V257.86C88.7288 257.537 88.8315 257.273 89.0368 257.068C89.2421 256.863 89.5061 256.76 89.8288 256.76H94.9328C95.2261 256.76 95.4755 256.863 95.6808 257.068C95.9155 257.273 96.0328 257.537 96.0328 257.86V272.6L102.149 265.868C102.325 265.663 102.515 265.487 102.721 265.34C102.926 265.193 103.219 265.12 103.601 265.12H109.497C109.761 265.12 109.981 265.223 110.157 265.428C110.362 265.604 110.465 265.824 110.465 266.088C110.465 266.205 110.435 266.337 110.377 266.484C110.318 266.631 110.23 266.748 110.113 266.836L102.193 275.372L111.213 286.328C111.447 286.563 111.565 286.797 111.565 287.032C111.565 287.296 111.462 287.531 111.257 287.736C111.081 287.912 110.846 288 110.553 288H104.525C104.085 288 103.762 287.927 103.557 287.78C103.351 287.604 103.161 287.428 102.985 287.252L96.0328 278.892V286.9C96.0328 287.223 95.9155 287.487 95.6808 287.692C95.4755 287.897 95.2261 288 94.9328 288H89.8288ZM115.524 288C115.201 288 114.937 287.897 114.732 287.692C114.527 287.487 114.424 287.223 114.424 286.9V266.22C114.424 265.897 114.527 265.633 114.732 265.428C114.937 265.223 115.201 265.12 115.524 265.12H120.716C121.009 265.12 121.259 265.223 121.464 265.428C121.699 265.633 121.816 265.897 121.816 266.22V286.9C121.816 287.223 121.699 287.487 121.464 287.692C121.259 287.897 121.009 288 120.716 288H115.524ZM115.48 261.82C115.157 261.82 114.893 261.717 114.688 261.512C114.483 261.307 114.38 261.043 114.38 260.72V256.804C114.38 256.481 114.483 256.217 114.688 256.012C114.893 255.777 115.157 255.66 115.48 255.66H120.716C121.039 255.66 121.303 255.777 121.508 256.012C121.743 256.217 121.86 256.481 121.86 256.804V260.72C121.86 261.043 121.743 261.307 121.508 261.512C121.303 261.717 121.039 261.82 120.716 261.82H115.48ZM129.446 288C129.123 288 128.859 287.897 128.654 287.692C128.449 287.487 128.346 287.223 128.346 286.9V266.22C128.346 265.897 128.449 265.633 128.654 265.428C128.859 265.223 129.123 265.12 129.446 265.12H134.506C134.829 265.12 135.093 265.223 135.298 265.428C135.503 265.633 135.606 265.897 135.606 266.22V267.892C136.369 266.983 137.366 266.22 138.598 265.604C139.83 264.988 141.282 264.68 142.954 264.68C144.655 264.68 146.151 265.061 147.442 265.824C148.762 266.587 149.789 267.716 150.522 269.212C151.285 270.679 151.666 272.483 151.666 274.624V286.9C151.666 287.223 151.549 287.487 151.314 287.692C151.109 287.897 150.859 288 150.566 288H145.022C144.729 288 144.465 287.897 144.23 287.692C144.025 287.487 143.922 287.223 143.922 286.9V274.888C143.922 273.509 143.585 272.453 142.91 271.72C142.265 270.957 141.297 270.576 140.006 270.576C138.803 270.576 137.835 270.957 137.102 271.72C136.398 272.453 136.046 273.509 136.046 274.888V286.9C136.046 287.223 135.929 287.487 135.694 287.692C135.489 287.897 135.239 288 134.946 288H129.446Z" fill="black"/>
<rect x="0.816406" width="226.456" height="226.456" rx="13.5874" fill="#333333"/>
<path d="M110.27 47.0033L48.9871 108.287C47.7373 109.537 47.0352 111.232 47.0352 113C47.0352 114.768 47.7373 116.463 48.9871 117.713L110.274 179C111.524 180.25 113.219 180.952 114.987 180.952C116.755 180.952 118.45 180.25 119.7 179L180.984 117.717C182.234 116.466 182.936 114.771 182.936 113.003C182.936 111.236 182.234 109.54 180.984 108.29L119.697 47C118.447 45.7502 116.751 45.0481 114.984 45.0481C113.216 45.0481 111.521 45.7502 110.27 47V47.0033Z" stroke="white" stroke-width="7.5" stroke-linejoin="round"/>
<path d="M94.2734 113H134.273M114.273 93V133" stroke="white" stroke-width="7.5" stroke-linecap="round"/>
</svg>
