<svg width="160" height="70" viewBox="0 0 160 70" fill="none" xmlns="http://www.w3.org/2000/svg">
<path d="M69.5652 34.7826C69.5652 53.9925 53.9925 69.5652 34.7826 69.5652C15.5727 69.5652 0 53.9925 0 34.7826C0 15.5727 15.5727 0 34.7826 0C53.9925 0 69.5652 15.5727 69.5652 34.7826Z" fill="white"/>
<path d="M160 34.7826C160 53.9925 144.427 69.5652 125.217 69.5652C106.007 69.5652 90.4348 53.9925 90.4348 34.7826C90.4348 15.5727 106.007 0 125.217 0C144.427 0 160 15.5727 160 34.7826Z" fill="white"/>
<path d="M160 34.7826C160 53.9925 144.427 69.5652 125.217 69.5652C106.007 69.5652 90.4348 53.9925 90.4348 34.7826C90.4348 15.5727 106.007 0 125.217 0C144.427 0 160 15.5727 160 34.7826Z" fill="white"/>
<path d="M69.5652 34.7826C69.5652 53.9925 53.9925 69.5652 34.7826 69.5652C15.5727 69.5652 0 53.9925 0 34.7826C0 15.5727 15.5727 0 34.7826 0C53.9925 0 69.5652 15.5727 69.5652 34.7826Z" fill="white"/>
<path d="M160 34.7826C160 53.9925 144.427 69.5652 125.217 69.5652C106.007 69.5652 90.4348 53.9925 90.4348 34.7826C90.4348 15.5727 106.007 0 125.217 0C144.427 0 160 15.5727 160 34.7826Z" fill="white"/>
<path d="M160 34.7826C160 53.9925 144.427 69.5652 125.217 69.5652C106.007 69.5652 90.4348 53.9925 90.4348 34.7826C90.4348 15.5727 106.007 0 125.217 0C144.427 0 160 15.5727 160 34.7826Z" fill="white"/>
<path d="M39.4209 34.7825C39.4209 37.3438 37.3446 39.4201 34.7832 39.4201C32.2219 39.4201 30.1456 37.3438 30.1456 34.7825C30.1456 32.2211 32.2219 30.1448 34.7832 30.1448C37.3446 30.1448 39.4209 32.2211 39.4209 34.7825Z" fill="black"/>
<path d="M129.856 34.7825C129.856 37.3438 127.779 39.4201 125.218 39.4201C122.657 39.4201 120.58 37.3438 120.58 34.7825C120.58 32.2211 122.657 30.1448 125.218 30.1448C127.779 30.1448 129.856 32.2211 129.856 34.7825Z" fill="black"/>
</svg>
