<svg width="228" height="294" viewBox="0 0 228 294" fill="none" xmlns="http://www.w3.org/2000/svg">
<path d="M53.888 282.48C50.688 282.48 48.032 282.032 45.92 281.136C43.808 280.208 42.208 279.008 41.12 277.536C40.032 276.064 39.456 274.496 39.392 272.832C39.392 272.576 39.488 272.352 39.68 272.16C39.904 271.936 40.16 271.824 40.448 271.824H46.496C46.944 271.824 47.28 271.904 47.504 272.064C47.76 272.224 47.984 272.432 48.176 272.688C48.432 273.168 48.784 273.632 49.232 274.08C49.712 274.528 50.32 274.896 51.056 275.184C51.824 275.44 52.768 275.568 53.888 275.568C55.744 275.568 57.136 275.28 58.064 274.704C59.024 274.128 59.504 273.344 59.504 272.352C59.504 271.648 59.248 271.072 58.736 270.624C58.224 270.144 57.392 269.728 56.24 269.376C55.12 268.992 53.616 268.608 51.728 268.224C49.296 267.712 47.216 267.056 45.488 266.256C43.792 265.424 42.496 264.352 41.6 263.04C40.704 261.696 40.256 260.032 40.256 258.048C40.256 256.096 40.8 254.352 41.888 252.816C43.008 251.28 44.56 250.08 46.544 249.216C48.528 248.352 50.88 247.92 53.6 247.92C55.808 247.92 57.744 248.208 59.408 248.784C61.104 249.36 62.528 250.128 63.68 251.088C64.832 252.048 65.696 253.072 66.272 254.16C66.88 255.216 67.2 256.256 67.232 257.28C67.232 257.536 67.136 257.776 66.944 258C66.752 258.192 66.512 258.288 66.224 258.288H59.888C59.536 258.288 59.232 258.224 58.976 258.096C58.72 257.968 58.496 257.76 58.304 257.472C58.112 256.768 57.6 256.16 56.768 255.648C55.968 255.104 54.912 254.832 53.6 254.832C52.192 254.832 51.088 255.088 50.288 255.6C49.52 256.08 49.136 256.832 49.136 257.856C49.136 258.496 49.344 259.056 49.76 259.536C50.208 260.016 50.928 260.432 51.92 260.784C52.944 261.136 54.336 261.504 56.096 261.888C59.008 262.432 61.36 263.12 63.152 263.952C64.944 264.752 66.256 265.808 67.088 267.12C67.92 268.4 68.336 270.016 68.336 271.968C68.336 274.144 67.712 276.032 66.464 277.632C65.248 279.2 63.552 280.4 61.376 281.232C59.2 282.064 56.704 282.48 53.888 282.48ZM73.8133 282C73.4613 282 73.1733 281.888 72.9492 281.664C72.7253 281.44 72.6133 281.152 72.6133 280.8V258.24C72.6133 257.888 72.7253 257.6 72.9492 257.376C73.1733 257.152 73.4613 257.04 73.8133 257.04H79.0453C79.3973 257.04 79.6853 257.152 79.9093 257.376C80.1333 257.6 80.2453 257.888 80.2453 258.24V259.872C80.8853 259.008 81.7813 258.256 82.9333 257.616C84.0853 256.944 85.4453 256.592 87.0133 256.56C90.6933 256.496 93.2213 257.888 94.5973 260.736C95.3333 259.52 96.3893 258.528 97.7653 257.76C99.1413 256.96 100.645 256.56 102.277 256.56C103.941 256.56 105.429 256.944 106.741 257.712C108.085 258.448 109.157 259.6 109.957 261.168C110.757 262.704 111.157 264.704 111.157 267.168V280.8C111.157 281.152 111.029 281.44 110.773 281.664C110.549 281.888 110.277 282 109.957 282H104.389C104.037 282 103.733 281.888 103.477 281.664C103.253 281.44 103.141 281.152 103.141 280.8V267.504C103.141 266.384 102.981 265.504 102.661 264.864C102.341 264.192 101.909 263.712 101.365 263.424C100.821 263.136 100.197 262.992 99.4933 262.992C98.9173 262.992 98.3413 263.136 97.7653 263.424C97.2213 263.712 96.7733 264.192 96.4213 264.864C96.1013 265.504 95.9413 266.384 95.9413 267.504V280.8C95.9413 281.152 95.8293 281.44 95.6053 281.664C95.3813 281.888 95.0933 282 94.7413 282H89.1733C88.8213 282 88.5333 281.888 88.3093 281.664C88.0853 281.44 87.9733 281.152 87.9733 280.8V267.504C87.9733 266.384 87.7973 265.504 87.4453 264.864C87.0933 264.192 86.6453 263.712 86.1013 263.424C85.5573 263.136 84.9493 262.992 84.2773 262.992C83.7013 262.992 83.1253 263.136 82.5493 263.424C82.0053 263.712 81.5573 264.192 81.2053 264.864C80.8853 265.504 80.7253 266.368 80.7253 267.456V280.8C80.7253 281.152 80.5973 281.44 80.3413 281.664C80.1173 281.888 79.8293 282 79.4773 282H73.8133ZM124.023 282.48C122.295 282.48 120.743 282.16 119.367 281.52C118.023 280.848 116.951 279.952 116.151 278.832C115.351 277.712 114.951 276.448 114.951 275.04C114.951 272.768 115.879 270.976 117.735 269.664C119.591 268.32 122.055 267.408 125.127 266.928L131.127 266.016V265.344C131.127 264.192 130.887 263.312 130.407 262.704C129.927 262.096 129.047 261.792 127.767 261.792C126.871 261.792 126.135 261.968 125.559 262.32C125.015 262.672 124.583 263.152 124.263 263.76C123.975 264.176 123.575 264.384 123.063 264.384H117.687C117.335 264.384 117.063 264.288 116.871 264.096C116.679 263.872 116.599 263.616 116.631 263.328C116.631 262.752 116.839 262.096 117.255 261.36C117.703 260.592 118.375 259.84 119.271 259.104C120.167 258.368 121.319 257.76 122.727 257.28C124.135 256.8 125.831 256.56 127.815 256.56C129.895 256.56 131.671 256.8 133.143 257.28C134.615 257.76 135.799 258.432 136.695 259.296C137.623 260.16 138.311 261.184 138.759 262.368C139.207 263.52 139.431 264.8 139.431 266.208V280.8C139.431 281.152 139.303 281.44 139.047 281.664C138.823 281.888 138.551 282 138.231 282H132.663C132.311 282 132.023 281.888 131.799 281.664C131.575 281.44 131.463 281.152 131.463 280.8V279.12C131.047 279.728 130.487 280.288 129.783 280.8C129.079 281.312 128.247 281.712 127.287 282C126.359 282.32 125.271 282.48 124.023 282.48ZM126.279 277.008C127.207 277.008 128.039 276.816 128.775 276.432C129.543 276.016 130.135 275.392 130.551 274.56C130.999 273.696 131.223 272.624 131.223 271.344V270.672L127.143 271.392C125.639 271.648 124.535 272.048 123.831 272.592C123.159 273.104 122.823 273.712 122.823 274.416C122.823 274.96 122.983 275.424 123.303 275.808C123.623 276.192 124.039 276.496 124.551 276.72C125.063 276.912 125.639 277.008 126.279 277.008ZM146.048 282C145.696 282 145.408 281.888 145.184 281.664C144.96 281.44 144.848 281.152 144.848 280.8V249.12C144.848 248.768 144.96 248.48 145.184 248.256C145.408 248.032 145.696 247.92 146.048 247.92H151.712C152.064 247.92 152.352 248.032 152.576 248.256C152.8 248.48 152.912 248.768 152.912 249.12V280.8C152.912 281.152 152.8 281.44 152.576 281.664C152.352 281.888 152.064 282 151.712 282H146.048ZM159.782 282C159.43 282 159.142 281.888 158.918 281.664C158.694 281.44 158.582 281.152 158.582 280.8V249.12C158.582 248.768 158.694 248.48 158.918 248.256C159.142 248.032 159.43 247.92 159.782 247.92H165.446C165.798 247.92 166.086 248.032 166.31 248.256C166.534 248.48 166.646 248.768 166.646 249.12V280.8C166.646 281.152 166.534 281.44 166.31 281.664C166.086 281.888 165.798 282 165.446 282H159.782Z" fill="black"/>
<rect x="0.908203" width="226.456" height="226.456" rx="13.5874" fill="#4F4F4F"/>
<path d="M104.565 112.783C104.565 131.993 88.9925 147.565 69.7826 147.565C50.5727 147.565 35 131.993 35 112.783C35 93.5727 50.5727 78 69.7826 78C88.9925 78 104.565 93.5727 104.565 112.783Z" fill="white"/>
<path d="M195 112.783C195 131.993 179.427 147.565 160.217 147.565C141.007 147.565 125.435 131.993 125.435 112.783C125.435 93.5727 141.007 78 160.217 78C179.427 78 195 93.5727 195 112.783Z" fill="white"/>
<path d="M195 112.783C195 131.993 179.427 147.565 160.217 147.565C141.007 147.565 125.435 131.993 125.435 112.783C125.435 93.5727 141.007 78 160.217 78C179.427 78 195 93.5727 195 112.783Z" fill="white"/>
<path d="M104.565 112.783C104.565 131.993 88.9925 147.565 69.7826 147.565C50.5727 147.565 35 131.993 35 112.783C35 93.5727 50.5727 78 69.7826 78C88.9925 78 104.565 93.5727 104.565 112.783Z" fill="white"/>
<path d="M195 112.783C195 131.993 179.427 147.565 160.217 147.565C141.007 147.565 125.435 131.993 125.435 112.783C125.435 93.5727 141.007 78 160.217 78C179.427 78 195 93.5727 195 112.783Z" fill="white"/>
<path d="M195 112.783C195 131.993 179.427 147.565 160.217 147.565C141.007 147.565 125.435 131.993 125.435 112.783C125.435 93.5727 141.007 78 160.217 78C179.427 78 195 93.5727 195 112.783Z" fill="white"/>
<path d="M74.4218 112.782C74.4218 115.344 72.3455 117.42 69.7842 117.42C67.2228 117.42 65.1465 115.344 65.1465 112.782C65.1465 110.221 67.2228 108.145 69.7842 108.145C72.3455 108.145 74.4218 110.221 74.4218 112.782Z" fill="black"/>
<path d="M164.857 112.782C164.857 115.344 162.78 117.42 160.219 117.42C157.658 117.42 155.581 115.344 155.581 112.782C155.581 110.221 157.658 108.145 160.219 108.145C162.78 108.145 164.857 110.221 164.857 112.782Z" fill="black"/>
</svg>
