<svg width="178" height="40" viewBox="0 0 178 40" fill="none" xmlns="http://www.w3.org/2000/svg">
<path fill-rule="evenodd" clip-rule="evenodd" d="M18.5125 14.1485C12.2475 9.8985 7.8586 5.15139 5.88434 0.0273514L0 2.29455C2.61511 9.08185 8.1459 14.7362 14.9724 19.3671C21.828 24.0178 30.2425 27.8089 39.0502 30.7808C56.6368 36.7149 76.3098 39.5533 89.4179 39.2061V39.2017C102.519 39.3501 121.556 36.501 138.62 30.7357C147.417 27.7636 155.82 23.9737 162.666 19.3258C169.483 14.6976 175.005 9.04786 177.618 2.26725L171.733 4.95911e-05C169.761 5.11893 165.379 9.86171 159.124 14.1087C152.898 18.3359 145.06 21.9038 136.602 24.7615C119.657 30.4863 100.741 33.1898 88.4412 32.8769L88.3669 32.875L88.3657 32.9204C76.0698 33.0981 57.6307 30.395 41.0663 24.8058C32.5973 21.9482 24.7484 18.3788 18.5125 14.1485Z" fill="white"/>
</svg>
