<svg width="227" height="294" viewBox="0 0 227 294" fill="none" xmlns="http://www.w3.org/2000/svg">
<path d="M40.56 282C40.208 282 39.92 281.888 39.696 281.664C39.472 281.44 39.36 281.152 39.36 280.8V249.6C39.36 249.248 39.472 248.96 39.696 248.736C39.92 248.512 40.208 248.4 40.56 248.4H46.752C47.104 248.4 47.392 248.512 47.616 248.736C47.84 248.96 47.952 249.248 47.952 249.6V261.168H59.808V249.6C59.808 249.248 59.92 248.96 60.144 248.736C60.368 248.512 60.656 248.4 61.008 248.4H67.2C67.552 248.4 67.84 248.512 68.064 248.736C68.288 248.96 68.4 249.248 68.4 249.6V280.8C68.4 281.152 68.288 281.44 68.064 281.664C67.84 281.888 67.552 282 67.2 282H61.008C60.656 282 60.368 281.888 60.144 281.664C59.92 281.44 59.808 281.152 59.808 280.8V268.848H47.952V280.8C47.952 281.152 47.84 281.44 47.616 281.664C47.392 281.888 47.104 282 46.752 282H40.56ZM82.0856 282.48C80.3576 282.48 78.8056 282.16 77.4296 281.52C76.0856 280.848 75.0136 279.952 74.2136 278.832C73.4136 277.712 73.0136 276.448 73.0136 275.04C73.0136 272.768 73.9416 270.976 75.7976 269.664C77.6536 268.32 80.1176 267.408 83.1896 266.928L89.1896 266.016V265.344C89.1896 264.192 88.9496 263.312 88.4696 262.704C87.9896 262.096 87.1096 261.792 85.8296 261.792C84.9336 261.792 84.1976 261.968 83.6216 262.32C83.0776 262.672 82.6456 263.152 82.3256 263.76C82.0376 264.176 81.6376 264.384 81.1256 264.384H75.7496C75.3976 264.384 75.1256 264.288 74.9336 264.096C74.7416 263.872 74.6616 263.616 74.6936 263.328C74.6936 262.752 74.9016 262.096 75.3176 261.36C75.7656 260.592 76.4376 259.84 77.3336 259.104C78.2296 258.368 79.3816 257.76 80.7896 257.28C82.1976 256.8 83.8936 256.56 85.8776 256.56C87.9576 256.56 89.7336 256.8 91.2056 257.28C92.6776 257.76 93.8616 258.432 94.7576 259.296C95.6856 260.16 96.3736 261.184 96.8216 262.368C97.2696 263.52 97.4936 264.8 97.4936 266.208V280.8C97.4936 281.152 97.3656 281.44 97.1096 281.664C96.8856 281.888 96.6136 282 96.2936 282H90.7256C90.3736 282 90.0856 281.888 89.8616 281.664C89.6376 281.44 89.5256 281.152 89.5256 280.8V279.12C89.1096 279.728 88.5496 280.288 87.8456 280.8C87.1416 281.312 86.3096 281.712 85.3496 282C84.4216 282.32 83.3336 282.48 82.0856 282.48ZM84.3416 277.008C85.2696 277.008 86.1016 276.816 86.8376 276.432C87.6056 276.016 88.1976 275.392 88.6136 274.56C89.0616 273.696 89.2856 272.624 89.2856 271.344V270.672L85.2056 271.392C83.7016 271.648 82.5976 272.048 81.8936 272.592C81.2216 273.104 80.8856 273.712 80.8856 274.416C80.8856 274.96 81.0456 275.424 81.3656 275.808C81.6856 276.192 82.1016 276.496 82.6136 276.72C83.1256 276.912 83.7016 277.008 84.3416 277.008ZM104.11 291.12C103.758 291.12 103.47 291.008 103.246 290.784C103.022 290.56 102.91 290.272 102.91 289.92V258.24C102.91 257.888 103.022 257.6 103.246 257.376C103.47 257.152 103.758 257.04 104.11 257.04H109.534C109.854 257.04 110.126 257.152 110.35 257.376C110.606 257.6 110.734 257.888 110.734 258.24V260.016C111.47 259.024 112.446 258.208 113.662 257.568C114.878 256.896 116.382 256.56 118.174 256.56C119.774 256.56 121.182 256.816 122.398 257.328C123.614 257.808 124.654 258.528 125.518 259.488C126.382 260.448 127.054 261.616 127.534 262.992C128.046 264.368 128.334 265.952 128.398 267.744C128.43 268.384 128.446 268.976 128.446 269.52C128.446 270.064 128.43 270.656 128.398 271.296C128.334 273.024 128.062 274.576 127.582 275.952C127.102 277.328 126.43 278.496 125.566 279.456C124.702 280.416 123.646 281.168 122.398 281.712C121.182 282.224 119.774 282.48 118.174 282.48C116.606 282.48 115.23 282.208 114.046 281.664C112.894 281.088 111.934 280.288 111.166 279.264V289.92C111.166 290.272 111.054 290.56 110.83 290.784C110.606 291.008 110.318 291.12 109.966 291.12H104.11ZM115.582 276.048C116.67 276.048 117.518 275.824 118.126 275.376C118.734 274.928 119.166 274.32 119.422 273.552C119.71 272.784 119.886 271.936 119.95 271.008C120.014 270.016 120.014 269.024 119.95 268.032C119.886 267.104 119.71 266.256 119.422 265.488C119.166 264.72 118.734 264.112 118.126 263.664C117.518 263.216 116.67 262.992 115.582 262.992C114.526 262.992 113.678 263.232 113.038 263.712C112.398 264.16 111.934 264.752 111.646 265.488C111.358 266.224 111.198 267.024 111.166 267.888C111.134 268.496 111.118 269.088 111.118 269.664C111.118 270.24 111.134 270.848 111.166 271.488C111.198 272.288 111.374 273.04 111.694 273.744C112.014 274.416 112.494 274.976 113.134 275.424C113.774 275.84 114.59 276.048 115.582 276.048ZM134.391 291.12C134.039 291.12 133.751 291.008 133.527 290.784C133.303 290.56 133.191 290.272 133.191 289.92V258.24C133.191 257.888 133.303 257.6 133.527 257.376C133.751 257.152 134.039 257.04 134.391 257.04H139.815C140.135 257.04 140.407 257.152 140.631 257.376C140.887 257.6 141.015 257.888 141.015 258.24V260.016C141.751 259.024 142.727 258.208 143.943 257.568C145.159 256.896 146.663 256.56 148.455 256.56C150.055 256.56 151.463 256.816 152.679 257.328C153.895 257.808 154.935 258.528 155.799 259.488C156.663 260.448 157.335 261.616 157.815 262.992C158.327 264.368 158.615 265.952 158.679 267.744C158.711 268.384 158.727 268.976 158.727 269.52C158.727 270.064 158.711 270.656 158.679 271.296C158.615 273.024 158.343 274.576 157.863 275.952C157.383 277.328 156.711 278.496 155.847 279.456C154.983 280.416 153.927 281.168 152.679 281.712C151.463 282.224 150.055 282.48 148.455 282.48C146.887 282.48 145.511 282.208 144.327 281.664C143.175 281.088 142.215 280.288 141.447 279.264V289.92C141.447 290.272 141.335 290.56 141.111 290.784C140.887 291.008 140.599 291.12 140.247 291.12H134.391ZM145.863 276.048C146.951 276.048 147.799 275.824 148.407 275.376C149.015 274.928 149.447 274.32 149.703 273.552C149.991 272.784 150.167 271.936 150.231 271.008C150.295 270.016 150.295 269.024 150.231 268.032C150.167 267.104 149.991 266.256 149.703 265.488C149.447 264.72 149.015 264.112 148.407 263.664C147.799 263.216 146.951 262.992 145.863 262.992C144.807 262.992 143.959 263.232 143.319 263.712C142.679 264.16 142.215 264.752 141.927 265.488C141.639 266.224 141.479 267.024 141.447 267.888C141.415 268.496 141.399 269.088 141.399 269.664C141.399 270.24 141.415 270.848 141.447 271.488C141.479 272.288 141.655 273.04 141.975 273.744C142.295 274.416 142.775 274.976 143.415 275.424C144.055 275.84 144.871 276.048 145.863 276.048ZM167.097 291.12C166.809 291.12 166.569 291.024 166.377 290.832C166.185 290.64 166.089 290.4 166.089 290.112C166.089 290.048 166.089 289.952 166.089 289.824C166.121 289.728 166.169 289.616 166.233 289.488L169.977 280.464L160.761 258.672C160.665 258.448 160.617 258.256 160.617 258.096C160.681 257.808 160.809 257.568 161.001 257.376C161.193 257.152 161.433 257.04 161.721 257.04H167.193C167.609 257.04 167.913 257.152 168.105 257.376C168.329 257.568 168.473 257.792 168.537 258.048L174.057 272.016L179.673 258.048C179.801 257.792 179.961 257.568 180.153 257.376C180.377 257.152 180.697 257.04 181.113 257.04H186.489C186.777 257.04 187.017 257.152 187.209 257.376C187.433 257.568 187.545 257.792 187.545 258.048C187.545 258.208 187.497 258.416 187.401 258.672L173.817 290.112C173.721 290.368 173.561 290.592 173.337 290.784C173.113 291.008 172.793 291.12 172.377 291.12H167.097Z" fill="black"/>
<rect width="226.456" height="226.456" rx="13.5874" fill="#4F4F4F"/>
<path fill-rule="evenodd" clip-rule="evenodd" d="M42.5125 107.148C36.2475 102.898 31.8586 98.1513 29.8843 93.0272L24 95.2944C26.6151 102.082 32.1459 107.736 38.9724 112.367C45.828 117.018 54.2425 120.809 63.0502 123.781C80.6368 129.715 100.31 132.553 113.418 132.206V132.202C126.519 132.35 145.556 129.501 162.62 123.736C171.417 120.763 179.82 116.974 186.666 112.326C193.483 107.698 199.005 102.048 201.618 95.2671L195.733 92.9999C193.761 98.1188 189.379 102.862 183.124 107.109C176.898 111.336 169.06 114.904 160.602 117.761C143.657 123.486 124.741 126.19 112.441 125.877L112.367 125.875L112.366 125.92C100.07 126.098 81.6307 123.395 65.0663 117.806C56.5973 114.948 48.7484 111.379 42.5125 107.148Z" fill="white"/>
</svg>
