<svg width="227" height="294" viewBox="0 0 227 294" fill="none" xmlns="http://www.w3.org/2000/svg">
<rect width="226.456" height="226.456" rx="13.5874" fill="#4F4F4F"/>
<path d="M38.888 282.48C35.688 282.48 33.032 282.032 30.92 281.136C28.808 280.208 27.208 279.008 26.12 277.536C25.032 276.064 24.456 274.496 24.392 272.832C24.392 272.576 24.488 272.352 24.68 272.16C24.904 271.936 25.16 271.824 25.448 271.824H31.496C31.944 271.824 32.28 271.904 32.504 272.064C32.76 272.224 32.984 272.432 33.176 272.688C33.432 273.168 33.784 273.632 34.232 274.08C34.712 274.528 35.32 274.896 36.056 275.184C36.824 275.44 37.768 275.568 38.888 275.568C40.744 275.568 42.136 275.28 43.064 274.704C44.024 274.128 44.504 273.344 44.504 272.352C44.504 271.648 44.248 271.072 43.736 270.624C43.224 270.144 42.392 269.728 41.24 269.376C40.12 268.992 38.616 268.608 36.728 268.224C34.296 267.712 32.216 267.056 30.488 266.256C28.792 265.424 27.496 264.352 26.6 263.04C25.704 261.696 25.256 260.032 25.256 258.048C25.256 256.096 25.8 254.352 26.888 252.816C28.008 251.28 29.56 250.08 31.544 249.216C33.528 248.352 35.88 247.92 38.6 247.92C40.808 247.92 42.744 248.208 44.408 248.784C46.104 249.36 47.528 250.128 48.68 251.088C49.832 252.048 50.696 253.072 51.272 254.16C51.88 255.216 52.2 256.256 52.232 257.28C52.232 257.536 52.136 257.776 51.944 258C51.752 258.192 51.512 258.288 51.224 258.288H44.888C44.536 258.288 44.232 258.224 43.976 258.096C43.72 257.968 43.496 257.76 43.304 257.472C43.112 256.768 42.6 256.16 41.768 255.648C40.968 255.104 39.912 254.832 38.6 254.832C37.192 254.832 36.088 255.088 35.288 255.6C34.52 256.08 34.136 256.832 34.136 257.856C34.136 258.496 34.344 259.056 34.76 259.536C35.208 260.016 35.928 260.432 36.92 260.784C37.944 261.136 39.336 261.504 41.096 261.888C44.008 262.432 46.36 263.12 48.152 263.952C49.944 264.752 51.256 265.808 52.088 267.12C52.92 268.4 53.336 270.016 53.336 271.968C53.336 274.144 52.712 276.032 51.464 277.632C50.248 279.2 48.552 280.4 46.376 281.232C44.2 282.064 41.704 282.48 38.888 282.48ZM70.3813 282C68.3333 282 66.5573 281.68 65.0533 281.04C63.5813 280.368 62.4453 279.344 61.6453 277.968C60.8453 276.56 60.4453 274.752 60.4453 272.544V263.328H56.7013C56.3493 263.328 56.0453 263.216 55.7893 262.992C55.5653 262.768 55.4533 262.48 55.4533 262.128V258.24C55.4533 257.888 55.5653 257.6 55.7893 257.376C56.0453 257.152 56.3493 257.04 56.7013 257.04H60.4453V249.12C60.4453 248.768 60.5573 248.48 60.7812 248.256C61.0373 248.032 61.3253 247.92 61.6453 247.92H67.2133C67.5653 247.92 67.8533 248.032 68.0773 248.256C68.3013 248.48 68.4133 248.768 68.4133 249.12V257.04H74.4133C74.7653 257.04 75.0533 257.152 75.2773 257.376C75.5013 257.6 75.6133 257.888 75.6133 258.24V262.128C75.6133 262.48 75.5013 262.768 75.2773 262.992C75.0533 263.216 74.7653 263.328 74.4133 263.328H68.4133V271.872C68.4133 272.96 68.6213 273.824 69.0373 274.464C69.4533 275.104 70.1573 275.424 71.1493 275.424H74.8453C75.1973 275.424 75.4853 275.536 75.7093 275.76C75.9333 275.984 76.0453 276.272 76.0453 276.624V280.8C76.0453 281.152 75.9333 281.44 75.7093 281.664C75.4853 281.888 75.1973 282 74.8453 282H70.3813ZM81.2195 282C80.8675 282 80.5795 281.888 80.3555 281.664C80.1315 281.44 80.0195 281.152 80.0195 280.8V258.24C80.0195 257.92 80.1315 257.648 80.3555 257.424C80.5795 257.168 80.8675 257.04 81.2195 257.04H86.7395C87.0915 257.04 87.3795 257.168 87.6035 257.424C87.8275 257.648 87.9395 257.92 87.9395 258.24V260.16C88.8035 259.168 89.8275 258.4 91.0115 257.856C92.2275 257.312 93.5875 257.04 95.0915 257.04H97.2035C97.5235 257.04 97.7955 257.152 98.0195 257.376C98.2755 257.6 98.4035 257.888 98.4035 258.24V263.184C98.4035 263.504 98.2755 263.792 98.0195 264.048C97.7955 264.272 97.5235 264.384 97.2035 264.384H92.5475C91.2355 264.384 90.2115 264.752 89.4755 265.488C88.7715 266.192 88.4195 267.2 88.4195 268.512V280.8C88.4195 281.152 88.2915 281.44 88.0355 281.664C87.8115 281.888 87.5235 282 87.1715 282H81.2195ZM103.016 282C102.664 282 102.376 281.888 102.152 281.664C101.928 281.44 101.816 281.152 101.816 280.8V258.24C101.816 257.888 101.928 257.6 102.152 257.376C102.376 257.152 102.664 257.04 103.016 257.04H108.68C109 257.04 109.272 257.152 109.496 257.376C109.752 257.6 109.88 257.888 109.88 258.24V280.8C109.88 281.152 109.752 281.44 109.496 281.664C109.272 281.888 109 282 108.68 282H103.016ZM102.968 253.44C102.616 253.44 102.328 253.328 102.104 253.104C101.88 252.88 101.768 252.592 101.768 252.24V247.968C101.768 247.616 101.88 247.328 102.104 247.104C102.328 246.848 102.616 246.72 102.968 246.72H108.68C109.032 246.72 109.32 246.848 109.544 247.104C109.8 247.328 109.928 247.616 109.928 247.968V252.24C109.928 252.592 109.8 252.88 109.544 253.104C109.32 253.328 109.032 253.44 108.68 253.44H102.968ZM118.204 291.12C117.852 291.12 117.564 291.008 117.34 290.784C117.116 290.56 117.004 290.272 117.004 289.92V258.24C117.004 257.888 117.116 257.6 117.34 257.376C117.564 257.152 117.852 257.04 118.204 257.04H123.628C123.948 257.04 124.22 257.152 124.444 257.376C124.7 257.6 124.828 257.888 124.828 258.24V260.016C125.564 259.024 126.54 258.208 127.756 257.568C128.972 256.896 130.476 256.56 132.268 256.56C133.868 256.56 135.276 256.816 136.492 257.328C137.708 257.808 138.748 258.528 139.612 259.488C140.476 260.448 141.148 261.616 141.628 262.992C142.14 264.368 142.428 265.952 142.492 267.744C142.524 268.384 142.54 268.976 142.54 269.52C142.54 270.064 142.524 270.656 142.492 271.296C142.428 273.024 142.156 274.576 141.676 275.952C141.196 277.328 140.524 278.496 139.66 279.456C138.796 280.416 137.74 281.168 136.492 281.712C135.276 282.224 133.868 282.48 132.268 282.48C130.7 282.48 129.324 282.208 128.14 281.664C126.988 281.088 126.028 280.288 125.26 279.264V289.92C125.26 290.272 125.148 290.56 124.924 290.784C124.7 291.008 124.412 291.12 124.06 291.12H118.204ZM129.676 276.048C130.764 276.048 131.612 275.824 132.22 275.376C132.828 274.928 133.26 274.32 133.516 273.552C133.804 272.784 133.98 271.936 134.044 271.008C134.108 270.016 134.108 269.024 134.044 268.032C133.98 267.104 133.804 266.256 133.516 265.488C133.26 264.72 132.828 264.112 132.22 263.664C131.612 263.216 130.764 262.992 129.676 262.992C128.62 262.992 127.772 263.232 127.132 263.712C126.492 264.16 126.028 264.752 125.74 265.488C125.452 266.224 125.292 267.024 125.26 267.888C125.228 268.496 125.212 269.088 125.212 269.664C125.212 270.24 125.228 270.848 125.26 271.488C125.292 272.288 125.468 273.04 125.788 273.744C126.108 274.416 126.588 274.976 127.228 275.424C127.868 275.84 128.684 276.048 129.676 276.048ZM158.805 282.48C155.029 282.48 152.021 281.456 149.781 279.408C147.541 277.36 146.373 274.32 146.277 270.288C146.277 270.064 146.277 269.776 146.277 269.424C146.277 269.072 146.277 268.8 146.277 268.608C146.373 266.08 146.933 263.92 147.957 262.128C149.013 260.304 150.453 258.928 152.277 258C154.133 257.04 156.293 256.56 158.757 256.56C161.573 256.56 163.893 257.12 165.717 258.24C167.573 259.36 168.965 260.88 169.893 262.8C170.821 264.72 171.285 266.912 171.285 269.376V270.528C171.285 270.88 171.157 271.168 170.901 271.392C170.677 271.616 170.405 271.728 170.085 271.728H154.725C154.725 271.76 154.725 271.808 154.725 271.872C154.725 271.936 154.725 272 154.725 272.064C154.757 272.992 154.917 273.84 155.205 274.608C155.493 275.376 155.941 275.984 156.549 276.432C157.157 276.88 157.893 277.104 158.757 277.104C159.397 277.104 159.925 277.008 160.341 276.816C160.789 276.592 161.157 276.352 161.445 276.096C161.733 275.808 161.957 275.568 162.117 275.376C162.405 275.056 162.629 274.864 162.789 274.8C162.981 274.704 163.269 274.656 163.653 274.656H169.605C169.925 274.656 170.181 274.752 170.373 274.944C170.597 275.104 170.693 275.344 170.661 275.664C170.629 276.208 170.357 276.864 169.845 277.632C169.333 278.4 168.581 279.168 167.589 279.936C166.629 280.672 165.413 281.28 163.941 281.76C162.469 282.24 160.757 282.48 158.805 282.48ZM154.725 266.976H162.837V266.88C162.837 265.856 162.677 264.96 162.357 264.192C162.069 263.424 161.605 262.832 160.965 262.416C160.357 262 159.621 261.792 158.757 261.792C157.893 261.792 157.157 262 156.549 262.416C155.973 262.832 155.525 263.424 155.205 264.192C154.885 264.96 154.725 265.856 154.725 266.88V266.976ZM185.097 282.48C183.561 282.48 182.169 282.24 180.921 281.76C179.705 281.248 178.649 280.512 177.753 279.552C176.889 278.56 176.217 277.376 175.737 276C175.257 274.592 174.985 272.992 174.921 271.2C174.889 270.56 174.873 270 174.873 269.52C174.873 269.008 174.889 268.448 174.921 267.84C174.985 266.112 175.257 264.56 175.737 263.184C176.217 261.808 176.889 260.624 177.753 259.632C178.617 258.64 179.673 257.888 180.921 257.376C182.169 256.832 183.561 256.56 185.097 256.56C186.697 256.56 188.073 256.832 189.225 257.376C190.377 257.888 191.353 258.56 192.153 259.392V249.12C192.153 248.768 192.265 248.48 192.489 248.256C192.713 248.032 193.001 247.92 193.353 247.92H199.209C199.529 247.92 199.801 248.032 200.025 248.256C200.281 248.48 200.409 248.768 200.409 249.12V280.8C200.409 281.152 200.281 281.44 200.025 281.664C199.801 281.888 199.529 282 199.209 282H193.785C193.433 282 193.145 281.888 192.921 281.664C192.697 281.44 192.585 281.152 192.585 280.8V279.264C191.817 280.192 190.825 280.96 189.609 281.568C188.393 282.176 186.889 282.48 185.097 282.48ZM187.689 276.048C188.777 276.048 189.625 275.824 190.233 275.376C190.873 274.896 191.337 274.288 191.625 273.552C191.945 272.816 192.121 272.016 192.153 271.152C192.185 270.512 192.201 269.904 192.201 269.328C192.201 268.752 192.185 268.16 192.153 267.552C192.121 266.752 191.945 266.016 191.625 265.344C191.305 264.64 190.825 264.08 190.185 263.664C189.545 263.216 188.713 262.992 187.689 262.992C186.633 262.992 185.785 263.216 185.145 263.664C184.537 264.112 184.105 264.72 183.849 265.488C183.593 266.256 183.433 267.104 183.369 268.032C183.273 269.024 183.273 270.016 183.369 271.008C183.433 271.936 183.593 272.784 183.849 273.552C184.105 274.32 184.537 274.928 185.145 275.376C185.785 275.824 186.633 276.048 187.689 276.048Z" fill="black"/>
<g clip-path="url(#clip0_997_18995)">
<path d="M34 33V65H194V33H34ZM34 97V129H194V97H34ZM34 161V193H194V161H34Z" fill="white"/>
</g>
<defs>
<clipPath id="clip0_997_18995">
<rect width="160" height="160" fill="white" transform="translate(34 33)"/>
</clipPath>
</defs>
</svg>
