<svg width="227" height="294" viewBox="0 0 227 294" fill="none" xmlns="http://www.w3.org/2000/svg">
<path d="M20.888 282.48C17.688 282.48 15.032 282.032 12.92 281.136C10.808 280.208 9.208 279.008 8.12 277.536C7.032 276.064 6.456 274.496 6.392 272.832C6.392 272.576 6.488 272.352 6.68 272.16C6.904 271.936 7.16 271.824 7.448 271.824H13.496C13.944 271.824 14.28 271.904 14.504 272.064C14.76 272.224 14.984 272.432 15.176 272.688C15.432 273.168 15.784 273.632 16.232 274.08C16.712 274.528 17.32 274.896 18.056 275.184C18.824 275.44 19.768 275.568 20.888 275.568C22.744 275.568 24.136 275.28 25.064 274.704C26.024 274.128 26.504 273.344 26.504 272.352C26.504 271.648 26.248 271.072 25.736 270.624C25.224 270.144 24.392 269.728 23.24 269.376C22.12 268.992 20.616 268.608 18.728 268.224C16.296 267.712 14.216 267.056 12.488 266.256C10.792 265.424 9.496 264.352 8.6 263.04C7.704 261.696 7.256 260.032 7.256 258.048C7.256 256.096 7.8 254.352 8.888 252.816C10.008 251.28 11.56 250.08 13.544 249.216C15.528 248.352 17.88 247.92 20.6 247.92C22.808 247.92 24.744 248.208 26.408 248.784C28.104 249.36 29.528 250.128 30.68 251.088C31.832 252.048 32.696 253.072 33.272 254.16C33.88 255.216 34.2 256.256 34.232 257.28C34.232 257.536 34.136 257.776 33.944 258C33.752 258.192 33.512 258.288 33.224 258.288H26.888C26.536 258.288 26.232 258.224 25.976 258.096C25.72 257.968 25.496 257.76 25.304 257.472C25.112 256.768 24.6 256.16 23.768 255.648C22.968 255.104 21.912 254.832 20.6 254.832C19.192 254.832 18.088 255.088 17.288 255.6C16.52 256.08 16.136 256.832 16.136 257.856C16.136 258.496 16.344 259.056 16.76 259.536C17.208 260.016 17.928 260.432 18.92 260.784C19.944 261.136 21.336 261.504 23.096 261.888C26.008 262.432 28.36 263.12 30.152 263.952C31.944 264.752 33.256 265.808 34.088 267.12C34.92 268.4 35.336 270.016 35.336 271.968C35.336 274.144 34.712 276.032 33.464 277.632C32.248 279.2 30.552 280.4 28.376 281.232C26.2 282.064 23.704 282.48 20.888 282.48ZM48.7812 282.48C46.9573 282.48 45.3253 282.064 43.8853 281.232C42.4773 280.4 41.3733 279.184 40.5733 277.584C39.7733 275.952 39.3733 273.968 39.3733 271.632V258.24C39.3733 257.888 39.4853 257.6 39.7093 257.376C39.9333 257.152 40.2213 257.04 40.5733 257.04H46.5733C46.9253 257.04 47.2133 257.152 47.4373 257.376C47.6613 257.6 47.7733 257.888 47.7733 258.24V271.344C47.7733 274.48 49.1813 276.048 51.9973 276.048C53.3093 276.048 54.3493 275.648 55.1173 274.848C55.9173 274.016 56.3173 272.848 56.3173 271.344V258.24C56.3173 257.888 56.4293 257.6 56.6533 257.376C56.8773 257.152 57.1653 257.04 57.5173 257.04H63.5173C63.8693 257.04 64.1573 257.152 64.3813 257.376C64.6053 257.6 64.7173 257.888 64.7173 258.24V280.8C64.7173 281.152 64.6053 281.44 64.3813 281.664C64.1573 281.888 63.8693 282 63.5173 282H57.9493C57.6293 282 57.3413 281.888 57.0853 281.664C56.8613 281.44 56.7493 281.152 56.7493 280.8V278.976C55.9173 280.128 54.8293 281.008 53.4853 281.616C52.1733 282.192 50.6053 282.48 48.7812 282.48ZM71.5633 291.12C71.2113 291.12 70.9233 291.008 70.6992 290.784C70.4753 290.56 70.3633 290.272 70.3633 289.92V258.24C70.3633 257.888 70.4753 257.6 70.6992 257.376C70.9233 257.152 71.2113 257.04 71.5633 257.04H76.9873C77.3073 257.04 77.5793 257.152 77.8033 257.376C78.0593 257.6 78.1873 257.888 78.1873 258.24V260.016C78.9233 259.024 79.8993 258.208 81.1153 257.568C82.3313 256.896 83.8353 256.56 85.6273 256.56C87.2273 256.56 88.6353 256.816 89.8513 257.328C91.0673 257.808 92.1073 258.528 92.9713 259.488C93.8353 260.448 94.5073 261.616 94.9873 262.992C95.4993 264.368 95.7873 265.952 95.8513 267.744C95.8833 268.384 95.8993 268.976 95.8993 269.52C95.8993 270.064 95.8833 270.656 95.8513 271.296C95.7873 273.024 95.5153 274.576 95.0353 275.952C94.5553 277.328 93.8833 278.496 93.0193 279.456C92.1553 280.416 91.0993 281.168 89.8513 281.712C88.6353 282.224 87.2273 282.48 85.6273 282.48C84.0593 282.48 82.6833 282.208 81.4993 281.664C80.3473 281.088 79.3873 280.288 78.6193 279.264V289.92C78.6193 290.272 78.5073 290.56 78.2833 290.784C78.0593 291.008 77.7713 291.12 77.4193 291.12H71.5633ZM83.0353 276.048C84.1233 276.048 84.9713 275.824 85.5793 275.376C86.1873 274.928 86.6193 274.32 86.8753 273.552C87.1633 272.784 87.3393 271.936 87.4033 271.008C87.4673 270.016 87.4673 269.024 87.4033 268.032C87.3393 267.104 87.1633 266.256 86.8753 265.488C86.6193 264.72 86.1873 264.112 85.5793 263.664C84.9713 263.216 84.1233 262.992 83.0353 262.992C81.9793 262.992 81.1313 263.232 80.4913 263.712C79.8513 264.16 79.3873 264.752 79.0993 265.488C78.8113 266.224 78.6513 267.024 78.6193 267.888C78.5873 268.496 78.5713 269.088 78.5713 269.664C78.5713 270.24 78.5873 270.848 78.6193 271.488C78.6513 272.288 78.8273 273.04 79.1473 273.744C79.4673 274.416 79.9473 274.976 80.5873 275.424C81.2273 275.84 82.0433 276.048 83.0353 276.048ZM101.845 282C101.493 282 101.205 281.888 100.98 281.664C100.757 281.44 100.645 281.152 100.645 280.8V258.24C100.645 257.92 100.757 257.648 100.98 257.424C101.205 257.168 101.493 257.04 101.845 257.04H107.365C107.717 257.04 108.005 257.168 108.229 257.424C108.453 257.648 108.565 257.92 108.565 258.24V260.16C109.429 259.168 110.453 258.4 111.637 257.856C112.853 257.312 114.213 257.04 115.717 257.04H117.829C118.149 257.04 118.421 257.152 118.645 257.376C118.901 257.6 119.029 257.888 119.029 258.24V263.184C119.029 263.504 118.901 263.792 118.645 264.048C118.421 264.272 118.149 264.384 117.829 264.384H113.173C111.861 264.384 110.837 264.752 110.101 265.488C109.397 266.192 109.045 267.2 109.045 268.512V280.8C109.045 281.152 108.917 281.44 108.661 281.664C108.437 281.888 108.149 282 107.797 282H101.845ZM123.641 282C123.289 282 123.001 281.888 122.777 281.664C122.553 281.44 122.441 281.152 122.441 280.8V258.24C122.441 257.888 122.553 257.6 122.777 257.376C123.001 257.152 123.289 257.04 123.641 257.04H129.305C129.625 257.04 129.897 257.152 130.121 257.376C130.377 257.6 130.505 257.888 130.505 258.24V280.8C130.505 281.152 130.377 281.44 130.121 281.664C129.897 281.888 129.625 282 129.305 282H123.641ZM123.593 253.44C123.241 253.44 122.953 253.328 122.729 253.104C122.505 252.88 122.393 252.592 122.393 252.24V247.968C122.393 247.616 122.505 247.328 122.729 247.104C122.953 246.848 123.241 246.72 123.593 246.72H129.305C129.657 246.72 129.945 246.848 130.169 247.104C130.425 247.328 130.553 247.616 130.553 247.968V252.24C130.553 252.592 130.425 252.88 130.169 253.104C129.945 253.328 129.657 253.44 129.305 253.44H123.593ZM147.292 282.48C145.212 282.48 143.436 282.256 141.964 281.808C140.524 281.328 139.34 280.752 138.412 280.08C137.516 279.408 136.844 278.72 136.396 278.016C135.948 277.28 135.708 276.656 135.676 276.144C135.644 275.792 135.756 275.504 136.012 275.28C136.268 275.024 136.54 274.896 136.828 274.896H142.3C142.396 274.896 142.476 274.912 142.54 274.944C142.604 274.976 142.7 275.04 142.828 275.136C143.244 275.36 143.66 275.648 144.076 276C144.492 276.32 144.972 276.608 145.516 276.864C146.06 277.12 146.716 277.248 147.484 277.248C148.38 277.248 149.132 277.072 149.74 276.72C150.348 276.368 150.652 275.84 150.652 275.136C150.652 274.624 150.508 274.208 150.22 273.888C149.932 273.536 149.34 273.2 148.444 272.88C147.58 272.56 146.268 272.24 144.508 271.92C142.844 271.536 141.388 271.04 140.14 270.432C138.892 269.792 137.932 268.976 137.26 267.984C136.588 266.96 136.252 265.728 136.252 264.288C136.252 263.008 136.668 261.776 137.5 260.592C138.332 259.408 139.548 258.448 141.148 257.712C142.748 256.944 144.716 256.56 147.052 256.56C148.908 256.56 150.508 256.784 151.852 257.232C153.228 257.648 154.38 258.192 155.308 258.864C156.268 259.536 156.988 260.224 157.468 260.928C157.948 261.632 158.204 262.272 158.236 262.848C158.268 263.168 158.172 263.456 157.948 263.712C157.724 263.936 157.468 264.048 157.18 264.048H152.188C152.06 264.048 151.932 264.032 151.804 264C151.676 263.936 151.564 263.872 151.468 263.808C151.084 263.616 150.7 263.36 150.316 263.04C149.932 262.72 149.484 262.432 148.972 262.176C148.46 261.92 147.82 261.792 147.052 261.792C146.188 261.792 145.516 261.984 145.036 262.368C144.556 262.752 144.316 263.248 144.316 263.856C144.316 264.272 144.444 264.656 144.7 265.008C144.988 265.36 145.548 265.68 146.38 265.968C147.244 266.256 148.572 266.576 150.364 266.928C152.572 267.28 154.332 267.856 155.644 268.656C156.956 269.424 157.884 270.336 158.427 271.392C158.972 272.416 159.244 273.504 159.244 274.656C159.244 276.192 158.78 277.552 157.852 278.736C156.956 279.92 155.612 280.848 153.82 281.52C152.028 282.16 149.852 282.48 147.292 282.48ZM175.071 282.48C171.295 282.48 168.287 281.456 166.047 279.408C163.807 277.36 162.639 274.32 162.543 270.288C162.543 270.064 162.543 269.776 162.543 269.424C162.543 269.072 162.543 268.8 162.543 268.608C162.639 266.08 163.199 263.92 164.223 262.128C165.279 260.304 166.719 258.928 168.543 258C170.399 257.04 172.559 256.56 175.023 256.56C177.839 256.56 180.159 257.12 181.983 258.24C183.839 259.36 185.231 260.88 186.159 262.8C187.087 264.72 187.551 266.912 187.551 269.376V270.528C187.551 270.88 187.423 271.168 187.167 271.392C186.943 271.616 186.671 271.728 186.351 271.728H170.991C170.991 271.76 170.991 271.808 170.991 271.872C170.991 271.936 170.991 272 170.991 272.064C171.023 272.992 171.183 273.84 171.471 274.608C171.759 275.376 172.207 275.984 172.815 276.432C173.423 276.88 174.159 277.104 175.023 277.104C175.663 277.104 176.191 277.008 176.607 276.816C177.055 276.592 177.423 276.352 177.711 276.096C177.999 275.808 178.223 275.568 178.383 275.376C178.671 275.056 178.895 274.864 179.055 274.8C179.247 274.704 179.535 274.656 179.919 274.656H185.871C186.191 274.656 186.447 274.752 186.639 274.944C186.863 275.104 186.959 275.344 186.927 275.664C186.895 276.208 186.623 276.864 186.111 277.632C185.599 278.4 184.847 279.168 183.855 279.936C182.895 280.672 181.679 281.28 180.207 281.76C178.735 282.24 177.023 282.48 175.071 282.48ZM170.991 266.976H179.103V266.88C179.103 265.856 178.943 264.96 178.623 264.192C178.335 263.424 177.871 262.832 177.231 262.416C176.623 262 175.887 261.792 175.023 261.792C174.159 261.792 173.423 262 172.815 262.416C172.239 262.832 171.791 263.424 171.471 264.192C171.151 264.96 170.991 265.856 170.991 266.88V266.976ZM201.363 282.48C199.827 282.48 198.435 282.24 197.187 281.76C195.971 281.248 194.915 280.512 194.019 279.552C193.155 278.56 192.483 277.376 192.003 276C191.523 274.592 191.251 272.992 191.187 271.2C191.155 270.56 191.139 270 191.139 269.52C191.139 269.008 191.155 268.448 191.187 267.84C191.251 266.112 191.523 264.56 192.003 263.184C192.483 261.808 193.155 260.624 194.019 259.632C194.883 258.64 195.939 257.888 197.187 257.376C198.435 256.832 199.827 256.56 201.363 256.56C202.963 256.56 204.339 256.832 205.491 257.376C206.643 257.888 207.619 258.56 208.419 259.392V249.12C208.419 248.768 208.531 248.48 208.755 248.256C208.979 248.032 209.267 247.92 209.619 247.92H215.475C215.795 247.92 216.067 248.032 216.291 248.256C216.547 248.48 216.675 248.768 216.675 249.12V280.8C216.675 281.152 216.547 281.44 216.291 281.664C216.067 281.888 215.795 282 215.475 282H210.051C209.699 282 209.411 281.888 209.187 281.664C208.963 281.44 208.851 281.152 208.851 280.8V279.264C208.083 280.192 207.091 280.96 205.875 281.568C204.659 282.176 203.155 282.48 201.363 282.48ZM203.955 276.048C205.043 276.048 205.891 275.824 206.499 275.376C207.139 274.896 207.603 274.288 207.891 273.552C208.211 272.816 208.387 272.016 208.419 271.152C208.451 270.512 208.467 269.904 208.467 269.328C208.467 268.752 208.451 268.16 208.419 267.552C208.387 266.752 208.211 266.016 207.891 265.344C207.571 264.64 207.091 264.08 206.451 263.664C205.811 263.216 204.979 262.992 203.955 262.992C202.899 262.992 202.051 263.216 201.411 263.664C200.803 264.112 200.371 264.72 200.115 265.488C199.859 266.256 199.699 267.104 199.635 268.032C199.539 269.024 199.539 270.016 199.635 271.008C199.699 271.936 199.859 272.784 200.115 273.552C200.371 274.32 200.803 274.928 201.411 275.376C202.051 275.824 202.899 276.048 203.955 276.048Z" fill="black"/>
<rect width="226.456" height="226.456" rx="13.5874" fill="#4F4F4F"/>
<path d="M26.8436 142.597C25.7188 141.977 25.7188 140.971 26.8436 140.351L96.0888 102.161C97.2135 101.541 99.0372 101.541 100.162 102.161L101.18 102.723C102.305 103.343 102.305 104.349 101.18 104.969L31.9352 143.159C30.8104 143.779 28.9867 143.779 27.8619 143.159L26.8436 142.597Z" fill="white"/>
<path d="M199.43 141.901C200.555 141.281 200.555 140.275 199.43 139.655L130.185 101.465C129.06 100.845 127.236 100.845 126.111 101.465L125.093 102.027C123.968 102.647 123.968 103.653 125.093 104.273L194.338 142.463C195.463 143.083 197.287 143.083 198.412 142.463L199.43 141.901Z" fill="white"/>
</svg>
