<svg width="175" height="43" viewBox="0 0 175 43" fill="none" xmlns="http://www.w3.org/2000/svg">
<path d="M0.843596 41.5973C-0.281199 40.977 -0.281199 39.9712 0.843597 39.3509L70.0888 1.16134C71.2135 0.540998 73.0372 0.540998 74.162 1.16134L75.1803 1.72295C76.3051 2.34328 76.3051 3.34905 75.1803 3.96939L5.93515 42.1589C4.81036 42.7792 2.9867 42.7792 1.86191 42.1589L0.843596 41.5973Z" fill="white"/>
<path d="M173.43 40.9012C174.555 40.2809 174.555 39.2751 173.43 38.6548L104.185 0.465253C103.06 -0.155084 101.236 -0.155084 100.111 0.465253L99.0932 1.02686C97.9684 1.6472 97.9684 2.65297 99.0932 3.27331L168.338 41.4628C169.463 42.0832 171.287 42.0832 172.412 41.4628L173.43 40.9012Z" fill="white"/>
</svg>
