<svg width="90" height="90" viewBox="0 0 90 90" fill="none" xmlns="http://www.w3.org/2000/svg">
<rect x="0.0" width="90" height="90" rx="13.5874" fill="#FFFFFF"/>
<path d="M52.5 75H13.125C11.6332 75 10.2024 74.4074 9.14752 73.3525C8.09263 72.2976 7.5 70.8668 7.5 69.375V20.625C7.5 19.1332 8.09263 17.7024 9.14752 16.6475C10.2024 15.5926 11.6332 15 13.125 15H76.875C78.3668 15 79.7976 15.5926 80.8525 16.6475C81.9074 17.7024 82.5 19.1332 82.5 20.625V43.2356M73.125 76.875V54.375M63.75 63.75L73.125 54.375L82.5 63.75" stroke="black" stroke-width="7.5" stroke-linecap="round" stroke-linejoin="round"/>
<path d="M7.5 20.625C7.5 19.1332 8.09263 17.7024 9.14752 16.6475C10.2024 15.5926 11.6332 15 13.125 15H76.875C78.3668 15 79.7976 15.5926 80.8525 16.6475C81.9074 17.7024 82.5 19.1332 82.5 20.625V37.5H7.5V20.625Z" stroke="black" stroke-width="7.5"/>
<path d="M15 26.25C15 24.1789 16.6789 22.5 18.75 22.5C20.8211 22.5 22.5 24.1789 22.5 26.25C22.5 28.3211 20.8211 30 18.75 30C16.6789 30 15 28.3211 15 26.25Z" fill="black"/>
<path d="M26.25 26.25C26.25 24.1789 27.9289 22.5 30 22.5C32.0711 22.5 33.75 24.1789 33.75 26.25C33.75 28.3211 32.0711 30 30 30C27.9289 30 26.25 28.3211 26.25 26.25Z" fill="black"/>
</svg>
