<svg width="90" height="90" viewBox="0 0 90 90" fill="none" xmlns="http://www.w3.org/2000/svg">
<rect x="0.0" width="90" height="90" rx="13.5874" fill="#FFFFFF"/>
<g clip-path="url(#clip0_1202_19115)">
<path d="M45 0C49.1309 0 53.1152 0.527344 56.9531 1.58203C60.791 2.63672 64.3799 4.14551 67.7197 6.1084C71.0596 8.07129 74.0918 10.415 76.8164 13.1396C79.541 15.8643 81.8848 18.9111 83.8477 22.2803C85.8105 25.6494 87.3193 29.2383 88.374 33.0469C89.4287 36.8555 89.9707 40.8398 90 45C90 49.1309 89.4727 53.1152 88.418 56.9531C87.3633 60.791 85.8545 64.3799 83.8916 67.7197C81.9287 71.0596 79.585 74.0918 76.8604 76.8164C74.1357 79.541 71.0889 81.8848 67.7197 83.8477C64.3506 85.8105 60.7617 87.3193 56.9531 88.374C53.1445 89.4287 49.1602 89.9707 45 90C40.8691 90 36.8848 89.4727 33.0469 88.418C29.209 87.3633 25.6201 85.8545 22.2803 83.8916C18.9404 81.9287 15.9082 79.585 13.1836 76.8604C10.459 74.1357 8.11523 71.0889 6.15234 67.7197C4.18945 64.3506 2.68066 60.7764 1.62598 56.9971C0.571289 53.2178 0.0292969 49.2188 0 45C0 40.8691 0.527344 36.8848 1.58203 33.0469C2.63672 29.209 4.14551 25.6201 6.1084 22.2803C8.07129 18.9404 10.415 15.9082 13.1396 13.1836C15.8643 10.459 18.9111 8.11523 22.2803 6.15234C25.6494 4.18945 29.2236 2.68066 33.0029 1.62598C36.7822 0.571289 40.7812 0.0292969 45 0ZM45 84.375C48.6035 84.375 52.0752 83.9063 55.415 82.9688C58.7549 82.0312 61.8896 80.7129 64.8193 79.0137C67.749 77.3145 70.415 75.249 72.8174 72.8174C75.2197 70.3857 77.2705 67.7344 78.9697 64.8633C80.6689 61.9922 82.002 58.8574 82.9688 55.459C83.9355 52.0605 84.4043 48.5742 84.375 45C84.375 41.3965 83.9063 37.9248 82.9688 34.585C82.0312 31.2451 80.7129 28.1104 79.0137 25.1807C77.3145 22.251 75.249 19.585 72.8174 17.1826C70.3857 14.7803 67.7344 12.7295 64.8633 11.0303C61.9922 9.33105 58.8574 7.99805 55.459 7.03125C52.0605 6.06445 48.5742 5.5957 45 5.625C41.3965 5.625 37.9248 6.09375 34.585 7.03125C31.2451 7.96875 28.1104 9.28711 25.1807 10.9863C22.251 12.6855 19.585 14.751 17.1826 17.1826C14.7803 19.6143 12.7295 22.2656 11.0303 25.1367C9.33105 28.0078 7.99805 31.1426 7.03125 34.541C6.06445 37.9395 5.5957 41.4258 5.625 45C5.625 48.6035 6.09375 52.0752 7.03125 55.415C7.96875 58.7549 9.28711 61.8896 10.9863 64.8193C12.6855 67.749 14.751 70.415 17.1826 72.8174C19.6143 75.2197 22.2656 77.2705 25.1367 78.9697C28.0078 80.6689 31.1426 82.002 34.541 82.9688C37.9395 83.9355 41.4258 84.4043 45 84.375ZM71.2354 45.7031L73.3447 39.375H76.6406L72.9053 50.625H69.6094L67.5 44.2969L65.3906 50.625H62.0947L58.3594 39.375H61.6553L63.7646 45.7031L65.874 39.375H69.126L71.2354 45.7031ZM50.8447 39.375H54.1406L50.4053 50.625H47.1094L45 44.2969L42.8906 50.625H39.5947L35.8594 39.375H39.1553L41.2646 45.7031L43.374 39.375H46.626L48.7354 45.7031L50.8447 39.375ZM28.3447 39.375H31.6406L27.9053 50.625H24.6094L22.5 44.2969L20.3906 50.625H17.0947L13.3594 39.375H16.6553L18.7646 45.7031L20.874 39.375H24.126L26.2354 45.7031L28.3447 39.375Z" fill="black"/>
</g>
<defs>
<clipPath id="clip0_1202_19115">
<rect width="90" height="90" fill="white"/>
</clipPath>
</defs>
</svg>
