<svg width="227" height="227" viewBox="0 0 227 227" fill="none" xmlns="http://www.w3.org/2000/svg">
<rect width="226.456" height="226.456" rx="13.5874" fill="#FFD95D"/>
<path d="M49.2 130C48.88 130 48.592 129.888 48.336 129.664C48.112 129.44 48 129.152 48 128.8V118.48L36.864 97.936C36.832 97.84 36.8 97.76 36.768 97.696C36.736 97.6 36.72 97.504 36.72 97.408C36.72 97.152 36.816 96.928 37.008 96.736C37.232 96.512 37.488 96.4 37.776 96.4H43.776C44.256 96.4 44.624 96.528 44.88 96.784C45.168 97.008 45.344 97.216 45.408 97.408L52.32 109.792L59.232 97.408C59.328 97.216 59.504 97.008 59.76 96.784C60.048 96.528 60.432 96.4 60.912 96.4H66.912C67.2 96.4 67.44 96.512 67.632 96.736C67.824 96.928 67.92 97.152 67.92 97.408C67.92 97.504 67.904 97.6 67.872 97.696C67.872 97.76 67.856 97.84 67.824 97.936L56.64 118.48V128.8C56.64 129.152 56.528 129.44 56.304 129.664C56.08 129.888 55.792 130 55.44 130H49.2ZM78.852 130.48C75.076 130.48 72.068 129.456 69.828 127.408C67.588 125.36 66.42 122.32 66.324 118.288C66.324 118.064 66.324 117.776 66.324 117.424C66.324 117.072 66.324 116.8 66.324 116.608C66.42 114.08 66.98 111.92 68.004 110.128C69.06 108.304 70.5 106.928 72.324 106C74.18 105.04 76.34 104.56 78.804 104.56C81.62 104.56 83.94 105.12 85.764 106.24C87.62 107.36 89.012 108.88 89.94 110.8C90.868 112.72 91.332 114.912 91.332 117.376V118.528C91.332 118.88 91.204 119.168 90.948 119.392C90.724 119.616 90.452 119.728 90.132 119.728H74.772C74.772 119.76 74.772 119.808 74.772 119.872C74.772 119.936 74.772 120 74.772 120.064C74.804 120.992 74.964 121.84 75.252 122.608C75.54 123.376 75.988 123.984 76.596 124.432C77.204 124.88 77.94 125.104 78.804 125.104C79.444 125.104 79.972 125.008 80.388 124.816C80.836 124.592 81.204 124.352 81.492 124.096C81.78 123.808 82.004 123.568 82.164 123.376C82.452 123.056 82.676 122.864 82.836 122.8C83.028 122.704 83.316 122.656 83.7 122.656H89.652C89.972 122.656 90.228 122.752 90.42 122.944C90.644 123.104 90.74 123.344 90.708 123.664C90.676 124.208 90.404 124.864 89.892 125.632C89.38 126.4 88.628 127.168 87.636 127.936C86.676 128.672 85.46 129.28 83.988 129.76C82.516 130.24 80.804 130.48 78.852 130.48ZM74.772 114.976H82.884V114.88C82.884 113.856 82.724 112.96 82.404 112.192C82.116 111.424 81.652 110.832 81.012 110.416C80.404 110 79.668 109.792 78.804 109.792C77.94 109.792 77.204 110 76.596 110.416C76.02 110.832 75.572 111.424 75.252 112.192C74.932 112.96 74.772 113.856 74.772 114.88V114.976ZM97.032 130C96.68 130 96.392 129.888 96.168 129.664C95.944 129.44 95.832 129.152 95.832 128.8V97.12C95.832 96.768 95.944 96.48 96.168 96.256C96.392 96.032 96.68 95.92 97.032 95.92H102.696C103.048 95.92 103.336 96.032 103.56 96.256C103.784 96.48 103.896 96.768 103.896 97.12V128.8C103.896 129.152 103.784 129.44 103.56 129.664C103.336 129.888 103.048 130 102.696 130H97.032ZM110.766 130C110.414 130 110.126 129.888 109.902 129.664C109.678 129.44 109.566 129.152 109.566 128.8V97.12C109.566 96.768 109.678 96.48 109.902 96.256C110.126 96.032 110.414 95.92 110.766 95.92H116.43C116.782 95.92 117.07 96.032 117.294 96.256C117.518 96.48 117.63 96.768 117.63 97.12V128.8C117.63 129.152 117.518 129.44 117.294 129.664C117.07 129.888 116.782 130 116.43 130H110.766ZM135.109 130.48C132.421 130.48 130.149 130.048 128.293 129.184C126.469 128.32 125.061 127.088 124.069 125.488C123.109 123.856 122.565 121.92 122.437 119.68C122.405 119.04 122.389 118.32 122.389 117.52C122.389 116.688 122.405 115.968 122.437 115.36C122.565 113.088 123.141 111.152 124.165 109.552C125.189 107.952 126.613 106.72 128.437 105.856C130.293 104.992 132.517 104.56 135.109 104.56C137.733 104.56 139.957 104.992 141.781 105.856C143.637 106.72 145.077 107.952 146.101 109.552C147.125 111.152 147.701 113.088 147.829 115.36C147.861 115.968 147.877 116.688 147.877 117.52C147.877 118.32 147.861 119.04 147.829 119.68C147.701 121.92 147.141 123.856 146.149 125.488C145.189 127.088 143.781 128.32 141.925 129.184C140.101 130.048 137.829 130.48 135.109 130.48ZM135.109 124.624C136.549 124.624 137.589 124.192 138.229 123.328C138.901 122.464 139.285 121.168 139.381 119.44C139.413 118.96 139.429 118.32 139.429 117.52C139.429 116.72 139.413 116.08 139.381 115.6C139.285 113.904 138.901 112.624 138.229 111.76C137.589 110.864 136.549 110.416 135.109 110.416C133.701 110.416 132.661 110.864 131.989 111.76C131.317 112.624 130.949 113.904 130.885 115.6C130.853 116.08 130.837 116.72 130.837 117.52C130.837 118.32 130.853 118.96 130.885 119.44C130.949 121.168 131.317 122.464 131.989 123.328C132.661 124.192 133.701 124.624 135.109 124.624ZM158.808 130C158.328 130 157.976 129.888 157.752 129.664C157.528 129.44 157.352 129.152 157.224 128.8L150.312 106.576C150.248 106.416 150.216 106.256 150.216 106.096C150.216 105.808 150.328 105.568 150.552 105.376C150.776 105.152 151.032 105.04 151.32 105.04H156.264C156.68 105.04 157 105.152 157.224 105.376C157.48 105.6 157.64 105.824 157.704 106.048L161.736 119.776L166.056 106.096C166.12 105.872 166.264 105.648 166.488 105.424C166.744 105.168 167.096 105.04 167.544 105.04H170.712C171.16 105.04 171.496 105.168 171.72 105.424C171.976 105.648 172.136 105.872 172.2 106.096L176.52 119.776L180.552 106.048C180.616 105.824 180.76 105.6 180.984 105.376C181.24 105.152 181.576 105.04 181.992 105.04H186.936C187.224 105.04 187.464 105.152 187.656 105.376C187.88 105.568 187.992 105.808 187.992 106.096C187.992 106.256 187.976 106.416 187.944 106.576L181.032 128.8C180.936 129.152 180.76 129.44 180.504 129.664C180.28 129.888 179.928 130 179.448 130H175.128C174.68 130 174.328 129.888 174.072 129.664C173.816 129.44 173.64 129.152 173.544 128.8L169.128 115.648L164.712 128.8C164.616 129.152 164.44 129.44 164.184 129.664C163.928 129.888 163.576 130 163.128 130H158.808Z" fill="black"/>
</svg>
